%TF.GenerationSoftware,Altium Limited,Altium Designer,22.1.2 (22)*%
G04 Layer_Color=32768*
%FSLAX45Y45*%
%MOMM*%
%TF.SameCoordinates,C5451D44-FA68-4CDD-92CA-08ED0B408621*%
%TF.FilePolarity,Positive*%
%TF.FileFunction,Other,Mechanical_15*%
%TF.Part,Single*%
G01*
G75*
%TA.AperFunction,NonConductor*%
%ADD81C,0.25000*%
%ADD103C,0.10000*%
%ADD105C,0.25400*%
%ADD107C,0.12700*%
%ADD220C,0.05000*%
D81*
X6600000Y5160000D02*
G03*
X6600000Y5160000I-430000J0D01*
G01*
X4480000Y3290000D02*
G03*
X4480000Y3290000I-430000J0D01*
G01*
X8105000Y600000D02*
G03*
X8105000Y600000I-430000J0D01*
G01*
X5280000D02*
G03*
X5280000Y600000I-430000J0D01*
G01*
X4080000D02*
G03*
X4080000Y600000I-430000J0D01*
G01*
X5590000Y4160000D02*
G03*
X5590000Y4160000I-430000J0D01*
G01*
X5610000Y6250000D02*
G03*
X5610000Y6250000I-430000J0D01*
G01*
D103*
X3765000Y7970000D02*
Y8060000D01*
X3720000Y8015000D02*
X3810000D01*
X4480000Y8540000D02*
X4580000D01*
X4530000Y8490000D02*
Y8590000D01*
X4547500Y8155000D02*
Y8250000D01*
X4500000Y8202500D02*
X4595000D01*
X5270000Y9400000D02*
Y9500000D01*
X5220000Y9450000D02*
X5320000D01*
X5270000Y9830000D02*
Y9930000D01*
X5220000Y9880000D02*
X5320000D01*
X8485000Y11277500D02*
X8575000D01*
X8530000Y11232500D02*
Y11322500D01*
X7990000Y12280000D02*
Y12380000D01*
X7940000Y12330000D02*
X8040000D01*
X8015000Y12000000D02*
X8105000D01*
X8060000Y11955000D02*
Y12045000D01*
X8265000Y11582500D02*
Y11682500D01*
X8215000Y11632500D02*
X8315000D01*
X8497500Y11987500D02*
X8587500D01*
X8542500Y11942500D02*
Y12032500D01*
X8274999Y10870000D02*
Y10970000D01*
X8225000Y10920000D02*
X8325000D01*
X8005000Y10550000D02*
X8095000D01*
X8050000Y10505000D02*
Y10595000D01*
X8958197Y9688199D02*
Y9783199D01*
X8910697Y9735699D02*
X9005697D01*
X8948197Y9433199D02*
Y9528199D01*
X8900697Y9480699D02*
X8995697D01*
X8978198Y9028199D02*
Y9128199D01*
X8928198Y9078199D02*
X9028198D01*
X7747500Y9607500D02*
X7842500D01*
X7795000Y9560000D02*
Y9655000D01*
X7707500Y9867500D02*
Y9957500D01*
X7662500Y9912500D02*
X7752500D01*
X7555000Y9907500D02*
Y9997500D01*
X7510000Y9952500D02*
X7600000D01*
X6520000Y9732500D02*
X6620000D01*
X6570000Y9682500D02*
Y9782500D01*
X6540000Y9402500D02*
Y9512492D01*
X6490000Y9457500D02*
X6590000D01*
X6460000Y9192500D02*
X6560000D01*
X6510000Y9142500D02*
Y9242500D01*
X7320000Y11352500D02*
X7410000D01*
X7365000Y11307500D02*
Y11397500D01*
X7230000Y11202500D02*
X7320000D01*
X7275000Y11157500D02*
Y11247500D01*
X7297500Y11027500D02*
X7397500D01*
X7347500Y10977500D02*
Y11077500D01*
X6522500Y11130000D02*
X6617500D01*
X6570000Y11082500D02*
Y11177500D01*
X6495000Y10975000D02*
Y11285000D01*
X6645000Y10975000D02*
Y11285000D01*
X6495000Y10975000D02*
X6645000D01*
X6495000Y11285000D02*
X6645000D01*
X6935000Y10412500D02*
X7035000D01*
X6985000Y10362500D02*
Y10462500D01*
X6730000Y11065000D02*
Y11155000D01*
X6685000Y11110000D02*
X6775000D01*
X6733912Y11683912D02*
X6801088Y11751088D01*
X6733913Y11751087D02*
X6801088Y11683912D01*
X6698912Y11503912D02*
X6766088Y11571088D01*
X6698913Y11571087D02*
X6766088Y11503912D01*
X6315680Y11498180D02*
X6379320Y11561820D01*
X6315680D02*
X6379320Y11498180D01*
X7802500Y12800000D02*
X7897500D01*
X7850000Y12752500D02*
Y12847501D01*
X7402500Y12800000D02*
X7497500D01*
X7450000Y12752500D02*
Y12847501D01*
X7027500Y12800000D02*
X7122500D01*
X7075000Y12752500D02*
Y12847501D01*
X6652500Y12800000D02*
X6747500D01*
X6700000Y12752500D02*
Y12847501D01*
X5996447Y11590799D02*
Y11680799D01*
X5951448Y11635799D02*
X6041447D01*
X6022500Y12525000D02*
X6122500D01*
X6072500Y12475000D02*
Y12575000D01*
X4911412Y12698588D02*
X4978587Y12631412D01*
X4911412D02*
X4978587Y12698588D01*
X4782365Y12608431D02*
X5001568Y12827635D01*
X4888431Y12502365D02*
X5107634Y12721569D01*
X4782365Y12608431D02*
X4888431Y12502365D01*
X5001568Y12827635D02*
X5107634Y12721569D01*
X4135000Y12495000D02*
X4230000D01*
X4182500Y12447500D02*
Y12542500D01*
X4447500Y12445000D02*
X4547500D01*
X4497500Y12395000D02*
Y12495000D01*
X4980000Y11800000D02*
X5070000D01*
X5025000Y11755000D02*
Y11845000D01*
X4775000Y11855000D02*
Y11945000D01*
X4730000Y11900000D02*
X4820000D01*
X4515000Y12147500D02*
Y12242500D01*
X4467500Y12195000D02*
X4562500D01*
X4257500Y12147500D02*
Y12242500D01*
X4210000Y12195000D02*
X4305000D01*
X4435000Y11992500D02*
Y12087500D01*
X4387500Y12040000D02*
X4482500D01*
X4005000Y12462500D02*
Y12562500D01*
X3955000Y12512500D02*
X4055000D01*
X2247500Y13027499D02*
Y13127499D01*
X2197500Y13077499D02*
X2297500D01*
X2072500Y12805000D02*
Y12895000D01*
X2027500Y12850000D02*
X2117499D01*
X1560000Y12765000D02*
Y12855000D01*
X1515000Y12810001D02*
X1605000D01*
X1815000Y12855000D02*
Y12955000D01*
X1765000Y12905000D02*
X1865000D01*
X1825000Y12565000D02*
Y12660000D01*
X1777500Y12612500D02*
X1872500D01*
X3435000Y12747500D02*
X3530000D01*
X3482500Y12700000D02*
Y12795000D01*
X3430000Y12467500D02*
X3525000D01*
X3477500Y12420000D02*
Y12515000D01*
X3325000Y12520000D02*
Y12610000D01*
X3280000Y12565000D02*
X3370000D01*
X2957500Y12490000D02*
X3057500D01*
X3007500Y12440000D02*
Y12540000D01*
X2962500Y12242500D02*
X3052500D01*
X3007500Y12197500D02*
Y12287500D01*
X2170000Y12107500D02*
Y12202500D01*
X2122500Y12155000D02*
X2217500D01*
X2015000Y11952500D02*
Y12047500D01*
X1967500Y12000000D02*
X2062500D01*
X2217500Y11880000D02*
Y11970000D01*
X2172500Y11925000D02*
X2262500D01*
X2402500Y11812500D02*
X2492500D01*
X2447500Y11767500D02*
Y11857500D01*
X2454600Y12059600D02*
X2554600D01*
X2504600Y12009600D02*
Y12109600D01*
X2505000Y12257500D02*
Y12352500D01*
X2457500Y12305000D02*
X2552500D01*
X2280000Y11492500D02*
X2370000D01*
X2325000Y11447500D02*
Y11537500D01*
X2215599Y11247800D02*
X2315599D01*
X2265599Y11197801D02*
Y11297801D01*
X2525000Y11047500D02*
X2620000D01*
X2572500Y11000000D02*
Y11095000D01*
X2540000Y10792500D02*
X2635000D01*
X2587500Y10745000D02*
Y10840000D01*
X2372500Y10950000D02*
Y11045000D01*
X2325000Y10997500D02*
X2420000D01*
X2117500Y10952500D02*
Y11047500D01*
X2070000Y11000000D02*
X2165000D01*
X1902500Y10700000D02*
Y10795000D01*
X1855000Y10747500D02*
X1950000D01*
X2080000Y10797500D02*
X2175000D01*
X2127500Y10750000D02*
Y10845000D01*
X2312500Y10730000D02*
X2402500D01*
X2357500Y10685000D02*
Y10775000D01*
X2282500Y10560000D02*
X2372500D01*
X2327500Y10515000D02*
Y10605000D01*
X2215000Y10312500D02*
X2315000D01*
X2265000Y10262500D02*
Y10362500D01*
X1900000Y10172500D02*
Y10267500D01*
X1852500Y10220000D02*
X1947500D01*
X1745000Y10145000D02*
X2055000D01*
X1745000Y10295000D02*
X2055000D01*
Y10145000D02*
Y10295000D01*
X1745000Y10145000D02*
Y10295000D01*
X2090000Y10067500D02*
X2180000D01*
X2135000Y10022500D02*
Y10112500D01*
X2412500Y10017500D02*
Y10112500D01*
X2365000Y10065000D02*
X2460000D01*
X4300000Y10530000D02*
Y10620000D01*
X4255000Y10575000D02*
X4345000D01*
X3949699Y10580800D02*
X4049699D01*
X3999699Y10530800D02*
Y10630800D01*
X3717500Y10535000D02*
Y10625000D01*
X3672500Y10580000D02*
X3762499D01*
X3515000Y10445000D02*
Y10540000D01*
X3467500Y10492500D02*
X3562500D01*
X4445000Y9795000D02*
Y9895000D01*
X4395000Y9845000D02*
X4495000D01*
X4427500Y10057500D02*
X4517500D01*
X4472500Y10012500D02*
Y10102500D01*
X3055000Y9957500D02*
Y10047500D01*
X3010000Y10002500D02*
X3100000D01*
X3125000Y9725000D02*
Y9820000D01*
X3077500Y9772500D02*
X3172500D01*
X3417500Y9860000D02*
X3517500D01*
X3467500Y9810000D02*
Y9910000D01*
X3487500Y10110000D02*
X3577500D01*
X3532500Y10065000D02*
Y10155000D01*
X3780000Y9752500D02*
Y9852500D01*
X3730000Y9802500D02*
X3830000D01*
X3980000Y9862500D02*
Y9962500D01*
X3930000Y9912500D02*
X4030000D01*
X4107500Y9790000D02*
X4202500D01*
X4155000Y9742500D02*
Y9837500D01*
X4720000Y10420000D02*
Y10520000D01*
X4670000Y10470000D02*
X4770000D01*
X5090000Y10492500D02*
Y10587500D01*
X5042500Y10540000D02*
X5137500D01*
X4935000Y10615000D02*
X5245000D01*
X4935000Y10465000D02*
X5245000D01*
X4935000D02*
Y10615000D01*
X5245000Y10465000D02*
Y10615000D01*
X5085000Y10327500D02*
Y10422500D01*
X5037500Y10375000D02*
X5132500D01*
X5087500Y10162500D02*
Y10257500D01*
X5040000Y10210000D02*
X5135000D01*
X4817500Y9942500D02*
Y10032500D01*
X4772500Y9987500D02*
X4862500D01*
X4922500Y9990000D02*
X5017500D01*
X4970000Y9942500D02*
Y10037500D01*
X4932500Y9670000D02*
X5027500D01*
X4980000Y9622500D02*
Y9717500D01*
X5520000Y9725000D02*
Y9815000D01*
X5475000Y9770000D02*
X5565000D01*
X5295000Y9160000D02*
X5385000D01*
X5340000Y9115000D02*
Y9205000D01*
X4922500Y9200000D02*
X5017500D01*
X4970000Y9152500D02*
Y9247500D01*
X4815000Y9155000D02*
Y9245000D01*
X4770000Y9200000D02*
X4860000D01*
X3967500Y9327500D02*
X4062500D01*
X4015000Y9280000D02*
Y9375000D01*
X4117500Y9330000D02*
X4212500D01*
X4165000Y9282500D02*
Y9377500D01*
X4452500Y9380000D02*
Y9475000D01*
X4405000Y9427500D02*
X4500000D01*
X4365000Y9230000D02*
Y9325000D01*
X4317500Y9277500D02*
X4412500D01*
X4127500Y9032500D02*
X4227500D01*
X4177500Y8982500D02*
Y9082500D01*
X3992500Y8787500D02*
X4082500D01*
X4037500Y8742500D02*
Y8832500D01*
X3140000Y9482500D02*
X3235000D01*
X3187500Y9435000D02*
Y9530000D01*
X3457500Y9360000D02*
X3547500D01*
X3502500Y9315000D02*
Y9405000D01*
X3675000Y8982500D02*
X3770000D01*
X3722500Y8935000D02*
Y9030000D01*
X3386900Y9113300D02*
X3486900D01*
X3436900Y9063300D02*
Y9163300D01*
X3237500Y8822500D02*
Y8917500D01*
X3190000Y8870000D02*
X3285000D01*
X3110000Y8670000D02*
Y8765000D01*
X3062500Y8717500D02*
X3157500D01*
X3360000Y8670000D02*
Y8765000D01*
X3312500Y8717500D02*
X3407500D01*
X2824671Y8728515D02*
Y8818515D01*
X2779671Y8773515D02*
X2869671D01*
X2802500Y9457500D02*
X2892500D01*
X2847500Y9412500D02*
Y9502500D01*
X2370000Y9492500D02*
Y9592500D01*
X2320000Y9542500D02*
X2420000D01*
X2122500Y9552501D02*
Y9642500D01*
X2077500Y9597500D02*
X2167500D01*
X2300000Y9212500D02*
X2400000D01*
X2350000Y9162500D02*
Y9262500D01*
X2310000Y9022500D02*
X2400000D01*
X2355000Y8977500D02*
Y9067500D01*
X2347500Y8822500D02*
Y8917500D01*
X2300000Y8870000D02*
X2395000D01*
X2487171Y8558515D02*
X2587171D01*
X2537171Y8508515D02*
Y8608515D01*
X2252171Y8426015D02*
Y8516015D01*
X2207171Y8471015D02*
X2297171D01*
X3367500Y8382500D02*
Y8472500D01*
X3322500Y8427500D02*
X3412500D01*
X3315000Y8130000D02*
Y8230000D01*
X3265000Y8180000D02*
X3365000D01*
X2927500Y8357500D02*
Y8452500D01*
X2880000Y8405000D02*
X2975000D01*
X2933495Y8101743D02*
Y8196743D01*
X2885995Y8149243D02*
X2980995D01*
X2908495Y7949243D02*
Y8044243D01*
X2860995Y7996743D02*
X2955995D01*
X3120000Y7930000D02*
X3215000D01*
X3167500Y7882500D02*
Y7977500D01*
X2523495Y8009243D02*
X2623495D01*
X2573495Y7959243D02*
Y8059243D01*
X2288495Y7989243D02*
Y8079243D01*
X2243495Y8034243D02*
X2333495D01*
X2135995Y7779243D02*
X2235995D01*
X2185995Y7729243D02*
Y7829243D01*
X2012408Y7530331D02*
X2079583Y7463156D01*
X2012407D02*
X2079583Y7530331D01*
X1989427Y7334109D02*
X2208630Y7553312D01*
X1883360Y7440175D02*
X2102564Y7659378D01*
X2208630Y7553312D01*
X1883360Y7440175D02*
X1989427Y7334109D01*
X2538495Y7709243D02*
X2633495D01*
X2585995Y7661743D02*
Y7756743D01*
X2688495Y7451743D02*
X2783495D01*
X2735995Y7404243D02*
Y7499243D01*
X2538495Y7451743D02*
X2633495D01*
X2585995Y7404243D02*
Y7499243D01*
X2388495Y7451743D02*
X2483495D01*
X2435995Y7404243D02*
Y7499243D01*
X550000Y11890000D02*
X650000D01*
X600000Y11840000D02*
Y11940000D01*
X550000Y11690000D02*
X650000D01*
X600000Y11640000D02*
Y11740000D01*
X450000Y11230000D02*
Y11330000D01*
X400000Y11280000D02*
X500000D01*
X120000Y10980000D02*
X780000D01*
X120000Y11580000D02*
X780000D01*
Y10980000D02*
Y11580000D01*
X120000Y10980000D02*
Y11580000D01*
X902500Y10357500D02*
X992500D01*
X947500Y10312500D02*
Y10402500D01*
X862500Y10655000D02*
Y10755000D01*
X812500Y10705000D02*
X912500D01*
X242500Y10422500D02*
Y10522500D01*
X192500Y10472500D02*
X292500D01*
X445000Y10422500D02*
Y10522500D01*
X395000Y10472500D02*
X495000D01*
X627500Y10237500D02*
Y10327500D01*
X582500Y10282500D02*
X672500D01*
X812500Y10062500D02*
Y10162500D01*
X762500Y10112500D02*
X862500D01*
X627500Y9935000D02*
Y10025000D01*
X582500Y9980000D02*
X672500D01*
X382500Y9910000D02*
X482500D01*
X432500Y9860000D02*
Y9960000D01*
X735000Y9767500D02*
X830000D01*
X782500Y9720000D02*
Y9815000D01*
X885000Y9785000D02*
X980000D01*
X932500Y9737500D02*
Y9832500D01*
X1082500Y9750000D02*
Y9840000D01*
X1037500Y9795000D02*
X1127500D01*
X1045000Y8030000D02*
X1145000D01*
X1095000Y7980000D02*
Y8080000D01*
X842500Y7660000D02*
X942500D01*
X892500Y7610000D02*
Y7710000D01*
X8110000Y8622500D02*
Y8717500D01*
X8062500Y8670000D02*
X8157500D01*
X7540000Y8620000D02*
Y8715000D01*
X7492500Y8667500D02*
X7587500D01*
X7090000Y8617500D02*
Y8712500D01*
X7042500Y8665000D02*
X7137500D01*
X7100000Y8150000D02*
Y8250000D01*
X7050000Y8200000D02*
X7150000D01*
X7600000Y8150000D02*
Y8250000D01*
X7550000Y8200000D02*
X7650000D01*
X8100000Y8150000D02*
Y8250000D01*
X8050000Y8200000D02*
X8150000D01*
X8600000Y8150000D02*
Y8250000D01*
X8550000Y8200000D02*
X8650000D01*
X8950000Y8477500D02*
Y8572500D01*
X8902500Y8525000D02*
X8997500D01*
X8700000Y7600000D02*
Y7700000D01*
X8650000Y7650000D02*
X8750000D01*
X8477500Y7675000D02*
X8572500D01*
X8525000Y7627500D02*
Y7722500D01*
X8200000Y7600000D02*
Y7700000D01*
X8150000Y7650000D02*
X8250000D01*
X7977500Y7675000D02*
X8072500D01*
X8025000Y7627500D02*
Y7722500D01*
X7700000Y7600000D02*
Y7700000D01*
X7650000Y7650000D02*
X7750000D01*
X7452500Y7675000D02*
X7547500D01*
X7500000Y7627500D02*
Y7722500D01*
X7200000Y7600000D02*
Y7700000D01*
X7150000Y7650000D02*
X7250000D01*
X6952500Y7675000D02*
X7047500D01*
X7000000Y7627500D02*
Y7722500D01*
X6685000Y8240000D02*
Y8335000D01*
X6637500Y8287500D02*
X6732500D01*
X6087500Y7890000D02*
Y7985000D01*
X6040000Y7937500D02*
X6135000D01*
X6107500Y8430000D02*
X6207500D01*
X6157500Y8379999D02*
Y8480000D01*
X5802500Y8467500D02*
Y8557500D01*
X5757500Y8512500D02*
X5847500D01*
X5442500Y8757500D02*
Y8852500D01*
X5395000Y8805000D02*
X5490000D01*
X5552500Y8392500D02*
Y8482500D01*
X5507500Y8437500D02*
X5597500D01*
X5290000Y8405000D02*
Y8505000D01*
X5240000Y8455000D02*
X5340000D01*
X5210000Y8055000D02*
Y8150000D01*
X5162500Y8102500D02*
X5257500D01*
X4977500Y8427500D02*
X5072500D01*
X5025000Y8380000D02*
Y8475000D01*
X4850000Y8292500D02*
Y8392500D01*
X4800000Y8342500D02*
X4900000D01*
X3902500Y8220000D02*
Y8320000D01*
X3852500Y8270000D02*
X3952500D01*
X4207500Y8427500D02*
Y8517500D01*
X4162500Y8472500D02*
X4252500D01*
X4345000Y8200000D02*
Y8295000D01*
X4297500Y8247500D02*
X4392500D01*
X4802500Y7885000D02*
Y7975000D01*
X4757500Y7930000D02*
X4847500D01*
X4232500Y8095000D02*
X4322500D01*
X4277500Y8050000D02*
Y8140000D01*
X4382500Y7647500D02*
X4482500D01*
X4432500Y7597500D02*
Y7697500D01*
X5110000Y7652500D02*
X5210000D01*
X5160000Y7602500D02*
Y7702500D01*
X5072500Y7145000D02*
X5167500D01*
X5120000Y7097500D02*
Y7192500D01*
X4922500Y7145000D02*
X5017500D01*
X4970000Y7097500D02*
Y7192500D01*
X4800000Y7355000D02*
Y7445000D01*
X4755000Y7400000D02*
X4845000D01*
X4315000Y7147500D02*
X4410000D01*
X4362500Y7100000D02*
Y7195000D01*
X4075000Y7355000D02*
Y7445000D01*
X4030000Y7400000D02*
X4120000D01*
X2770000Y6630000D02*
X2860000D01*
X2815000Y6585000D02*
Y6675000D01*
X3160000Y6220000D02*
Y6320000D01*
X3110000Y6270000D02*
X3210000D01*
X3262500Y6897500D02*
X3362500D01*
X3312500Y6847500D02*
Y6947500D01*
X3347500Y6580000D02*
Y6670000D01*
X3302500Y6625000D02*
X3392500D01*
X3360000Y5862500D02*
Y5957500D01*
X3312500Y5910000D02*
X3407500D01*
X4322500Y6410000D02*
X4417500D01*
X4370000Y6362500D02*
Y6457500D01*
X4165000Y6407500D02*
X4260000D01*
X4212500Y6360000D02*
Y6455000D01*
X4015000Y6407500D02*
X4110000D01*
X4062500Y6360000D02*
Y6455000D01*
X3865000Y6407500D02*
X3960000D01*
X3912500Y6360000D02*
Y6455000D01*
X4180000Y5455001D02*
Y5555000D01*
X4130000Y5505000D02*
X4230000D01*
X4505000Y5455001D02*
Y5555000D01*
X4455000Y5505000D02*
X4555000D01*
X4830000Y5455001D02*
Y5555000D01*
X4780000Y5505000D02*
X4880000D01*
X5155000Y5455001D02*
Y5555000D01*
X5105000Y5505000D02*
X5205000D01*
X5480000Y5455001D02*
Y5555000D01*
X5430000Y5505000D02*
X5530000D01*
X5750000Y4675000D02*
Y4765000D01*
X5705000Y4720000D02*
X5795000D01*
X5485000Y4845001D02*
Y4945001D01*
X5435000Y4895001D02*
X5535000D01*
X5160000Y4845001D02*
Y4945001D01*
X5110000Y4895001D02*
X5210000D01*
X4835000Y4845001D02*
Y4945001D01*
X4785000Y4895001D02*
X4885000D01*
X4510000Y4845001D02*
Y4945001D01*
X4460000Y4895001D02*
X4560000D01*
X4185000Y4845001D02*
Y4945001D01*
X4135000Y4895001D02*
X4235000D01*
X3895000Y4980000D02*
X3985000D01*
X3940000Y4935000D02*
Y5025000D01*
X3810000Y5144500D02*
Y5587000D01*
X3470000D02*
X3810000D01*
X3470000Y5144500D02*
Y5587000D01*
Y5144500D02*
X3810000D01*
X3450000D02*
Y5587000D01*
X3110000D02*
X3450000D01*
X3110000Y5144500D02*
Y5587000D01*
Y5144500D02*
X3450000D01*
Y4650000D02*
Y5092500D01*
X3110000D02*
X3450000D01*
X3110000Y4650000D02*
Y5092500D01*
Y4650000D02*
X3450000D01*
X3810000D02*
Y5092500D01*
X3470000D02*
X3810000D01*
X3470000Y4650000D02*
Y5092500D01*
Y4650000D02*
X3810000D01*
X1880000Y4110000D02*
X1980000D01*
X1930000Y4060000D02*
Y4160000D01*
X975000Y2500000D02*
X1075000D01*
X1025000Y2450000D02*
Y2550000D01*
Y2200000D02*
Y2300000D01*
X975000Y2250000D02*
X1075000D01*
X790000Y2135000D02*
X1260000D01*
X790000Y2365000D02*
X1260000D01*
Y2135000D02*
Y2365000D01*
X790000Y2135000D02*
Y2365000D01*
X1035000Y2000000D02*
X1135000D01*
X1085000Y1950000D02*
Y2050000D01*
X600000Y2000000D02*
X700000D01*
X650000Y1950000D02*
Y2050000D01*
X3605000Y2245000D02*
Y2345000D01*
X3555000Y2295000D02*
X3655000D01*
X3600000Y1545000D02*
Y1645000D01*
X3550000Y1595000D02*
X3650000D01*
X3172500Y4250000D02*
X3267500D01*
X3220000Y4202500D02*
Y4297500D01*
X3760000Y4210000D02*
X3860000D01*
X3810000Y4160000D02*
Y4260000D01*
X3760000Y3980000D02*
X3860000D01*
X3810000Y3930000D02*
Y4030000D01*
X6080000Y3980000D02*
X6180000D01*
X6130000Y3930000D02*
Y4030000D01*
X7755000Y5415000D02*
Y5515000D01*
X7705000Y5465000D02*
X7805000D01*
X7520000Y5580000D02*
X7990000D01*
X7520000Y5350000D02*
X7990000D01*
X7520000D02*
Y5580000D01*
X7990000Y5350000D02*
Y5580000D01*
X7530000Y5205000D02*
Y5300000D01*
X7482500Y5252500D02*
X7577500D01*
X7752500Y5107500D02*
Y5197500D01*
X7707500Y5152500D02*
X7797500D01*
X7930000Y5115000D02*
Y5215000D01*
X7880000Y5165000D02*
X7980000D01*
X8240000Y5267500D02*
X8340000D01*
X8290000Y5217500D02*
Y5317500D01*
X8545000Y4992500D02*
Y5542500D01*
X8035000Y4992500D02*
Y5542500D01*
X8545000D01*
X8035000Y4992500D02*
X8545000D01*
X7722500Y4397500D02*
X7812500D01*
X7767500Y4352500D02*
Y4442500D01*
X7617500Y4535000D02*
Y4635000D01*
X7567500Y4585000D02*
X7667500D01*
X8442500Y4132500D02*
X8542500D01*
X8492500Y4082500D02*
Y4182500D01*
X8022500Y4367500D02*
X8112500D01*
X8067500Y4322500D02*
Y4412500D01*
X7856140Y4183980D02*
X7956140D01*
X7906140Y4133980D02*
Y4233980D01*
X8137520Y4029640D02*
Y4119640D01*
X8092520Y4074640D02*
X8182520D01*
X7665000Y2782500D02*
X8945000D01*
X7665000D02*
Y3362500D01*
X8945000D01*
Y2782500D02*
Y3362500D01*
X9150000Y2325000D02*
X9250000D01*
X9200000Y2275000D02*
Y2375000D01*
X9395000Y1940000D02*
Y2710000D01*
X9005000Y1940000D02*
Y2710000D01*
X9395000D01*
X9005000Y1940000D02*
X9395000D01*
X8600000Y2350000D02*
X8700000D01*
X8650000Y2300000D02*
Y2400000D01*
X8845000Y1965000D02*
Y2735000D01*
X8455000Y1965000D02*
Y2735000D01*
X8845000D01*
X8455000Y1965000D02*
X8845000D01*
X8177500Y2350000D02*
X8277500D01*
X8227500Y2300000D02*
Y2400000D01*
X8422500Y1965000D02*
Y2735000D01*
X8032500Y1965000D02*
Y2735000D01*
X8422500D01*
X8032500Y1965000D02*
X8422500D01*
X7755000Y2352500D02*
X7855000D01*
X7805000Y2302500D02*
Y2402500D01*
X7610000Y1967500D02*
Y2737500D01*
X8000000Y1967500D02*
Y2737500D01*
X7610000Y1967500D02*
X8000000D01*
X7610000Y2737500D02*
X8000000D01*
X7375000Y2275000D02*
Y2375000D01*
X7325000Y2325000D02*
X7425000D01*
X6650000Y13175000D02*
X6750000D01*
X6700000Y13125000D02*
Y13225000D01*
X6815000Y12939999D02*
Y13410001D01*
X6585000Y12939999D02*
Y13410001D01*
X6815000D01*
X6585000Y12939999D02*
X6815000D01*
X7025000Y13175000D02*
X7125000D01*
X7075000Y13125000D02*
Y13225000D01*
X7190000Y12939999D02*
Y13410001D01*
X6960000Y12939999D02*
Y13410001D01*
X7190000D01*
X6960000Y12939999D02*
X7190000D01*
X7400000Y13175000D02*
X7500000D01*
X7450000Y13125000D02*
Y13225000D01*
X7565000Y12939999D02*
Y13410001D01*
X7335000Y12939999D02*
Y13410001D01*
X7565000D01*
X7335000Y12939999D02*
X7565000D01*
X7800000Y13175000D02*
X7900000D01*
X7850000Y13125000D02*
Y13225000D01*
X7965000Y12939999D02*
Y13410001D01*
X7735000Y12939999D02*
Y13410001D01*
X7965000D01*
X7735000Y12939999D02*
X7965000D01*
X475000Y1600000D02*
Y1700000D01*
X425000Y1650000D02*
X525000D01*
X8809520Y1673860D02*
X8909520D01*
X8859520Y1623860D02*
Y1723860D01*
X6617500Y537500D02*
Y637500D01*
X6567500Y587500D02*
X6667500D01*
X5917500Y537500D02*
Y637500D01*
X5867500Y587500D02*
X5967500D01*
X3895000Y5410000D02*
X3985000D01*
X3940000Y5365000D02*
Y5455000D01*
X3310000Y3960000D02*
Y4060000D01*
X3260000Y4010000D02*
X3360000D01*
X4005000Y12122500D02*
Y12222500D01*
X3955000Y12172500D02*
X4055000D01*
X8660000Y5205000D02*
X8760000D01*
X8710000Y5155000D02*
Y5255000D01*
X8217500Y4560000D02*
Y4660000D01*
X8167500Y4610000D02*
X8267500D01*
X7626140Y3901481D02*
Y3991480D01*
X7581140Y3946481D02*
X7671140D01*
X7562500Y4097500D02*
X7657500D01*
X7610000Y4050000D02*
Y4145000D01*
X7542500Y4247500D02*
X7637500D01*
X7590000Y4200000D02*
Y4295000D01*
X415000Y7610000D02*
Y7710000D01*
X365000Y7660000D02*
X465000D01*
X62500Y8690000D02*
X962500D01*
X62500Y7790000D02*
Y8690000D01*
Y7790000D02*
X962500D01*
Y8690000D01*
X65000Y9617500D02*
X965000D01*
X65000Y8717500D02*
Y9617500D01*
Y8717500D02*
X965000D01*
Y9617500D01*
X1260000Y1600000D02*
Y1700000D01*
X1210000Y1650000D02*
X1310000D01*
X1010000Y1600000D02*
Y1700000D01*
X960000Y1650000D02*
X1060000D01*
X1095000Y8475000D02*
Y8575000D01*
X1045000Y8525000D02*
X1145000D01*
X725000Y1600000D02*
Y1700000D01*
X675000Y1650000D02*
X775000D01*
X3815000Y7490000D02*
X3910000D01*
X3862500Y7442500D02*
Y7537500D01*
X3812500Y7332500D02*
X3907500D01*
X3860000Y7285000D02*
Y7380000D01*
X2490000Y6605000D02*
X2585000D01*
X2537500Y6557500D02*
Y6652500D01*
X2490000Y6305000D02*
X2585000D01*
X2537500Y6257500D02*
Y6352500D01*
X2490000Y6455000D02*
X2585000D01*
X2537500Y6407500D02*
Y6502500D01*
X2490000Y6155000D02*
X2585000D01*
X2537500Y6107500D02*
Y6202500D01*
X2582500Y5960000D02*
X2677500D01*
X2630000Y5912500D02*
Y6007500D01*
X3762500Y6340000D02*
Y6435000D01*
X3715000Y6387500D02*
X3810000D01*
X5705000Y5620000D02*
X5795000D01*
X5750000Y5575000D02*
Y5665000D01*
X3310000Y2785000D02*
Y2875000D01*
X3265000Y2830000D02*
X3355000D01*
X3310000Y2960000D02*
Y3060000D01*
X3260000Y3010000D02*
X3360000D01*
X3310000Y3160000D02*
Y3260000D01*
X3260000Y3210000D02*
X3360000D01*
X3310000Y3560000D02*
Y3660000D01*
X3260000Y3610000D02*
X3360000D01*
X3310000Y3360000D02*
Y3460000D01*
X3260000Y3410000D02*
X3360000D01*
X3310000Y3760000D02*
Y3860000D01*
X3260000Y3810000D02*
X3360000D01*
X6110000Y6270000D02*
Y6370000D01*
X6060000Y6320000D02*
X6160000D01*
D105*
X8905000Y10638000D02*
X9392500D01*
X8905000D02*
Y12109600D01*
X9392500Y10638000D02*
Y12109600D01*
X8905000D02*
X9392500D01*
X7896548Y8854699D02*
Y10124699D01*
Y8854699D02*
X8810948D01*
Y10124699D01*
X7896548D02*
X8810948D01*
X6380000Y11975000D02*
Y12625000D01*
X7851600D01*
X6380000Y11975000D02*
X7851600D01*
Y12625000D01*
X1500000Y360000D02*
Y2760000D01*
Y360000D02*
X3100000D01*
X1500000Y2760000D02*
X3100000D01*
Y360000D02*
Y2760000D01*
X4717500Y1970000D02*
X7117500D01*
Y3570000D01*
X4717500Y1970000D02*
Y3570000D01*
X7117500D01*
X6277200Y12653000D02*
Y13161000D01*
X5362800D02*
X6277200D01*
X5362800Y12653000D02*
Y13161000D01*
Y12653000D02*
X6277200D01*
X4400000Y1897500D02*
X4425000D01*
X4400000Y1097500D02*
Y1897500D01*
Y1097500D02*
X8125000D01*
Y1897500D01*
X4425000D02*
X8125000D01*
D107*
X5189802Y12738092D02*
X5513092Y12414802D01*
X4686908Y12235198D02*
X5189802Y12738092D01*
X4686908Y12235198D02*
X5010197Y11911908D01*
X5513092Y12414802D01*
X5589802Y12488092D02*
X5913092Y12164802D01*
X5086908Y11985198D02*
X5589802Y12488092D01*
X5086908Y11985198D02*
X5410197Y11661908D01*
X5913092Y12164802D01*
D220*
X3615000Y7940000D02*
X3915000D01*
X3615000Y8090000D02*
X3915000D01*
Y7940000D02*
Y8090000D01*
X3615000Y7940000D02*
Y8090000D01*
X4740000Y8365000D02*
Y8715000D01*
X4320000Y8365000D02*
Y8715000D01*
Y8365000D02*
X4740000D01*
X4320000Y8715000D02*
X4740000D01*
X4472500Y8327500D02*
X4622500D01*
X4472500Y8077500D02*
X4622500D01*
Y8327500D01*
X4472500Y8077500D02*
Y8327500D01*
X5095000Y9660000D02*
X5445000D01*
X5095000Y9240000D02*
X5445000D01*
Y9660000D01*
X5095000Y9240000D02*
Y9660000D01*
Y10090000D02*
X5445000D01*
X5095000Y9670000D02*
X5445000D01*
Y10090000D01*
X5095000Y9670000D02*
Y10090000D01*
X8380000Y11202500D02*
Y11352500D01*
X8680000Y11202500D02*
Y11352500D01*
X8380000D02*
X8680000D01*
X8380000Y11202500D02*
X8680000D01*
X7890000Y12500000D02*
X8090000D01*
X7890000Y12160000D02*
X8090000D01*
Y12500000D01*
X7890000Y12160000D02*
Y12500000D01*
X8210000Y11925000D02*
Y12075000D01*
X7910000Y11925000D02*
Y12075000D01*
Y11925000D02*
X8210000D01*
X7910000Y12075000D02*
X8210000D01*
X7895000Y11907500D02*
X8635000D01*
X7895000Y11357500D02*
X8635000D01*
X7895000D02*
Y11907500D01*
X8635000Y11357500D02*
Y11907500D01*
X8692500Y11912500D02*
Y12062500D01*
X8392500Y11912500D02*
Y12062500D01*
Y11912500D02*
X8692500D01*
X8392500Y12062500D02*
X8692500D01*
X7904999Y10645000D02*
X8644999D01*
X7904999Y11195000D02*
X8644999D01*
Y10645000D02*
Y11195000D01*
X7904999Y10645000D02*
Y11195000D01*
X8200000Y10475000D02*
Y10625000D01*
X7900000Y10475000D02*
Y10625000D01*
Y10475000D02*
X8200000D01*
X7900000Y10625000D02*
X8200000D01*
X8833197Y9660699D02*
X9083197D01*
X8833197Y9810699D02*
X9083197D01*
Y9660699D02*
Y9810699D01*
X8833197Y9660699D02*
Y9810699D01*
X8823197Y9405699D02*
X9073197D01*
X8823197Y9555699D02*
X9073197D01*
Y9405699D02*
Y9555699D01*
X8823197Y9405699D02*
Y9555699D01*
X8818198Y8843199D02*
X9138198D01*
X8818198Y9313199D02*
X9138198D01*
X8818198Y8843199D02*
Y9313199D01*
X9138198Y8843199D02*
Y9313199D01*
X7870000Y9482500D02*
Y9732500D01*
X7720000Y9482500D02*
Y9732500D01*
X7870000D01*
X7720000Y9482500D02*
X7870000D01*
X7632500Y10062500D02*
X7782500D01*
X7632500Y9762500D02*
X7782500D01*
Y10062500D01*
X7632500Y9762500D02*
Y10062500D01*
X7480000Y10102500D02*
X7630000D01*
X7480000Y9802500D02*
X7630000D01*
Y10102500D01*
X7480000Y9802500D02*
Y10102500D01*
X6400000Y9632500D02*
Y9832500D01*
X6740000Y9632500D02*
Y9832500D01*
X6400000D02*
X6740000D01*
X6400000Y9632500D02*
X6740000D01*
X6339992Y9294992D02*
X6739992D01*
X6339992Y9632492D02*
X6739992D01*
Y9294992D02*
Y9632492D01*
X6339992Y9294992D02*
Y9632492D01*
X6680000Y9092500D02*
Y9292500D01*
X6340000Y9092500D02*
Y9292500D01*
Y9092500D02*
X6680000D01*
X6340000Y9292500D02*
X6680000D01*
X7515000Y11277500D02*
Y11427500D01*
X7215000Y11277500D02*
Y11427500D01*
Y11277500D02*
X7515000D01*
X7215000Y11427500D02*
X7515000D01*
X7425000Y11127500D02*
Y11277500D01*
X7125000Y11127500D02*
Y11277500D01*
Y11127500D02*
X7425000D01*
X7125000Y11277500D02*
X7425000D01*
X7517500Y10927500D02*
Y11127500D01*
X7177500Y10927500D02*
Y11127500D01*
Y10927500D02*
X7517500D01*
X7177500Y11127500D02*
X7517500D01*
X6470000Y9897500D02*
Y10927500D01*
X7500000Y9897500D02*
Y10927500D01*
X6470000D02*
X7500000D01*
X6470000Y9897500D02*
X7500000D01*
X6655000Y10960000D02*
X6805000D01*
X6655000Y11260000D02*
X6805000D01*
X6655000Y10960000D02*
Y11260000D01*
X6805000Y10960000D02*
Y11260000D01*
X6732145Y11858921D02*
X6908921Y11682145D01*
X6626079Y11752855D02*
X6802855Y11576079D01*
X6626079Y11752855D02*
X6732145Y11858921D01*
X6802855Y11576079D02*
X6908921Y11682145D01*
X6697145Y11678921D02*
X6873921Y11502144D01*
X6591079Y11572855D02*
X6767855Y11396079D01*
X6591079Y11572855D02*
X6697145Y11678921D01*
X6767855Y11396079D02*
X6873921Y11502144D01*
X6188401Y11476967D02*
X6294467Y11370901D01*
X6400533Y11689099D02*
X6506599Y11583033D01*
X6188401Y11476967D02*
X6400533Y11689099D01*
X6294467Y11370901D02*
X6506599Y11583033D01*
X7925000Y12675000D02*
Y12925000D01*
X7775000Y12675000D02*
Y12925000D01*
X7925000D01*
X7775000Y12675000D02*
X7925000D01*
X7525000D02*
Y12925000D01*
X7375000Y12675000D02*
Y12925000D01*
X7525000D01*
X7375000Y12675000D02*
X7525000D01*
X7150000D02*
Y12925000D01*
X7000000Y12675000D02*
Y12925000D01*
X7150000D01*
X7000000Y12675000D02*
X7150000D01*
X6775000D02*
Y12925000D01*
X6625000Y12675000D02*
Y12925000D01*
X6775000D01*
X6625000Y12675000D02*
X6775000D01*
X5921447Y11485799D02*
X6071447D01*
X5921447Y11785799D02*
X6071447D01*
X5921447Y11485799D02*
Y11785799D01*
X6071447Y11485799D02*
Y11785799D01*
X6242500Y12425000D02*
Y12625000D01*
X5902500Y12425000D02*
Y12625000D01*
Y12425000D02*
X6242500D01*
X5902500Y12625000D02*
X6242500D01*
X4257500Y12370000D02*
Y12620000D01*
X4107500Y12370000D02*
Y12620000D01*
X4257500D01*
X4107500Y12370000D02*
X4257500D01*
X4290000Y12275000D02*
Y12615000D01*
X4705000Y12275000D02*
Y12615000D01*
X4290000D02*
X4705000D01*
X4290000Y12275000D02*
X4705000D01*
X4875000Y11725000D02*
Y11875000D01*
X5175000Y11725000D02*
Y11875000D01*
X4875000D02*
X5175000D01*
X4875000Y11725000D02*
X5175000D01*
X4700000Y11750000D02*
X4850000D01*
X4700000Y12050000D02*
X4850000D01*
X4700000Y11750000D02*
Y12050000D01*
X4850000Y11750000D02*
Y12050000D01*
X4390000Y12120000D02*
X4640000D01*
X4390000Y12270000D02*
X4640000D01*
Y12120000D02*
Y12270000D01*
X4390000Y12120000D02*
Y12270000D01*
X4132500Y12120000D02*
X4382500D01*
X4132500Y12270000D02*
X4382500D01*
Y12120000D02*
Y12270000D01*
X4132500Y12120000D02*
Y12270000D01*
X4310000Y11965000D02*
X4560000D01*
X4310000Y12115000D02*
X4560000D01*
Y11965000D02*
Y12115000D01*
X4310000Y11965000D02*
Y12115000D01*
X3905000Y12342500D02*
X4105000D01*
X3905000Y12682500D02*
X4105000D01*
X3905000Y12342500D02*
Y12682500D01*
X4105000Y12342500D02*
Y12682500D01*
X2147500Y12907500D02*
X2347500D01*
X2147500Y13247501D02*
X2347500D01*
X2147500Y12907500D02*
Y13247501D01*
X2347500Y12907500D02*
Y13247501D01*
X1997499Y12700000D02*
X2147499D01*
X1997499Y13000000D02*
X2147499D01*
X1997499Y12700000D02*
Y13000000D01*
X2147499Y12700000D02*
Y13000000D01*
X1485000Y12960001D02*
X1635000D01*
X1485000Y12660000D02*
X1635000D01*
Y12960001D01*
X1485000Y12660000D02*
Y12960001D01*
X1640000Y12695000D02*
X1990000D01*
X1640000Y13114999D02*
X1990000D01*
X1640000Y12695000D02*
Y13114999D01*
X1990000Y12695000D02*
Y13114999D01*
X1700000Y12687500D02*
X1950000D01*
X1700000Y12537500D02*
X1950000D01*
X1700000D02*
Y12687500D01*
X1950000Y12537500D02*
Y12687500D01*
X3557500Y12622500D02*
Y12872501D01*
X3407500Y12622500D02*
Y12872501D01*
X3557500D01*
X3407500Y12622500D02*
X3557500D01*
X3552500Y12342500D02*
Y12592500D01*
X3402500Y12342500D02*
Y12592500D01*
X3552500D01*
X3402500Y12342500D02*
X3552500D01*
X3250000Y12715000D02*
X3400000D01*
X3250000Y12415000D02*
X3400000D01*
Y12715000D01*
X3250000Y12415000D02*
Y12715000D01*
X3215000Y12320000D02*
Y12660000D01*
X2800000Y12320000D02*
Y12660000D01*
Y12320000D02*
X3215000D01*
X2800000Y12660000D02*
X3215000D01*
X3157500Y12167500D02*
Y12317500D01*
X2857500Y12167500D02*
Y12317500D01*
Y12167500D02*
X3157500D01*
X2857500Y12317500D02*
X3157500D01*
X2045000Y12230000D02*
X2295000D01*
X2045000Y12080000D02*
X2295000D01*
X2045000D02*
Y12230000D01*
X2295000Y12080000D02*
Y12230000D01*
X1890000Y12075000D02*
X2140000D01*
X1890000Y11925000D02*
X2140000D01*
X1890000D02*
Y12075000D01*
X2140000Y11925000D02*
Y12075000D01*
X2142500Y11775000D02*
X2292500D01*
X2142500Y12075000D02*
X2292500D01*
X2142500Y11775000D02*
Y12075000D01*
X2292500Y11775000D02*
Y12075000D01*
X2597500Y11737500D02*
Y11887500D01*
X2297500Y11737500D02*
Y11887500D01*
Y11737500D02*
X2597500D01*
X2297500Y11887500D02*
X2597500D01*
X2712100Y11889600D02*
Y12229600D01*
X2297100Y11889600D02*
Y12229600D01*
Y11889600D02*
X2712100D01*
X2297100Y12229600D02*
X2712100D01*
X2380000Y12380000D02*
X2630000D01*
X2380000Y12230000D02*
X2630000D01*
X2380000D02*
Y12380000D01*
X2630000Y12230000D02*
Y12380000D01*
X2175000Y11417500D02*
Y11567500D01*
X2475000Y11417500D02*
Y11567500D01*
X2175000D02*
X2475000D01*
X2175000Y11417500D02*
X2475000D01*
X2058099Y11077801D02*
Y11417801D01*
X2473099Y11077801D02*
Y11417801D01*
X2058099D02*
X2473099D01*
X2058099Y11077801D02*
X2473099D01*
X2497500Y10922500D02*
Y11172500D01*
X2647500Y10922500D02*
Y11172500D01*
X2497500Y10922500D02*
X2647500D01*
X2497500Y11172500D02*
X2647500D01*
X2512500Y10667500D02*
Y10917500D01*
X2662500Y10667500D02*
Y10917500D01*
X2512500Y10667500D02*
X2662500D01*
X2512500Y10917500D02*
X2662500D01*
X2247500Y11072500D02*
X2497500D01*
X2247500Y10922500D02*
X2497500D01*
X2247500D02*
Y11072500D01*
X2497500Y10922500D02*
Y11072500D01*
X1992500Y10925000D02*
X2242500D01*
X1992500Y11075000D02*
X2242500D01*
Y10925000D02*
Y11075000D01*
X1992500Y10925000D02*
Y11075000D01*
X1777500Y10672500D02*
X2027500D01*
X1777500Y10822500D02*
X2027500D01*
Y10672500D02*
Y10822500D01*
X1777500Y10672500D02*
Y10822500D01*
X2052500Y10672500D02*
Y10922500D01*
X2202500Y10672500D02*
Y10922500D01*
X2052500Y10672500D02*
X2202500D01*
X2052500Y10922500D02*
X2202500D01*
X2507500Y10655000D02*
Y10805000D01*
X2207500Y10655000D02*
Y10805000D01*
Y10655000D02*
X2507500D01*
X2207500Y10805000D02*
X2507500D01*
X2177500Y10485000D02*
Y10635000D01*
X2477500Y10485000D02*
Y10635000D01*
X2177500D02*
X2477500D01*
X2177500Y10485000D02*
X2477500D01*
X2057500Y10142500D02*
Y10482500D01*
X2472500Y10142500D02*
Y10482500D01*
X2057500D02*
X2472500D01*
X2057500Y10142500D02*
X2472500D01*
X2285000Y9992500D02*
Y10142500D01*
X1985000Y9992500D02*
Y10142500D01*
Y9992500D02*
X2285000D01*
X1985000Y10142500D02*
X2285000D01*
X2287500Y9990000D02*
X2537500D01*
X2287500Y10140000D02*
X2537500D01*
Y9990000D02*
Y10140000D01*
X2287500Y9990000D02*
Y10140000D01*
X4225000Y10425000D02*
X4375000D01*
X4225000Y10725000D02*
X4375000D01*
X4225000Y10425000D02*
Y10725000D01*
X4375000Y10425000D02*
Y10725000D01*
X3792199Y10410800D02*
Y10750800D01*
X4207199Y10410800D02*
Y10750800D01*
X3792199D02*
X4207199D01*
X3792199Y10410800D02*
X4207199D01*
X3642500Y10730000D02*
X3792500D01*
X3642500Y10430000D02*
X3792500D01*
Y10730000D01*
X3642500Y10430000D02*
Y10730000D01*
X3390000Y10567500D02*
X3640000D01*
X3390000Y10417500D02*
X3640000D01*
X3390000D02*
Y10567500D01*
X3640000Y10417500D02*
Y10567500D01*
X4265000Y9710000D02*
X4625000D01*
X4265000Y9980000D02*
X4625000D01*
Y9710000D02*
Y9980000D01*
X4265000Y9710000D02*
Y9980000D01*
X4322500Y9982500D02*
Y10132500D01*
X4622500Y9982500D02*
Y10132500D01*
X4322500D02*
X4622500D01*
X4322500Y9982500D02*
X4622500D01*
X2980000Y9852500D02*
X3130000D01*
X2980000Y10152500D02*
X3130000D01*
X2980000Y9852500D02*
Y10152500D01*
X3130000Y9852500D02*
Y10152500D01*
X3000000Y9847500D02*
X3250000D01*
X3000000Y9697500D02*
X3250000D01*
X3000000D02*
Y9847500D01*
X3250000Y9697500D02*
Y9847500D01*
X3260000Y9690000D02*
Y10030000D01*
X3675000Y9690000D02*
Y10030000D01*
X3260000D02*
X3675000D01*
X3260000Y9690000D02*
X3675000D01*
X3382500Y10035000D02*
Y10185000D01*
X3682500Y10035000D02*
Y10185000D01*
X3382500D02*
X3682500D01*
X3382500Y10035000D02*
X3682500D01*
X3680000Y9632500D02*
X3880000D01*
X3680000Y9972500D02*
X3880000D01*
X3680000Y9632500D02*
Y9972500D01*
X3880000Y9632500D02*
Y9972500D01*
X3880000Y9742500D02*
X4080000D01*
X3880000Y10082500D02*
X4080000D01*
X3880000Y9742500D02*
Y10082500D01*
X4080000Y9742500D02*
Y10082500D01*
X4230000Y9665000D02*
Y9915000D01*
X4080000Y9665000D02*
Y9915000D01*
X4230000D01*
X4080000Y9665000D02*
X4230000D01*
X4620000Y10640000D02*
X4820000D01*
X4620000Y10300000D02*
X4820000D01*
Y10640000D01*
X4620000Y10300000D02*
Y10640000D01*
X4960000Y10450000D02*
X5210000D01*
X4960000Y10300000D02*
X5210000D01*
X4960000D02*
Y10450000D01*
X5210000Y10300000D02*
Y10450000D01*
X4962500Y10285000D02*
X5212500D01*
X4962500Y10135000D02*
X5212500D01*
X4962500D02*
Y10285000D01*
X5212500Y10135000D02*
Y10285000D01*
X4742500Y9837500D02*
X4892500D01*
X4742500Y10137500D02*
X4892500D01*
X4742500Y9837500D02*
Y10137500D01*
X4892500Y9837500D02*
Y10137500D01*
X5045000Y9865000D02*
Y10115000D01*
X4895000Y9865000D02*
Y10115000D01*
X5045000D01*
X4895000Y9865000D02*
X5045000D01*
X5055000Y9545000D02*
Y9795000D01*
X4905000Y9545000D02*
Y9795000D01*
X5055000D01*
X4905000Y9545000D02*
X5055000D01*
X5445000Y9920000D02*
X5595000D01*
X5445000Y9620000D02*
X5595000D01*
Y9920000D01*
X5445000Y9620000D02*
Y9920000D01*
X5190000Y9085000D02*
Y9235000D01*
X5490000Y9085000D02*
Y9235000D01*
X5190000D02*
X5490000D01*
X5190000Y9085000D02*
X5490000D01*
X5045000Y9075000D02*
Y9325000D01*
X4895000Y9075000D02*
Y9325000D01*
X5045000D01*
X4895000Y9075000D02*
X5045000D01*
X4740000Y9050000D02*
X4890000D01*
X4740000Y9350000D02*
X4890000D01*
X4740000Y9050000D02*
Y9350000D01*
X4890000Y9050000D02*
Y9350000D01*
X4090000Y9202500D02*
Y9452500D01*
X3940000Y9202500D02*
Y9452500D01*
X4090000D01*
X3940000Y9202500D02*
X4090000D01*
X4240000Y9205000D02*
Y9455000D01*
X4090000Y9205000D02*
Y9455000D01*
X4240000D01*
X4090000Y9205000D02*
X4240000D01*
X4327500Y9352500D02*
X4577500D01*
X4327500Y9502500D02*
X4577500D01*
Y9352500D02*
Y9502500D01*
X4327500Y9352500D02*
Y9502500D01*
X4240000Y9352500D02*
X4490000D01*
X4240000Y9202500D02*
X4490000D01*
X4240000D02*
Y9352500D01*
X4490000Y9202500D02*
Y9352500D01*
X4385000Y8862500D02*
Y9202500D01*
X3970000Y8862500D02*
Y9202500D01*
Y8862500D02*
X4385000D01*
X3970000Y9202500D02*
X4385000D01*
X4187500Y8712500D02*
Y8862500D01*
X3887500Y8712500D02*
Y8862500D01*
Y8712500D02*
X4187500D01*
X3887500Y8862500D02*
X4187500D01*
X3262500Y9357500D02*
Y9607500D01*
X3112500Y9357500D02*
Y9607500D01*
X3262500D01*
X3112500Y9357500D02*
X3262500D01*
X3352500Y9285000D02*
Y9435000D01*
X3652500Y9285000D02*
Y9435000D01*
X3352500D02*
X3652500D01*
X3352500Y9285000D02*
X3652500D01*
X3647500Y8857500D02*
Y9107500D01*
X3797500Y8857500D02*
Y9107500D01*
X3647500Y8857500D02*
X3797500D01*
X3647500Y9107500D02*
X3797500D01*
X3229400Y8943300D02*
Y9283300D01*
X3644400Y8943300D02*
Y9283300D01*
X3229400D02*
X3644400D01*
X3229400Y8943300D02*
X3644400D01*
X3112500Y8945000D02*
X3362500D01*
X3112500Y8795000D02*
X3362500D01*
X3112500D02*
Y8945000D01*
X3362500Y8795000D02*
Y8945000D01*
X2985000Y8792500D02*
X3235000D01*
X2985000Y8642500D02*
X3235000D01*
X2985000D02*
Y8792500D01*
X3235000Y8642500D02*
Y8792500D01*
X3235000D02*
X3485000D01*
X3235000Y8642500D02*
X3485000D01*
X3235000D02*
Y8792500D01*
X3485000Y8642500D02*
Y8792500D01*
X2749671Y8923515D02*
X2899671D01*
X2749671Y8623515D02*
X2899671D01*
Y8923515D01*
X2749671Y8623515D02*
Y8923515D01*
X2697500Y9382500D02*
Y9532500D01*
X2997500Y9382500D02*
Y9532500D01*
X2697500D02*
X2997500D01*
X2697500Y9382500D02*
X2997500D01*
X2200000Y9335000D02*
X2540000D01*
X2200000Y9750000D02*
X2540000D01*
X2200000Y9335000D02*
Y9750000D01*
X2540000Y9335000D02*
Y9750000D01*
X2047500Y9447501D02*
X2197500D01*
X2047500Y9747500D02*
X2197500D01*
X2047500Y9447501D02*
Y9747500D01*
X2197500Y9447501D02*
Y9747500D01*
X2580000Y9097500D02*
Y9327500D01*
X2120000Y9097500D02*
Y9327500D01*
Y9097500D02*
X2580000D01*
X2120000Y9327500D02*
X2580000D01*
X2205000Y8947500D02*
Y9097500D01*
X2505000Y8947500D02*
Y9097500D01*
X2205000D02*
X2505000D01*
X2205000Y8947500D02*
X2505000D01*
X2222501Y8945000D02*
X2472500D01*
X2222501Y8795000D02*
X2472500D01*
X2222501D02*
Y8945000D01*
X2472500Y8795000D02*
Y8945000D01*
X2744671Y8388515D02*
Y8728515D01*
X2329671Y8388515D02*
Y8728515D01*
Y8388515D02*
X2744671D01*
X2329671Y8728515D02*
X2744671D01*
X2177171Y8321015D02*
X2327171D01*
X2177171Y8621015D02*
X2327171D01*
X2177171Y8321015D02*
Y8621015D01*
X2327171Y8321015D02*
Y8621015D01*
X3217500Y8352500D02*
X3517500D01*
X3217500Y8502500D02*
X3517500D01*
Y8352500D02*
Y8502500D01*
X3217500Y8352500D02*
Y8502500D01*
X3107500Y8010000D02*
X3522500D01*
X3107500Y8350000D02*
X3522500D01*
Y8010000D02*
Y8350000D01*
X3107500Y8010000D02*
Y8350000D01*
X2802500Y8480000D02*
X3052500D01*
X2802500Y8330000D02*
X3052500D01*
X2802500D02*
Y8480000D01*
X3052500Y8330000D02*
Y8480000D01*
X2808495Y8224243D02*
X3058495D01*
X2808495Y8074243D02*
X3058495D01*
X2808495D02*
Y8224243D01*
X3058495Y8074243D02*
Y8224243D01*
X2783495Y7921743D02*
X3033495D01*
X2783495Y8071743D02*
X3033495D01*
Y7921743D02*
Y8071743D01*
X2783495Y7921743D02*
Y8071743D01*
X3292500Y7855000D02*
X3292500Y8005000D01*
X3042500Y7855000D02*
Y8005000D01*
Y7855000D02*
X3292500D01*
X3042500Y8005000D02*
X3292500D01*
X2365995Y7839243D02*
Y8179243D01*
X2780995Y7839243D02*
Y8179243D01*
X2365995D02*
X2780995D01*
X2365995Y7839243D02*
X2780995D01*
X2213495Y7884243D02*
X2363495D01*
X2213495Y8184243D02*
X2363495D01*
X2213495Y7884243D02*
Y8184243D01*
X2363495Y7884243D02*
Y8184243D01*
X2355995Y7679243D02*
Y7879243D01*
X2015995Y7679243D02*
Y7879243D01*
Y7679243D02*
X2355995D01*
X2015995Y7879243D02*
X2355995D01*
X2660995Y7584243D02*
Y7834243D01*
X2510995Y7584243D02*
Y7834243D01*
X2660995D01*
X2510995Y7584243D02*
X2660995D01*
X2810995Y7326743D02*
Y7576743D01*
X2660995Y7326743D02*
Y7576743D01*
X2810995D01*
X2660995Y7326743D02*
X2810995D01*
X2660995D02*
Y7576743D01*
X2510995Y7326743D02*
Y7576743D01*
X2660995D01*
X2510995Y7326743D02*
X2660995D01*
X2510995D02*
Y7576743D01*
X2360995Y7326743D02*
Y7576743D01*
X2510995D01*
X2360995Y7326743D02*
X2510995D01*
X430000Y11790000D02*
Y11990000D01*
X770000Y11790000D02*
Y11990000D01*
X430000D02*
X770000D01*
X430000Y11790000D02*
X770000D01*
X430000Y11590000D02*
Y11790000D01*
X770000Y11590000D02*
Y11790000D01*
X430000D02*
X770000D01*
X430000Y11590000D02*
X770000D01*
X797500Y10282500D02*
Y10432500D01*
X1097500Y10282500D02*
Y10432500D01*
X797500D02*
X1097500D01*
X797500Y10282500D02*
X1097500D01*
X550000Y10975000D02*
X1175000D01*
X550000Y10435000D02*
X1175000D01*
X550000D02*
Y10975000D01*
X1175000Y10435000D02*
Y10975000D01*
X142500Y10302500D02*
X342500D01*
X142500Y10642500D02*
X342500D01*
X142500Y10302500D02*
Y10642500D01*
X342500Y10302500D02*
Y10642500D01*
X345000Y10302500D02*
X545000D01*
X345000Y10642500D02*
X545000D01*
X345000Y10302500D02*
Y10642500D01*
X545000Y10302500D02*
Y10642500D01*
X552500Y10432500D02*
X702500D01*
X552500Y10132500D02*
X702500D01*
Y10432500D01*
X552500Y10132500D02*
Y10432500D01*
X707500Y9968500D02*
X917500D01*
X707500Y10256500D02*
X917500D01*
X707500Y9968500D02*
Y10256500D01*
X917500Y9968500D02*
Y10256500D01*
X552500Y9830000D02*
X702500D01*
X552500Y10130000D02*
X702500D01*
X552500Y9830000D02*
Y10130000D01*
X702500Y9830000D02*
Y10130000D01*
X317500Y9675000D02*
Y10145000D01*
X547500Y9675000D02*
Y10145000D01*
X317500Y9675000D02*
X547500D01*
X317500Y10145000D02*
X547500D01*
X857500Y9642500D02*
Y9892500D01*
X707500Y9642500D02*
Y9892500D01*
X857500D01*
X707500Y9642500D02*
X857500D01*
X857500Y9660000D02*
Y9910000D01*
X1007500Y9660000D02*
Y9910000D01*
X857500Y9660000D02*
X1007500D01*
X857500Y9910000D02*
X1007500D01*
X1007500Y9645000D02*
X1157500D01*
X1007500Y9945000D02*
X1157500D01*
X1007500Y9645000D02*
Y9945000D01*
X1157500Y9645000D02*
Y9945000D01*
X1210000Y7800000D02*
Y8260000D01*
X980000Y7800000D02*
Y8260000D01*
X1210000D01*
X980000Y7800000D02*
X1210000D01*
X662500Y7545000D02*
Y7775000D01*
X1122500Y7545000D02*
Y7775000D01*
X662500D02*
X1122500D01*
X662500Y7545000D02*
X1122500D01*
X7985000Y8595000D02*
X8235000D01*
X7985000Y8745000D02*
X8235000D01*
Y8595000D02*
Y8745000D01*
X7985000Y8595000D02*
Y8745000D01*
X7415000Y8592500D02*
X7665000D01*
X7415000Y8742500D02*
X7665000D01*
Y8592500D02*
Y8742500D01*
X7415000Y8592500D02*
Y8742500D01*
X6965000Y8590000D02*
X7215000D01*
X6965000Y8740000D02*
X7215000D01*
Y8590000D02*
Y8740000D01*
X6965000Y8590000D02*
Y8740000D01*
X6870000Y8575000D02*
X7330000D01*
X6870000Y7825000D02*
X7330000D01*
Y8575000D01*
X6870000Y7825000D02*
Y8575000D01*
X7370000Y8574826D02*
X7830000D01*
X7370000Y7825000D02*
X7830000D01*
Y8574826D01*
X7370000Y7825000D02*
Y8574826D01*
X7870000D02*
X8330000D01*
X7870000Y7825000D02*
X8330000D01*
Y8574826D01*
X7870000Y7825000D02*
Y8574826D01*
X8370000D02*
X8830000D01*
X8370000Y7825000D02*
X8830000D01*
Y8574826D01*
X8370000Y7825000D02*
Y8574826D01*
X8825000Y8450000D02*
X9075000D01*
X8825000Y8600000D02*
X9075000D01*
Y8450000D02*
Y8600000D01*
X8825000Y8450000D02*
Y8600000D01*
X8600000Y7480000D02*
X8800000D01*
X8600000Y7820000D02*
X8800000D01*
X8600000Y7480000D02*
Y7820000D01*
X8800000Y7480000D02*
Y7820000D01*
X8600000Y7550000D02*
Y7800000D01*
X8450000Y7550000D02*
Y7800000D01*
X8600000D01*
X8450000Y7550000D02*
X8600000D01*
X8100000Y7480000D02*
X8300000D01*
X8100000Y7820000D02*
X8300000D01*
X8100000Y7480000D02*
Y7820000D01*
X8300000Y7480000D02*
Y7820000D01*
X8100000Y7550000D02*
Y7800000D01*
X7950000Y7550000D02*
Y7800000D01*
X8100000D01*
X7950000Y7550000D02*
X8100000D01*
X7600000Y7480000D02*
X7800000D01*
X7600000Y7820000D02*
X7800000D01*
X7600000Y7480000D02*
Y7820000D01*
X7800000Y7480000D02*
Y7820000D01*
X7575000Y7550000D02*
Y7800000D01*
X7425000Y7550000D02*
Y7800000D01*
X7575000D01*
X7425000Y7550000D02*
X7575000D01*
X7100000Y7480000D02*
X7300000D01*
X7100000Y7820000D02*
X7300000D01*
X7100000Y7480000D02*
Y7820000D01*
X7300000Y7480000D02*
Y7820000D01*
X7075000Y7550000D02*
Y7800000D01*
X6925000Y7550000D02*
Y7800000D01*
X7075000D01*
X6925000Y7550000D02*
X7075000D01*
X6560000Y8212500D02*
X6810000D01*
X6560000Y8362500D02*
X6810000D01*
Y8212500D02*
Y8362500D01*
X6560000Y8212500D02*
Y8362500D01*
X5962500Y8012500D02*
X6212500D01*
X5962500Y7862500D02*
X6212500D01*
X5962500D02*
Y8012500D01*
X6212500Y7862500D02*
Y8012500D01*
X5877500Y8020000D02*
Y8840000D01*
X6437500Y8020000D02*
Y8840000D01*
X5877500Y8020000D02*
X6437500D01*
X5877500Y8840000D02*
X6437500D01*
X5727500Y8662500D02*
X5877500D01*
X5727500Y8362500D02*
X5877500D01*
Y8662500D01*
X5727500Y8362500D02*
Y8662500D01*
X5317500Y8730000D02*
X5567500D01*
X5317500Y8880000D02*
X5567500D01*
Y8730000D02*
Y8880000D01*
X5317500Y8730000D02*
Y8880000D01*
X5477500Y8587500D02*
X5627500D01*
X5477500Y8287500D02*
X5627500D01*
Y8587500D01*
X5477500Y8287500D02*
Y8587500D01*
X5105000Y8727500D02*
X5475000D01*
X5105000Y8182500D02*
X5475000D01*
Y8727500D01*
X5105000Y8182500D02*
Y8727500D01*
X5085000Y8027500D02*
X5335000D01*
X5085000Y8177500D02*
X5335000D01*
Y8027500D02*
Y8177500D01*
X5085000Y8027500D02*
Y8177500D01*
X5100000Y8302500D02*
Y8552500D01*
X4950000Y8302500D02*
Y8552500D01*
X5100000D01*
X4950000Y8302500D02*
X5100000D01*
X4750000Y8172500D02*
X4950000D01*
X4750000Y8512500D02*
X4950000D01*
X4750000Y8172500D02*
Y8512500D01*
X4950000Y8172500D02*
Y8512500D01*
X3692500Y8090000D02*
X4112500D01*
X3692500Y8450000D02*
X4112500D01*
Y8090000D02*
Y8450000D01*
X3692500Y8090000D02*
Y8450000D01*
X4132500Y8622500D02*
X4282500D01*
X4132500Y8322500D02*
X4282500D01*
Y8622500D01*
X4132500Y8322500D02*
Y8622500D01*
X4220000Y8172500D02*
X4470000D01*
X4220000Y8322500D02*
X4470000D01*
Y8172500D02*
Y8322500D01*
X4220000Y8172500D02*
Y8322500D01*
X4727500Y8080000D02*
X4877500D01*
X4727500Y7780000D02*
X4877500D01*
Y8080000D01*
X4727500Y7780000D02*
Y8080000D01*
X4127500Y8020000D02*
Y8170000D01*
X4427500Y8020000D02*
Y8170000D01*
X4127500D02*
X4427500D01*
X4127500Y8020000D02*
X4427500D01*
X4157500Y7277500D02*
Y8017500D01*
X4707500Y7277500D02*
Y8017500D01*
X4157500Y7277500D02*
X4707500D01*
X4157500Y8017500D02*
X4707500D01*
X4885000Y7282500D02*
Y8022500D01*
X5435000Y7282500D02*
Y8022500D01*
X4885000Y7282500D02*
X5435000D01*
X4885000Y8022500D02*
X5435000D01*
X5045000Y7020000D02*
Y7270000D01*
X5195000Y7020000D02*
Y7270000D01*
X5045000Y7020000D02*
X5195000D01*
X5045000Y7270000D02*
X5195000D01*
X4895000Y7020000D02*
Y7270000D01*
X5045000Y7020000D02*
Y7270000D01*
X4895000Y7020000D02*
X5045000D01*
X4895000Y7270000D02*
X5045000D01*
X4725000Y7250000D02*
X4875000D01*
X4725000Y7550000D02*
X4875000D01*
X4725000Y7250000D02*
Y7550000D01*
X4875000Y7250000D02*
Y7550000D01*
X4287500Y7022500D02*
Y7272500D01*
X4437500Y7022500D02*
Y7272500D01*
X4287500Y7022500D02*
X4437500D01*
X4287500Y7272500D02*
X4437500D01*
X4000000Y7250000D02*
X4150000D01*
X4000000Y7550000D02*
X4150000D01*
X4000000Y7250000D02*
Y7550000D01*
X4150000Y7250000D02*
Y7550000D01*
X2665000Y6555000D02*
Y6705000D01*
X2965000Y6555000D02*
Y6705000D01*
X2665000D02*
X2965000D01*
X2665000Y6555000D02*
X2965000D01*
X2772500Y5990000D02*
X3547500D01*
X2772500Y6550000D02*
X3547500D01*
Y5990000D02*
Y6550000D01*
X2772500Y5990000D02*
Y6550000D01*
X3077500Y6737500D02*
Y7057500D01*
X3547500Y6737500D02*
Y7057500D01*
X3077500D02*
X3547500D01*
X3077500Y6737500D02*
X3547500D01*
X3197500Y6550000D02*
X3497500D01*
X3197500Y6700000D02*
X3497500D01*
Y6550000D02*
Y6700000D01*
X3197500Y6550000D02*
Y6700000D01*
X3235000Y5835000D02*
X3485000D01*
X3235000Y5985000D02*
X3485000D01*
Y5835000D02*
Y5985000D01*
X3235000Y5835000D02*
Y5985000D01*
X4445000Y6285000D02*
Y6535000D01*
X4295000Y6285000D02*
Y6535000D01*
X4445000D01*
X4295000Y6285000D02*
X4445000D01*
X4137500Y6282500D02*
Y6532500D01*
X4287500Y6282500D02*
Y6532500D01*
X4137500Y6282500D02*
X4287500D01*
X4137500Y6532500D02*
X4287500D01*
X3987500Y6282500D02*
Y6532500D01*
X4137500Y6282500D02*
Y6532500D01*
X3987500Y6282500D02*
X4137500D01*
X3987500Y6532500D02*
X4137500D01*
X3837500Y6282500D02*
Y6532500D01*
X3987500Y6282500D02*
Y6532500D01*
X3837500Y6282500D02*
X3987500D01*
X3837500Y6532500D02*
X3987500D01*
X4020000Y5740000D02*
X4340000D01*
X4020000Y5270000D02*
X4340000D01*
Y5740000D01*
X4020000Y5270000D02*
Y5740000D01*
X4345000D02*
X4665000D01*
X4345000Y5270000D02*
X4665000D01*
Y5740000D01*
X4345000Y5270000D02*
Y5740000D01*
X4670000D02*
X4990000D01*
X4670000Y5270000D02*
X4990000D01*
Y5740000D01*
X4670000Y5270000D02*
Y5740000D01*
X4995000D02*
X5315000D01*
X4995000Y5270000D02*
X5315000D01*
Y5740000D01*
X4995000Y5270000D02*
Y5740000D01*
X5320000D02*
X5640000D01*
X5320000Y5270000D02*
X5640000D01*
Y5740000D01*
X5320000Y5270000D02*
Y5740000D01*
X5675000Y4870000D02*
X5825000D01*
X5675000Y4570000D02*
X5825000D01*
Y4870000D01*
X5675000Y4570000D02*
Y4870000D01*
X5325000Y5130001D02*
X5645000D01*
X5325000Y4660001D02*
X5645000D01*
Y5130001D01*
X5325000Y4660001D02*
Y5130001D01*
X5000000D02*
X5320000D01*
X5000000Y4660001D02*
X5320000D01*
Y5130001D01*
X5000000Y4660001D02*
Y5130001D01*
X4675000D02*
X4995000D01*
X4675000Y4660001D02*
X4995000D01*
Y5130001D01*
X4675000Y4660001D02*
Y5130001D01*
X4350000D02*
X4670000D01*
X4350000Y4660001D02*
X4670000D01*
Y5130001D01*
X4350000Y4660001D02*
Y5130001D01*
X4025000D02*
X4345000D01*
X4025000Y4660001D02*
X4345000D01*
Y5130001D01*
X4025000Y4660001D02*
Y5130001D01*
X3865000Y4830000D02*
Y5130000D01*
X4015000Y4830000D02*
Y5130000D01*
X3865000Y4830000D02*
X4015000D01*
X3865000Y5130000D02*
X4015000D01*
X3070000Y2835000D02*
Y5385000D01*
X790000Y2835000D02*
Y5385000D01*
X3070000D01*
X790000Y2835000D02*
X3070000D01*
X795000Y2385000D02*
Y2615000D01*
X1255000Y2385000D02*
Y2615000D01*
X795000D02*
X1255000D01*
X795000Y2385000D02*
X1255000D01*
X915000Y1900000D02*
Y2100000D01*
X1255000Y1900000D02*
Y2100000D01*
X915000D02*
X1255000D01*
X915000Y1900000D02*
X1255000D01*
X480000D02*
Y2100000D01*
X820000Y1900000D02*
Y2100000D01*
X480000D02*
X820000D01*
X480000Y1900000D02*
X820000D01*
X3172500Y2635000D02*
X4037500D01*
X3172500Y1955000D02*
X4037500D01*
X3172500D02*
Y2635000D01*
X4037500Y1955000D02*
Y2635000D01*
X3167500Y1935000D02*
X4032500D01*
X3167500Y1255000D02*
X4032500D01*
X3167500D02*
Y1935000D01*
X4032500Y1255000D02*
Y1935000D01*
X3145000Y4125000D02*
Y4375000D01*
X3295000Y4125000D02*
Y4375000D01*
X3145000Y4125000D02*
X3295000D01*
X3145000Y4375000D02*
X3295000D01*
X4040000Y4095000D02*
Y4325000D01*
X3580000Y4095000D02*
Y4325000D01*
Y4095000D02*
X4040000D01*
X3580000Y4325000D02*
X4040000D01*
Y3865000D02*
Y4095000D01*
X3580000Y3865000D02*
Y4095000D01*
Y3865000D02*
X4040000D01*
X3580000Y4095000D02*
X4040000D01*
X5697500Y3640000D02*
Y4320000D01*
X6562500Y3640000D02*
Y4320000D01*
X5697500D02*
X6562500D01*
X5697500Y3640000D02*
X6562500D01*
X7405000Y5327500D02*
X7655000D01*
X7405000Y5177500D02*
X7655000D01*
X7405000D02*
Y5327500D01*
X7655000Y5177500D02*
Y5327500D01*
X7677500Y5302500D02*
X7827500D01*
X7677500Y5002500D02*
X7827500D01*
Y5302500D01*
X7677500Y5002500D02*
Y5302500D01*
X7830000Y5335000D02*
X8030000D01*
X7830000Y4995000D02*
X8030000D01*
Y5335000D01*
X7830000Y4995000D02*
Y5335000D01*
X7917500Y4322500D02*
Y4472500D01*
X7617500Y4322500D02*
Y4472500D01*
Y4322500D02*
X7917500D01*
X7617500Y4472500D02*
X7917500D01*
X7382500Y4700000D02*
X7852500D01*
X7382500Y4470000D02*
X7852500D01*
X7382500D02*
Y4700000D01*
X7852500Y4470000D02*
Y4700000D01*
X8762500Y3820000D02*
Y4445000D01*
X8222500Y3820000D02*
Y4445000D01*
X8762500D01*
X8222500Y3820000D02*
X8762500D01*
X7917500Y4292500D02*
Y4442500D01*
X8217500Y4292500D02*
Y4442500D01*
X7917500D02*
X8217500D01*
X7917500Y4292500D02*
X8217500D01*
X7762140Y4078980D02*
Y4288980D01*
X8050140Y4078980D02*
Y4288980D01*
X7762140D02*
X8050140D01*
X7762140Y4078980D02*
X8050140D01*
X8062520Y4224640D02*
X8212520D01*
X8062520Y3924640D02*
X8212520D01*
Y4224640D01*
X8062520Y3924640D02*
Y4224640D01*
X7185000Y2025000D02*
X7565000D01*
X7185000Y2625000D02*
X7565000D01*
X7185000Y2025000D02*
Y2625000D01*
X7565000Y2025000D02*
Y2625000D01*
X360000Y1420000D02*
X590000D01*
X360000Y1880000D02*
X590000D01*
X360000Y1420000D02*
Y1880000D01*
X590000Y1420000D02*
Y1880000D01*
X8559520Y1483860D02*
Y1863860D01*
X9159520Y1483860D02*
Y1863860D01*
X8559520D02*
X9159520D01*
X8559520Y1483860D02*
X9159520D01*
X6277500Y155000D02*
X6957500D01*
X6277500Y1020000D02*
X6957500D01*
X6277500Y155000D02*
Y1020000D01*
X6957500Y155000D02*
Y1020000D01*
X5577500D02*
X6257500D01*
X5577500Y155000D02*
X6257500D01*
Y1020000D01*
X5577500Y155000D02*
Y1020000D01*
X3865000Y5260000D02*
Y5560000D01*
X4015000Y5260000D02*
Y5560000D01*
X3865000Y5260000D02*
X4015000D01*
X3865000Y5560000D02*
X4015000D01*
X3140000Y4110000D02*
X3480000D01*
X3140000Y3910000D02*
X3480000D01*
X3140000D02*
Y4110000D01*
X3480000Y3910000D02*
Y4110000D01*
X3905000Y12002500D02*
X4105000D01*
X3905000Y12342500D02*
X4105000D01*
X3905000Y12002500D02*
Y12342500D01*
X4105000Y12002500D02*
Y12342500D01*
X8550000Y4970000D02*
Y5440000D01*
X8870000Y4970000D02*
Y5440000D01*
X8550000Y4970000D02*
X8870000D01*
X8550000Y5440000D02*
X8870000D01*
X7982500Y4450000D02*
X8452500D01*
X7982500Y4770000D02*
X8452500D01*
Y4450000D02*
Y4770000D01*
X7982500Y4450000D02*
Y4770000D01*
X7476140Y3871481D02*
X7776140D01*
X7476140Y4021481D02*
X7776140D01*
Y3871481D02*
Y4021481D01*
X7476140Y3871481D02*
Y4021481D01*
X7735000Y4022500D02*
Y4172500D01*
X7485001Y4022500D02*
Y4172500D01*
Y4022500D02*
X7735000D01*
X7485001Y4172500D02*
X7735000D01*
X7465000Y4172500D02*
Y4322500D01*
X7715000Y4172500D02*
Y4322500D01*
X7465000D02*
X7715000D01*
X7465000Y4172500D02*
X7715000D01*
X185000Y7545000D02*
X645000D01*
X185000Y7775000D02*
X645000D01*
Y7545000D02*
Y7775000D01*
X185000Y7545000D02*
Y7775000D01*
X1145000Y1880000D02*
X1375000D01*
X1145000Y1420000D02*
X1375000D01*
Y1880000D01*
X1145000Y1420000D02*
Y1880000D01*
X895000D02*
X1125000D01*
X895000Y1420000D02*
X1125000D01*
Y1880000D01*
X895000Y1420000D02*
Y1880000D01*
X980000Y8295000D02*
X1210000D01*
X980000Y8755000D02*
X1210000D01*
X980000Y8295000D02*
Y8755000D01*
X1210000Y8295000D02*
Y8755000D01*
X610000Y1420000D02*
X840000D01*
X610000Y1880000D02*
X840000D01*
X610000Y1420000D02*
Y1880000D01*
X840000Y1420000D02*
Y1880000D01*
X3737500Y7415000D02*
Y7565000D01*
X3987500Y7415000D02*
Y7565000D01*
X3737500D02*
X3987500D01*
X3737500Y7415000D02*
X3987500D01*
X3985000Y7257500D02*
Y7407500D01*
X3735000Y7257500D02*
Y7407500D01*
Y7257500D02*
X3985000D01*
X3735000Y7407500D02*
X3985000D01*
X2412500Y6530000D02*
Y6680000D01*
X2662500Y6530000D02*
Y6680000D01*
X2412500D02*
X2662500D01*
X2412500Y6530000D02*
X2662500D01*
X2412500Y6230000D02*
Y6380000D01*
X2662500Y6230000D02*
Y6380000D01*
X2412500D02*
X2662500D01*
X2412500Y6230000D02*
X2662500D01*
X2412500Y6380000D02*
Y6530000D01*
X2662500Y6380000D02*
Y6530000D01*
X2412500D02*
X2662500D01*
X2412500Y6380000D02*
X2662500D01*
X2412500Y6080000D02*
Y6230000D01*
X2662500Y6080000D02*
Y6230000D01*
X2412500D02*
X2662500D01*
X2412500Y6080000D02*
X2662500D01*
X2755000Y5885000D02*
Y6035000D01*
X2505000Y5885000D02*
Y6035000D01*
Y5885000D02*
X2755000D01*
X2505000Y6035000D02*
X2755000D01*
X3687500Y6512500D02*
X3837500D01*
X3687500Y6262500D02*
X3837500D01*
Y6512500D01*
X3687500Y6262500D02*
Y6512500D01*
X5675000Y5470000D02*
Y5770000D01*
X5825000Y5470000D02*
Y5770000D01*
X5675000Y5470000D02*
X5825000D01*
X5675000Y5770000D02*
X5825000D01*
X3160000Y2905000D02*
X3460000D01*
X3160000Y2755000D02*
X3460000D01*
X3160000D02*
Y2905000D01*
X3460000Y2755000D02*
Y2905000D01*
X3140000Y3110000D02*
X3480000D01*
X3140000Y2910000D02*
X3480000D01*
X3140000D02*
Y3110000D01*
X3480000Y2910000D02*
Y3110000D01*
X3140000Y3310000D02*
X3480000D01*
X3140000Y3110000D02*
X3480000D01*
X3140000D02*
Y3310000D01*
X3480000Y3110000D02*
Y3310000D01*
X3140000Y3710000D02*
X3480000D01*
X3140000Y3510000D02*
X3480000D01*
X3140000D02*
Y3710000D01*
X3480000Y3510000D02*
Y3710000D01*
X3140000Y3510000D02*
X3480000D01*
X3140000Y3310000D02*
X3480000D01*
X3140000D02*
Y3510000D01*
X3480000Y3310000D02*
Y3510000D01*
X3140000Y3910000D02*
X3480000D01*
X3140000Y3710000D02*
X3480000D01*
X3140000D02*
Y3910000D01*
X3480000Y3710000D02*
Y3910000D01*
X5677500Y6660000D02*
X6542500D01*
X5677500Y5980000D02*
X6542500D01*
X5677500D02*
Y6660000D01*
X6542500Y5980000D02*
Y6660000D01*
%TF.MD5,563805229b987beb08d5acffe9ce587c*%
M02*
