%TF.GenerationSoftware,Altium Limited,Altium Designer,22.1.2 (22)*%
G04 Layer_Color=65535*
%FSLAX45Y45*%
%MOMM*%
%TF.SameCoordinates,C5451D44-FA68-4CDD-92CA-08ED0B408621*%
%TF.FilePolarity,Positive*%
%TF.FileFunction,Legend,Top*%
%TF.Part,Single*%
G01*
G75*
%TA.AperFunction,NonConductor*%
%ADD81C,0.25000*%
%ADD101C,0.50000*%
%ADD102C,0.60000*%
%ADD103C,0.10000*%
%ADD104C,0.40000*%
%ADD105C,0.25400*%
%ADD106C,0.20000*%
%ADD107C,0.12700*%
%ADD108C,0.15000*%
%ADD109C,0.15240*%
%ADD110C,0.07620*%
D81*
X4680000Y8360000D02*
G03*
X4680000Y8360000I-12500J0D01*
G01*
X5462500Y9587500D02*
G03*
X5462500Y9587500I-12500J0D01*
G01*
Y10017500D02*
G03*
X5462500Y10017500I-12500J0D01*
G01*
X8547500Y11357000D02*
G03*
X8547500Y11357000I-12500J0D01*
G01*
X8017500Y11195500D02*
G03*
X8017500Y11195500I-12500J0D01*
G01*
X6302492Y9272492D02*
G03*
X6302492Y9272492I-12500J0D01*
G01*
X6577500Y10757500D02*
G03*
X6577500Y10757500I-12500J0D01*
G01*
X4377500Y12625000D02*
G03*
X4377500Y12625000I-12500J0D01*
G01*
X1657500Y12802499D02*
G03*
X1657500Y12802499I-12500J0D01*
G01*
X3200000Y12320000D02*
G03*
X3200000Y12320000I-12500J0D01*
G01*
X2649600Y11879600D02*
G03*
X2649600Y11879600I-12500J0D01*
G01*
X2145599Y11427801D02*
G03*
X2145599Y11427801I-12500J0D01*
G01*
X2145000Y10492500D02*
G03*
X2145000Y10492500I-12500J0D01*
G01*
X3879699Y10760800D02*
G03*
X3879699Y10760800I-12500J0D01*
G01*
X4322500Y9972500D02*
G03*
X4322500Y9972500I-12500J0D01*
G01*
X3347500Y10040000D02*
G03*
X3347500Y10040000I-12500J0D01*
G01*
X4322500Y8852500D02*
G03*
X4322500Y8852500I-12500J0D01*
G01*
X3316900Y9293300D02*
G03*
X3316900Y9293300I-12500J0D01*
G01*
X2202500Y9410000D02*
G03*
X2202500Y9410000I-12500J0D01*
G01*
X2682171Y8378515D02*
G03*
X2682171Y8378515I-12500J0D01*
G01*
X3195000Y8360000D02*
G03*
X3195000Y8360000I-12500J0D01*
G01*
X2453495Y8189243D02*
G03*
X2453495Y8189243I-12500J0D01*
G01*
X7334500Y8515000D02*
G03*
X7334500Y8515000I-12500J0D01*
G01*
X7834500D02*
G03*
X7834500Y8515000I-12500J0D01*
G01*
X8334500D02*
G03*
X8334500Y8515000I-12500J0D01*
G01*
X8820000Y8470000D02*
G03*
X8820000Y8470000I-12500J0D01*
G01*
X6437500Y8710000D02*
G03*
X6437500Y8710000I-12500J0D01*
G01*
X5475000Y8645000D02*
G03*
X5475000Y8645000I-12500J0D01*
G01*
X3785000Y8450000D02*
G03*
X3785000Y8450000I-12500J0D01*
G01*
X4720500Y7917500D02*
G03*
X4720500Y7917500I-12500J0D01*
G01*
X5448000Y7922500D02*
G03*
X5448000Y7922500I-12500J0D01*
G01*
X2890000Y6537500D02*
G03*
X2890000Y6537500I-12500J0D01*
G01*
X6600000Y5160000D02*
G03*
X6600000Y5160000I-430000J0D01*
G01*
X4480000Y3290000D02*
G03*
X4480000Y3290000I-430000J0D01*
G01*
X5717500Y4200000D02*
G03*
X5717500Y4200000I-12500J0D01*
G01*
X8067500Y5072500D02*
G03*
X8067500Y5072500I-12500J0D01*
G01*
X8105000Y600000D02*
G03*
X8105000Y600000I-430000J0D01*
G01*
X5280000D02*
G03*
X5280000Y600000I-430000J0D01*
G01*
X4080000D02*
G03*
X4080000Y600000I-430000J0D01*
G01*
X6410000Y162500D02*
G03*
X6410000Y162500I-12500J0D01*
G01*
X6150000Y1012500D02*
G03*
X6150000Y1012500I-12500J0D01*
G01*
X938234Y8240000D02*
G03*
X938234Y8240000I-425734J0D01*
G01*
X940734Y9167500D02*
G03*
X940734Y9167500I-425734J0D01*
G01*
X5590000Y4160000D02*
G03*
X5590000Y4160000I-430000J0D01*
G01*
X5610000Y6250000D02*
G03*
X5610000Y6250000I-430000J0D01*
G01*
X6547500Y6100000D02*
G03*
X6547500Y6100000I-12500J0D01*
G01*
D101*
X1250000Y12800000D02*
G03*
X1250000Y12800000I-550000J0D01*
G01*
X9350000D02*
G03*
X9350000Y12800000I-550000J0D01*
G01*
X8864142Y10588000D02*
G03*
X8864142Y10588000I-14142J0D01*
G01*
X8099748Y10200899D02*
G03*
X8099748Y10200899I-25400J0D01*
G01*
X6344142Y12600000D02*
G03*
X6344142Y12600000I-14142J0D01*
G01*
X6375400Y12725000D02*
G03*
X6375400Y12725000I-25400J0D01*
G01*
X1250000Y6800000D02*
G03*
X1250000Y6800000I-550000J0D01*
G01*
X9350000D02*
G03*
X9350000Y6800000I-550000J0D01*
G01*
Y700000D02*
G03*
X9350000Y700000I-550000J0D01*
G01*
X1250000D02*
G03*
X1250000Y700000I-550000J0D01*
G01*
D102*
X8355000Y11482500D02*
G03*
X8355000Y11482500I-30000J0D01*
G01*
X8245000Y11070000D02*
G03*
X8245000Y11070000I-30000J0D01*
G01*
X6805000Y10622500D02*
G03*
X6805000Y10622500I-30000J0D01*
G01*
X7235000Y8295000D02*
G03*
X7235000Y8295000I-30000J0D01*
G01*
X7735000D02*
G03*
X7735000Y8295000I-30000J0D01*
G01*
X8235000D02*
G03*
X8235000Y8295000I-30000J0D01*
G01*
X8735000D02*
G03*
X8735000Y8295000I-30000J0D01*
G01*
X6342500Y8514999D02*
G03*
X6342500Y8514999I-30000J0D01*
G01*
X4612500Y7707500D02*
G03*
X4612500Y7707500I-30000J0D01*
G01*
X5340000Y7712500D02*
G03*
X5340000Y7712500I-30000J0D01*
G01*
D103*
X708500Y9944000D02*
G03*
X708500Y9944000I-5000J0D01*
G01*
X1010000Y7825000D02*
G03*
X1010000Y7825000I-5000J0D01*
G01*
X7742640Y4292980D02*
G03*
X7742640Y4292980I-5000J0D01*
G01*
X390000Y1445000D02*
G03*
X390000Y1445000I-5000J0D01*
G01*
X1355000Y1855000D02*
G03*
X1355000Y1855000I-5000J0D01*
G01*
X1105000D02*
G03*
X1105000Y1855000I-5000J0D01*
G01*
X1010000Y8320000D02*
G03*
X1010000Y8320000I-5000J0D01*
G01*
X640000Y1445000D02*
G03*
X640000Y1445000I-5000J0D01*
G01*
X3470000Y5507000D02*
Y5534500D01*
X3497500D01*
X3782500D02*
X3810000D01*
Y5507000D02*
Y5534500D01*
Y5194500D02*
Y5222000D01*
X3782500Y5194500D02*
X3810000D01*
X3470000D02*
X3497500D01*
X3470000D02*
Y5222000D01*
X3110000Y5507000D02*
Y5534500D01*
X3137500D01*
X3422500D02*
X3450000D01*
Y5507000D02*
Y5534500D01*
Y5194500D02*
Y5222000D01*
X3422500Y5194500D02*
X3450000D01*
X3110000D02*
X3137500D01*
X3110000D02*
Y5222000D01*
Y5012501D02*
Y5040000D01*
X3137500D01*
X3422500D02*
X3450000D01*
Y5012501D02*
Y5040000D01*
Y4700001D02*
Y4727500D01*
X3422500Y4700001D02*
X3450000D01*
X3110000D02*
X3137500D01*
X3110000D02*
Y4727500D01*
X3470000Y5012501D02*
Y5040000D01*
X3497500D01*
X3782500D02*
X3810000D01*
Y5012501D02*
Y5040000D01*
Y4700001D02*
Y4727500D01*
X3782500Y4700001D02*
X3810000D01*
X3470000D02*
X3497500D01*
X3470000D02*
Y4727500D01*
X8445000Y2932500D02*
X8555000Y3212500D01*
X8445000D02*
X8555000Y2932500D01*
X7655000Y2772500D02*
X8955000D01*
X7655000D02*
Y3372500D01*
X8955000D01*
Y2772500D02*
Y3372500D01*
X8556000Y2927500D02*
Y3217500D01*
X8444000D02*
X8556000D01*
X8444000Y2927500D02*
Y3217500D01*
Y2927500D02*
X8556000D01*
D104*
X5390000Y8480000D02*
G03*
X5390000Y8480000I-20000J0D01*
G01*
X135000Y5029209D02*
Y5162500D01*
X268291Y5029209D01*
X301613D01*
X334936Y5062532D01*
Y5129177D01*
X301613Y5162500D01*
Y4962564D02*
X334936Y4929242D01*
Y4862596D01*
X301613Y4829274D01*
X168323D01*
X135000Y4862596D01*
Y4929242D01*
X168323Y4962564D01*
X301613D01*
X135000Y4629338D02*
Y4762629D01*
X268291Y4629338D01*
X301613D01*
X334936Y4662661D01*
Y4729306D01*
X301613Y4762629D01*
X135000Y4429403D02*
Y4562693D01*
X268291Y4429403D01*
X301613D01*
X334936Y4462725D01*
Y4529370D01*
X301613Y4562693D01*
X234968Y4362757D02*
Y4229467D01*
X301613Y4162822D02*
X334936Y4129499D01*
Y4062854D01*
X301613Y4029531D01*
X168323D01*
X135000Y4062854D01*
Y4129499D01*
X168323Y4162822D01*
X301613D01*
X135000Y3962886D02*
Y3896241D01*
Y3929564D01*
X334936D01*
X301613Y3962886D01*
X234968Y3796273D02*
Y3662983D01*
X135000Y3463047D02*
Y3596338D01*
X268291Y3463047D01*
X301613D01*
X334936Y3496370D01*
Y3563015D01*
X301613Y3596338D01*
X135000Y3296434D02*
X334936D01*
X234968Y3396402D01*
Y3263112D01*
X731581Y5170000D02*
X531645D01*
X631613D01*
Y5036710D01*
X731581D01*
X531645D01*
X664935Y4970064D02*
X564968D01*
X531645Y4936742D01*
Y4836774D01*
X664935D01*
X465000Y4703484D02*
Y4670161D01*
X498323Y4636838D01*
X664935D01*
Y4736806D01*
X631613Y4770129D01*
X564968D01*
X531645Y4736806D01*
Y4636838D01*
Y4536871D02*
Y4470225D01*
X564968Y4436903D01*
X631613D01*
X664935Y4470225D01*
Y4536871D01*
X631613Y4570193D01*
X564968D01*
X531645Y4536871D01*
X731581Y4170322D02*
X531645D01*
Y4070354D01*
X564968Y4037032D01*
X598290D01*
X631613Y4070354D01*
Y4170322D01*
Y4070354D01*
X664935Y4037032D01*
X698258D01*
X731581Y4070354D01*
Y4170322D01*
X531645Y3937064D02*
Y3870418D01*
X564968Y3837096D01*
X631613D01*
X664935Y3870418D01*
Y3937064D01*
X631613Y3970386D01*
X564968D01*
X531645Y3937064D01*
X664935Y3770451D02*
X564968D01*
X531645Y3737128D01*
Y3637160D01*
X498323D01*
X465000Y3670483D01*
Y3703806D01*
X531645Y3637160D02*
X664935D01*
Y3437225D02*
Y3537193D01*
X631613Y3570515D01*
X564968D01*
X531645Y3537193D01*
Y3437225D01*
Y3270612D02*
Y3337257D01*
X564968Y3370579D01*
X631613D01*
X664935Y3337257D01*
Y3270612D01*
X631613Y3237289D01*
X598290D01*
Y3370579D01*
X1672436Y11795000D02*
X1472500D01*
Y11695032D01*
X1505822Y11661709D01*
X1539145D01*
X1572468Y11695032D01*
Y11795000D01*
Y11695032D01*
X1605790Y11661709D01*
X1639113D01*
X1672436Y11695032D01*
Y11795000D01*
X1472500Y11595064D02*
Y11528419D01*
Y11561741D01*
X1605790D01*
Y11595064D01*
X1672436Y11295161D02*
X1472500D01*
Y11395129D01*
X1505822Y11428451D01*
X1572468D01*
X1605790Y11395129D01*
Y11295161D01*
X1472500Y11228516D02*
Y11161870D01*
Y11195193D01*
X1605790D01*
Y11228516D01*
Y11061903D02*
X1472500D01*
X1539145D01*
X1572468Y11028580D01*
X1605790Y10995258D01*
Y10961935D01*
X1472500Y10761999D02*
Y10828645D01*
X1505822Y10861967D01*
X1572468D01*
X1605790Y10828645D01*
Y10761999D01*
X1572468Y10728677D01*
X1539145D01*
Y10861967D01*
X1605790Y10528741D02*
Y10628709D01*
X1572468Y10662032D01*
X1505822D01*
X1472500Y10628709D01*
Y10528741D01*
X1639113Y10428773D02*
X1605790D01*
Y10462096D01*
Y10395451D01*
Y10428773D01*
X1505822D01*
X1472500Y10395451D01*
Y10295483D02*
Y10228838D01*
Y10262161D01*
X1605790D01*
Y10295483D01*
X1472500Y10095548D02*
Y10028902D01*
X1505822Y9995580D01*
X1572468D01*
X1605790Y10028902D01*
Y10095548D01*
X1572468Y10128870D01*
X1505822D01*
X1472500Y10095548D01*
Y9928935D02*
X1605790D01*
Y9828967D01*
X1572468Y9795644D01*
X1472500D01*
X1605790Y9695677D02*
Y9629031D01*
X1572468Y9595709D01*
X1472500D01*
Y9695677D01*
X1505822Y9728999D01*
X1539145Y9695677D01*
Y9595709D01*
X1472500Y9529063D02*
Y9462418D01*
Y9495741D01*
X1672436D01*
Y9529063D01*
X1472500Y9162515D02*
X1605790D01*
X1672436Y9095870D01*
X1605790Y9029225D01*
X1472500D01*
X1572468D01*
Y9162515D01*
X1605790Y8829289D02*
Y8929257D01*
X1572468Y8962579D01*
X1505822D01*
X1472500Y8929257D01*
Y8829289D01*
X1639113Y8729321D02*
X1605790D01*
Y8762644D01*
Y8695999D01*
Y8729321D01*
X1505822D01*
X1472500Y8695999D01*
Y8596031D02*
Y8529386D01*
Y8562709D01*
X1605790D01*
Y8596031D01*
Y8429418D02*
X1472500Y8362773D01*
X1605790Y8296128D01*
X1472500Y8129515D02*
Y8196160D01*
X1505822Y8229483D01*
X1572468D01*
X1605790Y8196160D01*
Y8129515D01*
X1572468Y8096192D01*
X1539145D01*
Y8229483D01*
X1472500Y7829611D02*
X1672436D01*
Y7729644D01*
X1639113Y7696321D01*
X1572468D01*
X1539145Y7729644D01*
Y7829611D01*
Y7762966D02*
X1472500Y7696321D01*
Y7529708D02*
Y7596353D01*
X1505822Y7629676D01*
X1572468D01*
X1605790Y7596353D01*
Y7529708D01*
X1572468Y7496386D01*
X1539145D01*
Y7629676D01*
X1605790Y7296450D02*
Y7396418D01*
X1572468Y7429740D01*
X1505822D01*
X1472500Y7396418D01*
Y7296450D01*
X1639113Y7196482D02*
X1605790D01*
Y7229805D01*
Y7163160D01*
Y7196482D01*
X1505822D01*
X1472500Y7163160D01*
Y7063192D02*
Y6996547D01*
Y7029869D01*
X1605790D01*
Y7063192D01*
X1472500Y6863257D02*
X1639113D01*
X1572468D01*
Y6896579D01*
Y6829934D01*
Y6863257D01*
X1639113D01*
X1672436Y6829934D01*
X1472500Y6729966D02*
Y6663321D01*
Y6696644D01*
X1605790D01*
Y6729966D01*
X1472500Y6463386D02*
Y6530031D01*
X1505822Y6563353D01*
X1572468D01*
X1605790Y6530031D01*
Y6463386D01*
X1572468Y6430063D01*
X1539145D01*
Y6563353D01*
X1605790Y6363418D02*
X1472500D01*
X1539145D01*
X1572468Y6330095D01*
X1605790Y6296773D01*
Y6263450D01*
X6995000Y6449113D02*
X7028322Y6482436D01*
X7094968D01*
X7128290Y6449113D01*
Y6415790D01*
X7094968Y6382468D01*
X7061645D01*
X7094968D01*
X7128290Y6349145D01*
Y6315823D01*
X7094968Y6282500D01*
X7028322D01*
X6995000Y6315823D01*
X7194936Y6449113D02*
X7228258Y6482436D01*
X7294903D01*
X7328226Y6449113D01*
Y6315823D01*
X7294903Y6282500D01*
X7228258D01*
X7194936Y6315823D01*
Y6449113D01*
X7394871D02*
X7428194Y6482436D01*
X7494839D01*
X7528161Y6449113D01*
Y6315823D01*
X7494839Y6282500D01*
X7428194D01*
X7394871Y6315823D01*
Y6449113D01*
X7594807Y6482436D02*
Y6282500D01*
X7661452Y6349145D01*
X7728097Y6282500D01*
Y6482436D01*
X6825000Y6797435D02*
Y6597500D01*
X6924968D01*
X6958290Y6630822D01*
Y6764113D01*
X6924968Y6797435D01*
X6825000D01*
X7158226Y6764113D02*
X7124903Y6797435D01*
X7058258D01*
X7024935Y6764113D01*
Y6630822D01*
X7058258Y6597500D01*
X7124903D01*
X7158226Y6630822D01*
X7524774Y6597500D02*
Y6797435D01*
X7424807Y6697468D01*
X7558097D01*
X7624742Y6764113D02*
X7658065Y6797435D01*
X7724710D01*
X7758032Y6764113D01*
Y6730790D01*
X7724710Y6697468D01*
X7758032Y6664145D01*
Y6630822D01*
X7724710Y6597500D01*
X7658065D01*
X7624742Y6630822D01*
Y6664145D01*
X7658065Y6697468D01*
X7624742Y6730790D01*
Y6764113D01*
X7658065Y6697468D02*
X7724710D01*
X7824678Y6797435D02*
Y6664145D01*
X7891323Y6597500D01*
X7957968Y6664145D01*
Y6797435D01*
X6145000Y6925000D02*
Y7058290D01*
X6211645Y7124935D01*
X6278290Y7058290D01*
Y6925000D01*
Y7024968D01*
X6145000D01*
X6478226Y7091613D02*
X6444903Y7124935D01*
X6378258D01*
X6344935Y7091613D01*
Y6958322D01*
X6378258Y6925000D01*
X6444903D01*
X6478226Y6958322D01*
X6744807Y6925000D02*
X6811452D01*
X6778129D01*
Y7124935D01*
X6744807Y7091613D01*
X7044710Y6925000D02*
X6911420D01*
X7044710Y7058290D01*
Y7091613D01*
X7011387Y7124935D01*
X6944742D01*
X6911420Y7091613D01*
X7111355Y7124935D02*
Y6991645D01*
X7178000Y6925000D01*
X7244645Y6991645D01*
Y7124935D01*
X7511226Y6925000D02*
Y7124935D01*
X7611194D01*
X7644517Y7091613D01*
Y7024968D01*
X7611194Y6991645D01*
X7511226D01*
X7577871D02*
X7644517Y6925000D01*
X7711162D02*
Y7124935D01*
X7777807Y7058290D01*
X7844452Y7124935D01*
Y6925000D01*
X8044388Y7091613D02*
X8011065Y7124935D01*
X7944420D01*
X7911097Y7091613D01*
Y7058290D01*
X7944420Y7024968D01*
X8011065D01*
X8044388Y6991645D01*
Y6958322D01*
X8011065Y6925000D01*
X7944420D01*
X7911097Y6958322D01*
X4510887Y6278290D02*
X4477564Y6244967D01*
Y6178322D01*
X4510887Y6145000D01*
X4644177D01*
X4677500Y6178322D01*
Y6244967D01*
X4644177Y6278290D01*
X4577532Y6344935D02*
Y6478226D01*
X4450887Y4130790D02*
X4417564Y4097468D01*
Y4030822D01*
X4450887Y3997500D01*
X4584177D01*
X4617500Y4030822D01*
Y4097468D01*
X4584177Y4130790D01*
X4517532Y4197435D02*
Y4330726D01*
X4450887Y4264080D02*
X4584177D01*
X6715065Y4823290D02*
X6681742Y4789968D01*
Y4723323D01*
X6715065Y4690000D01*
X6848355D01*
X6881678Y4723323D01*
Y4789968D01*
X6848355Y4823290D01*
X6915000Y4889936D02*
Y5023226D01*
X6715065Y5223162D02*
X6681742Y5189839D01*
Y5123194D01*
X6715065Y5089871D01*
X6848355D01*
X6881678Y5123194D01*
Y5189839D01*
X6848355Y5223162D01*
X6781710D01*
Y5156516D01*
X6881678Y5289807D02*
X6681742D01*
X6881678Y5423097D01*
X6681742D01*
Y5489742D02*
X6881678D01*
Y5589710D01*
X6848355Y5623033D01*
X6715065D01*
X6681742Y5589710D01*
Y5489742D01*
X6987564Y322500D02*
X7187500D01*
Y422468D01*
X7154177Y455790D01*
X7020887D01*
X6987564Y422468D01*
Y322500D01*
X7020887Y655726D02*
X6987564Y622403D01*
Y555758D01*
X7020887Y522436D01*
X7154177D01*
X7187500Y555758D01*
Y622403D01*
X7154177Y655726D01*
X7087532Y722371D02*
Y855661D01*
X5345064Y322500D02*
X5545000D01*
Y422468D01*
X5511677Y455790D01*
X5378387D01*
X5345064Y422468D01*
Y322500D01*
X5378387Y655726D02*
X5345064Y622403D01*
Y555758D01*
X5378387Y522435D01*
X5511677D01*
X5545000Y555758D01*
Y622403D01*
X5511677Y655726D01*
X5445032Y722371D02*
Y855661D01*
X5378387Y789016D02*
X5511677D01*
X4604177Y2212500D02*
X4470887D01*
X4404242Y2279145D01*
X4470887Y2345790D01*
X4604177D01*
X4504210D01*
Y2212500D01*
X4437565Y2545726D02*
X4404242Y2512403D01*
Y2445758D01*
X4437565Y2412436D01*
X4570855D01*
X4604177Y2445758D01*
Y2512403D01*
X4570855Y2545726D01*
X4637500Y2612371D02*
Y2745662D01*
X4604177Y2812307D02*
X4404242D01*
X4604177Y2945597D01*
X4404242D01*
X2374196Y127068D02*
Y260358D01*
X2440841Y327003D01*
X2507486Y260358D01*
Y127068D01*
Y227036D01*
X2374196D01*
X2707422Y293681D02*
X2674100Y327003D01*
X2607454D01*
X2574132Y293681D01*
Y160390D01*
X2607454Y127068D01*
X2674100D01*
X2707422Y160390D01*
X2774067Y93745D02*
X2907358D01*
X2974003Y327003D02*
Y127068D01*
X3107293D01*
D105*
X4375000Y12950000D02*
Y12975000D01*
X4352500Y12950000D02*
Y12975000D01*
X4375000D01*
X4352500Y12950000D02*
X4375000D01*
X4325000Y13275000D02*
X4500000D01*
X4325000Y13350000D02*
X4500000D01*
Y13275000D02*
Y13350000D01*
X4325000Y13275000D02*
Y13350000D01*
X4450000Y13052499D02*
X4475000D01*
X4450000Y13075000D02*
X4475000D01*
Y13052499D02*
Y13075000D01*
X4450000Y13052499D02*
Y13075000D01*
X4350000Y13052499D02*
X4375000D01*
X4350000Y13075000D02*
X4375000D01*
Y13052499D02*
Y13075000D01*
X4350000Y13052499D02*
Y13075000D01*
Y13302499D02*
X4375000D01*
X4350000Y13325000D02*
X4375000D01*
Y13302499D02*
Y13325000D01*
X4350000Y13302499D02*
Y13325000D01*
X4450000Y13202499D02*
X4475000D01*
X4450000Y13225000D02*
X4475000D01*
Y13202499D02*
Y13225000D01*
X4450000Y13202499D02*
Y13225000D01*
X4425000Y12925000D02*
X4500000D01*
X4425000Y13100000D02*
X4500000D01*
Y12925000D02*
Y13100000D01*
X4425000Y12925000D02*
Y13100000D01*
X4375000Y13200000D02*
Y13225000D01*
X4352500Y13200000D02*
Y13225000D01*
X4375000D01*
X4352500Y13200000D02*
X4375000D01*
X4450000Y12952499D02*
X4475000D01*
X4450000Y12975000D02*
X4475000D01*
Y12952499D02*
Y12975000D01*
X4450000Y12952499D02*
Y12975000D01*
Y13302499D02*
X4475000D01*
X4450000Y13325000D02*
X4475000D01*
Y13302499D02*
Y13325000D01*
X4450000Y13302499D02*
Y13325000D01*
X8905000Y10638000D02*
X9392500D01*
Y12109600D01*
X8905000D02*
X9392500D01*
X8905000Y10638000D02*
Y12109600D01*
X7896548Y8854699D02*
Y10124699D01*
Y8854699D02*
X8810948D01*
Y10124699D01*
X7896548D02*
X8810948D01*
X6380000Y11975000D02*
Y12625000D01*
Y11975000D02*
X7851600D01*
Y12625000D01*
X6380000D02*
X7851600D01*
X985000Y7950000D02*
X1205000D01*
X1517500Y387500D02*
Y2732500D01*
X3082500D01*
Y387500D02*
Y2732500D01*
X1517500Y387500D02*
X3082500D01*
X4745000Y1987500D02*
X7090000D01*
X4745000D02*
Y3552500D01*
X7090000D01*
Y1987500D02*
Y3552500D01*
X6277200Y12653000D02*
Y13161000D01*
X5362800D02*
X6277200D01*
X5362800Y12653000D02*
Y13161000D01*
Y12653000D02*
X6277200D01*
X365000Y1570000D02*
X585000D01*
X1150000Y1730000D02*
X1370000D01*
X900000D02*
X1120000D01*
X985000Y8445000D02*
X1205000D01*
X615000Y1570000D02*
X835000D01*
X4400000Y1097500D02*
Y1897500D01*
Y1097500D02*
X8125000D01*
Y1897500D01*
X4400000D02*
X8125000D01*
X1902359Y1364601D02*
X1927751Y1339209D01*
Y1288425D01*
X1902359Y1263033D01*
X1876968D01*
X1851576Y1288425D01*
X1826184Y1263033D01*
X1800792D01*
X1775400Y1288425D01*
Y1339209D01*
X1800792Y1364601D01*
X1826184D01*
X1851576Y1339209D01*
X1876968Y1364601D01*
X1902359D01*
X1851576Y1339209D02*
Y1288425D01*
X1927751Y1110683D02*
X1902359Y1161466D01*
X1851576Y1212250D01*
X1800792D01*
X1775400Y1186858D01*
Y1136074D01*
X1800792Y1110683D01*
X1826184D01*
X1851576Y1136074D01*
Y1212250D01*
Y602847D02*
Y501280D01*
X1902359Y552063D02*
X1800792D01*
X2802358Y1374601D02*
X2827750Y1349209D01*
Y1298425D01*
X2802358Y1273033D01*
X2776967D01*
X2751575Y1298425D01*
X2726183Y1273033D01*
X2700791D01*
X2675399Y1298425D01*
Y1349209D01*
X2700791Y1374601D01*
X2726183D01*
X2751575Y1349209D01*
X2776967Y1374601D01*
X2802358D01*
X2751575Y1349209D02*
Y1298425D01*
X2827750Y1120683D02*
Y1222250D01*
X2751575D01*
X2776967Y1171466D01*
Y1146074D01*
X2751575Y1120683D01*
X2700791D01*
X2675399Y1146074D01*
Y1196858D01*
X2700791Y1222250D01*
X2751575Y612847D02*
Y511280D01*
X990000Y2301567D02*
Y2200000D01*
Y2233856D01*
X1057712Y2301567D01*
X1006928Y2250784D01*
X1057712Y2200000D01*
X6112899Y2372359D02*
X6138291Y2397751D01*
X6189075D01*
X6214467Y2372359D01*
Y2346967D01*
X6189075Y2321575D01*
X6214467Y2296184D01*
Y2270792D01*
X6189075Y2245400D01*
X6138291D01*
X6112899Y2270792D01*
Y2296184D01*
X6138291Y2321575D01*
X6112899Y2346967D01*
Y2372359D01*
X6138291Y2321575D02*
X6189075D01*
X6366817Y2397751D02*
X6316034Y2372359D01*
X6265250Y2321575D01*
Y2270792D01*
X6290642Y2245400D01*
X6341425D01*
X6366817Y2270792D01*
Y2296184D01*
X6341425Y2321575D01*
X6265250D01*
X6874653D02*
X6976220D01*
X6925436Y2372359D02*
Y2270792D01*
X6102899Y3272358D02*
X6128291Y3297750D01*
X6179075D01*
X6204467Y3272358D01*
Y3246966D01*
X6179075Y3221574D01*
X6204467Y3196183D01*
Y3170791D01*
X6179075Y3145399D01*
X6128291D01*
X6102899Y3170791D01*
Y3196183D01*
X6128291Y3221574D01*
X6102899Y3246966D01*
Y3272358D01*
X6128291Y3221574D02*
X6179075D01*
X6356817Y3297750D02*
X6255250D01*
Y3221574D01*
X6306034Y3246966D01*
X6331425D01*
X6356817Y3221574D01*
Y3170791D01*
X6331425Y3145399D01*
X6280642D01*
X6255250Y3170791D01*
X6864653Y3221574D02*
X6966220D01*
X7790000Y5413433D02*
Y5515000D01*
Y5481144D01*
X7722289Y5413433D01*
X7773072Y5464216D01*
X7722289Y5515000D01*
X6648433Y13139999D02*
X6750000D01*
X6716144D01*
X6648433Y13207710D01*
X6699216Y13156927D01*
X6750000Y13207710D01*
X7023433Y13139999D02*
X7125000D01*
X7091144D01*
X7023433Y13207710D01*
X7074216Y13156927D01*
X7125000Y13207710D01*
X7398433Y13139999D02*
X7500000D01*
X7466144D01*
X7398433Y13207710D01*
X7449216Y13156927D01*
X7500000Y13207710D01*
X7798433Y13139999D02*
X7900000D01*
X7866144D01*
X7798433Y13207710D01*
X7849216Y13156927D01*
X7900000Y13207710D01*
X6026967Y1825251D02*
X5925400D01*
Y1749075D01*
X5976184D01*
X5925400D01*
Y1672900D01*
X6077751Y1825251D02*
Y1698292D01*
X6103143Y1672900D01*
X6153926D01*
X6179318Y1698292D01*
Y1825251D01*
X6331669Y1799859D02*
X6306277Y1825251D01*
X6255493D01*
X6230102Y1799859D01*
Y1774467D01*
X6255493Y1749075D01*
X6306277D01*
X6331669Y1723683D01*
Y1698292D01*
X6306277Y1672900D01*
X6255493D01*
X6230102Y1698292D01*
X6484020Y1825251D02*
X6382452D01*
Y1672900D01*
X6484020D01*
X6382452Y1749075D02*
X6433236D01*
X6201967Y1575251D02*
X6151184Y1549859D01*
X6100400Y1499075D01*
Y1448292D01*
X6125792Y1422900D01*
X6176575D01*
X6201967Y1448292D01*
Y1473683D01*
X6176575Y1499075D01*
X6100400D01*
X6252751Y1422900D02*
Y1524467D01*
X6303534Y1575251D01*
X6354318Y1524467D01*
Y1422900D01*
Y1499075D01*
X6252751D01*
X5901967Y1325251D02*
X5851184Y1299859D01*
X5800400Y1249075D01*
Y1198292D01*
X5825792Y1172900D01*
X5876575D01*
X5901967Y1198292D01*
Y1223683D01*
X5876575Y1249075D01*
X5800400D01*
X5952751Y1299859D02*
X5978143Y1325251D01*
X6028926D01*
X6054318Y1299859D01*
Y1198292D01*
X6028926Y1172900D01*
X5978143D01*
X5952751Y1198292D01*
Y1299859D01*
X6105102Y1325251D02*
Y1223683D01*
X6155885Y1172900D01*
X6206669Y1223683D01*
Y1325251D01*
X6409803D02*
Y1172900D01*
X6485978D01*
X6511370Y1198292D01*
Y1299859D01*
X6485978Y1325251D01*
X6409803D01*
X6663721Y1299859D02*
X6638329Y1325251D01*
X6587546D01*
X6562154Y1299859D01*
Y1198292D01*
X6587546Y1172900D01*
X6638329D01*
X6663721Y1198292D01*
D106*
X4480000Y8390000D02*
X4580000D01*
X4480000Y8690000D02*
X4580000D01*
Y8390000D02*
Y8690000D01*
X4480000Y8390000D02*
Y8690000D01*
X5420000Y9400000D02*
Y9500000D01*
X5120000Y9400000D02*
Y9500000D01*
X5420000D01*
X5120000Y9400000D02*
X5420000D01*
Y9830000D02*
Y9930000D01*
X5120000Y9830000D02*
Y9930000D01*
X5420000D01*
X5120000Y9830000D02*
X5420000D01*
X8105000Y11882500D02*
X8425000D01*
X8105000Y11382500D02*
X8425000D01*
X8105000D02*
Y11882500D01*
X8425000Y11382500D02*
Y11882500D01*
X8115000Y10670000D02*
X8434999D01*
X8115000Y11170000D02*
X8434999D01*
Y10670000D02*
Y11170000D01*
X8115000Y10670000D02*
Y11170000D01*
X8853198Y9068199D02*
Y9088199D01*
X9103198Y9068199D02*
Y9088199D01*
X6530000Y11290000D02*
X6610000D01*
X6675000Y10102500D02*
Y10722500D01*
X7295000Y10102500D02*
Y10722500D01*
X6675000D02*
X7295000D01*
X6675000Y10102500D02*
X7295000D01*
X5029853Y12806421D02*
X5086421Y12749853D01*
X4457500Y12590000D02*
X4537500D01*
X4457500Y12300000D02*
X4537500D01*
X4457500D02*
Y12590000D01*
X4537500Y12300000D02*
Y12590000D01*
X1665000Y12855000D02*
Y12955000D01*
X1965000Y12855000D02*
Y12955000D01*
X1665000Y12855000D02*
X1965000D01*
X1665000Y12955000D02*
X1965000D01*
X2967500Y12345000D02*
X3047500D01*
X2967500Y12635000D02*
X3047500D01*
Y12345000D02*
Y12635000D01*
X2967500Y12345000D02*
Y12635000D01*
X2464600Y11914600D02*
X2544600D01*
X2464600Y12204600D02*
X2544600D01*
Y11914600D02*
Y12204600D01*
X2464600Y11914600D02*
Y12204600D01*
X2225599Y11392800D02*
X2305599D01*
X2225599Y11102801D02*
X2305599D01*
X2225599D02*
Y11392800D01*
X2305599Y11102801D02*
Y11392800D01*
X2225000Y10457500D02*
X2305000D01*
X2225000Y10167500D02*
X2305000D01*
X2225000D02*
Y10457500D01*
X2305000Y10167500D02*
Y10457500D01*
X1740000Y10180000D02*
Y10260000D01*
X3959699Y10725800D02*
X4039699D01*
X3959699Y10435800D02*
X4039699D01*
X3959699D02*
Y10725800D01*
X4039699Y10435800D02*
Y10725800D01*
X4475000Y9735000D02*
Y9955000D01*
X4415000Y9735000D02*
Y9955000D01*
Y9735000D02*
X4475000D01*
X4415000Y9955000D02*
X4475000D01*
X3427500Y10005000D02*
X3507500D01*
X3427500Y9715000D02*
X3507500D01*
X3427500D02*
Y10005000D01*
X3507500Y9715000D02*
Y10005000D01*
X5250000Y10500000D02*
Y10580000D01*
X4137500Y8887500D02*
X4217500D01*
X4137500Y9177500D02*
X4217500D01*
Y8887500D02*
Y9177500D01*
X4137500Y8887500D02*
Y9177500D01*
X3396900Y9258300D02*
X3476900D01*
X3396900Y8968300D02*
X3476900D01*
X3396900D02*
Y9258300D01*
X3476900Y8968300D02*
Y9258300D01*
X2225000Y9502500D02*
Y9582500D01*
X2515000Y9502500D02*
Y9582500D01*
X2225000Y9502500D02*
X2515000D01*
X2225000Y9582500D02*
X2515000D01*
X2310000Y9135000D02*
X2390000D01*
X2310000Y9290000D02*
X2390000D01*
X2497171Y8413515D02*
X2577171D01*
X2497171Y8703515D02*
X2577171D01*
Y8413515D02*
Y8703515D01*
X2497171Y8413515D02*
Y8703515D01*
X3355000Y8035000D02*
Y8325000D01*
X3275000Y8035000D02*
Y8325000D01*
Y8035000D02*
X3355000D01*
X3275000Y8325000D02*
X3355000D01*
X2533495Y8154243D02*
X2613495D01*
X2533495Y7864243D02*
X2613495D01*
X2533495D02*
Y8154243D01*
X2613495Y7864243D02*
Y8154243D01*
X1904574Y7411890D02*
X1961142Y7355322D01*
X587500Y10845000D02*
Y10965000D01*
X1137500Y10845000D02*
Y10965000D01*
X587500Y10445000D02*
Y10565000D01*
X1137500Y10445000D02*
Y10565000D01*
X587500Y10965000D02*
X1137500D01*
X587500Y10445000D02*
X1137500D01*
X702500Y9984000D02*
X705000D01*
X920000D02*
X922500D01*
X702500Y10241000D02*
X705000D01*
X920000D02*
X922500D01*
X702500Y9984000D02*
Y10012500D01*
Y10210000D02*
Y10241000D01*
X922500Y9984000D02*
Y10012500D01*
Y10210000D02*
Y10241000D01*
X352500Y9900000D02*
Y9920000D01*
X512500Y9900000D02*
Y9920000D01*
X852500Y7737500D02*
X932500D01*
X852500Y7582500D02*
X932500D01*
X6895000Y8395000D02*
X7305000D01*
X6895000Y8005000D02*
X7305000D01*
Y8395000D01*
X6895000Y8005000D02*
Y8395000D01*
X7395000D02*
X7805000D01*
X7395000Y8005000D02*
X7805000D01*
Y8395000D01*
X7395000Y8005000D02*
Y8395000D01*
X7895000D02*
X8305000D01*
X7895000Y8005000D02*
X8305000D01*
Y8395000D01*
X7895000Y8005000D02*
Y8395000D01*
X8395000D02*
X8805000D01*
X8395000Y8005000D02*
X8805000D01*
Y8395000D01*
X8395000Y8005000D02*
Y8395000D01*
X5902500Y8265000D02*
Y8595000D01*
X6412500Y8265000D02*
Y8595000D01*
X5902500Y8265000D02*
X6412500D01*
X5902500Y8595000D02*
X6412500D01*
X5130000Y8560000D02*
X5450000D01*
X5130000Y8350000D02*
X5450000D01*
Y8560000D01*
X5130000Y8350000D02*
Y8560000D01*
X3952500Y8115000D02*
Y8425000D01*
X3852500Y8115000D02*
Y8425000D01*
Y8115000D02*
X3952500D01*
X3852500Y8425000D02*
X3952500D01*
X4182500Y7487500D02*
Y7807500D01*
X4682500Y7487500D02*
Y7807500D01*
X4182500Y7487500D02*
X4682500D01*
X4182500Y7807500D02*
X4682500D01*
X4910000Y7492500D02*
Y7812500D01*
X5410000Y7492500D02*
Y7812500D01*
X4910000Y7492500D02*
X5410000D01*
X4910000Y7812500D02*
X5410000D01*
X2975000Y6015000D02*
X3345000D01*
X2975000Y6525000D02*
X3345000D01*
X3302500Y7022500D02*
X3322500D01*
X3302500Y6772500D02*
X3322500D01*
X4305000Y5495000D02*
Y5515000D01*
X4055000Y5495000D02*
Y5515000D01*
X4630000Y5495000D02*
Y5515000D01*
X4380000Y5495000D02*
Y5515000D01*
X4955000Y5495000D02*
Y5515000D01*
X4705000Y5495000D02*
Y5515000D01*
X5280000Y5495000D02*
Y5515000D01*
X5030000Y5495000D02*
Y5515000D01*
X5605000Y5495000D02*
Y5515000D01*
X5355000Y5495000D02*
Y5515000D01*
X5610000Y4885001D02*
Y4905001D01*
X5360000Y4885001D02*
Y4905001D01*
X5285000Y4885001D02*
Y4905001D01*
X5035000Y4885001D02*
Y4905001D01*
X4960000Y4885001D02*
Y4905001D01*
X4710000Y4885001D02*
Y4905001D01*
X4635000Y4885001D02*
Y4905001D01*
X4385000Y4885001D02*
Y4905001D01*
X4310000Y4885001D02*
Y4905001D01*
X4060000Y4885001D02*
Y4905001D01*
X2930000Y5310000D02*
X3045000D01*
X2930000Y2910000D02*
X3045000D01*
X815000Y5310000D02*
X930000D01*
X815000Y2910000D02*
X930000D01*
X3045000D02*
Y5310000D01*
X815000Y2910000D02*
Y5310000D01*
X985000Y2577500D02*
X1065000D01*
X985000Y2422500D02*
X1065000D01*
X985000Y2330000D02*
X1065000D01*
X985000Y2170000D02*
X1065000D01*
X3245000Y2500000D02*
Y2610000D01*
X3965000Y2500000D02*
Y2610000D01*
X3245000Y1980000D02*
Y2090000D01*
X3965000Y1980000D02*
Y2090000D01*
X3245000Y2610000D02*
X3965000D01*
X3245000Y1980000D02*
X3965000D01*
X3240000Y1800000D02*
Y1910000D01*
X3960000Y1800000D02*
Y1910000D01*
X3240000Y1280000D02*
Y1390000D01*
X3960000Y1280000D02*
Y1390000D01*
X3240000Y1910000D02*
X3960000D01*
X3240000Y1280000D02*
X3960000D01*
X3770000Y4132500D02*
X3850000D01*
X3770000Y4287500D02*
X3850000D01*
X3770000Y3902500D02*
X3850000D01*
X3770000Y4057500D02*
X3850000D01*
X5770000Y4295000D02*
X6490000D01*
X5770000Y3665000D02*
X6490000D01*
X5770000Y4185000D02*
Y4295000D01*
X6490000Y4185000D02*
Y4295000D01*
X5770000Y3665000D02*
Y3775000D01*
X6490000Y3665000D02*
Y3775000D01*
X7715000Y5385000D02*
X7795000D01*
X7715000Y5545000D02*
X7795000D01*
X8425000Y5397500D02*
X8520000D01*
Y5137500D02*
Y5397500D01*
X8060000D02*
X8155000D01*
X8060000Y5137500D02*
Y5397500D01*
X7607500Y4665000D02*
X7627500D01*
X7607500Y4505000D02*
X7627500D01*
X8632500Y4407500D02*
X8752500D01*
X8632500Y3857500D02*
X8752500D01*
X8232500Y4407500D02*
X8352500D01*
X8232500Y3857500D02*
X8352500D01*
X8752500D02*
Y4407500D01*
X8232500Y3857500D02*
Y4407500D01*
X7777640Y4291480D02*
Y4292980D01*
Y4074980D02*
Y4076480D01*
X8034640Y4291480D02*
Y4292980D01*
Y4074980D02*
Y4076480D01*
X7777640Y4292980D02*
X7807500D01*
X8005000D02*
X8034640D01*
X7777640Y4074980D02*
X7807500D01*
X8005000D02*
X8034640D01*
X9360000Y2205000D02*
Y2445000D01*
X9040000Y2205000D02*
Y2445000D01*
X8810000Y2230000D02*
Y2470000D01*
X8490000Y2230000D02*
Y2470000D01*
X8387500Y2230000D02*
Y2470000D01*
X8067500Y2230000D02*
Y2470000D01*
X7645000Y2232500D02*
Y2472500D01*
X7965000Y2232500D02*
Y2472500D01*
X7200000Y2200000D02*
Y2450000D01*
X7550000Y2200000D02*
Y2450000D01*
X6620000Y13135001D02*
Y13214999D01*
X6780000Y13135001D02*
Y13214999D01*
X6995000Y13135001D02*
Y13214999D01*
X7155000Y13135001D02*
Y13214999D01*
X7370000Y13135001D02*
Y13214999D01*
X7530000Y13135001D02*
Y13214999D01*
X7770000Y13135001D02*
Y13214999D01*
X7930000Y13135001D02*
Y13214999D01*
X8734520Y1848860D02*
X8984520D01*
X8734520Y1498860D02*
X8984520D01*
X6302500Y227500D02*
Y947500D01*
X6932500Y227500D02*
Y947500D01*
X6302500Y227500D02*
X6412500D01*
X6302500Y947500D02*
X6412500D01*
X6822500Y227500D02*
X6932500D01*
X6822500Y947500D02*
X6932500D01*
X6232500Y227500D02*
Y947500D01*
X5602500Y227500D02*
Y947500D01*
X6122500D02*
X6232500D01*
X6122500Y227500D02*
X6232500D01*
X5602500Y947500D02*
X5712500D01*
X5602500Y227500D02*
X5712500D01*
X8585000Y5195000D02*
Y5215000D01*
X8835000Y5195000D02*
Y5215000D01*
X8207500Y4485000D02*
X8227500D01*
X8207500Y4735000D02*
X8227500D01*
X375000Y7582500D02*
X455000D01*
X375000Y7737500D02*
X455000D01*
X837500Y8590000D02*
Y8690000D01*
X787500Y8640000D02*
X887500D01*
X840000Y9517500D02*
Y9617500D01*
X790000Y9567500D02*
X890000D01*
X5750000Y6525000D02*
Y6635000D01*
X6470000Y6525000D02*
Y6635000D01*
X5750000Y6005000D02*
Y6115000D01*
X6470000Y6005000D02*
Y6115000D01*
X5750000Y6635000D02*
X6470000D01*
X5750000Y6005000D02*
X6470000D01*
D107*
X5019178Y11938849D02*
X5486151Y12405822D01*
X4713849Y12244178D02*
X5180822Y12711151D01*
X5419178Y11688849D02*
X5886151Y12155822D01*
X5113849Y11994178D02*
X5580822Y12461151D01*
X4561311Y13001759D02*
Y13071738D01*
X4596300D01*
X4607963Y13060075D01*
Y13036749D01*
X4596300Y13025085D01*
X4561311D01*
X4631288Y13048412D02*
Y13001759D01*
Y13025085D01*
X4642951Y13036749D01*
X4654614Y13048412D01*
X4666277D01*
X4712929Y13001759D02*
X4736255D01*
X4747918Y13013423D01*
Y13036749D01*
X4736255Y13048412D01*
X4712929D01*
X4701266Y13036749D01*
Y13013423D01*
X4712929Y13001759D01*
X4794569Y12978435D02*
X4806232D01*
X4817895Y12990097D01*
Y13048412D01*
X4782906D01*
X4771243Y13036749D01*
Y13013423D01*
X4782906Y13001759D01*
X4817895D01*
X4841221Y13048412D02*
Y13001759D01*
Y13025085D01*
X4852884Y13036749D01*
X4864547Y13048412D01*
X4876210D01*
X4922861D02*
X4946187D01*
X4957850Y13036749D01*
Y13001759D01*
X4922861D01*
X4911198Y13013423D01*
X4922861Y13025085D01*
X4957850D01*
X4981176Y13001759D02*
Y13048412D01*
X4992839D01*
X5004502Y13036749D01*
Y13001759D01*
Y13036749D01*
X5016165Y13048412D01*
X5027828Y13036749D01*
Y13001759D01*
X5051153D02*
Y13048412D01*
X5062816D01*
X5074479Y13036749D01*
Y13001759D01*
Y13036749D01*
X5086142Y13048412D01*
X5097805Y13036749D01*
Y13001759D01*
X5121131D02*
X5144457D01*
X5132794D01*
Y13048412D01*
X5121131D01*
X5179446Y13001759D02*
Y13048412D01*
X5214434D01*
X5226097Y13036749D01*
Y13001759D01*
X5272749Y12978435D02*
X5284412D01*
X5296075Y12990097D01*
Y13048412D01*
X5261086D01*
X5249423Y13036749D01*
Y13013423D01*
X5261086Y13001759D01*
X5296075D01*
X4561311Y13228435D02*
Y13298412D01*
X4607963Y13228435D01*
Y13298412D01*
X4642951Y13228435D02*
X4666277D01*
X4677940Y13240097D01*
Y13263423D01*
X4666277Y13275085D01*
X4642951D01*
X4631288Y13263423D01*
Y13240097D01*
X4642951Y13228435D01*
X4701266Y13275085D02*
Y13228435D01*
Y13251759D01*
X4712929Y13263423D01*
X4724592Y13275085D01*
X4736255D01*
X4771243Y13228435D02*
Y13275085D01*
X4782906D01*
X4794569Y13263423D01*
Y13228435D01*
Y13263423D01*
X4806232Y13275085D01*
X4817895Y13263423D01*
Y13228435D01*
X4852884Y13275085D02*
X4876210D01*
X4887873Y13263423D01*
Y13228435D01*
X4852884D01*
X4841221Y13240097D01*
X4852884Y13251759D01*
X4887873D01*
X4911198Y13228435D02*
X4934524D01*
X4922861D01*
Y13298412D01*
X4911198D01*
X7566267Y11528478D02*
X7554604Y11516815D01*
Y11493489D01*
X7566267Y11481826D01*
X7612918D01*
X7624581Y11493489D01*
Y11516815D01*
X7612918Y11528478D01*
X7589593D01*
Y11505152D01*
X7624581Y11551803D02*
X7554604D01*
X7624581Y11598455D01*
X7554604D01*
Y11621781D02*
X7624581D01*
Y11656770D01*
X7612918Y11668433D01*
X7566267D01*
X7554604Y11656770D01*
Y11621781D01*
X107700Y2749800D02*
X177678D01*
Y2714811D01*
X166015Y2703148D01*
X142689D01*
X131026Y2714811D01*
Y2749800D01*
Y2726474D02*
X107700Y2703148D01*
Y2644834D02*
Y2668160D01*
X119363Y2679822D01*
X142689D01*
X154352Y2668160D01*
Y2644834D01*
X142689Y2633171D01*
X131026D01*
Y2679822D01*
X154352Y2609845D02*
X107700Y2586519D01*
X154352Y2563193D01*
X107700Y2539867D02*
X119363D01*
Y2528204D01*
X107700D01*
Y2539867D01*
Y2411575D02*
X154352D01*
X177678Y2388249D01*
X154352Y2364924D01*
X107700D01*
X142689D01*
Y2411575D01*
X2638997Y9657700D02*
Y9704352D01*
Y9681026D01*
X2708974D01*
Y9762666D02*
Y9739340D01*
X2697311Y9727678D01*
X2673986D01*
X2662323Y9739340D01*
Y9762666D01*
X2673986Y9774329D01*
X2685648D01*
Y9727678D01*
X2708974Y9797655D02*
X2662323D01*
Y9809318D01*
X2673986Y9820981D01*
X2708974D01*
X2673986D01*
X2662323Y9832644D01*
X2673986Y9844307D01*
X2708974D01*
X2732300Y9867633D02*
X2662323D01*
Y9902621D01*
X2673986Y9914284D01*
X2697311D01*
X2708974Y9902621D01*
Y9867633D01*
X2878974Y10365200D02*
X2808996D01*
Y10400189D01*
X2820659Y10411852D01*
X2843985D01*
X2855648Y10400189D01*
Y10365200D01*
X2820659Y10481829D02*
X2808996Y10470166D01*
Y10446840D01*
X2820659Y10435178D01*
X2867311D01*
X2878974Y10446840D01*
Y10470166D01*
X2867311Y10481829D01*
X2808996Y10505155D02*
X2878974D01*
Y10540144D01*
X2867311Y10551807D01*
X2855648D01*
X2843985Y10540144D01*
Y10505155D01*
Y10540144D01*
X2832322Y10551807D01*
X2820659D01*
X2808996Y10540144D01*
Y10505155D01*
X2890637Y10575133D02*
Y10621784D01*
X2808996Y10645110D02*
Y10691762D01*
Y10668436D01*
X2878974D01*
Y10750076D02*
Y10726750D01*
X2867311Y10715088D01*
X2843985D01*
X2832322Y10726750D01*
Y10750076D01*
X2843985Y10761739D01*
X2855648D01*
Y10715088D01*
X2878974Y10785065D02*
X2832322D01*
Y10796728D01*
X2843985Y10808391D01*
X2878974D01*
X2843985D01*
X2832322Y10820054D01*
X2843985Y10831717D01*
X2878974D01*
X2902300Y10855043D02*
X2832322D01*
Y10890031D01*
X2843985Y10901694D01*
X2867311D01*
X2878974Y10890031D01*
Y10855043D01*
X2016485Y11500200D02*
X2063137Y11523526D01*
X2016485Y11546852D01*
X2074800Y11570178D02*
Y11616829D01*
X2063137Y11640155D02*
X2016485D01*
X1993159Y11663481D01*
X2016485Y11686807D01*
X2063137D01*
X2028148D01*
Y11640155D01*
X2004822Y11756784D02*
X1993159Y11745122D01*
Y11721796D01*
X2004822Y11710133D01*
X2051474D01*
X2063137Y11721796D01*
Y11745122D01*
X2051474Y11756784D01*
X2717322Y12042700D02*
X2763974D01*
X2787300Y12066026D01*
X2763974Y12089351D01*
X2717322D01*
Y12112677D02*
X2787300D01*
Y12147666D01*
X2775637Y12159329D01*
X2763974D01*
X2752311Y12147666D01*
Y12112677D01*
Y12147666D01*
X2740648Y12159329D01*
X2728985D01*
X2717322Y12147666D01*
Y12112677D01*
Y12182655D02*
X2775637D01*
X2787300Y12194318D01*
Y12217644D01*
X2775637Y12229307D01*
X2717322D01*
X2728985Y12299284D02*
X2717322Y12287621D01*
Y12264295D01*
X2728985Y12252632D01*
X2740648D01*
X2752311Y12264295D01*
Y12287621D01*
X2763974Y12299284D01*
X2775637D01*
X2787300Y12287621D01*
Y12264295D01*
X2775637Y12252632D01*
X2752311Y12322610D02*
Y12369262D01*
X3204822Y11735200D02*
X3251474D01*
X3274800Y11758526D01*
X3251474Y11781852D01*
X3204822D01*
Y11805178D02*
X3274800D01*
Y11840166D01*
X3263137Y11851829D01*
X3251474D01*
X3239811Y11840166D01*
Y11805178D01*
Y11840166D01*
X3228148Y11851829D01*
X3216485D01*
X3204822Y11840166D01*
Y11805178D01*
Y11875155D02*
X3263137D01*
X3274800Y11886818D01*
Y11910144D01*
X3263137Y11921807D01*
X3204822D01*
X3216485Y11991784D02*
X3204822Y11980121D01*
Y11956795D01*
X3216485Y11945133D01*
X3228148D01*
X3239811Y11956795D01*
Y11980121D01*
X3251474Y11991784D01*
X3263137D01*
X3274800Y11980121D01*
Y11956795D01*
X3263137Y11945133D01*
X3239811Y12015110D02*
Y12061762D01*
X3216485Y12038436D02*
X3263137D01*
X3597299Y11817700D02*
X3550648D01*
X3527322Y11841026D01*
X3550648Y11864352D01*
X3597299D01*
X3562311D01*
Y11817700D01*
X3527322Y11887678D02*
X3573974D01*
X3597299Y11911003D01*
X3573974Y11934329D01*
X3527322D01*
Y11957655D02*
X3597299D01*
Y11992644D01*
X3585636Y12004307D01*
X3538985D01*
X3527322Y11992644D01*
Y11957655D01*
Y12027633D02*
X3597299D01*
Y12062621D01*
X3585636Y12074284D01*
X3538985D01*
X3527322Y12062621D01*
Y12027633D01*
X3704822Y12092700D02*
X3751474D01*
X3774800Y12116026D01*
X3751474Y12139352D01*
X3704822D01*
X3774800Y12162677D02*
X3728148D01*
Y12174340D01*
X3739811Y12186003D01*
X3774800D01*
X3739811D01*
X3728148Y12197666D01*
X3739811Y12209329D01*
X3774800D01*
Y12232655D02*
Y12255981D01*
Y12244318D01*
X3728148D01*
Y12232655D01*
X3704822Y12337621D02*
X3774800D01*
Y12302632D01*
X3763137Y12290970D01*
X3739811D01*
X3728148Y12302632D01*
Y12337621D01*
X4354352Y11749340D02*
Y11679363D01*
X4319363D01*
X4307700Y11691026D01*
Y11714352D01*
X4319363Y11726015D01*
X4354352D01*
X4377678Y11667700D02*
X4424329D01*
X4494307Y11749340D02*
X4447655D01*
Y11714352D01*
X4470981D01*
X4447655D01*
Y11679363D01*
X4564284Y11749340D02*
X4517633D01*
Y11714352D01*
X4540958D01*
X4517633D01*
Y11679363D01*
X4227700Y11789363D02*
X4251026D01*
X4239363D01*
Y11836015D01*
X4227700D01*
X4286015Y11777700D02*
X4332666D01*
X4402644Y11847678D02*
X4390981Y11859341D01*
X4367655D01*
X4355992Y11847678D01*
Y11836015D01*
X4367655Y11824352D01*
X4390981D01*
X4402644Y11812689D01*
Y11801026D01*
X4390981Y11789363D01*
X4367655D01*
X4355992Y11801026D01*
X4425970Y11789363D02*
Y11859341D01*
X4460958D01*
X4472621Y11847678D01*
Y11824352D01*
X4460958Y11812689D01*
X4425970D01*
X4453159Y10684352D02*
X4523137D01*
Y10649363D01*
X4511474Y10637700D01*
X4488148D01*
X4476485Y10649363D01*
Y10684352D01*
X4534800Y10707678D02*
Y10754329D01*
X4464822Y10824307D02*
X4453159Y10812644D01*
Y10789318D01*
X4464822Y10777655D01*
X4511474D01*
X4523137Y10789318D01*
Y10812644D01*
X4511474Y10824307D01*
X4453159Y10882621D02*
Y10859296D01*
X4464822Y10847633D01*
X4511474D01*
X4523137Y10859296D01*
Y10882621D01*
X4511474Y10894284D01*
X4464822D01*
X4453159Y10882621D01*
X4523137Y10917610D02*
X4453159D01*
X4476485Y10940936D01*
X4453159Y10964262D01*
X4523137D01*
Y10987588D02*
X4453159D01*
Y11022576D01*
X4464822Y11034239D01*
X4488148D01*
X4499811Y11022576D01*
Y10987588D01*
X3097311Y9117700D02*
Y9164351D01*
X3062322Y9234329D02*
Y9187677D01*
X3132300D01*
Y9234329D01*
X3097311Y9187677D02*
Y9211003D01*
X3085648Y9257655D02*
X3132300D01*
X3108974D01*
X3097311Y9269318D01*
X3085648Y9280981D01*
Y9292644D01*
Y9327632D02*
X3132300D01*
X3108974D01*
X3097311Y9339295D01*
X3085648Y9350958D01*
Y9362621D01*
X2665637Y8957700D02*
Y8981026D01*
Y8969363D01*
X2618985D01*
Y8957700D01*
X2677300Y9016014D02*
Y9062666D01*
X2665637Y9085992D02*
X2595660D01*
Y9120981D01*
X2607322Y9132644D01*
X2630648D01*
X2642311Y9120981D01*
Y9085992D01*
X2595660Y9155969D02*
X2642311D01*
X2665637Y9179295D01*
X2642311Y9202621D01*
X2595660D01*
X4710637Y9357700D02*
X4640660D01*
Y9392689D01*
X4652322Y9404352D01*
X4675648D01*
X4687311Y9392689D01*
Y9357700D01*
X4640660Y9427678D02*
X4710637D01*
X4687311Y9451003D01*
X4710637Y9474329D01*
X4640660D01*
X4710637Y9497655D02*
X4640660D01*
X4663985Y9520981D01*
X4640660Y9544307D01*
X4710637D01*
X4722300Y9567633D02*
Y9614284D01*
X4652322Y9684262D02*
X4640660Y9672599D01*
Y9649273D01*
X4652322Y9637610D01*
X4698974D01*
X4710637Y9649273D01*
Y9672599D01*
X4698974Y9684262D01*
X4663985Y9719251D02*
Y9742576D01*
X4675648Y9754239D01*
X4710637D01*
Y9719251D01*
X4698974Y9707588D01*
X4687311Y9719251D01*
Y9754239D01*
X4663985Y9777565D02*
X4710637D01*
X4687311D01*
X4675648Y9789228D01*
X4663985Y9800891D01*
Y9812554D01*
Y9847543D02*
X4710637D01*
X4687311D01*
X4675648Y9859206D01*
X4663985Y9870868D01*
Y9882531D01*
X4710637Y9917520D02*
Y9940846D01*
Y9929183D01*
X4663985D01*
Y9917520D01*
X4710637Y10010824D02*
Y9987498D01*
X4698974Y9975835D01*
X4675648D01*
X4663985Y9987498D01*
Y10010824D01*
X4675648Y10022486D01*
X4687311D01*
Y9975835D01*
X4663985Y10045812D02*
X4710637D01*
X4687311D01*
X4675648Y10057475D01*
X4663985Y10069138D01*
Y10080801D01*
X4417700Y8864352D02*
X4464352D01*
X4534329Y8899340D02*
Y8829363D01*
X4499341D01*
X4487678Y8841026D01*
Y8864352D01*
X4499341Y8876015D01*
X4534329D01*
X4557655Y8817700D02*
X4604307D01*
X4627633Y8899340D02*
X4674284D01*
X4650958D01*
Y8829363D01*
X7488985Y9076852D02*
X7477322Y9065189D01*
Y9041863D01*
X7488985Y9030200D01*
X7535637D01*
X7547300Y9041863D01*
Y9065189D01*
X7535637Y9076852D01*
X7512311D01*
Y9053526D01*
X7547300Y9100177D02*
X7477322D01*
X7547300Y9146829D01*
X7477322D01*
Y9170155D02*
X7547300D01*
Y9205144D01*
X7535637Y9216807D01*
X7488985D01*
X7477322Y9205144D01*
Y9170155D01*
X2970540Y9048933D02*
X2923888D01*
X2900562Y9072259D01*
X2923888Y9095585D01*
X2970540D01*
X2935551D01*
Y9048933D01*
X2900562Y9118910D02*
X2947214D01*
X2970540Y9142236D01*
X2947214Y9165562D01*
X2900562D01*
X2912225Y9235540D02*
X2900562Y9223877D01*
Y9200551D01*
X2912225Y9188888D01*
X2923888D01*
X2935551Y9200551D01*
Y9223877D01*
X2947214Y9235540D01*
X2958877D01*
X2970540Y9223877D01*
Y9200551D01*
X2958877Y9188888D01*
X2912225Y9305517D02*
X2900562Y9293854D01*
Y9270528D01*
X2912225Y9258865D01*
X2923888D01*
X2935551Y9270528D01*
Y9293854D01*
X2947214Y9305517D01*
X2958877D01*
X2970540Y9293854D01*
Y9270528D01*
X2958877Y9258865D01*
X5437700Y11367700D02*
Y11414352D01*
X5461026Y11437677D01*
X5484352Y11414352D01*
Y11367700D01*
Y11402689D01*
X5437700D01*
X5507678Y11437677D02*
Y11391026D01*
X5531003Y11367700D01*
X5554329Y11391026D01*
Y11437677D01*
X5624307Y11426014D02*
X5612644Y11437677D01*
X5589318D01*
X5577655Y11426014D01*
Y11414352D01*
X5589318Y11402689D01*
X5612644D01*
X5624307Y11391026D01*
Y11379363D01*
X5612644Y11367700D01*
X5589318D01*
X5577655Y11379363D01*
X5694284Y11426014D02*
X5682621Y11437677D01*
X5659296D01*
X5647633Y11426014D01*
Y11414352D01*
X5659296Y11402689D01*
X5682621D01*
X5694284Y11391026D01*
Y11379363D01*
X5682621Y11367700D01*
X5659296D01*
X5647633Y11379363D01*
X2820200Y11557700D02*
Y11604352D01*
X2843526Y11627678D01*
X2866852Y11604352D01*
Y11557700D01*
Y11592689D01*
X2820200D01*
X2890178Y11627678D02*
Y11581026D01*
X2913503Y11557700D01*
X2936829Y11581026D01*
Y11627678D01*
X3006807Y11616015D02*
X2995144Y11627678D01*
X2971818D01*
X2960155Y11616015D01*
Y11604352D01*
X2971818Y11592689D01*
X2995144D01*
X3006807Y11581026D01*
Y11569363D01*
X2995144Y11557700D01*
X2971818D01*
X2960155Y11569363D01*
X3076784Y11616015D02*
X3065121Y11627678D01*
X3041796D01*
X3030133Y11616015D01*
Y11604352D01*
X3041796Y11592689D01*
X3065121D01*
X3076784Y11581026D01*
Y11569363D01*
X3065121Y11557700D01*
X3041796D01*
X3030133Y11569363D01*
X3825000Y8457960D02*
X3792012Y8490948D01*
Y8523936D01*
X3825000D01*
X3857988Y8490948D01*
X3833247Y8515689D01*
X3800259Y8482701D01*
X3825000Y8556924D02*
X3857988Y8523936D01*
X3890975D01*
Y8556924D01*
X3857988Y8589911D01*
X3915716Y8631146D02*
X3899222D01*
X3882729Y8614652D01*
Y8598158D01*
X3890975Y8589911D01*
X3907469D01*
X3923963Y8606405D01*
X3940457D01*
X3948704Y8598158D01*
Y8581664D01*
X3932210Y8565171D01*
X3915716D01*
X3965198Y8680628D02*
X3948704D01*
X3932210Y8664134D01*
Y8647640D01*
X3940457Y8639393D01*
X3956951D01*
X3973445Y8655887D01*
X3989938D01*
X3998186Y8647640D01*
Y8631146D01*
X3981692Y8614652D01*
X3965198D01*
X2898985Y7549352D02*
X2887322Y7537689D01*
Y7514363D01*
X2898985Y7502700D01*
X2910648D01*
X2922311Y7514363D01*
Y7537689D01*
X2933974Y7549352D01*
X2945637D01*
X2957300Y7537689D01*
Y7514363D01*
X2945637Y7502700D01*
X2887322Y7572678D02*
X2957300D01*
X2922311D01*
X2910648Y7584340D01*
Y7607666D01*
X2922311Y7619329D01*
X2957300D01*
X2910648Y7642655D02*
X2945637D01*
X2957300Y7654318D01*
Y7689307D01*
X2910648D01*
X2957300Y7712633D02*
X2910648D01*
Y7747621D01*
X2922311Y7759284D01*
X2957300D01*
X2898985Y7794273D02*
X2910648D01*
Y7782610D01*
Y7805936D01*
Y7794273D01*
X2945637D01*
X2957300Y7805936D01*
X4712488Y8101697D02*
X4642511D01*
Y8136686D01*
X4654174Y8148349D01*
X4677500D01*
X4689163Y8136686D01*
Y8101697D01*
Y8125023D02*
X4712488Y8148349D01*
X4642511Y8171675D02*
Y8218326D01*
X4654174D01*
X4700825Y8171675D01*
X4712488D01*
Y8288304D02*
Y8241652D01*
X4665837Y8288304D01*
X4654174D01*
X4642511Y8276641D01*
Y8253315D01*
X4654174Y8241652D01*
X3723348Y7905826D02*
X3711685Y7917489D01*
X3688360D01*
X3676697Y7905826D01*
Y7859174D01*
X3688360Y7847511D01*
X3711685D01*
X3723348Y7859174D01*
X3746674D02*
X3758337Y7847511D01*
X3781663D01*
X3793326Y7859174D01*
Y7905826D01*
X3781663Y7917489D01*
X3758337D01*
X3746674Y7905826D01*
Y7894163D01*
X3758337Y7882500D01*
X3793326D01*
X3816652Y7917489D02*
X3863303D01*
Y7905826D01*
X3816652Y7859174D01*
Y7847511D01*
X4396697Y9019989D02*
Y8961674D01*
X4408359Y8950011D01*
X4431685D01*
X4443348Y8961674D01*
Y9019989D01*
X4513326Y8950011D02*
X4466674D01*
X4513326Y8996663D01*
Y9008326D01*
X4501663Y9019989D01*
X4478337D01*
X4466674Y9008326D01*
X4571640Y8950011D02*
Y9019989D01*
X4536652Y8985000D01*
X4583303D01*
X5151685Y10684989D02*
Y10615011D01*
X5198337D01*
X5268315Y10684989D02*
X5244989Y10673326D01*
X5221663Y10650000D01*
Y10626674D01*
X5233326Y10615011D01*
X5256652D01*
X5268315Y10626674D01*
Y10638337D01*
X5256652Y10650000D01*
X5221663D01*
X6058348Y12398326D02*
X6046685Y12409989D01*
X6023360D01*
X6011697Y12398326D01*
Y12351674D01*
X6023360Y12340011D01*
X6046685D01*
X6058348Y12351674D01*
X6128326Y12409989D02*
X6081674D01*
Y12375000D01*
X6105000Y12386663D01*
X6116663D01*
X6128326Y12375000D01*
Y12351674D01*
X6116663Y12340011D01*
X6093337D01*
X6081674Y12351674D01*
X6151652Y12398326D02*
X6163315Y12409989D01*
X6186640D01*
X6198303Y12398326D01*
Y12386663D01*
X6186640Y12375000D01*
X6198303Y12363337D01*
Y12351674D01*
X6186640Y12340011D01*
X6163315D01*
X6151652Y12351674D01*
Y12363337D01*
X6163315Y12375000D01*
X6151652Y12386663D01*
Y12398326D01*
X6163315Y12375000D02*
X6186640D01*
X7218359Y5215011D02*
Y5284989D01*
X7253348D01*
X7265011Y5273326D01*
Y5250000D01*
X7253348Y5238337D01*
X7218359D01*
X7241685D02*
X7265011Y5215011D01*
X7323326D02*
Y5284989D01*
X7288337Y5250000D01*
X7334989D01*
X7358314Y5215011D02*
X7381640D01*
X7369977D01*
Y5284989D01*
X7358314Y5273326D01*
X7342528Y5504989D02*
Y5435011D01*
X7377517D01*
X7389180Y5446674D01*
Y5493326D01*
X7377517Y5504989D01*
X7342528D01*
X7412506Y5435011D02*
X7435832D01*
X7424169D01*
Y5504989D01*
X7412506Y5493326D01*
X7517472Y5435011D02*
X7470820D01*
X7517472Y5481663D01*
Y5493326D01*
X7505809Y5504989D01*
X7482483D01*
X7470820Y5493326D01*
X2715848Y9585826D02*
X2704185Y9597489D01*
X2680860D01*
X2669197Y9585826D01*
Y9539174D01*
X2680860Y9527511D01*
X2704185D01*
X2715848Y9539174D01*
X2739174Y9597489D02*
X2785826D01*
Y9585826D01*
X2739174Y9539174D01*
Y9527511D01*
X2809152Y9585826D02*
X2820815Y9597489D01*
X2844140D01*
X2855803Y9585826D01*
Y9539174D01*
X2844140Y9527511D01*
X2820815D01*
X2809152Y9539174D01*
Y9585826D01*
X3026674Y10213348D02*
X3015011Y10201685D01*
Y10178360D01*
X3026674Y10166697D01*
X3073326D01*
X3084989Y10178360D01*
Y10201685D01*
X3073326Y10213348D01*
X3015011Y10283326D02*
X3026674Y10260000D01*
X3050000Y10236674D01*
X3073326D01*
X3084989Y10248337D01*
Y10271663D01*
X3073326Y10283326D01*
X3061663D01*
X3050000Y10271663D01*
Y10236674D01*
X3015011Y10353303D02*
Y10306652D01*
X3050000D01*
X3038337Y10329978D01*
Y10341640D01*
X3050000Y10353303D01*
X3073326D01*
X3084989Y10341640D01*
Y10318315D01*
X3073326Y10306652D01*
X1861708Y9185011D02*
Y9254989D01*
X1908360Y9185011D01*
Y9254989D01*
X1931685D02*
X1978337D01*
X1955011D01*
Y9185011D01*
X2048315Y9243326D02*
X2036652Y9254989D01*
X2013326D01*
X2001663Y9243326D01*
Y9196674D01*
X2013326Y9185011D01*
X2036652D01*
X2048315Y9196674D01*
X2118292Y9185011D02*
X2071641D01*
X2118292Y9231663D01*
Y9243326D01*
X2106629Y9254989D01*
X2083303D01*
X2071641Y9243326D01*
X7135837Y11937489D02*
X7112511D01*
X7124174D01*
Y11879174D01*
X7112511Y11867511D01*
X7100848D01*
X7089185Y11879174D01*
X7205815Y11937489D02*
X7159163D01*
Y11902500D01*
X7182489Y11914163D01*
X7194152D01*
X7205815Y11902500D01*
Y11879174D01*
X7194152Y11867511D01*
X7170826D01*
X7159163Y11879174D01*
X9115837Y12199989D02*
X9092511D01*
X9104174D01*
Y12141674D01*
X9092511Y12130011D01*
X9080848D01*
X9069185Y12141674D01*
X9174152Y12130011D02*
Y12199989D01*
X9139163Y12165000D01*
X9185814D01*
X1786686Y10382489D02*
Y10312511D01*
X1833337D01*
X1903315D02*
X1856663D01*
X1903315Y10359163D01*
Y10370826D01*
X1891652Y10382489D01*
X1868326D01*
X1856663Y10370826D01*
X4327512Y6718303D02*
X4397489D01*
Y6683314D01*
X4385826Y6671651D01*
X4362500D01*
X4350837Y6683314D01*
Y6718303D01*
Y6694977D02*
X4327512Y6671651D01*
X4397489Y6648326D02*
Y6601674D01*
X4385826D01*
X4339174Y6648326D01*
X4327512D01*
X4397489Y6578348D02*
Y6531696D01*
X4385826D01*
X4339174Y6578348D01*
X4327512D01*
X596697Y2465011D02*
Y2534989D01*
X631685D01*
X643348Y2523326D01*
Y2500000D01*
X631685Y2488337D01*
X596697D01*
X620022D02*
X643348Y2465011D01*
X666674Y2523326D02*
X678337Y2534989D01*
X701663D01*
X713326Y2523326D01*
Y2511663D01*
X701663Y2500000D01*
X690000D01*
X701663D01*
X713326Y2488337D01*
Y2476674D01*
X701663Y2465011D01*
X678337D01*
X666674Y2476674D01*
X736652D02*
X748314Y2465011D01*
X771640D01*
X783303Y2476674D01*
Y2523326D01*
X771640Y2534989D01*
X748314D01*
X736652Y2523326D01*
Y2511663D01*
X748314Y2500000D01*
X783303D01*
X624191Y2334989D02*
Y2265011D01*
X659180D01*
X670843Y2276674D01*
Y2323326D01*
X659180Y2334989D01*
X624191D01*
X694169Y2265011D02*
X717495D01*
X705832D01*
Y2334989D01*
X694169Y2323326D01*
X752483Y2265011D02*
X775809D01*
X764146D01*
Y2334989D01*
X752483Y2323326D01*
X434989Y1407472D02*
X365011D01*
Y1372483D01*
X376674Y1360820D01*
X423326D01*
X434989Y1372483D01*
Y1407472D01*
X365011Y1337494D02*
Y1314168D01*
Y1325831D01*
X434989D01*
X423326Y1337494D01*
Y1279180D02*
X434989Y1267517D01*
Y1244191D01*
X423326Y1232528D01*
X376674D01*
X365011Y1244191D01*
Y1267517D01*
X376674Y1279180D01*
X423326D01*
X7985011Y7523303D02*
X8054989D01*
Y7488314D01*
X8043326Y7476652D01*
X8020000D01*
X8008337Y7488314D01*
Y7523303D01*
Y7499977D02*
X7985011Y7476652D01*
X8054989Y7406674D02*
Y7453326D01*
X8020000D01*
X8031663Y7430000D01*
Y7418337D01*
X8020000Y7406674D01*
X7996674D01*
X7985011Y7418337D01*
Y7441663D01*
X7996674Y7453326D01*
X8054989Y7336697D02*
Y7383348D01*
X8020000D01*
X8031663Y7360022D01*
Y7348359D01*
X8020000Y7336697D01*
X7996674D01*
X7985011Y7348359D01*
Y7371685D01*
X7996674Y7383348D01*
X8495011Y7533303D02*
X8564989D01*
Y7498314D01*
X8553326Y7486652D01*
X8530000D01*
X8518337Y7498314D01*
Y7533303D01*
Y7509977D02*
X8495011Y7486652D01*
X8564989Y7416674D02*
Y7463326D01*
X8530000D01*
X8541663Y7440000D01*
Y7428337D01*
X8530000Y7416674D01*
X8506674D01*
X8495011Y7428337D01*
Y7451663D01*
X8506674Y7463326D01*
X8495011Y7358359D02*
X8564989D01*
X8530000Y7393348D01*
Y7346697D01*
X8213325Y7396651D02*
X8224988Y7408314D01*
Y7431640D01*
X8213325Y7443303D01*
X8166674D01*
X8155011Y7431640D01*
Y7408314D01*
X8166674Y7396651D01*
X8213325Y7373326D02*
X8224988Y7361663D01*
Y7338337D01*
X8213325Y7326674D01*
X8201663D01*
X8190000Y7338337D01*
X8178337Y7326674D01*
X8166674D01*
X8155011Y7338337D01*
Y7361663D01*
X8166674Y7373326D01*
X8178337D01*
X8190000Y7361663D01*
X8201663Y7373326D01*
X8213325D01*
X8190000Y7361663D02*
Y7338337D01*
X8224988Y7256696D02*
X8213325Y7280022D01*
X8190000Y7303348D01*
X8166674D01*
X8155011Y7291685D01*
Y7268359D01*
X8166674Y7256696D01*
X8178337D01*
X8190000Y7268359D01*
Y7303348D01*
X8873326Y7696651D02*
X8884989Y7708314D01*
Y7731640D01*
X8873326Y7743303D01*
X8826674D01*
X8815011Y7731640D01*
Y7708314D01*
X8826674Y7696651D01*
X8873326Y7673326D02*
X8884989Y7661663D01*
Y7638337D01*
X8873326Y7626674D01*
X8861663D01*
X8850000Y7638337D01*
X8838337Y7626674D01*
X8826674D01*
X8815011Y7638337D01*
Y7661663D01*
X8826674Y7673326D01*
X8838337D01*
X8850000Y7661663D01*
X8861663Y7673326D01*
X8873326D01*
X8850000Y7661663D02*
Y7638337D01*
X8884989Y7556696D02*
Y7603348D01*
X8850000D01*
X8861663Y7580022D01*
Y7568359D01*
X8850000Y7556696D01*
X8826674D01*
X8815011Y7568359D01*
Y7591685D01*
X8826674Y7603348D01*
X7465011Y7533303D02*
X7534989D01*
Y7498314D01*
X7523326Y7486652D01*
X7500000D01*
X7488337Y7498314D01*
Y7533303D01*
Y7509977D02*
X7465011Y7486652D01*
Y7428337D02*
X7534989D01*
X7500000Y7463326D01*
Y7416674D01*
X7476674Y7393348D02*
X7465011Y7381685D01*
Y7358359D01*
X7476674Y7346697D01*
X7523326D01*
X7534989Y7358359D01*
Y7381685D01*
X7523326Y7393348D01*
X7511663D01*
X7500000Y7381685D01*
Y7346697D01*
X6965011Y7523303D02*
X7034989D01*
Y7488314D01*
X7023326Y7476652D01*
X7000000D01*
X6988337Y7488314D01*
Y7523303D01*
Y7499977D02*
X6965011Y7476652D01*
Y7418337D02*
X7034989D01*
X7000000Y7453326D01*
Y7406674D01*
X7023326Y7383348D02*
X7034989Y7371685D01*
Y7348359D01*
X7023326Y7336697D01*
X7011663D01*
X7000000Y7348359D01*
X6988337Y7336697D01*
X6976674D01*
X6965011Y7348359D01*
Y7371685D01*
X6976674Y7383348D01*
X6988337D01*
X7000000Y7371685D01*
X7011663Y7383348D01*
X7023326D01*
X7000000Y7371685D02*
Y7348359D01*
X7723326Y7386651D02*
X7734989Y7398314D01*
Y7421640D01*
X7723326Y7433303D01*
X7676674D01*
X7665011Y7421640D01*
Y7398314D01*
X7676674Y7386651D01*
X7723326Y7363325D02*
X7734989Y7351662D01*
Y7328337D01*
X7723326Y7316674D01*
X7711663D01*
X7700000Y7328337D01*
X7688337Y7316674D01*
X7676674D01*
X7665011Y7328337D01*
Y7351662D01*
X7676674Y7363325D01*
X7688337D01*
X7700000Y7351662D01*
X7711663Y7363325D01*
X7723326D01*
X7700000Y7351662D02*
Y7328337D01*
X7665011Y7258359D02*
X7734989D01*
X7700000Y7293348D01*
Y7246696D01*
X7223326Y7386651D02*
X7234989Y7398314D01*
Y7421640D01*
X7223326Y7433303D01*
X7176674D01*
X7165011Y7421640D01*
Y7398314D01*
X7176674Y7386651D01*
X7223326Y7363325D02*
X7234989Y7351662D01*
Y7328337D01*
X7223326Y7316674D01*
X7211663D01*
X7200000Y7328337D01*
X7188337Y7316674D01*
X7176674D01*
X7165011Y7328337D01*
Y7351662D01*
X7176674Y7363325D01*
X7188337D01*
X7200000Y7351662D01*
X7211663Y7363325D01*
X7223326D01*
X7200000Y7351662D02*
Y7328337D01*
X7223326Y7293348D02*
X7234989Y7281685D01*
Y7258359D01*
X7223326Y7246696D01*
X7211663D01*
X7200000Y7258359D01*
Y7270022D01*
Y7258359D01*
X7188337Y7246696D01*
X7176674D01*
X7165011Y7258359D01*
Y7281685D01*
X7176674Y7293348D01*
X7303337Y1014989D02*
X7280011D01*
X7291674D01*
Y956674D01*
X7280011Y945011D01*
X7268348D01*
X7256686Y956674D01*
X7326663Y1003326D02*
X7338326Y1014989D01*
X7361652D01*
X7373315Y1003326D01*
Y991663D01*
X7361652Y980000D01*
X7373315Y968337D01*
Y956674D01*
X7361652Y945011D01*
X7338326D01*
X7326663Y956674D01*
Y968337D01*
X7338326Y980000D01*
X7326663Y991663D01*
Y1003326D01*
X7338326Y980000D02*
X7361652D01*
X3308326Y5653337D02*
X3261674D01*
X3250011Y5641674D01*
Y5618348D01*
X3261674Y5606685D01*
X3308326D01*
X3319989Y5618348D01*
Y5641674D01*
X3296663Y5630011D02*
X3319989Y5653337D01*
Y5641674D02*
X3308326Y5653337D01*
X3319989Y5711652D02*
X3250011D01*
X3285000Y5676663D01*
Y5723314D01*
X3613326Y5648337D02*
X3566674D01*
X3555011Y5636675D01*
Y5613349D01*
X3566674Y5601686D01*
X3613326D01*
X3624988Y5613349D01*
Y5636675D01*
X3601663Y5625012D02*
X3624988Y5648337D01*
Y5636675D02*
X3613326Y5648337D01*
X3566674Y5671663D02*
X3555011Y5683326D01*
Y5706652D01*
X3566674Y5718315D01*
X3578337D01*
X3590000Y5706652D01*
Y5694989D01*
Y5706652D01*
X3601663Y5718315D01*
X3613326D01*
X3624988Y5706652D01*
Y5683326D01*
X3613326Y5671663D01*
X3310825Y4563337D02*
X3264174D01*
X3252511Y4551674D01*
Y4528348D01*
X3264174Y4516685D01*
X3310825D01*
X3322488Y4528348D01*
Y4551674D01*
X3299162Y4540011D02*
X3322488Y4563337D01*
Y4551674D02*
X3310825Y4563337D01*
X3322488Y4633315D02*
Y4586663D01*
X3275836Y4633315D01*
X3264174D01*
X3252511Y4621652D01*
Y4598326D01*
X3264174Y4586663D01*
X3645825Y4562500D02*
X3599174D01*
X3587511Y4550837D01*
Y4527511D01*
X3599174Y4515848D01*
X3645825D01*
X3657488Y4527511D01*
Y4550837D01*
X3634162Y4539174D02*
X3657488Y4562500D01*
Y4550837D02*
X3645825Y4562500D01*
X3657488Y4585826D02*
Y4609152D01*
Y4597489D01*
X3587511D01*
X3599174Y4585826D01*
X2986697Y6624989D02*
Y6566674D01*
X2998360Y6555011D01*
X3021685D01*
X3033348Y6566674D01*
Y6624989D01*
X3103326Y6555011D02*
X3056674D01*
X3103326Y6601663D01*
Y6613326D01*
X3091663Y6624989D01*
X3068337D01*
X3056674Y6613326D01*
X3173303Y6624989D02*
X3126652D01*
Y6590000D01*
X3149977Y6601663D01*
X3161640D01*
X3173303Y6590000D01*
Y6566674D01*
X3161640Y6555011D01*
X3138315D01*
X3126652Y6566674D01*
X3431680Y4173326D02*
X3420017Y4184989D01*
X3396691D01*
X3385028Y4173326D01*
Y4126674D01*
X3396691Y4115011D01*
X3420017D01*
X3431680Y4126674D01*
X3455006Y4115011D02*
X3478332D01*
X3466669D01*
Y4184989D01*
X3455006Y4173326D01*
X3548309Y4115011D02*
Y4184989D01*
X3513320Y4150000D01*
X3559972D01*
X8651686Y4504989D02*
Y4435011D01*
X8698337D01*
X8721663Y4446674D02*
X8733326Y4435011D01*
X8756652D01*
X8768315Y4446674D01*
Y4493326D01*
X8756652Y4504989D01*
X8733326D01*
X8721663Y4493326D01*
Y4481663D01*
X8733326Y4470000D01*
X8768315D01*
X1161686Y10924989D02*
Y10855011D01*
X1208337D01*
X1231663Y10913326D02*
X1243326Y10924989D01*
X1266652D01*
X1278315Y10913326D01*
Y10901663D01*
X1266652Y10890000D01*
X1254989D01*
X1266652D01*
X1278315Y10878337D01*
Y10866674D01*
X1266652Y10855011D01*
X1243326D01*
X1231663Y10866674D01*
X6748382Y9444989D02*
X6795034Y9375011D01*
Y9444989D02*
X6748382Y9375011D01*
X6818359Y9444989D02*
X6865011D01*
X6841685D01*
Y9375011D01*
X6888337D02*
Y9421663D01*
X6911663Y9444989D01*
X6934989Y9421663D01*
Y9375011D01*
Y9410000D01*
X6888337D01*
X6958315Y9444989D02*
Y9375011D01*
X7004966D01*
X7028292D02*
X7051618D01*
X7039955D01*
Y9444989D01*
X7028292Y9433326D01*
X5547489Y9558303D02*
X5489174D01*
X5477511Y9546640D01*
Y9523314D01*
X5489174Y9511652D01*
X5547489D01*
X5535826Y9488326D02*
X5547489Y9476663D01*
Y9453337D01*
X5535826Y9441674D01*
X5524163D01*
X5512500Y9453337D01*
Y9465000D01*
Y9453337D01*
X5500837Y9441674D01*
X5489174D01*
X5477511Y9453337D01*
Y9476663D01*
X5489174Y9488326D01*
X5535826Y9418348D02*
X5547489Y9406685D01*
Y9383359D01*
X5535826Y9371697D01*
X5489174D01*
X5477511Y9383359D01*
Y9406685D01*
X5489174Y9418348D01*
X5535826D01*
X5946697Y8884989D02*
Y8826674D01*
X5958360Y8815011D01*
X5981686D01*
X5993348Y8826674D01*
Y8884989D01*
X6063326Y8815011D02*
X6016674D01*
X6063326Y8861663D01*
Y8873326D01*
X6051663Y8884989D01*
X6028337D01*
X6016674Y8873326D01*
X6086652Y8826674D02*
X6098315Y8815011D01*
X6121641D01*
X6133303Y8826674D01*
Y8873326D01*
X6121641Y8884989D01*
X6098315D01*
X6086652Y8873326D01*
Y8861663D01*
X6098315Y8850000D01*
X6133303D01*
X5557489Y10125803D02*
X5499174D01*
X5487511Y10114140D01*
Y10090814D01*
X5499174Y10079152D01*
X5557489D01*
X5487511Y10009174D02*
Y10055826D01*
X5534163Y10009174D01*
X5545826D01*
X5557489Y10020837D01*
Y10044163D01*
X5545826Y10055826D01*
Y9985848D02*
X5557489Y9974185D01*
Y9950859D01*
X5545826Y9939197D01*
X5534163D01*
X5522500Y9950859D01*
X5510837Y9939197D01*
X5499174D01*
X5487511Y9950859D01*
Y9974185D01*
X5499174Y9985848D01*
X5510837D01*
X5522500Y9974185D01*
X5534163Y9985848D01*
X5545826D01*
X5522500Y9974185D02*
Y9950859D01*
X5056697Y8789989D02*
Y8731674D01*
X5068360Y8720011D01*
X5091686D01*
X5103348Y8731674D01*
Y8789989D01*
X5173326Y8720011D02*
X5126674D01*
X5173326Y8766663D01*
Y8778326D01*
X5161663Y8789989D01*
X5138337D01*
X5126674Y8778326D01*
X5196652Y8789989D02*
X5243303D01*
Y8778326D01*
X5196652Y8731674D01*
Y8720011D01*
X5440011Y7566697D02*
X5498326D01*
X5509988Y7578360D01*
Y7601686D01*
X5498326Y7613349D01*
X5440011D01*
X5509988Y7683326D02*
Y7636674D01*
X5463337Y7683326D01*
X5451674D01*
X5440011Y7671663D01*
Y7648337D01*
X5451674Y7636674D01*
X5440011Y7753304D02*
X5451674Y7729978D01*
X5475000Y7706652D01*
X5498326D01*
X5509988Y7718315D01*
Y7741641D01*
X5498326Y7753304D01*
X5486663D01*
X5475000Y7741641D01*
Y7706652D01*
X4070011Y7606696D02*
X4128325D01*
X4139988Y7618359D01*
Y7641685D01*
X4128325Y7653348D01*
X4070011D01*
X4139988Y7723326D02*
Y7676674D01*
X4093337Y7723326D01*
X4081674D01*
X4070011Y7711663D01*
Y7688337D01*
X4081674Y7676674D01*
Y7746652D02*
X4070011Y7758314D01*
Y7781640D01*
X4081674Y7793303D01*
X4093337D01*
X4105000Y7781640D01*
Y7769977D01*
Y7781640D01*
X4116663Y7793303D01*
X4128325D01*
X4139988Y7781640D01*
Y7758314D01*
X4128325Y7746652D01*
X3617511Y8104197D02*
X3675825D01*
X3687488Y8115860D01*
Y8139185D01*
X3675825Y8150848D01*
X3617511D01*
X3687488Y8220826D02*
Y8174174D01*
X3640837Y8220826D01*
X3629174D01*
X3617511Y8209163D01*
Y8185837D01*
X3629174Y8174174D01*
X3687488Y8290803D02*
Y8244152D01*
X3640837Y8290803D01*
X3629174D01*
X3617511Y8279140D01*
Y8255815D01*
X3629174Y8244152D01*
X4368360Y9712489D02*
Y9654174D01*
X4380022Y9642511D01*
X4403348D01*
X4415011Y9654174D01*
Y9712489D01*
X4484989Y9642511D02*
X4438337D01*
X4484989Y9689163D01*
Y9700826D01*
X4473326Y9712489D01*
X4450000D01*
X4438337Y9700826D01*
X4508315Y9642511D02*
X4531640D01*
X4519977D01*
Y9712489D01*
X4508315Y9700826D01*
X3406697Y8934989D02*
Y8876674D01*
X3418360Y8865011D01*
X3441686D01*
X3453348Y8876674D01*
Y8934989D01*
X3523326Y8865011D02*
X3476674D01*
X3523326Y8911663D01*
Y8923326D01*
X3511663Y8934989D01*
X3488337D01*
X3476674Y8923326D01*
X3546652D02*
X3558315Y8934989D01*
X3581641D01*
X3593303Y8923326D01*
Y8876674D01*
X3581641Y8865011D01*
X3558315D01*
X3546652Y8876674D01*
Y8923326D01*
X3442528Y9694989D02*
Y9636674D01*
X3454191Y9625011D01*
X3477517D01*
X3489180Y9636674D01*
Y9694989D01*
X3512506Y9625011D02*
X3535832D01*
X3524169D01*
Y9694989D01*
X3512506Y9683326D01*
X3570820Y9636674D02*
X3582483Y9625011D01*
X3605809D01*
X3617472Y9636674D01*
Y9683326D01*
X3605809Y9694989D01*
X3582483D01*
X3570820Y9683326D01*
Y9671663D01*
X3582483Y9660000D01*
X3617472D01*
X3927528Y9074989D02*
Y9016674D01*
X3939191Y9005011D01*
X3962517D01*
X3974180Y9016674D01*
Y9074989D01*
X3997506Y9005011D02*
X4020832D01*
X4009169D01*
Y9074989D01*
X3997506Y9063326D01*
X4055820D02*
X4067483Y9074989D01*
X4090809D01*
X4102472Y9063326D01*
Y9051663D01*
X4090809Y9040000D01*
X4102472Y9028337D01*
Y9016674D01*
X4090809Y9005011D01*
X4067483D01*
X4055820Y9016674D01*
Y9028337D01*
X4067483Y9040000D01*
X4055820Y9051663D01*
Y9063326D01*
X4067483Y9040000D02*
X4090809D01*
X3962528Y10824989D02*
Y10766674D01*
X3974191Y10755011D01*
X3997517D01*
X4009180Y10766674D01*
Y10824989D01*
X4032506Y10755011D02*
X4055832D01*
X4044169D01*
Y10824989D01*
X4032506Y10813326D01*
X4090820Y10824989D02*
X4137472D01*
Y10813326D01*
X4090820Y10766674D01*
Y10755011D01*
X8007528Y5554989D02*
Y5496674D01*
X8019191Y5485011D01*
X8042517D01*
X8054180Y5496674D01*
Y5554989D01*
X8077506Y5485011D02*
X8100832D01*
X8089169D01*
Y5554989D01*
X8077506Y5543326D01*
X8182472Y5554989D02*
X8159146Y5543326D01*
X8135820Y5520000D01*
Y5496674D01*
X8147483Y5485011D01*
X8170809D01*
X8182472Y5496674D01*
Y5508337D01*
X8170809Y5520000D01*
X8135820D01*
X7955011Y3852528D02*
X8013326D01*
X8024989Y3864191D01*
Y3887517D01*
X8013326Y3899180D01*
X7955011D01*
X8024989Y3922506D02*
Y3945832D01*
Y3934169D01*
X7955011D01*
X7966674Y3922506D01*
X7955011Y4027472D02*
Y3980820D01*
X7990000D01*
X7978337Y4004146D01*
Y4015809D01*
X7990000Y4027472D01*
X8013326D01*
X8024989Y4015809D01*
Y3992483D01*
X8013326Y3980820D01*
X4560028Y12479989D02*
Y12421674D01*
X4571691Y12410011D01*
X4595017D01*
X4606680Y12421674D01*
Y12479989D01*
X4630006Y12410011D02*
X4653332D01*
X4641669D01*
Y12479989D01*
X4630006Y12468326D01*
X4723309Y12410011D02*
Y12479989D01*
X4688320Y12445000D01*
X4734972D01*
X1772511Y12982529D02*
X1830826D01*
X1842489Y12994191D01*
Y13017517D01*
X1830826Y13029179D01*
X1772511D01*
X1842489Y13052505D02*
Y13075832D01*
Y13064168D01*
X1772511D01*
X1784174Y13052505D01*
Y13110820D02*
X1772511Y13122482D01*
Y13145808D01*
X1784174Y13157472D01*
X1795837D01*
X1807500Y13145808D01*
Y13134146D01*
Y13145808D01*
X1819163Y13157472D01*
X1830826D01*
X1842489Y13145808D01*
Y13122482D01*
X1830826Y13110820D01*
X1010011Y9995028D02*
X1068326D01*
X1079988Y10006691D01*
Y10030017D01*
X1068326Y10041680D01*
X1010011D01*
X1079988Y10065006D02*
Y10088331D01*
Y10076668D01*
X1010011D01*
X1021674Y10065006D01*
X1079988Y10169972D02*
Y10123320D01*
X1033337Y10169972D01*
X1021674D01*
X1010011Y10158309D01*
Y10134983D01*
X1021674Y10123320D01*
X2334191Y11284989D02*
Y11226674D01*
X2345854Y11215011D01*
X2369180D01*
X2380843Y11226674D01*
Y11284989D01*
X2404169Y11215011D02*
X2427495D01*
X2415832D01*
Y11284989D01*
X2404169Y11273326D01*
X2462483Y11215011D02*
X2485809D01*
X2474146D01*
Y11284989D01*
X2462483Y11273326D01*
X2402528Y8384989D02*
Y8326674D01*
X2414191Y8315011D01*
X2437517D01*
X2449180Y8326674D01*
Y8384989D01*
X2472506Y8315011D02*
X2495832D01*
X2484169D01*
Y8384989D01*
X2472506Y8373326D01*
X2530820D02*
X2542483Y8384989D01*
X2565809D01*
X2577472Y8373326D01*
Y8326674D01*
X2565809Y8315011D01*
X2542483D01*
X2530820Y8326674D01*
Y8373326D01*
X3389185Y8222489D02*
Y8164174D01*
X3400848Y8152511D01*
X3424174D01*
X3435837Y8164174D01*
Y8222489D01*
X3459163Y8164174D02*
X3470826Y8152511D01*
X3494152D01*
X3505815Y8164174D01*
Y8210826D01*
X3494152Y8222489D01*
X3470826D01*
X3459163Y8210826D01*
Y8199163D01*
X3470826Y8187500D01*
X3505815D01*
X2639185Y8047489D02*
Y7989174D01*
X2650848Y7977511D01*
X2674174D01*
X2685837Y7989174D01*
Y8047489D01*
X2709163Y8035826D02*
X2720826Y8047489D01*
X2744152D01*
X2755815Y8035826D01*
Y8024163D01*
X2744152Y8012500D01*
X2755815Y8000837D01*
Y7989174D01*
X2744152Y7977511D01*
X2720826D01*
X2709163Y7989174D01*
Y8000837D01*
X2720826Y8012500D01*
X2709163Y8024163D01*
Y8035826D01*
X2720826Y8012500D02*
X2744152D01*
X2532511Y9476685D02*
X2590826D01*
X2602489Y9488348D01*
Y9511674D01*
X2590826Y9523337D01*
X2532511D01*
Y9546663D02*
Y9593315D01*
X2544174D01*
X2590826Y9546663D01*
X2602489D01*
X2296686Y12092489D02*
Y12034174D01*
X2308348Y12022511D01*
X2331674D01*
X2343337Y12034174D01*
Y12092489D01*
X2413315D02*
X2389989Y12080826D01*
X2366663Y12057500D01*
Y12034174D01*
X2378326Y12022511D01*
X2401652D01*
X2413315Y12034174D01*
Y12045837D01*
X2401652Y12057500D01*
X2366663D01*
X2336685Y10344989D02*
Y10286674D01*
X2348348Y10275011D01*
X2371674D01*
X2383337Y10286674D01*
Y10344989D01*
X2453315D02*
X2406663D01*
Y10310000D01*
X2429989Y10321663D01*
X2441652D01*
X2453315Y10310000D01*
Y10286674D01*
X2441652Y10275011D01*
X2418326D01*
X2406663Y10286674D01*
X2801686Y12527489D02*
Y12469174D01*
X2813348Y12457511D01*
X2836674D01*
X2848337Y12469174D01*
Y12527489D01*
X2906652Y12457511D02*
Y12527489D01*
X2871663Y12492500D01*
X2918315D01*
X6551685Y10864989D02*
Y10806674D01*
X6563348Y10795011D01*
X6586674D01*
X6598337Y10806674D01*
Y10864989D01*
X6621663Y10853326D02*
X6633326Y10864989D01*
X6656652D01*
X6668315Y10853326D01*
Y10841663D01*
X6656652Y10830000D01*
X6644989D01*
X6656652D01*
X6668315Y10818337D01*
Y10806674D01*
X6656652Y10795011D01*
X6633326D01*
X6621663Y10806674D01*
X8124185Y11267489D02*
Y11209174D01*
X8135848Y11197511D01*
X8159174D01*
X8170837Y11209174D01*
Y11267489D01*
X8240815Y11197511D02*
X8194163D01*
X8240815Y11244163D01*
Y11255826D01*
X8229152Y11267489D01*
X8205826D01*
X8194163Y11255826D01*
X8250848Y11977489D02*
Y11919174D01*
X8262511Y11907511D01*
X8285837D01*
X8297500Y11919174D01*
Y11977489D01*
X8320826Y11907511D02*
X8344152D01*
X8332489D01*
Y11977489D01*
X8320826Y11965826D01*
X5664500Y6796417D02*
X5711152D01*
X5687826D01*
Y6726440D01*
X5734477Y6796417D02*
Y6749766D01*
X5757803Y6726440D01*
X5781129Y6749766D01*
Y6796417D01*
X5851107Y6784755D02*
X5839444Y6796417D01*
X5816118D01*
X5804455Y6784755D01*
Y6773092D01*
X5816118Y6761429D01*
X5839444D01*
X5851107Y6749766D01*
Y6738103D01*
X5839444Y6726440D01*
X5816118D01*
X5804455Y6738103D01*
X5921084Y6796417D02*
X5897758Y6784755D01*
X5874432Y6761429D01*
Y6738103D01*
X5886095Y6726440D01*
X5909421D01*
X5921084Y6738103D01*
Y6749766D01*
X5909421Y6761429D01*
X5874432D01*
X5464208Y192489D02*
X5510860D01*
X5487534D01*
Y122511D01*
X5534186Y192489D02*
Y145837D01*
X5557511Y122511D01*
X5580837Y145837D01*
Y192489D01*
X5650815Y180826D02*
X5639152Y192489D01*
X5615826D01*
X5604163Y180826D01*
Y169163D01*
X5615826Y157500D01*
X5639152D01*
X5650815Y145837D01*
Y134174D01*
X5639152Y122511D01*
X5615826D01*
X5604163Y134174D01*
X5720792Y192489D02*
X5674141D01*
Y157500D01*
X5697466Y169163D01*
X5709129D01*
X5720792Y157500D01*
Y134174D01*
X5709129Y122511D01*
X5685803D01*
X5674141Y134174D01*
X4001708Y2014989D02*
X4048360D01*
X4025034D01*
Y1945011D01*
X4071686Y2014989D02*
Y1968337D01*
X4095011Y1945011D01*
X4118337Y1968337D01*
Y2014989D01*
X4188315Y2003326D02*
X4176652Y2014989D01*
X4153326D01*
X4141663Y2003326D01*
Y1991663D01*
X4153326Y1980000D01*
X4176652D01*
X4188315Y1968337D01*
Y1956674D01*
X4176652Y1945011D01*
X4153326D01*
X4141663Y1956674D01*
X4246629Y1945011D02*
Y2014989D01*
X4211641Y1980000D01*
X4258292D01*
X3979208Y1337489D02*
X4025860D01*
X4002534D01*
Y1267511D01*
X4049185Y1337489D02*
Y1290837D01*
X4072511Y1267511D01*
X4095837Y1290837D01*
Y1337489D01*
X4165815Y1325826D02*
X4154152Y1337489D01*
X4130826D01*
X4119163Y1325826D01*
Y1314163D01*
X4130826Y1302500D01*
X4154152D01*
X4165815Y1290837D01*
Y1279174D01*
X4154152Y1267511D01*
X4130826D01*
X4119163Y1279174D01*
X4189140Y1325826D02*
X4200803Y1337489D01*
X4224129D01*
X4235792Y1325826D01*
Y1314163D01*
X4224129Y1302500D01*
X4212466D01*
X4224129D01*
X4235792Y1290837D01*
Y1279174D01*
X4224129Y1267511D01*
X4200803D01*
X4189140Y1279174D01*
X5825871Y4389989D02*
X5872522D01*
X5849197D01*
Y4320011D01*
X5895848Y4389989D02*
Y4343337D01*
X5919174Y4320011D01*
X5942500Y4343337D01*
Y4389989D01*
X6012477Y4378326D02*
X6000815Y4389989D01*
X5977489D01*
X5965826Y4378326D01*
Y4366663D01*
X5977489Y4355000D01*
X6000815D01*
X6012477Y4343337D01*
Y4331674D01*
X6000815Y4320011D01*
X5977489D01*
X5965826Y4331674D01*
X6035803Y4320011D02*
X6059129D01*
X6047466D01*
Y4389989D01*
X6035803Y4378326D01*
X6801708Y179989D02*
X6848359D01*
X6825034D01*
Y110011D01*
X6871685Y179989D02*
Y133337D01*
X6895011Y110011D01*
X6918337Y133337D01*
Y179989D01*
X6988314Y168326D02*
X6976652Y179989D01*
X6953326D01*
X6941663Y168326D01*
Y156663D01*
X6953326Y145000D01*
X6976652D01*
X6988314Y133337D01*
Y121674D01*
X6976652Y110011D01*
X6953326D01*
X6941663Y121674D01*
X7058292Y110011D02*
X7011640D01*
X7058292Y156663D01*
Y168326D01*
X7046629Y179989D01*
X7023303D01*
X7011640Y168326D01*
X7710011Y3448326D02*
X7698348Y3459989D01*
X7675022D01*
X7663360Y3448326D01*
Y3436663D01*
X7675022Y3425000D01*
X7698348D01*
X7710011Y3413337D01*
Y3401674D01*
X7698348Y3390011D01*
X7675022D01*
X7663360Y3401674D01*
X7733337Y3459989D02*
Y3390011D01*
X7756663Y3413337D01*
X7779989Y3390011D01*
Y3459989D01*
X7803315Y3390011D02*
X7826640D01*
X7814978D01*
Y3459989D01*
X7803315Y3448326D01*
X6489284Y11731235D02*
X6538765Y11780716D01*
X6563506Y11755975D01*
Y11739481D01*
X6547013Y11722988D01*
X6530519D01*
X6505778Y11747728D01*
X6522272Y11731235D02*
Y11698247D01*
X6547013Y11690000D02*
Y11673506D01*
X6563506Y11657012D01*
X6580000D01*
X6612988Y11690000D01*
Y11706494D01*
X6596494Y11722988D01*
X6580000D01*
X6571753Y11714741D01*
Y11698247D01*
X6596494Y11673506D01*
X6637729Y11681753D02*
X6670716Y11648765D01*
X6662470Y11640519D01*
X6596494D01*
X6588247Y11632271D01*
X6509284Y11901235D02*
X6558765Y11950716D01*
X6583506Y11925975D01*
Y11909481D01*
X6567013Y11892988D01*
X6550519D01*
X6525778Y11917728D01*
X6542272Y11901235D02*
Y11868247D01*
X6567013Y11860000D02*
Y11843506D01*
X6583506Y11827012D01*
X6600000D01*
X6632988Y11860000D01*
Y11876494D01*
X6616494Y11892988D01*
X6600000D01*
X6591753Y11884741D01*
Y11868247D01*
X6616494Y11843506D01*
X6690716Y11818765D02*
X6665975Y11827012D01*
X6632988D01*
X6616494Y11810518D01*
Y11794024D01*
X6632988Y11777531D01*
X6649482D01*
X6657729Y11785778D01*
Y11802271D01*
X6632988Y11827012D01*
X6606697Y8135011D02*
Y8204989D01*
X6641685D01*
X6653348Y8193326D01*
Y8170000D01*
X6641685Y8158337D01*
X6606697D01*
X6630023D02*
X6653348Y8135011D01*
X6676674Y8146674D02*
X6688337Y8135011D01*
X6711663D01*
X6723326Y8146674D01*
Y8193326D01*
X6711663Y8204989D01*
X6688337D01*
X6676674Y8193326D01*
Y8181663D01*
X6688337Y8170000D01*
X6723326D01*
X6793303Y8204989D02*
X6746652D01*
Y8170000D01*
X6769978Y8181663D01*
X6781640D01*
X6793303Y8170000D01*
Y8146674D01*
X6781640Y8135011D01*
X6758315D01*
X6746652Y8146674D01*
X5014988Y8896696D02*
X4945011D01*
Y8931685D01*
X4956674Y8943348D01*
X4980000D01*
X4991663Y8931685D01*
Y8896696D01*
Y8920022D02*
X5014988Y8943348D01*
X5003326Y8966674D02*
X5014988Y8978337D01*
Y9001663D01*
X5003326Y9013326D01*
X4956674D01*
X4945011Y9001663D01*
Y8978337D01*
X4956674Y8966674D01*
X4968337D01*
X4980000Y8978337D01*
Y9013326D01*
X5014988Y9071640D02*
X4945011D01*
X4980000Y9036651D01*
Y9083303D01*
X5124988Y9576697D02*
X5055011D01*
Y9611686D01*
X5066674Y9623349D01*
X5090000D01*
X5101663Y9611686D01*
Y9576697D01*
Y9600023D02*
X5124988Y9623349D01*
X5113326Y9646674D02*
X5124988Y9658337D01*
Y9681663D01*
X5113326Y9693326D01*
X5066674D01*
X5055011Y9681663D01*
Y9658337D01*
X5066674Y9646674D01*
X5078337D01*
X5090000Y9658337D01*
Y9693326D01*
X5066674Y9716652D02*
X5055011Y9728315D01*
Y9751641D01*
X5066674Y9763304D01*
X5078337D01*
X5090000Y9751641D01*
Y9739978D01*
Y9751641D01*
X5101663Y9763304D01*
X5113326D01*
X5124988Y9751641D01*
Y9728315D01*
X5113326Y9716652D01*
X4954988Y10126697D02*
X4885011D01*
Y10161685D01*
X4896674Y10173348D01*
X4920000D01*
X4931662Y10161685D01*
Y10126697D01*
Y10150022D02*
X4954988Y10173348D01*
X4943325Y10196674D02*
X4954988Y10208337D01*
Y10231663D01*
X4943325Y10243326D01*
X4896674D01*
X4885011Y10231663D01*
Y10208337D01*
X4896674Y10196674D01*
X4908337D01*
X4920000Y10208337D01*
Y10243326D01*
X4954988Y10313303D02*
Y10266652D01*
X4908337Y10313303D01*
X4896674D01*
X4885011Y10301640D01*
Y10278314D01*
X4896674Y10266652D01*
X6243360Y7890011D02*
Y7959989D01*
X6278348D01*
X6290011Y7948326D01*
Y7925000D01*
X6278348Y7913337D01*
X6243360D01*
X6266685D02*
X6290011Y7890011D01*
X6313337Y7901674D02*
X6325000Y7890011D01*
X6348326D01*
X6359989Y7901674D01*
Y7948326D01*
X6348326Y7959989D01*
X6325000D01*
X6313337Y7948326D01*
Y7936663D01*
X6325000Y7925000D01*
X6359989D01*
X6383315Y7890011D02*
X6406640D01*
X6394978D01*
Y7959989D01*
X6383315Y7948326D01*
X5576697Y8765011D02*
Y8834989D01*
X5611685D01*
X5623348Y8823326D01*
Y8800000D01*
X5611685Y8788337D01*
X5576697D01*
X5600023D02*
X5623348Y8765011D01*
X5646674Y8776674D02*
X5658337Y8765011D01*
X5681663D01*
X5693326Y8776674D01*
Y8823326D01*
X5681663Y8834989D01*
X5658337D01*
X5646674Y8823326D01*
Y8811663D01*
X5658337Y8800000D01*
X5693326D01*
X5716652Y8823326D02*
X5728315Y8834989D01*
X5751641D01*
X5763303Y8823326D01*
Y8776674D01*
X5751641Y8765011D01*
X5728315D01*
X5716652Y8776674D01*
Y8823326D01*
X5024988Y8566697D02*
X4955011D01*
Y8601685D01*
X4966674Y8613348D01*
X4989999D01*
X5001662Y8601685D01*
Y8566697D01*
Y8590022D02*
X5024988Y8613348D01*
X4966674Y8636674D02*
X4955011Y8648337D01*
Y8671663D01*
X4966674Y8683326D01*
X4978336D01*
X4989999Y8671663D01*
X5001662Y8683326D01*
X5013325D01*
X5024988Y8671663D01*
Y8648337D01*
X5013325Y8636674D01*
X5001662D01*
X4989999Y8648337D01*
X4978336Y8636674D01*
X4966674D01*
X4989999Y8648337D02*
Y8671663D01*
X5013325Y8706652D02*
X5024988Y8718315D01*
Y8741640D01*
X5013325Y8753303D01*
X4966674D01*
X4955011Y8741640D01*
Y8718315D01*
X4966674Y8706652D01*
X4978336D01*
X4989999Y8718315D01*
Y8753303D01*
X5164989Y6829197D02*
X5095011D01*
Y6864185D01*
X5106674Y6875848D01*
X5130000D01*
X5141663Y6864185D01*
Y6829197D01*
Y6852522D02*
X5164989Y6875848D01*
X5106674Y6899174D02*
X5095011Y6910837D01*
Y6934163D01*
X5106674Y6945826D01*
X5118337D01*
X5130000Y6934163D01*
X5141663Y6945826D01*
X5153326D01*
X5164989Y6934163D01*
Y6910837D01*
X5153326Y6899174D01*
X5141663D01*
X5130000Y6910837D01*
X5118337Y6899174D01*
X5106674D01*
X5130000Y6910837D02*
Y6934163D01*
X5106674Y6969152D02*
X5095011Y6980815D01*
Y7004140D01*
X5106674Y7015803D01*
X5118337D01*
X5130000Y7004140D01*
X5141663Y7015803D01*
X5153326D01*
X5164989Y7004140D01*
Y6980815D01*
X5153326Y6969152D01*
X5141663D01*
X5130000Y6980815D01*
X5118337Y6969152D01*
X5106674D01*
X5130000Y6980815D02*
Y7004140D01*
X4886697Y8085011D02*
Y8154989D01*
X4921685D01*
X4933348Y8143326D01*
Y8120000D01*
X4921685Y8108337D01*
X4886697D01*
X4910022D02*
X4933348Y8085011D01*
X4956674Y8143326D02*
X4968337Y8154989D01*
X4991663D01*
X5003326Y8143326D01*
Y8131663D01*
X4991663Y8120000D01*
X5003326Y8108337D01*
Y8096674D01*
X4991663Y8085011D01*
X4968337D01*
X4956674Y8096674D01*
Y8108337D01*
X4968337Y8120000D01*
X4956674Y8131663D01*
Y8143326D01*
X4968337Y8120000D02*
X4991663D01*
X5026652Y8154989D02*
X5073303D01*
Y8143326D01*
X5026652Y8096674D01*
Y8085011D01*
X5004988Y6831697D02*
X4935011D01*
Y6866686D01*
X4946674Y6878348D01*
X4969999D01*
X4981662Y6866686D01*
Y6831697D01*
Y6855023D02*
X5004988Y6878348D01*
X4946674Y6901674D02*
X4935011Y6913337D01*
Y6936663D01*
X4946674Y6948326D01*
X4958337D01*
X4969999Y6936663D01*
X4981662Y6948326D01*
X4993325D01*
X5004988Y6936663D01*
Y6913337D01*
X4993325Y6901674D01*
X4981662D01*
X4969999Y6913337D01*
X4958337Y6901674D01*
X4946674D01*
X4969999Y6913337D02*
Y6936663D01*
X4935011Y7018303D02*
X4946674Y6994978D01*
X4969999Y6971652D01*
X4993325D01*
X5004988Y6983315D01*
Y7006641D01*
X4993325Y7018303D01*
X4981662D01*
X4969999Y7006641D01*
Y6971652D01*
X2326697Y5925011D02*
Y5994989D01*
X2361685D01*
X2373348Y5983326D01*
Y5960000D01*
X2361685Y5948337D01*
X2326697D01*
X2350022D02*
X2373348Y5925011D01*
X2396674Y5983326D02*
X2408337Y5994989D01*
X2431663D01*
X2443326Y5983326D01*
Y5971663D01*
X2431663Y5960000D01*
X2443326Y5948337D01*
Y5936674D01*
X2431663Y5925011D01*
X2408337D01*
X2396674Y5936674D01*
Y5948337D01*
X2408337Y5960000D01*
X2396674Y5971663D01*
Y5983326D01*
X2408337Y5960000D02*
X2431663D01*
X2513303Y5994989D02*
X2466652D01*
Y5960000D01*
X2489977Y5971663D01*
X2501640D01*
X2513303Y5960000D01*
Y5936674D01*
X2501640Y5925011D01*
X2478315D01*
X2466652Y5936674D01*
X3059197Y5867511D02*
Y5937489D01*
X3094185D01*
X3105848Y5925826D01*
Y5902500D01*
X3094185Y5890837D01*
X3059197D01*
X3082522D02*
X3105848Y5867511D01*
X3129174Y5925826D02*
X3140837Y5937489D01*
X3164163D01*
X3175826Y5925826D01*
Y5914163D01*
X3164163Y5902500D01*
X3175826Y5890837D01*
Y5879174D01*
X3164163Y5867511D01*
X3140837D01*
X3129174Y5879174D01*
Y5890837D01*
X3140837Y5902500D01*
X3129174Y5914163D01*
Y5925826D01*
X3140837Y5902500D02*
X3164163D01*
X3234140Y5867511D02*
Y5937489D01*
X3199152Y5902500D01*
X3245803D01*
X2206697Y6077511D02*
Y6147489D01*
X2241685D01*
X2253348Y6135826D01*
Y6112500D01*
X2241685Y6100837D01*
X2206697D01*
X2230022D02*
X2253348Y6077511D01*
X2276674Y6135826D02*
X2288337Y6147489D01*
X2311663D01*
X2323326Y6135826D01*
Y6124163D01*
X2311663Y6112500D01*
X2323326Y6100837D01*
Y6089174D01*
X2311663Y6077511D01*
X2288337D01*
X2276674Y6089174D01*
Y6100837D01*
X2288337Y6112500D01*
X2276674Y6124163D01*
Y6135826D01*
X2288337Y6112500D02*
X2311663D01*
X2346652Y6135826D02*
X2358315Y6147489D01*
X2381640D01*
X2393303Y6135826D01*
Y6124163D01*
X2381640Y6112500D01*
X2369977D01*
X2381640D01*
X2393303Y6100837D01*
Y6089174D01*
X2381640Y6077511D01*
X2358315D01*
X2346652Y6089174D01*
X3549197Y7302511D02*
Y7372489D01*
X3584185D01*
X3595848Y7360826D01*
Y7337500D01*
X3584185Y7325837D01*
X3549197D01*
X3572522D02*
X3595848Y7302511D01*
X3619174Y7360826D02*
X3630837Y7372489D01*
X3654163D01*
X3665826Y7360826D01*
Y7349163D01*
X3654163Y7337500D01*
X3665826Y7325837D01*
Y7314174D01*
X3654163Y7302511D01*
X3630837D01*
X3619174Y7314174D01*
Y7325837D01*
X3630837Y7337500D01*
X3619174Y7349163D01*
Y7360826D01*
X3630837Y7337500D02*
X3654163D01*
X3735803Y7302511D02*
X3689152D01*
X3735803Y7349163D01*
Y7360826D01*
X3724140Y7372489D01*
X3700815D01*
X3689152Y7360826D01*
X2218360Y6432511D02*
Y6502489D01*
X2253348D01*
X2265011Y6490826D01*
Y6467500D01*
X2253348Y6455837D01*
X2218360D01*
X2241685D02*
X2265011Y6432511D01*
X2288337Y6490826D02*
X2300000Y6502489D01*
X2323326D01*
X2334989Y6490826D01*
Y6479163D01*
X2323326Y6467500D01*
X2334989Y6455837D01*
Y6444174D01*
X2323326Y6432511D01*
X2300000D01*
X2288337Y6444174D01*
Y6455837D01*
X2300000Y6467500D01*
X2288337Y6479163D01*
Y6490826D01*
X2300000Y6467500D02*
X2323326D01*
X2358315Y6432511D02*
X2381640D01*
X2369977D01*
Y6502489D01*
X2358315Y6490826D01*
X3551697Y7422511D02*
Y7492489D01*
X3586685D01*
X3598348Y7480826D01*
Y7457500D01*
X3586685Y7445837D01*
X3551697D01*
X3575023D02*
X3598348Y7422511D01*
X3621674Y7480826D02*
X3633337Y7492489D01*
X3656663D01*
X3668326Y7480826D01*
Y7469163D01*
X3656663Y7457500D01*
X3668326Y7445837D01*
Y7434174D01*
X3656663Y7422511D01*
X3633337D01*
X3621674Y7434174D01*
Y7445837D01*
X3633337Y7457500D01*
X3621674Y7469163D01*
Y7480826D01*
X3633337Y7457500D02*
X3656663D01*
X3691652Y7480826D02*
X3703315Y7492489D01*
X3726641D01*
X3738303Y7480826D01*
Y7434174D01*
X3726641Y7422511D01*
X3703315D01*
X3691652Y7434174D01*
Y7480826D01*
X2216697Y6307511D02*
Y6377489D01*
X2251685D01*
X2263348Y6365826D01*
Y6342500D01*
X2251685Y6330837D01*
X2216697D01*
X2240022D02*
X2263348Y6307511D01*
X2286674Y6377489D02*
X2333326D01*
Y6365826D01*
X2286674Y6319174D01*
Y6307511D01*
X2356652Y6319174D02*
X2368315Y6307511D01*
X2391640D01*
X2403303Y6319174D01*
Y6365826D01*
X2391640Y6377489D01*
X2368315D01*
X2356652Y6365826D01*
Y6354163D01*
X2368315Y6342500D01*
X2403303D01*
X2396697Y6685011D02*
Y6754989D01*
X2431686D01*
X2443348Y6743326D01*
Y6720000D01*
X2431686Y6708337D01*
X2396697D01*
X2420023D02*
X2443348Y6685011D01*
X2466674Y6754989D02*
X2513326D01*
Y6743326D01*
X2466674Y6696674D01*
Y6685011D01*
X2536652Y6743326D02*
X2548315Y6754989D01*
X2571641D01*
X2583303Y6743326D01*
Y6731663D01*
X2571641Y6720000D01*
X2583303Y6708337D01*
Y6696674D01*
X2571641Y6685011D01*
X2548315D01*
X2536652Y6696674D01*
Y6708337D01*
X2548315Y6720000D01*
X2536652Y6731663D01*
Y6743326D01*
X2548315Y6720000D02*
X2571641D01*
X3882511Y6720803D02*
X3952488D01*
Y6685814D01*
X3940825Y6674151D01*
X3917500D01*
X3905837Y6685814D01*
Y6720803D01*
Y6697477D02*
X3882511Y6674151D01*
X3952488Y6650826D02*
Y6604174D01*
X3940825D01*
X3894174Y6650826D01*
X3882511D01*
X3952488Y6534196D02*
X3940825Y6557522D01*
X3917500Y6580848D01*
X3894174D01*
X3882511Y6569185D01*
Y6545859D01*
X3894174Y6534196D01*
X3905837D01*
X3917500Y6545859D01*
Y6580848D01*
X4172511Y6723303D02*
X4242489D01*
Y6688314D01*
X4230826Y6676651D01*
X4207500D01*
X4195837Y6688314D01*
Y6723303D01*
Y6699977D02*
X4172511Y6676651D01*
X4242489Y6653325D02*
Y6606674D01*
X4230826D01*
X4184174Y6653325D01*
X4172511D01*
X4242489Y6536696D02*
Y6583348D01*
X4207500D01*
X4219163Y6560022D01*
Y6548359D01*
X4207500Y6536696D01*
X4184174D01*
X4172511Y6548359D01*
Y6571685D01*
X4184174Y6583348D01*
X3757511Y6730803D02*
X3827488D01*
Y6695814D01*
X3815825Y6684151D01*
X3792500D01*
X3780837Y6695814D01*
Y6730803D01*
Y6707477D02*
X3757511Y6684151D01*
X3827488Y6660826D02*
Y6614174D01*
X3815825D01*
X3769174Y6660826D01*
X3757511D01*
Y6555859D02*
X3827488D01*
X3792500Y6590848D01*
Y6544196D01*
X4017511Y6718303D02*
X4087489D01*
Y6683315D01*
X4075826Y6671652D01*
X4052500D01*
X4040837Y6683315D01*
Y6718303D01*
Y6694977D02*
X4017511Y6671652D01*
X4087489Y6648326D02*
Y6601674D01*
X4075826D01*
X4029174Y6648326D01*
X4017511D01*
X4075826Y6578348D02*
X4087489Y6566685D01*
Y6543360D01*
X4075826Y6531697D01*
X4064163D01*
X4052500Y6543360D01*
Y6555022D01*
Y6543360D01*
X4040837Y6531697D01*
X4029174D01*
X4017511Y6543360D01*
Y6566685D01*
X4029174Y6578348D01*
X5228360Y10335011D02*
Y10404989D01*
X5263348D01*
X5275011Y10393326D01*
Y10370000D01*
X5263348Y10358337D01*
X5228360D01*
X5251685D02*
X5275011Y10335011D01*
X5298337Y10404989D02*
X5344989D01*
Y10393326D01*
X5298337Y10346674D01*
Y10335011D01*
X5368315D02*
X5391640D01*
X5379978D01*
Y10404989D01*
X5368315Y10393326D01*
X4504988Y7036697D02*
X4435011D01*
Y7071685D01*
X4446674Y7083348D01*
X4469999D01*
X4481662Y7071685D01*
Y7036697D01*
Y7060022D02*
X4504988Y7083348D01*
X4435011Y7106674D02*
Y7153326D01*
X4446674D01*
X4493325Y7106674D01*
X4504988D01*
X4446674Y7176652D02*
X4435011Y7188315D01*
Y7211640D01*
X4446674Y7223303D01*
X4493325D01*
X4504988Y7211640D01*
Y7188315D01*
X4493325Y7176652D01*
X4446674D01*
X4460803Y8387489D02*
Y8317511D01*
X4425814D01*
X4414151Y8329174D01*
Y8352500D01*
X4425814Y8364163D01*
X4460803D01*
X4437477D02*
X4414151Y8387489D01*
X4344174Y8317511D02*
X4367500Y8329174D01*
X4390825Y8352500D01*
Y8375826D01*
X4379162Y8387489D01*
X4355837D01*
X4344174Y8375826D01*
Y8364163D01*
X4355837Y8352500D01*
X4390825D01*
X4320848Y8375826D02*
X4309185Y8387489D01*
X4285859D01*
X4274196Y8375826D01*
Y8329174D01*
X4285859Y8317511D01*
X4309185D01*
X4320848Y8329174D01*
Y8340837D01*
X4309185Y8352500D01*
X4274196D01*
X5216697Y10175011D02*
Y10244989D01*
X5251685D01*
X5263348Y10233326D01*
Y10210000D01*
X5251685Y10198337D01*
X5216697D01*
X5240023D02*
X5263348Y10175011D01*
X5333326Y10244989D02*
X5310000Y10233326D01*
X5286674Y10210000D01*
Y10186674D01*
X5298337Y10175011D01*
X5321663D01*
X5333326Y10186674D01*
Y10198337D01*
X5321663Y10210000D01*
X5286674D01*
X5356652Y10233326D02*
X5368315Y10244989D01*
X5391640D01*
X5403303Y10233326D01*
Y10221663D01*
X5391640Y10210000D01*
X5403303Y10198337D01*
Y10186674D01*
X5391640Y10175011D01*
X5368315D01*
X5356652Y10186674D01*
Y10198337D01*
X5368315Y10210000D01*
X5356652Y10221663D01*
Y10233326D01*
X5368315Y10210000D02*
X5391640D01*
X4194989Y9916696D02*
X4125011D01*
Y9951685D01*
X4136674Y9963348D01*
X4160000D01*
X4171663Y9951685D01*
Y9916696D01*
Y9940022D02*
X4194989Y9963348D01*
X4125011Y10033326D02*
X4136674Y10010000D01*
X4160000Y9986674D01*
X4183326D01*
X4194989Y9998337D01*
Y10021663D01*
X4183326Y10033326D01*
X4171663D01*
X4160000Y10021663D01*
Y9986674D01*
X4125011Y10056651D02*
Y10103303D01*
X4136674D01*
X4183326Y10056651D01*
X4194989D01*
X4479197Y9182511D02*
Y9252489D01*
X4514186D01*
X4525848Y9240826D01*
Y9217500D01*
X4514186Y9205837D01*
X4479197D01*
X4502523D02*
X4525848Y9182511D01*
X4595826Y9252489D02*
X4572500Y9240826D01*
X4549174Y9217500D01*
Y9194174D01*
X4560837Y9182511D01*
X4584163D01*
X4595826Y9194174D01*
Y9205837D01*
X4584163Y9217500D01*
X4549174D01*
X4665803Y9252489D02*
X4642478Y9240826D01*
X4619152Y9217500D01*
Y9194174D01*
X4630815Y9182511D01*
X4654141D01*
X4665803Y9194174D01*
Y9205837D01*
X4654141Y9217500D01*
X4619152D01*
X4194989Y9446696D02*
X4125011D01*
Y9481685D01*
X4136674Y9493348D01*
X4160000D01*
X4171663Y9481685D01*
Y9446696D01*
Y9470022D02*
X4194989Y9493348D01*
X4125011Y9563326D02*
X4136674Y9540000D01*
X4160000Y9516674D01*
X4183326D01*
X4194989Y9528337D01*
Y9551663D01*
X4183326Y9563326D01*
X4171663D01*
X4160000Y9551663D01*
Y9516674D01*
X4125011Y9633303D02*
Y9586651D01*
X4160000D01*
X4148337Y9609977D01*
Y9621640D01*
X4160000Y9633303D01*
X4183326D01*
X4194989Y9621640D01*
Y9598314D01*
X4183326Y9586651D01*
X2926697Y8835011D02*
Y8904989D01*
X2961685D01*
X2973348Y8893326D01*
Y8870000D01*
X2961685Y8858337D01*
X2926697D01*
X2950023D02*
X2973348Y8835011D01*
X3043326Y8904989D02*
X3020000Y8893326D01*
X2996674Y8870000D01*
Y8846674D01*
X3008337Y8835011D01*
X3031663D01*
X3043326Y8846674D01*
Y8858337D01*
X3031663Y8870000D01*
X2996674D01*
X3101640Y8835011D02*
Y8904989D01*
X3066652Y8870000D01*
X3113303D01*
X3874989Y8906697D02*
X3805011D01*
Y8941685D01*
X3816674Y8953348D01*
X3840000D01*
X3851663Y8941685D01*
Y8906697D01*
Y8930023D02*
X3874989Y8953348D01*
X3805011Y9023326D02*
X3816674Y9000000D01*
X3840000Y8976674D01*
X3863326D01*
X3874989Y8988337D01*
Y9011663D01*
X3863326Y9023326D01*
X3851663D01*
X3840000Y9011663D01*
Y8976674D01*
X3816674Y9046652D02*
X3805011Y9058315D01*
Y9081640D01*
X3816674Y9093303D01*
X3828337D01*
X3840000Y9081640D01*
Y9069978D01*
Y9081640D01*
X3851663Y9093303D01*
X3863326D01*
X3874989Y9081640D01*
Y9058315D01*
X3863326Y9046652D01*
X3334989Y9416697D02*
X3265011D01*
Y9451685D01*
X3276674Y9463348D01*
X3300000D01*
X3311663Y9451685D01*
Y9416697D01*
Y9440023D02*
X3334989Y9463348D01*
X3265011Y9533326D02*
X3276674Y9510000D01*
X3300000Y9486674D01*
X3323326D01*
X3334989Y9498337D01*
Y9521663D01*
X3323326Y9533326D01*
X3311663D01*
X3300000Y9521663D01*
Y9486674D01*
X3334989Y9603303D02*
Y9556652D01*
X3288337Y9603303D01*
X3276674D01*
X3265011Y9591640D01*
Y9568315D01*
X3276674Y9556652D01*
X4044989Y9468360D02*
X3975011D01*
Y9503349D01*
X3986674Y9515011D01*
X4010000D01*
X4021663Y9503349D01*
Y9468360D01*
Y9491686D02*
X4044989Y9515011D01*
X3975011Y9584989D02*
X3986674Y9561663D01*
X4010000Y9538337D01*
X4033326D01*
X4044989Y9550000D01*
Y9573326D01*
X4033326Y9584989D01*
X4021663D01*
X4010000Y9573326D01*
Y9538337D01*
X4044989Y9608315D02*
Y9631641D01*
Y9619978D01*
X3975011D01*
X3986674Y9608315D01*
X3486697Y8685011D02*
Y8754989D01*
X3521685D01*
X3533348Y8743326D01*
Y8720000D01*
X3521685Y8708337D01*
X3486697D01*
X3510022D02*
X3533348Y8685011D01*
X3603326Y8754989D02*
X3580000Y8743326D01*
X3556674Y8720000D01*
Y8696674D01*
X3568337Y8685011D01*
X3591663D01*
X3603326Y8696674D01*
Y8708337D01*
X3591663Y8720000D01*
X3556674D01*
X3626652Y8743326D02*
X3638315Y8754989D01*
X3661640D01*
X3673303Y8743326D01*
Y8696674D01*
X3661640Y8685011D01*
X3638315D01*
X3626652Y8696674D01*
Y8743326D01*
X3016697Y8565011D02*
Y8634989D01*
X3051685D01*
X3063348Y8623326D01*
Y8600000D01*
X3051685Y8588337D01*
X3016697D01*
X3040022D02*
X3063348Y8565011D01*
X3133326Y8634989D02*
X3086674D01*
Y8600000D01*
X3110000Y8611663D01*
X3121663D01*
X3133326Y8600000D01*
Y8576674D01*
X3121663Y8565011D01*
X3098337D01*
X3086674Y8576674D01*
X3156652D02*
X3168314Y8565011D01*
X3191640D01*
X3203303Y8576674D01*
Y8623326D01*
X3191640Y8634989D01*
X3168314D01*
X3156652Y8623326D01*
Y8611663D01*
X3168314Y8600000D01*
X3203303D01*
X2816697Y9735011D02*
Y9804989D01*
X2851685D01*
X2863348Y9793326D01*
Y9770000D01*
X2851685Y9758337D01*
X2816697D01*
X2840023D02*
X2863348Y9735011D01*
X2933326Y9804989D02*
X2886674D01*
Y9770000D01*
X2910000Y9781663D01*
X2921663D01*
X2933326Y9770000D01*
Y9746674D01*
X2921663Y9735011D01*
X2898337D01*
X2886674Y9746674D01*
X2956652Y9793326D02*
X2968315Y9804989D01*
X2991640D01*
X3003303Y9793326D01*
Y9781663D01*
X2991640Y9770000D01*
X3003303Y9758337D01*
Y9746674D01*
X2991640Y9735011D01*
X2968315D01*
X2956652Y9746674D01*
Y9758337D01*
X2968315Y9770000D01*
X2956652Y9781663D01*
Y9793326D01*
X2968315Y9770000D02*
X2991640D01*
X4376697Y9505011D02*
Y9574989D01*
X4411685D01*
X4423348Y9563326D01*
Y9540000D01*
X4411685Y9528337D01*
X4376697D01*
X4400022D02*
X4423348Y9505011D01*
X4493326Y9574989D02*
X4446674D01*
Y9540000D01*
X4470000Y9551663D01*
X4481663D01*
X4493326Y9540000D01*
Y9516674D01*
X4481663Y9505011D01*
X4458337D01*
X4446674Y9516674D01*
X4516652Y9574989D02*
X4563303D01*
Y9563326D01*
X4516652Y9516674D01*
Y9505011D01*
X3196697Y10465011D02*
Y10534989D01*
X3231685D01*
X3243348Y10523326D01*
Y10500000D01*
X3231685Y10488337D01*
X3196697D01*
X3220023D02*
X3243348Y10465011D01*
X3313326Y10534989D02*
X3266674D01*
Y10500000D01*
X3290000Y10511663D01*
X3301663D01*
X3313326Y10500000D01*
Y10476674D01*
X3301663Y10465011D01*
X3278337D01*
X3266674Y10476674D01*
X3383303Y10534989D02*
X3359978Y10523326D01*
X3336652Y10500000D01*
Y10476674D01*
X3348315Y10465011D01*
X3371640D01*
X3383303Y10476674D01*
Y10488337D01*
X3371640Y10500000D01*
X3336652D01*
X9007488Y2279196D02*
X8937511D01*
Y2314185D01*
X8949174Y2325848D01*
X8972500D01*
X8984163Y2314185D01*
Y2279196D01*
Y2302522D02*
X9007488Y2325848D01*
X8937511Y2395826D02*
Y2349174D01*
X8972500D01*
X8960837Y2372500D01*
Y2384163D01*
X8972500Y2395826D01*
X8995826D01*
X9007488Y2384163D01*
Y2360837D01*
X8995826Y2349174D01*
X8949174Y2419151D02*
X8937511Y2430814D01*
Y2454140D01*
X8949174Y2465803D01*
X8960837D01*
X8972500Y2454140D01*
Y2442477D01*
Y2454140D01*
X8984163Y2465803D01*
X8995826D01*
X9007488Y2454140D01*
Y2430814D01*
X8995826Y2419151D01*
X8907489Y2279197D02*
X8837511D01*
Y2314185D01*
X8849174Y2325848D01*
X8872500D01*
X8884163Y2314185D01*
Y2279197D01*
Y2302522D02*
X8907489Y2325848D01*
X8837511Y2395826D02*
Y2349174D01*
X8872500D01*
X8860837Y2372500D01*
Y2384163D01*
X8872500Y2395826D01*
X8895826D01*
X8907489Y2384163D01*
Y2360837D01*
X8895826Y2349174D01*
X8907489Y2465803D02*
Y2419152D01*
X8860837Y2465803D01*
X8849174D01*
X8837511Y2454140D01*
Y2430815D01*
X8849174Y2419152D01*
X8327489Y1778360D02*
X8257511D01*
Y1813349D01*
X8269174Y1825012D01*
X8292500D01*
X8304163Y1813349D01*
Y1778360D01*
Y1801686D02*
X8327489Y1825012D01*
X8257511Y1894989D02*
Y1848337D01*
X8292500D01*
X8280837Y1871663D01*
Y1883326D01*
X8292500Y1894989D01*
X8315826D01*
X8327489Y1883326D01*
Y1860000D01*
X8315826Y1848337D01*
X8327489Y1918315D02*
Y1941641D01*
Y1929978D01*
X8257511D01*
X8269174Y1918315D01*
X7624989Y2724197D02*
X7555011D01*
Y2759186D01*
X7566674Y2770849D01*
X7590000D01*
X7601663Y2759186D01*
Y2724197D01*
Y2747523D02*
X7624989Y2770849D01*
X7555011Y2840826D02*
Y2794174D01*
X7590000D01*
X7578337Y2817500D01*
Y2829163D01*
X7590000Y2840826D01*
X7613326D01*
X7624989Y2829163D01*
Y2805837D01*
X7613326Y2794174D01*
X7566674Y2864152D02*
X7555011Y2875815D01*
Y2899141D01*
X7566674Y2910804D01*
X7613326D01*
X7624989Y2899141D01*
Y2875815D01*
X7613326Y2864152D01*
X7566674D01*
X7459197Y8737511D02*
Y8807489D01*
X7494185D01*
X7505848Y8795826D01*
Y8772500D01*
X7494185Y8760837D01*
X7459197D01*
X7482523D02*
X7505848Y8737511D01*
X7564163D02*
Y8807489D01*
X7529174Y8772500D01*
X7575826D01*
X7645803Y8807489D02*
X7599152D01*
Y8772500D01*
X7622478Y8784163D01*
X7634140D01*
X7645803Y8772500D01*
Y8749174D01*
X7634140Y8737511D01*
X7610815D01*
X7599152Y8749174D01*
X8854197Y8597511D02*
Y8667489D01*
X8889185D01*
X8900848Y8655826D01*
Y8632500D01*
X8889185Y8620837D01*
X8854197D01*
X8877523D02*
X8900848Y8597511D01*
X8959163D02*
Y8667489D01*
X8924174Y8632500D01*
X8970826D01*
X8994152Y8667489D02*
X9040803D01*
Y8655826D01*
X8994152Y8609174D01*
Y8597511D01*
X7009197Y8732511D02*
Y8802489D01*
X7044185D01*
X7055848Y8790826D01*
Y8767500D01*
X7044185Y8755837D01*
X7009197D01*
X7032522D02*
X7055848Y8732511D01*
X7114163D02*
Y8802489D01*
X7079174Y8767500D01*
X7125826D01*
X7184140Y8732511D02*
Y8802489D01*
X7149152Y8767500D01*
X7195803D01*
X8021697Y8735011D02*
Y8804989D01*
X8056685D01*
X8068348Y8793326D01*
Y8770000D01*
X8056685Y8758337D01*
X8021697D01*
X8045023D02*
X8068348Y8735011D01*
X8126663D02*
Y8804989D01*
X8091674Y8770000D01*
X8138326D01*
X8208303Y8804989D02*
X8184978Y8793326D01*
X8161652Y8770000D01*
Y8746674D01*
X8173315Y8735011D01*
X8196640D01*
X8208303Y8746674D01*
Y8758337D01*
X8196640Y8770000D01*
X8161652D01*
X7226697Y4220011D02*
Y4289989D01*
X7261686D01*
X7273348Y4278326D01*
Y4255000D01*
X7261686Y4243337D01*
X7226697D01*
X7250023D02*
X7273348Y4220011D01*
X7331663D02*
Y4289989D01*
X7296674Y4255000D01*
X7343326D01*
X7366652Y4278326D02*
X7378315Y4289989D01*
X7401641D01*
X7413303Y4278326D01*
Y4266663D01*
X7401641Y4255000D01*
X7389978D01*
X7401641D01*
X7413303Y4243337D01*
Y4231674D01*
X7401641Y4220011D01*
X7378315D01*
X7366652Y4231674D01*
X7286697Y4065011D02*
Y4134989D01*
X7321685D01*
X7333348Y4123326D01*
Y4100000D01*
X7321685Y4088337D01*
X7286697D01*
X7310022D02*
X7333348Y4065011D01*
X7391663D02*
Y4134989D01*
X7356674Y4100000D01*
X7403326D01*
X7473303Y4065011D02*
X7426652D01*
X7473303Y4111663D01*
Y4123326D01*
X7461640Y4134989D01*
X7438315D01*
X7426652Y4123326D01*
X341697Y7480011D02*
Y7549989D01*
X376685D01*
X388348Y7538326D01*
Y7515000D01*
X376685Y7503337D01*
X341697D01*
X365022D02*
X388348Y7480011D01*
X446663D02*
Y7549989D01*
X411674Y7515000D01*
X458326D01*
X481652Y7538326D02*
X493314Y7549989D01*
X516640D01*
X528303Y7538326D01*
Y7491674D01*
X516640Y7480011D01*
X493314D01*
X481652Y7491674D01*
Y7538326D01*
X806697Y7465011D02*
Y7534989D01*
X841685D01*
X853348Y7523326D01*
Y7500000D01*
X841685Y7488337D01*
X806697D01*
X830022D02*
X853348Y7465011D01*
X876674Y7523326D02*
X888337Y7534989D01*
X911663D01*
X923326Y7523326D01*
Y7511663D01*
X911663Y7500000D01*
X900000D01*
X911663D01*
X923326Y7488337D01*
Y7476674D01*
X911663Y7465011D01*
X888337D01*
X876674Y7476674D01*
X946652Y7523326D02*
X958315Y7534989D01*
X981640D01*
X993303Y7523326D01*
Y7511663D01*
X981640Y7500000D01*
X993303Y7488337D01*
Y7476674D01*
X981640Y7465011D01*
X958315D01*
X946652Y7476674D01*
Y7488337D01*
X958315Y7500000D01*
X946652Y7511663D01*
Y7523326D01*
X958315Y7500000D02*
X981640D01*
X4261697Y11907511D02*
Y11977489D01*
X4296685D01*
X4308348Y11965826D01*
Y11942500D01*
X4296685Y11930837D01*
X4261697D01*
X4285022D02*
X4308348Y11907511D01*
X4331674Y11965826D02*
X4343337Y11977489D01*
X4366663D01*
X4378326Y11965826D01*
Y11954163D01*
X4366663Y11942500D01*
X4355000D01*
X4366663D01*
X4378326Y11930837D01*
Y11919174D01*
X4366663Y11907511D01*
X4343337D01*
X4331674Y11919174D01*
X4401652Y11977489D02*
X4448303D01*
Y11965826D01*
X4401652Y11919174D01*
Y11907511D01*
X4106697Y12047511D02*
Y12117489D01*
X4141685D01*
X4153348Y12105826D01*
Y12082500D01*
X4141685Y12070837D01*
X4106697D01*
X4130022D02*
X4153348Y12047511D01*
X4176674Y12105826D02*
X4188337Y12117489D01*
X4211663D01*
X4223326Y12105826D01*
Y12094163D01*
X4211663Y12082500D01*
X4200000D01*
X4211663D01*
X4223326Y12070837D01*
Y12059174D01*
X4211663Y12047511D01*
X4188337D01*
X4176674Y12059174D01*
X4293303Y12117489D02*
X4269977Y12105826D01*
X4246652Y12082500D01*
Y12059174D01*
X4258315Y12047511D01*
X4281640D01*
X4293303Y12059174D01*
Y12070837D01*
X4281640Y12082500D01*
X4246652D01*
X4224988Y12626697D02*
X4155011D01*
Y12661685D01*
X4166674Y12673348D01*
X4189999D01*
X4201662Y12661685D01*
Y12626697D01*
Y12650022D02*
X4224988Y12673348D01*
X4166674Y12696674D02*
X4155011Y12708337D01*
Y12731663D01*
X4166674Y12743326D01*
X4178337D01*
X4189999Y12731663D01*
Y12720000D01*
Y12731663D01*
X4201662Y12743326D01*
X4213325D01*
X4224988Y12731663D01*
Y12708337D01*
X4213325Y12696674D01*
X4155011Y12813303D02*
Y12766652D01*
X4189999D01*
X4178337Y12789977D01*
Y12801640D01*
X4189999Y12813303D01*
X4213325D01*
X4224988Y12801640D01*
Y12778315D01*
X4213325Y12766652D01*
X4576697Y12055011D02*
Y12124989D01*
X4611685D01*
X4623348Y12113326D01*
Y12090000D01*
X4611685Y12078337D01*
X4576697D01*
X4600023D02*
X4623348Y12055011D01*
X4646674Y12113326D02*
X4658337Y12124989D01*
X4681663D01*
X4693326Y12113326D01*
Y12101663D01*
X4681663Y12090000D01*
X4670000D01*
X4681663D01*
X4693326Y12078337D01*
Y12066674D01*
X4681663Y12055011D01*
X4658337D01*
X4646674Y12066674D01*
X4751640Y12055011D02*
Y12124989D01*
X4716652Y12090000D01*
X4763303D01*
X1736697Y12457511D02*
Y12527489D01*
X1771685D01*
X1783348Y12515826D01*
Y12492500D01*
X1771685Y12480837D01*
X1736697D01*
X1760022D02*
X1783348Y12457511D01*
X1806674Y12515826D02*
X1818337Y12527489D01*
X1841663D01*
X1853326Y12515826D01*
Y12504163D01*
X1841663Y12492500D01*
X1830000D01*
X1841663D01*
X1853326Y12480837D01*
Y12469174D01*
X1841663Y12457511D01*
X1818337D01*
X1806674Y12469174D01*
X1876652Y12515826D02*
X1888314Y12527489D01*
X1911640D01*
X1923303Y12515826D01*
Y12504163D01*
X1911640Y12492500D01*
X1899977D01*
X1911640D01*
X1923303Y12480837D01*
Y12469174D01*
X1911640Y12457511D01*
X1888314D01*
X1876652Y12469174D01*
X707489Y9644197D02*
X637511D01*
Y9679186D01*
X649174Y9690849D01*
X672500D01*
X684163Y9679186D01*
Y9644197D01*
Y9667523D02*
X707489Y9690849D01*
X649174Y9714174D02*
X637511Y9725837D01*
Y9749163D01*
X649174Y9760826D01*
X660837D01*
X672500Y9749163D01*
Y9737500D01*
Y9749163D01*
X684163Y9760826D01*
X695826D01*
X707489Y9749163D01*
Y9725837D01*
X695826Y9714174D01*
X707489Y9830804D02*
Y9784152D01*
X660837Y9830804D01*
X649174D01*
X637511Y9819141D01*
Y9795815D01*
X649174Y9784152D01*
X987488Y9488360D02*
X917511D01*
Y9523348D01*
X929174Y9535011D01*
X952500D01*
X964163Y9523348D01*
Y9488360D01*
Y9511686D02*
X987488Y9535011D01*
X929174Y9558337D02*
X917511Y9570000D01*
Y9593326D01*
X929174Y9604989D01*
X940837D01*
X952500Y9593326D01*
Y9581663D01*
Y9593326D01*
X964163Y9604989D01*
X975826D01*
X987488Y9593326D01*
Y9570000D01*
X975826Y9558337D01*
X987488Y9628315D02*
Y9651641D01*
Y9639978D01*
X917511D01*
X929174Y9628315D01*
X1796697Y10965011D02*
Y11034989D01*
X1831685D01*
X1843348Y11023326D01*
Y11000000D01*
X1831685Y10988337D01*
X1796697D01*
X1820023D02*
X1843348Y10965011D01*
X1866674Y11023326D02*
X1878337Y11034989D01*
X1901663D01*
X1913326Y11023326D01*
Y11011663D01*
X1901663Y11000000D01*
X1890000D01*
X1901663D01*
X1913326Y10988337D01*
Y10976674D01*
X1901663Y10965011D01*
X1878337D01*
X1866674Y10976674D01*
X1936652Y11023326D02*
X1948315Y11034989D01*
X1971640D01*
X1983303Y11023326D01*
Y10976674D01*
X1971640Y10965011D01*
X1948315D01*
X1936652Y10976674D01*
Y11023326D01*
X2954989Y10946696D02*
X2885011D01*
Y10981685D01*
X2896674Y10993348D01*
X2920000D01*
X2931663Y10981685D01*
Y10946696D01*
Y10970022D02*
X2954989Y10993348D01*
Y11063326D02*
Y11016674D01*
X2908337Y11063326D01*
X2896674D01*
X2885011Y11051663D01*
Y11028337D01*
X2896674Y11016674D01*
X2943326Y11086651D02*
X2954989Y11098314D01*
Y11121640D01*
X2943326Y11133303D01*
X2896674D01*
X2885011Y11121640D01*
Y11098314D01*
X2896674Y11086651D01*
X2908337D01*
X2920000Y11098314D01*
Y11133303D01*
X2727489Y10679197D02*
X2657511D01*
Y10714185D01*
X2669174Y10725848D01*
X2692500D01*
X2704163Y10714185D01*
Y10679197D01*
Y10702522D02*
X2727489Y10725848D01*
Y10795826D02*
Y10749174D01*
X2680837Y10795826D01*
X2669174D01*
X2657511Y10784163D01*
Y10760837D01*
X2669174Y10749174D01*
Y10819152D02*
X2657511Y10830815D01*
Y10854140D01*
X2669174Y10865803D01*
X2680837D01*
X2692500Y10854140D01*
X2704163Y10865803D01*
X2715826D01*
X2727489Y10854140D01*
Y10830815D01*
X2715826Y10819152D01*
X2704163D01*
X2692500Y10830815D01*
X2680837Y10819152D01*
X2669174D01*
X2692500Y10830815D02*
Y10854140D01*
X2094989Y10476697D02*
X2025011D01*
Y10511685D01*
X2036674Y10523348D01*
X2060000D01*
X2071663Y10511685D01*
Y10476697D01*
Y10500022D02*
X2094989Y10523348D01*
Y10593326D02*
Y10546674D01*
X2048337Y10593326D01*
X2036674D01*
X2025011Y10581663D01*
Y10558337D01*
X2036674Y10546674D01*
X2025011Y10616652D02*
Y10663303D01*
X2036674D01*
X2083326Y10616652D01*
X2094989D01*
X2666697Y10955011D02*
Y11024989D01*
X2701685D01*
X2713348Y11013326D01*
Y10990000D01*
X2701685Y10978337D01*
X2666697D01*
X2690023D02*
X2713348Y10955011D01*
X2783326D02*
X2736674D01*
X2783326Y11001663D01*
Y11013326D01*
X2771663Y11024989D01*
X2748337D01*
X2736674Y11013326D01*
X2853303Y11024989D02*
X2829978Y11013326D01*
X2806652Y10990000D01*
Y10966674D01*
X2818315Y10955011D01*
X2841640D01*
X2853303Y10966674D01*
Y10978337D01*
X2841640Y10990000D01*
X2806652D01*
X1816697Y10825011D02*
Y10894989D01*
X1851685D01*
X1863348Y10883326D01*
Y10860000D01*
X1851685Y10848337D01*
X1816697D01*
X1840022D02*
X1863348Y10825011D01*
X1933326D02*
X1886674D01*
X1933326Y10871663D01*
Y10883326D01*
X1921663Y10894989D01*
X1898337D01*
X1886674Y10883326D01*
X2003303Y10894989D02*
X1956652D01*
Y10860000D01*
X1979977Y10871663D01*
X1991640D01*
X2003303Y10860000D01*
Y10836674D01*
X1991640Y10825011D01*
X1968315D01*
X1956652Y10836674D01*
X3196697Y7735011D02*
Y7804989D01*
X3231685D01*
X3243348Y7793326D01*
Y7770000D01*
X3231685Y7758337D01*
X3196697D01*
X3220023D02*
X3243348Y7735011D01*
X3313326D02*
X3266674D01*
X3313326Y7781663D01*
Y7793326D01*
X3301663Y7804989D01*
X3278337D01*
X3266674Y7793326D01*
X3371640Y7735011D02*
Y7804989D01*
X3336652Y7770000D01*
X3383303D01*
X2772488Y7131697D02*
X2702511D01*
Y7166685D01*
X2714174Y7178348D01*
X2737499D01*
X2749162Y7166685D01*
Y7131697D01*
Y7155023D02*
X2772488Y7178348D01*
Y7248326D02*
Y7201674D01*
X2725837Y7248326D01*
X2714174D01*
X2702511Y7236663D01*
Y7213337D01*
X2714174Y7201674D01*
Y7271652D02*
X2702511Y7283315D01*
Y7306640D01*
X2714174Y7318303D01*
X2725837D01*
X2737499Y7306640D01*
Y7294978D01*
Y7306640D01*
X2749162Y7318303D01*
X2760825D01*
X2772488Y7306640D01*
Y7283315D01*
X2760825Y7271652D01*
X2737489Y7604197D02*
X2667511D01*
Y7639186D01*
X2679174Y7650849D01*
X2702500D01*
X2714163Y7639186D01*
Y7604197D01*
Y7627523D02*
X2737489Y7650849D01*
Y7720826D02*
Y7674174D01*
X2690837Y7720826D01*
X2679174D01*
X2667511Y7709163D01*
Y7685837D01*
X2679174Y7674174D01*
X2737489Y7790804D02*
Y7744152D01*
X2690837Y7790804D01*
X2679174D01*
X2667511Y7779141D01*
Y7755815D01*
X2679174Y7744152D01*
X2624988Y7158360D02*
X2555011D01*
Y7193349D01*
X2566674Y7205011D01*
X2590000D01*
X2601663Y7193349D01*
Y7158360D01*
Y7181686D02*
X2624988Y7205011D01*
Y7274989D02*
Y7228337D01*
X2578337Y7274989D01*
X2566674D01*
X2555011Y7263326D01*
Y7240000D01*
X2566674Y7228337D01*
X2624988Y7298315D02*
Y7321641D01*
Y7309978D01*
X2555011D01*
X2566674Y7298315D01*
X2821697Y8475011D02*
Y8544989D01*
X2856685D01*
X2868348Y8533326D01*
Y8510000D01*
X2856685Y8498337D01*
X2821697D01*
X2845023D02*
X2868348Y8475011D01*
X2938326D02*
X2891674D01*
X2938326Y8521663D01*
Y8533326D01*
X2926663Y8544989D01*
X2903337D01*
X2891674Y8533326D01*
X2961652D02*
X2973315Y8544989D01*
X2996640D01*
X3008303Y8533326D01*
Y8486674D01*
X2996640Y8475011D01*
X2973315D01*
X2961652Y8486674D01*
Y8533326D01*
X3002528Y7775011D02*
Y7844989D01*
X3037517D01*
X3049180Y7833326D01*
Y7810000D01*
X3037517Y7798337D01*
X3002528D01*
X3025854D02*
X3049180Y7775011D01*
X3072506D02*
X3095832D01*
X3084169D01*
Y7844989D01*
X3072506Y7833326D01*
X3130820Y7786674D02*
X3142483Y7775011D01*
X3165809D01*
X3177472Y7786674D01*
Y7833326D01*
X3165809Y7844989D01*
X3142483D01*
X3130820Y7833326D01*
Y7821663D01*
X3142483Y7810000D01*
X3177472D01*
X2474988Y7142528D02*
X2405011D01*
Y7177517D01*
X2416674Y7189180D01*
X2440000D01*
X2451663Y7177517D01*
Y7142528D01*
Y7165854D02*
X2474988Y7189180D01*
Y7212506D02*
Y7235831D01*
Y7224168D01*
X2405011D01*
X2416674Y7212506D01*
Y7270820D02*
X2405011Y7282483D01*
Y7305809D01*
X2416674Y7317472D01*
X2428337D01*
X2440000Y7305809D01*
X2451663Y7317472D01*
X2463326D01*
X2474988Y7305809D01*
Y7282483D01*
X2463326Y7270820D01*
X2451663D01*
X2440000Y7282483D01*
X2428337Y7270820D01*
X2416674D01*
X2440000Y7282483D02*
Y7305809D01*
X2767528Y8220011D02*
Y8289989D01*
X2802517D01*
X2814180Y8278326D01*
Y8255000D01*
X2802517Y8243337D01*
X2767528D01*
X2790854D02*
X2814180Y8220011D01*
X2837506D02*
X2860831D01*
X2849169D01*
Y8289989D01*
X2837506Y8278326D01*
X2895820Y8289989D02*
X2942472D01*
Y8278326D01*
X2895820Y8231674D01*
Y8220011D01*
X2405028Y12382511D02*
Y12452489D01*
X2440017D01*
X2451680Y12440826D01*
Y12417500D01*
X2440017Y12405837D01*
X2405028D01*
X2428354D02*
X2451680Y12382511D01*
X2475006D02*
X2498332D01*
X2486669D01*
Y12452489D01*
X2475006Y12440826D01*
X2579972Y12452489D02*
X2556646Y12440826D01*
X2533320Y12417500D01*
Y12394174D01*
X2544983Y12382511D01*
X2568309D01*
X2579972Y12394174D01*
Y12405837D01*
X2568309Y12417500D01*
X2533320D01*
X1862528Y12095011D02*
Y12164989D01*
X1897517D01*
X1909180Y12153326D01*
Y12130000D01*
X1897517Y12118337D01*
X1862528D01*
X1885854D02*
X1909180Y12095011D01*
X1932506D02*
X1955831D01*
X1944169D01*
Y12164989D01*
X1932506Y12153326D01*
X2037472Y12164989D02*
X1990820D01*
Y12130000D01*
X2014146Y12141663D01*
X2025809D01*
X2037472Y12130000D01*
Y12106674D01*
X2025809Y12095011D01*
X2002483D01*
X1990820Y12106674D01*
X1712528Y11965011D02*
Y12034989D01*
X1747517D01*
X1759180Y12023326D01*
Y12000000D01*
X1747517Y11988337D01*
X1712528D01*
X1735854D02*
X1759180Y11965011D01*
X1782506D02*
X1805832D01*
X1794169D01*
Y12034989D01*
X1782506Y12023326D01*
X1875809Y11965011D02*
Y12034989D01*
X1840820Y12000000D01*
X1887472D01*
X2045028Y8837511D02*
Y8907489D01*
X2080017D01*
X2091680Y8895826D01*
Y8872500D01*
X2080017Y8860837D01*
X2045028D01*
X2068354D02*
X2091680Y8837511D01*
X2115006D02*
X2138332D01*
X2126669D01*
Y8907489D01*
X2115006Y8895826D01*
X2173320D02*
X2184983Y8907489D01*
X2208309D01*
X2219972Y8895826D01*
Y8884163D01*
X2208309Y8872500D01*
X2196646D01*
X2208309D01*
X2219972Y8860837D01*
Y8849174D01*
X2208309Y8837511D01*
X2184983D01*
X2173320Y8849174D01*
X3614988Y12377528D02*
X3545011D01*
Y12412517D01*
X3556674Y12424180D01*
X3580000D01*
X3591663Y12412517D01*
Y12377528D01*
Y12400854D02*
X3614988Y12424180D01*
Y12447505D02*
Y12470831D01*
Y12459168D01*
X3545011D01*
X3556674Y12447505D01*
X3614988Y12552472D02*
Y12505820D01*
X3568337Y12552472D01*
X3556674D01*
X3545011Y12540809D01*
Y12517483D01*
X3556674Y12505820D01*
X2554191Y10025011D02*
Y10094989D01*
X2589180D01*
X2600843Y10083326D01*
Y10060000D01*
X2589180Y10048337D01*
X2554191D01*
X2577517D02*
X2600843Y10025011D01*
X2624169D02*
X2647495D01*
X2635832D01*
Y10094989D01*
X2624169Y10083326D01*
X2682483Y10025011D02*
X2705809D01*
X2694146D01*
Y10094989D01*
X2682483Y10083326D01*
X3619988Y12652528D02*
X3550011D01*
Y12687517D01*
X3561674Y12699180D01*
X3585000D01*
X3596663Y12687517D01*
Y12652528D01*
Y12675854D02*
X3619988Y12699180D01*
Y12722505D02*
Y12745831D01*
Y12734168D01*
X3550011D01*
X3561674Y12722505D01*
Y12780820D02*
X3550011Y12792483D01*
Y12815810D01*
X3561674Y12827472D01*
X3608326D01*
X3619988Y12815810D01*
Y12792483D01*
X3608326Y12780820D01*
X3561674D01*
X7987488Y12749185D02*
X7917511D01*
Y12784174D01*
X7929174Y12795837D01*
X7952500D01*
X7964163Y12784174D01*
Y12749185D01*
Y12772511D02*
X7987488Y12795837D01*
X7975826Y12819164D02*
X7987488Y12830824D01*
Y12854150D01*
X7975826Y12865814D01*
X7929174D01*
X7917511Y12854150D01*
Y12830824D01*
X7929174Y12819164D01*
X7940837D01*
X7952500Y12830824D01*
Y12865814D01*
X7587489Y12741686D02*
X7517511D01*
Y12776674D01*
X7529174Y12788337D01*
X7552500D01*
X7564163Y12776674D01*
Y12741686D01*
Y12765012D02*
X7587489Y12788337D01*
X7529174Y12811662D02*
X7517511Y12823326D01*
Y12846652D01*
X7529174Y12858315D01*
X7540837D01*
X7552500Y12846652D01*
X7564163Y12858315D01*
X7575826D01*
X7587489Y12846652D01*
Y12823326D01*
X7575826Y12811662D01*
X7564163D01*
X7552500Y12823326D01*
X7540837Y12811662D01*
X7529174D01*
X7552500Y12823326D02*
Y12846652D01*
X7212488Y12744186D02*
X7142511D01*
Y12779174D01*
X7154174Y12790837D01*
X7177500D01*
X7189163Y12779174D01*
Y12744186D01*
Y12767511D02*
X7212488Y12790837D01*
X7142511Y12814163D02*
Y12860815D01*
X7154174D01*
X7200826Y12814163D01*
X7212488D01*
X6842488Y12749185D02*
X6772511D01*
Y12784174D01*
X6784174Y12795837D01*
X6807500D01*
X6819163Y12784174D01*
Y12749185D01*
Y12772511D02*
X6842488Y12795837D01*
X6772511Y12865814D02*
X6784174Y12842488D01*
X6807500Y12819164D01*
X6830826D01*
X6842488Y12830824D01*
Y12854150D01*
X6830826Y12865814D01*
X6819163D01*
X6807500Y12854150D01*
Y12819164D01*
X7722488Y9556686D02*
X7652511D01*
Y9591674D01*
X7664174Y9603337D01*
X7687500D01*
X7699163Y9591674D01*
Y9556686D01*
Y9580012D02*
X7722488Y9603337D01*
X7652511Y9673315D02*
Y9626663D01*
X7687500D01*
X7675837Y9649989D01*
Y9661652D01*
X7687500Y9673315D01*
X7710826D01*
X7722488Y9661652D01*
Y9638326D01*
X7710826Y9626663D01*
X9069185Y9435011D02*
Y9504989D01*
X9104174D01*
X9115837Y9493326D01*
Y9470000D01*
X9104174Y9458337D01*
X9069185D01*
X9092511D02*
X9115837Y9435011D01*
X9174152D02*
Y9504989D01*
X9139163Y9470000D01*
X9185814D01*
X9074185Y9710011D02*
Y9779989D01*
X9109174D01*
X9120837Y9768326D01*
Y9745000D01*
X9109174Y9733337D01*
X9074185D01*
X9097511D02*
X9120837Y9710011D01*
X9144163Y9768326D02*
X9155826Y9779989D01*
X9179152D01*
X9190814Y9768326D01*
Y9756663D01*
X9179152Y9745000D01*
X9167489D01*
X9179152D01*
X9190814Y9733337D01*
Y9721674D01*
X9179152Y9710011D01*
X9155826D01*
X9144163Y9721674D01*
X4031685Y4262511D02*
Y4332489D01*
X4066674D01*
X4078337Y4320826D01*
Y4297500D01*
X4066674Y4285837D01*
X4031685D01*
X4055011D02*
X4078337Y4262511D01*
X4148315D02*
X4101663D01*
X4148315Y4309163D01*
Y4320826D01*
X4136652Y4332489D01*
X4113326D01*
X4101663Y4320826D01*
X4038348Y3960011D02*
Y4029989D01*
X4073337D01*
X4085000Y4018326D01*
Y3995000D01*
X4073337Y3983337D01*
X4038348D01*
X4061674D02*
X4085000Y3960011D01*
X4108326D02*
X4131652D01*
X4119989D01*
Y4029989D01*
X4108326Y4018326D01*
X8724208Y1395011D02*
Y1464989D01*
X8759197D01*
X8770860Y1453326D01*
Y1430000D01*
X8759197Y1418337D01*
X8724208D01*
X8794185Y1464989D02*
X8840837D01*
X8817511D01*
Y1395011D01*
X8910815Y1453326D02*
X8899152Y1464989D01*
X8875826D01*
X8864163Y1453326D01*
Y1406674D01*
X8875826Y1395011D01*
X8899152D01*
X8910815Y1406674D01*
X8980792Y1395011D02*
X8934140D01*
X8980792Y1441663D01*
Y1453326D01*
X8969129Y1464989D01*
X8945803D01*
X8934140Y1453326D01*
X7424989Y2698371D02*
X7355011D01*
Y2733360D01*
X7366674Y2745022D01*
X7390000D01*
X7401663Y2733360D01*
Y2698371D01*
X7355011Y2768348D02*
Y2815000D01*
Y2791674D01*
X7424989D01*
X7366674Y2884977D02*
X7355011Y2873315D01*
Y2849989D01*
X7366674Y2838326D01*
X7413326D01*
X7424989Y2849989D01*
Y2873315D01*
X7413326Y2884977D01*
X7424989Y2908303D02*
Y2931629D01*
Y2919966D01*
X7355011D01*
X7366674Y2908303D01*
X8284185Y10160011D02*
Y10229989D01*
X8319174D01*
X8330837Y10218326D01*
Y10195000D01*
X8319174Y10183337D01*
X8284185D01*
X8400815Y10160011D02*
X8354163D01*
X8400815Y10206663D01*
Y10218326D01*
X8389152Y10229989D01*
X8365826D01*
X8354163Y10218326D01*
X5362240Y13236459D02*
Y13306438D01*
X5397229D01*
X5408892Y13294775D01*
Y13271449D01*
X5397229Y13259785D01*
X5362240D01*
X5432217Y13236459D02*
X5455543D01*
X5443880D01*
Y13306438D01*
X5432217Y13294775D01*
X7335011Y7791686D02*
Y7768360D01*
X7346674Y7756697D01*
X7393326D01*
X7404988Y7768360D01*
Y7791686D01*
X7393326Y7803349D01*
X7346674D01*
X7335011Y7791686D01*
X7404988Y7826674D02*
X7335011D01*
Y7861663D01*
X7346674Y7873326D01*
X7370000D01*
X7381663Y7861663D01*
Y7826674D01*
X7404988Y7943304D02*
Y7896652D01*
X7358337Y7943304D01*
X7346674D01*
X7335011Y7931641D01*
Y7908315D01*
X7346674Y7896652D01*
X8855011Y7941685D02*
Y7918360D01*
X8866674Y7906697D01*
X8913326D01*
X8924989Y7918360D01*
Y7941685D01*
X8913326Y7953348D01*
X8866674D01*
X8855011Y7941685D01*
X8924989Y7976674D02*
X8855011D01*
Y8011663D01*
X8866674Y8023326D01*
X8890000D01*
X8901663Y8011663D01*
Y7976674D01*
X8924989Y8081640D02*
X8855011D01*
X8890000Y8046652D01*
Y8093303D01*
X6815011Y7813348D02*
Y7790023D01*
X6826674Y7778360D01*
X6873326D01*
X6884989Y7790023D01*
Y7813348D01*
X6873326Y7825011D01*
X6826674D01*
X6815011Y7813348D01*
X6884989Y7848337D02*
X6815011D01*
Y7883326D01*
X6826674Y7894989D01*
X6850000D01*
X6861663Y7883326D01*
Y7848337D01*
X6884989Y7918315D02*
Y7941640D01*
Y7929978D01*
X6815011D01*
X6826674Y7918315D01*
X8305011Y7831686D02*
Y7808360D01*
X8316674Y7796697D01*
X8363326D01*
X8374989Y7808360D01*
Y7831686D01*
X8363326Y7843349D01*
X8316674D01*
X8305011Y7831686D01*
X8374989Y7866674D02*
X8305011D01*
Y7901663D01*
X8316674Y7913326D01*
X8340000D01*
X8351663Y7901663D01*
Y7866674D01*
X8316674Y7936652D02*
X8305011Y7948315D01*
Y7971641D01*
X8316674Y7983304D01*
X8328337D01*
X8340000Y7971641D01*
Y7959978D01*
Y7971641D01*
X8351663Y7983304D01*
X8363326D01*
X8374989Y7971641D01*
Y7948315D01*
X8363326Y7936652D01*
X3359988Y4215871D02*
X3290011D01*
X3359988Y4262522D01*
X3290011D01*
Y4285848D02*
Y4332500D01*
Y4309174D01*
X3359988D01*
X3301674Y4402477D02*
X3290011Y4390814D01*
Y4367489D01*
X3301674Y4355826D01*
X3348326D01*
X3359988Y4367489D01*
Y4390814D01*
X3348326Y4402477D01*
X3359988Y4425803D02*
Y4449129D01*
Y4437466D01*
X3290011D01*
X3301674Y4425803D01*
X5619154Y12478636D02*
X5668636Y12429154D01*
X5701623Y12462142D01*
X5718117Y12478636D02*
X5734611Y12495130D01*
X5726364Y12486883D01*
X5676882Y12536364D01*
Y12519870D01*
X5759352D02*
X5775846Y12536364D01*
X5767599Y12528117D01*
X5718117Y12577599D01*
Y12561105D01*
X5458407Y12505389D02*
X5507889Y12455907D01*
X5540877Y12488895D01*
X5557370Y12505389D02*
X5573864Y12521883D01*
X5565618Y12513636D01*
X5516136Y12563117D01*
Y12546623D01*
X5557370Y12587858D02*
Y12604352D01*
X5573864Y12620846D01*
X5590358D01*
X5623346Y12587858D01*
Y12571364D01*
X5606852Y12554870D01*
X5590358D01*
X5557370Y12587858D01*
X1881525Y7538506D02*
X1931006Y7489025D01*
X1963994Y7522012D01*
X1939253Y7579741D02*
Y7596235D01*
X1955747Y7612728D01*
X1972241D01*
X1980488Y7604482D01*
Y7587988D01*
X1996982D01*
X2005228Y7579741D01*
Y7563247D01*
X1988735Y7546753D01*
X1972241D01*
X1963994Y7555000D01*
Y7571494D01*
X1947500D01*
X1939253Y7579741D01*
X1963994Y7571494D02*
X1980488Y7587988D01*
X799185Y11542489D02*
Y11472511D01*
X845837D01*
X869163Y11542489D02*
X915815D01*
Y11530826D01*
X869163Y11484174D01*
Y11472511D01*
X6425011Y11069185D02*
X6494988D01*
Y11115837D01*
X6425011Y11185815D02*
Y11139163D01*
X6460000D01*
X6448337Y11162489D01*
Y11174152D01*
X6460000Y11185815D01*
X6483325D01*
X6494988Y11174152D01*
Y11150826D01*
X6483325Y11139163D01*
X4886524Y12823506D02*
X4936006Y12774025D01*
X4968994Y12807011D01*
X5010228Y12848247D02*
X4960747Y12897729D01*
Y12848247D01*
X4993734Y12881235D01*
X823348Y5407489D02*
Y5337511D01*
X870000D01*
X893326D02*
X916652D01*
X904989D01*
Y5407489D01*
X893326Y5395826D01*
X1407511Y1054186D02*
X1477489D01*
X1454163D01*
X1407511Y1100837D01*
X1442500Y1065849D01*
X1477489Y1100837D01*
Y1170815D02*
Y1124163D01*
X1430837Y1170815D01*
X1419174D01*
X1407511Y1159152D01*
Y1135826D01*
X1419174Y1124163D01*
X4735848Y3677489D02*
Y3607511D01*
Y3630837D01*
X4782500Y3677489D01*
X4747511Y3642500D01*
X4782500Y3607511D01*
X4805826D02*
X4829152D01*
X4817489D01*
Y3677489D01*
X4805826Y3665826D01*
X3843337Y3802489D02*
X3820011D01*
X3831674D01*
Y3744174D01*
X3820011Y3732511D01*
X3808348D01*
X3796685Y3744174D01*
X3866663D02*
X3878326Y3732511D01*
X3901652D01*
X3913314Y3744174D01*
Y3790826D01*
X3901652Y3802489D01*
X3878326D01*
X3866663Y3790826D01*
Y3779163D01*
X3878326Y3767500D01*
X3913314D01*
X3350837Y1062489D02*
X3327511D01*
X3339174D01*
Y1004174D01*
X3327511Y992511D01*
X3315848D01*
X3304185Y1004174D01*
X3374163Y1062489D02*
X3420815D01*
Y1050826D01*
X3374163Y1004174D01*
Y992511D01*
X4483337Y1012489D02*
X4460011D01*
X4471674D01*
Y954174D01*
X4460011Y942511D01*
X4448348D01*
X4436685Y954174D01*
X4553314Y1012489D02*
X4529989Y1000826D01*
X4506663Y977500D01*
Y954174D01*
X4518326Y942511D01*
X4541652D01*
X4553314Y954174D01*
Y965837D01*
X4541652Y977500D01*
X4506663D01*
X4796752Y6826897D02*
X4773426D01*
X4785089D01*
Y6768583D01*
X4773426Y6756920D01*
X4761763D01*
X4750100Y6768583D01*
X4820077Y6815235D02*
X4831740Y6826897D01*
X4855066D01*
X4866729Y6815235D01*
Y6803572D01*
X4855066Y6791909D01*
X4843403D01*
X4855066D01*
X4866729Y6780246D01*
Y6768583D01*
X4855066Y6756920D01*
X4831740D01*
X4820077Y6768583D01*
X5963337Y5664989D02*
X5940011D01*
X5951674D01*
Y5606674D01*
X5940011Y5595011D01*
X5928348D01*
X5916685Y5606674D01*
X6033315Y5595011D02*
X5986663D01*
X6033315Y5641663D01*
Y5653326D01*
X6021652Y5664989D01*
X5998326D01*
X5986663Y5653326D01*
X4655000Y4212489D02*
X4631674D01*
X4643337D01*
Y4154174D01*
X4631674Y4142511D01*
X4620011D01*
X4608348Y4154174D01*
X4678326Y4142511D02*
X4701652D01*
X4689989D01*
Y4212489D01*
X4678326Y4200826D01*
X4446232Y2044077D02*
X4399580D01*
Y2009089D01*
X4422906D01*
X4399580D01*
Y1974100D01*
X4469557D02*
X4492883D01*
X4481220D01*
Y2044077D01*
X4469557Y2032415D01*
X754989Y1408314D02*
X685011D01*
Y1373326D01*
X696674Y1361663D01*
X743326D01*
X754989Y1373326D01*
Y1408314D01*
X696674Y1338337D02*
X685011Y1326674D01*
Y1303348D01*
X696674Y1291685D01*
X743326D01*
X754989Y1303348D01*
Y1326674D01*
X743326Y1338337D01*
X731663D01*
X720000Y1326674D01*
Y1291685D01*
X1235011Y8026686D02*
X1304988D01*
Y8061675D01*
X1293326Y8073337D01*
X1246674D01*
X1235011Y8061675D01*
Y8026686D01*
X1246674Y8096663D02*
X1235011Y8108326D01*
Y8131652D01*
X1246674Y8143315D01*
X1258337D01*
X1270000Y8131652D01*
X1281663Y8143315D01*
X1293326D01*
X1304988Y8131652D01*
Y8108326D01*
X1293326Y8096663D01*
X1281663D01*
X1270000Y8108326D01*
X1258337Y8096663D01*
X1246674D01*
X1270000Y8108326D02*
Y8131652D01*
X1235011Y8471686D02*
X1304988D01*
Y8506674D01*
X1293326Y8518337D01*
X1246674D01*
X1235011Y8506674D01*
Y8471686D01*
Y8541663D02*
Y8588315D01*
X1246674D01*
X1293326Y8541663D01*
X1304988D01*
X975011Y1291686D02*
X1044989D01*
Y1326675D01*
X1033326Y1338337D01*
X986674D01*
X975011Y1326675D01*
Y1291686D01*
Y1408315D02*
X986674Y1384989D01*
X1010000Y1361663D01*
X1033326D01*
X1044989Y1373326D01*
Y1396652D01*
X1033326Y1408315D01*
X1021663D01*
X1010000Y1396652D01*
Y1361663D01*
X1225011Y1299185D02*
X1294989D01*
Y1334174D01*
X1283326Y1345837D01*
X1236674D01*
X1225011Y1334174D01*
Y1299185D01*
Y1415815D02*
Y1369163D01*
X1260000D01*
X1248337Y1392489D01*
Y1404152D01*
X1260000Y1415815D01*
X1283326D01*
X1294989Y1404152D01*
Y1380826D01*
X1283326Y1369163D01*
X7947511Y13124185D02*
X8017488D01*
Y13159174D01*
X8005825Y13170837D01*
X7959174D01*
X7947511Y13159174D01*
Y13124185D01*
X8017488Y13229150D02*
X7947511D01*
X7982500Y13194164D01*
Y13240814D01*
X7550011Y13119185D02*
X7619988D01*
Y13154173D01*
X7608325Y13165837D01*
X7561674D01*
X7550011Y13154173D01*
Y13119185D01*
X7561674Y13189163D02*
X7550011Y13200826D01*
Y13224152D01*
X7561674Y13235815D01*
X7573337D01*
X7585000Y13224152D01*
Y13212489D01*
Y13224152D01*
X7596662Y13235815D01*
X7608325D01*
X7619988Y13224152D01*
Y13200826D01*
X7608325Y13189163D01*
X7177511Y13124185D02*
X7247488D01*
Y13159174D01*
X7235826Y13170837D01*
X7189174D01*
X7177511Y13159174D01*
Y13124185D01*
X7247488Y13240814D02*
Y13194164D01*
X7200837Y13240814D01*
X7189174D01*
X7177511Y13229150D01*
Y13205826D01*
X7189174Y13194164D01*
X6810011Y13135847D02*
X6879988D01*
Y13170837D01*
X6868325Y13182500D01*
X6821674D01*
X6810011Y13170837D01*
Y13135847D01*
X6879988Y13205826D02*
Y13229152D01*
Y13217490D01*
X6810011D01*
X6821674Y13205826D01*
X4970023Y11713326D02*
X4958360Y11724989D01*
X4935034D01*
X4923371Y11713326D01*
Y11666674D01*
X4935034Y11655011D01*
X4958360D01*
X4970023Y11666674D01*
X4993348Y11655011D02*
X5016674D01*
X5005011D01*
Y11724989D01*
X4993348Y11713326D01*
X5051663Y11655011D02*
X5074989D01*
X5063326D01*
Y11724989D01*
X5051663Y11713326D01*
X5109978D02*
X5121641Y11724989D01*
X5144966D01*
X5156629Y11713326D01*
Y11701663D01*
X5144966Y11690000D01*
X5133303D01*
X5144966D01*
X5156629Y11678337D01*
Y11666674D01*
X5144966Y11655011D01*
X5121641D01*
X5109978Y11666674D01*
X4756674Y11560023D02*
X4745011Y11548360D01*
Y11525034D01*
X4756674Y11513371D01*
X4803326D01*
X4814989Y11525034D01*
Y11548360D01*
X4803326Y11560023D01*
X4814989Y11583349D02*
Y11606675D01*
Y11595012D01*
X4745011D01*
X4756674Y11583349D01*
X4814989Y11641663D02*
Y11664989D01*
Y11653326D01*
X4745011D01*
X4756674Y11641663D01*
X4814989Y11746630D02*
Y11699978D01*
X4768337Y11746630D01*
X4756674D01*
X4745011Y11734967D01*
Y11711641D01*
X4756674Y11699978D01*
X4806674Y8871685D02*
X4795011Y8860022D01*
Y8836697D01*
X4806674Y8825034D01*
X4853326D01*
X4864989Y8836697D01*
Y8860022D01*
X4853326Y8871685D01*
X4864989Y8895011D02*
Y8918337D01*
Y8906674D01*
X4795011D01*
X4806674Y8895011D01*
X4864989Y8953326D02*
Y8976652D01*
Y8964989D01*
X4795011D01*
X4806674Y8953326D01*
X4864989Y9011640D02*
Y9034966D01*
Y9023303D01*
X4795011D01*
X4806674Y9011640D01*
X4796674Y9650023D02*
X4785011Y9638360D01*
Y9615034D01*
X4796674Y9603371D01*
X4843326D01*
X4854989Y9615034D01*
Y9638360D01*
X4843326Y9650023D01*
X4854989Y9673348D02*
Y9696674D01*
Y9685011D01*
X4785011D01*
X4796674Y9673348D01*
X4854989Y9731663D02*
Y9754989D01*
Y9743326D01*
X4785011D01*
X4796674Y9731663D01*
Y9789978D02*
X4785011Y9801641D01*
Y9824966D01*
X4796674Y9836629D01*
X4843326D01*
X4854989Y9824966D01*
Y9801641D01*
X4843326Y9789978D01*
X4796674D01*
X4796674Y8574191D02*
X4785011Y8562528D01*
Y8539202D01*
X4796674Y8527539D01*
X4843326D01*
X4854989Y8539202D01*
Y8562528D01*
X4843326Y8574191D01*
X4854989Y8597517D02*
Y8620843D01*
Y8609180D01*
X4785011D01*
X4796674Y8597517D01*
Y8655831D02*
X4785011Y8667494D01*
Y8690820D01*
X4796674Y8702483D01*
X4843326D01*
X4854989Y8690820D01*
Y8667494D01*
X4843326Y8655831D01*
X4796674D01*
X4843326Y8725809D02*
X4854989Y8737472D01*
Y8760798D01*
X4843326Y8772460D01*
X4796674D01*
X4785011Y8760798D01*
Y8737472D01*
X4796674Y8725809D01*
X4808337D01*
X4820000Y8737472D01*
Y8772460D01*
X4056674Y7054191D02*
X4045011Y7042528D01*
Y7019202D01*
X4056674Y7007539D01*
X4103326D01*
X4114989Y7019202D01*
Y7042528D01*
X4103326Y7054191D01*
X4114989Y7077517D02*
Y7100843D01*
Y7089180D01*
X4045011D01*
X4056674Y7077517D01*
Y7135832D02*
X4045011Y7147494D01*
Y7170820D01*
X4056674Y7182483D01*
X4103326D01*
X4114989Y7170820D01*
Y7147494D01*
X4103326Y7135832D01*
X4056674D01*
Y7205809D02*
X4045011Y7217472D01*
Y7240798D01*
X4056674Y7252461D01*
X4068337D01*
X4080000Y7240798D01*
X4091663Y7252461D01*
X4103326D01*
X4114989Y7240798D01*
Y7217472D01*
X4103326Y7205809D01*
X4091663D01*
X4080000Y7217472D01*
X4068337Y7205809D01*
X4056674D01*
X4080000Y7217472D02*
Y7240798D01*
X5570826Y8235809D02*
X5582489Y8247471D01*
Y8270797D01*
X5570826Y8282460D01*
X5524174D01*
X5512511Y8270797D01*
Y8247471D01*
X5524174Y8235809D01*
X5512511Y8212483D02*
Y8189157D01*
Y8200820D01*
X5582489D01*
X5570826Y8212483D01*
Y8154168D02*
X5582489Y8142505D01*
Y8119179D01*
X5570826Y8107516D01*
X5524174D01*
X5512511Y8119179D01*
Y8142505D01*
X5524174Y8154168D01*
X5570826D01*
X5582489Y8037539D02*
X5570826Y8060865D01*
X5547500Y8084191D01*
X5524174D01*
X5512511Y8072528D01*
Y8049202D01*
X5524174Y8037539D01*
X5535837D01*
X5547500Y8049202D01*
Y8084191D01*
X5815826Y8308309D02*
X5827489Y8319972D01*
Y8343298D01*
X5815826Y8354960D01*
X5769174D01*
X5757511Y8343298D01*
Y8319972D01*
X5769174Y8308309D01*
X5757511Y8284983D02*
Y8261657D01*
Y8273320D01*
X5827489D01*
X5815826Y8284983D01*
Y8226668D02*
X5827489Y8215005D01*
Y8191680D01*
X5815826Y8180017D01*
X5769174D01*
X5757511Y8191680D01*
Y8215005D01*
X5769174Y8226668D01*
X5815826D01*
X5827489Y8110039D02*
Y8156691D01*
X5792500D01*
X5804163Y8133365D01*
Y8121702D01*
X5792500Y8110039D01*
X5769174D01*
X5757511Y8121702D01*
Y8145028D01*
X5769174Y8156691D01*
X5554191Y9188326D02*
X5542528Y9199989D01*
X5519202D01*
X5507539Y9188326D01*
Y9141674D01*
X5519202Y9130011D01*
X5542528D01*
X5554191Y9141674D01*
X5577517Y9130011D02*
X5600843D01*
X5589180D01*
Y9199989D01*
X5577517Y9188326D01*
X5635832D02*
X5647494Y9199989D01*
X5670820D01*
X5682483Y9188326D01*
Y9141674D01*
X5670820Y9130011D01*
X5647494D01*
X5635832Y9141674D01*
Y9188326D01*
X5740798Y9130011D02*
Y9199989D01*
X5705809Y9165000D01*
X5752461D01*
X5678326Y9855809D02*
X5689989Y9867472D01*
Y9890797D01*
X5678326Y9902460D01*
X5631675D01*
X5620012Y9890797D01*
Y9867472D01*
X5631675Y9855809D01*
X5620012Y9832483D02*
Y9809157D01*
Y9820820D01*
X5689989D01*
X5678326Y9832483D01*
Y9774168D02*
X5689989Y9762505D01*
Y9739179D01*
X5678326Y9727516D01*
X5631675D01*
X5620012Y9739179D01*
Y9762505D01*
X5631675Y9774168D01*
X5678326D01*
Y9704191D02*
X5689989Y9692528D01*
Y9669202D01*
X5678326Y9657539D01*
X5666663D01*
X5655000Y9669202D01*
Y9680865D01*
Y9669202D01*
X5643337Y9657539D01*
X5631675D01*
X5620012Y9669202D01*
Y9692528D01*
X5631675Y9704191D01*
X3601691Y7020826D02*
X3590028Y7032489D01*
X3566702D01*
X3555039Y7020826D01*
Y6974174D01*
X3566702Y6962511D01*
X3590028D01*
X3601691Y6974174D01*
X3625017Y6962511D02*
X3648343D01*
X3636680D01*
Y7032489D01*
X3625017Y7020826D01*
X3683331D02*
X3694994Y7032489D01*
X3718320D01*
X3729983Y7020826D01*
Y6974174D01*
X3718320Y6962511D01*
X3694994D01*
X3683331Y6974174D01*
Y7020826D01*
X3799961Y6962511D02*
X3753309D01*
X3799961Y7009163D01*
Y7020826D01*
X3788298Y7032489D01*
X3764972D01*
X3753309Y7020826D01*
X3550854Y6658326D02*
X3539191Y6669989D01*
X3515865D01*
X3504202Y6658326D01*
Y6611674D01*
X3515865Y6600011D01*
X3539191D01*
X3550854Y6611674D01*
X3574180Y6600011D02*
X3597506D01*
X3585843D01*
Y6669989D01*
X3574180Y6658326D01*
X3632494D02*
X3644157Y6669989D01*
X3667483D01*
X3679146Y6658326D01*
Y6611674D01*
X3667483Y6600011D01*
X3644157D01*
X3632494Y6611674D01*
Y6658326D01*
X3702472Y6600011D02*
X3725798D01*
X3714135D01*
Y6669989D01*
X3702472Y6658326D01*
X2734191Y6763326D02*
X2722528Y6774989D01*
X2699202D01*
X2687539Y6763326D01*
Y6716674D01*
X2699202Y6705011D01*
X2722528D01*
X2734191Y6716674D01*
X2757517Y6705011D02*
X2780843D01*
X2769180D01*
Y6774989D01*
X2757517Y6763326D01*
X2815832D02*
X2827494Y6774989D01*
X2850820D01*
X2862483Y6763326D01*
Y6716674D01*
X2850820Y6705011D01*
X2827494D01*
X2815832Y6716674D01*
Y6763326D01*
X2885809D02*
X2897472Y6774989D01*
X2920798D01*
X2932461Y6763326D01*
Y6716674D01*
X2920798Y6705011D01*
X2897472D01*
X2885809Y6716674D01*
Y6763326D01*
X4686674Y10703348D02*
X4675011Y10691685D01*
Y10668359D01*
X4686674Y10656696D01*
X4733326D01*
X4744988Y10668359D01*
Y10691685D01*
X4733326Y10703348D01*
Y10726674D02*
X4744988Y10738337D01*
Y10761663D01*
X4733326Y10773326D01*
X4686674D01*
X4675011Y10761663D01*
Y10738337D01*
X4686674Y10726674D01*
X4698337D01*
X4710000Y10738337D01*
Y10773326D01*
X4733326Y10796652D02*
X4744988Y10808314D01*
Y10831640D01*
X4733326Y10843303D01*
X4686674D01*
X4675011Y10831640D01*
Y10808314D01*
X4686674Y10796652D01*
X4698337D01*
X4710000Y10808314D01*
Y10843303D01*
X4746674Y7113348D02*
X4735011Y7101686D01*
Y7078360D01*
X4746674Y7066697D01*
X4793326D01*
X4804989Y7078360D01*
Y7101686D01*
X4793326Y7113348D01*
Y7136674D02*
X4804989Y7148337D01*
Y7171663D01*
X4793326Y7183326D01*
X4746674D01*
X4735011Y7171663D01*
Y7148337D01*
X4746674Y7136674D01*
X4758337D01*
X4770000Y7148337D01*
Y7183326D01*
X4746674Y7206652D02*
X4735011Y7218315D01*
Y7241641D01*
X4746674Y7253304D01*
X4758337D01*
X4770000Y7241641D01*
X4781663Y7253304D01*
X4793326D01*
X4804989Y7241641D01*
Y7218315D01*
X4793326Y7206652D01*
X4781663D01*
X4770000Y7218315D01*
X4758337Y7206652D01*
X4746674D01*
X4770000Y7218315D02*
Y7241641D01*
X3985848Y8058326D02*
X3974185Y8069989D01*
X3950860D01*
X3939197Y8058326D01*
Y8011674D01*
X3950860Y8000011D01*
X3974185D01*
X3985848Y8011674D01*
X4009174D02*
X4020837Y8000011D01*
X4044163D01*
X4055826Y8011674D01*
Y8058326D01*
X4044163Y8069989D01*
X4020837D01*
X4009174Y8058326D01*
Y8046663D01*
X4020837Y8035000D01*
X4055826D01*
X4125803Y8069989D02*
X4102477Y8058326D01*
X4079152Y8035000D01*
Y8011674D01*
X4090815Y8000011D01*
X4114140D01*
X4125803Y8011674D01*
Y8023337D01*
X4114140Y8035000D01*
X4079152D01*
X4066674Y8478349D02*
X4055011Y8466686D01*
Y8443360D01*
X4066674Y8431697D01*
X4113326D01*
X4124988Y8443360D01*
Y8466686D01*
X4113326Y8478349D01*
Y8501674D02*
X4124988Y8513337D01*
Y8536663D01*
X4113326Y8548326D01*
X4066674D01*
X4055011Y8536663D01*
Y8513337D01*
X4066674Y8501674D01*
X4078337D01*
X4090000Y8513337D01*
Y8548326D01*
X4055011Y8618304D02*
Y8571652D01*
X4090000D01*
X4078337Y8594978D01*
Y8606641D01*
X4090000Y8618304D01*
X4113326D01*
X4124988Y8606641D01*
Y8583315D01*
X4113326Y8571652D01*
X4276674Y10773348D02*
X4265011Y10761685D01*
Y10738360D01*
X4276674Y10726697D01*
X4323326D01*
X4334989Y10738360D01*
Y10761685D01*
X4323326Y10773348D01*
Y10796674D02*
X4334989Y10808337D01*
Y10831663D01*
X4323326Y10843326D01*
X4276674D01*
X4265011Y10831663D01*
Y10808337D01*
X4276674Y10796674D01*
X4288337D01*
X4300000Y10808337D01*
Y10843326D01*
X4334989Y10901640D02*
X4265011D01*
X4300000Y10866652D01*
Y10913303D01*
X3733348Y8828326D02*
X3721685Y8839989D01*
X3698360D01*
X3686697Y8828326D01*
Y8781674D01*
X3698360Y8770011D01*
X3721685D01*
X3733348Y8781674D01*
X3756674D02*
X3768337Y8770011D01*
X3791663D01*
X3803326Y8781674D01*
Y8828326D01*
X3791663Y8839989D01*
X3768337D01*
X3756674Y8828326D01*
Y8816663D01*
X3768337Y8805000D01*
X3803326D01*
X3826652Y8828326D02*
X3838315Y8839989D01*
X3861640D01*
X3873303Y8828326D01*
Y8816663D01*
X3861640Y8805000D01*
X3849978D01*
X3861640D01*
X3873303Y8793337D01*
Y8781674D01*
X3861640Y8770011D01*
X3838315D01*
X3826652Y8781674D01*
X3503348Y10233326D02*
X3491685Y10244989D01*
X3468360D01*
X3456697Y10233326D01*
Y10186674D01*
X3468360Y10175011D01*
X3491685D01*
X3503348Y10186674D01*
X3526674D02*
X3538337Y10175011D01*
X3561663D01*
X3573326Y10186674D01*
Y10233326D01*
X3561663Y10244989D01*
X3538337D01*
X3526674Y10233326D01*
Y10221663D01*
X3538337Y10210000D01*
X3573326D01*
X3643303Y10175011D02*
X3596652D01*
X3643303Y10221663D01*
Y10233326D01*
X3631640Y10244989D01*
X3608315D01*
X3596652Y10233326D01*
X3705011Y9383326D02*
X3693348Y9394989D01*
X3670022D01*
X3658359Y9383326D01*
Y9336674D01*
X3670022Y9325011D01*
X3693348D01*
X3705011Y9336674D01*
X3728337D02*
X3740000Y9325011D01*
X3763326D01*
X3774989Y9336674D01*
Y9383326D01*
X3763326Y9394989D01*
X3740000D01*
X3728337Y9383326D01*
Y9371663D01*
X3740000Y9360000D01*
X3774989D01*
X3798314Y9325011D02*
X3821640D01*
X3809977D01*
Y9394989D01*
X3798314Y9383326D01*
X4453348Y10193326D02*
X4441685Y10204989D01*
X4418359D01*
X4406697Y10193326D01*
Y10146674D01*
X4418359Y10135011D01*
X4441685D01*
X4453348Y10146674D01*
X4476674D02*
X4488337Y10135011D01*
X4511663D01*
X4523326Y10146674D01*
Y10193326D01*
X4511663Y10204989D01*
X4488337D01*
X4476674Y10193326D01*
Y10181663D01*
X4488337Y10170000D01*
X4523326D01*
X4546652Y10193326D02*
X4558314Y10204989D01*
X4581640D01*
X4593303Y10193326D01*
Y10146674D01*
X4581640Y10135011D01*
X4558314D01*
X4546652Y10146674D01*
Y10193326D01*
X3756674Y10023348D02*
X3745011Y10011685D01*
Y9988359D01*
X3756674Y9976697D01*
X3803326D01*
X3814989Y9988359D01*
Y10011685D01*
X3803326Y10023348D01*
X3756674Y10046674D02*
X3745011Y10058337D01*
Y10081663D01*
X3756674Y10093326D01*
X3768337D01*
X3780000Y10081663D01*
X3791663Y10093326D01*
X3803326D01*
X3814989Y10081663D01*
Y10058337D01*
X3803326Y10046674D01*
X3791663D01*
X3780000Y10058337D01*
X3768337Y10046674D01*
X3756674D01*
X3780000Y10058337D02*
Y10081663D01*
X3803326Y10116652D02*
X3814989Y10128315D01*
Y10151640D01*
X3803326Y10163303D01*
X3756674D01*
X3745011Y10151640D01*
Y10128315D01*
X3756674Y10116652D01*
X3768337D01*
X3780000Y10128315D01*
Y10163303D01*
X3976674Y10123348D02*
X3965011Y10111685D01*
Y10088360D01*
X3976674Y10076697D01*
X4023325D01*
X4034988Y10088360D01*
Y10111685D01*
X4023325Y10123348D01*
X3976674Y10146674D02*
X3965011Y10158337D01*
Y10181663D01*
X3976674Y10193326D01*
X3988336D01*
X3999999Y10181663D01*
X4011662Y10193326D01*
X4023325D01*
X4034988Y10181663D01*
Y10158337D01*
X4023325Y10146674D01*
X4011662D01*
X3999999Y10158337D01*
X3988336Y10146674D01*
X3976674D01*
X3999999Y10158337D02*
Y10181663D01*
X3976674Y10216652D02*
X3965011Y10228315D01*
Y10251640D01*
X3976674Y10263303D01*
X3988336D01*
X3999999Y10251640D01*
X4011662Y10263303D01*
X4023325D01*
X4034988Y10251640D01*
Y10228315D01*
X4023325Y10216652D01*
X4011662D01*
X3999999Y10228315D01*
X3988336Y10216652D01*
X3976674D01*
X3999999Y10228315D02*
Y10251640D01*
X3676674Y10783348D02*
X3665011Y10771685D01*
Y10748359D01*
X3676674Y10736696D01*
X3723326D01*
X3734988Y10748359D01*
Y10771685D01*
X3723326Y10783348D01*
X3676674Y10806674D02*
X3665011Y10818337D01*
Y10841663D01*
X3676674Y10853326D01*
X3688337D01*
X3700000Y10841663D01*
X3711663Y10853326D01*
X3723326D01*
X3734988Y10841663D01*
Y10818337D01*
X3723326Y10806674D01*
X3711663D01*
X3700000Y10818337D01*
X3688337Y10806674D01*
X3676674D01*
X3700000Y10818337D02*
Y10841663D01*
X3665011Y10876651D02*
Y10923303D01*
X3676674D01*
X3723326Y10876651D01*
X3734988D01*
X7726674Y4865011D02*
X7715011Y4853348D01*
Y4830023D01*
X7726674Y4818360D01*
X7773325D01*
X7784988Y4830023D01*
Y4853348D01*
X7773325Y4865011D01*
X7726674Y4888337D02*
X7715011Y4900000D01*
Y4923326D01*
X7726674Y4934989D01*
X7738337D01*
X7749999Y4923326D01*
X7761662Y4934989D01*
X7773325D01*
X7784988Y4923326D01*
Y4900000D01*
X7773325Y4888337D01*
X7761662D01*
X7749999Y4900000D01*
X7738337Y4888337D01*
X7726674D01*
X7749999Y4900000D02*
Y4923326D01*
X7784988Y4958315D02*
Y4981641D01*
Y4969978D01*
X7715011D01*
X7726674Y4958315D01*
X7916674Y4843348D02*
X7905011Y4831685D01*
Y4808359D01*
X7916674Y4796697D01*
X7963326D01*
X7974989Y4808359D01*
Y4831685D01*
X7963326Y4843348D01*
X7916674Y4866674D02*
X7905011Y4878337D01*
Y4901663D01*
X7916674Y4913326D01*
X7928337D01*
X7940000Y4901663D01*
X7951663Y4913326D01*
X7963326D01*
X7974989Y4901663D01*
Y4878337D01*
X7963326Y4866674D01*
X7951663D01*
X7940000Y4878337D01*
X7928337Y4866674D01*
X7916674D01*
X7940000Y4878337D02*
Y4901663D01*
X7916674Y4936652D02*
X7905011Y4948314D01*
Y4971640D01*
X7916674Y4983303D01*
X7963326D01*
X7974989Y4971640D01*
Y4948314D01*
X7963326Y4936652D01*
X7916674D01*
X8118348Y4825826D02*
X8106685Y4837489D01*
X8083359D01*
X8071697Y4825826D01*
Y4779174D01*
X8083359Y4767511D01*
X8106685D01*
X8118348Y4779174D01*
X8141674Y4837489D02*
X8188326D01*
Y4825826D01*
X8141674Y4779174D01*
Y4767511D01*
X8211652Y4779174D02*
X8223315Y4767511D01*
X8246640D01*
X8258303Y4779174D01*
Y4825826D01*
X8246640Y4837489D01*
X8223315D01*
X8211652Y4825826D01*
Y4814163D01*
X8223315Y4802500D01*
X8258303D01*
X7313348Y3973326D02*
X7301685Y3984989D01*
X7278360D01*
X7266697Y3973326D01*
Y3926674D01*
X7278360Y3915011D01*
X7301685D01*
X7313348Y3926674D01*
X7336674Y3973326D02*
X7348337Y3984989D01*
X7371663D01*
X7383326Y3973326D01*
Y3961663D01*
X7371663Y3950000D01*
X7383326Y3938337D01*
Y3926674D01*
X7371663Y3915011D01*
X7348337D01*
X7336674Y3926674D01*
Y3938337D01*
X7348337Y3950000D01*
X7336674Y3961663D01*
Y3973326D01*
X7348337Y3950000D02*
X7371663D01*
X7453303Y3915011D02*
X7406652D01*
X7453303Y3961663D01*
Y3973326D01*
X7441640Y3984989D01*
X7418315D01*
X7406652Y3973326D01*
X7233348Y4603326D02*
X7221685Y4614989D01*
X7198359D01*
X7186697Y4603326D01*
Y4556674D01*
X7198359Y4545011D01*
X7221685D01*
X7233348Y4556674D01*
X7256674Y4614989D02*
X7303326D01*
Y4603326D01*
X7256674Y4556674D01*
Y4545011D01*
X7326652Y4603326D02*
X7338315Y4614989D01*
X7361640D01*
X7373303Y4603326D01*
Y4591663D01*
X7361640Y4580000D01*
X7373303Y4568337D01*
Y4556674D01*
X7361640Y4545011D01*
X7338315D01*
X7326652Y4556674D01*
Y4568337D01*
X7338315Y4580000D01*
X7326652Y4591663D01*
Y4603326D01*
X7338315Y4580000D02*
X7361640D01*
X7473348Y4423326D02*
X7461685Y4434989D01*
X7438360D01*
X7426697Y4423326D01*
Y4376674D01*
X7438360Y4365011D01*
X7461685D01*
X7473348Y4376674D01*
X7496674Y4434989D02*
X7543326D01*
Y4423326D01*
X7496674Y4376674D01*
Y4365011D01*
X7566652Y4434989D02*
X7613303D01*
Y4423326D01*
X7566652Y4376674D01*
Y4365011D01*
X8116674Y3763349D02*
X8105011Y3751686D01*
Y3728360D01*
X8116674Y3716697D01*
X8163326D01*
X8174988Y3728360D01*
Y3751686D01*
X8163326Y3763349D01*
X8105011Y3786674D02*
Y3833326D01*
X8116674D01*
X8163326Y3786674D01*
X8174988D01*
X8105011Y3903304D02*
X8116674Y3879978D01*
X8140000Y3856652D01*
X8163326D01*
X8174988Y3868315D01*
Y3891641D01*
X8163326Y3903304D01*
X8151663D01*
X8140000Y3891641D01*
Y3856652D01*
X8925826Y5246651D02*
X8937489Y5258314D01*
Y5281640D01*
X8925826Y5293303D01*
X8879175D01*
X8867512Y5281640D01*
Y5258314D01*
X8879175Y5246651D01*
X8937489Y5223326D02*
Y5176674D01*
X8925826D01*
X8879175Y5223326D01*
X8867512D01*
X8937489Y5106696D02*
Y5153348D01*
X8902500D01*
X8914163Y5130022D01*
Y5118359D01*
X8902500Y5106696D01*
X8879175D01*
X8867512Y5118359D01*
Y5141685D01*
X8879175Y5153348D01*
X8203348Y4913326D02*
X8191685Y4924989D01*
X8168360D01*
X8156697Y4913326D01*
Y4866674D01*
X8168360Y4855011D01*
X8191685D01*
X8203348Y4866674D01*
X8226674Y4924989D02*
X8273326D01*
Y4913326D01*
X8226674Y4866674D01*
Y4855011D01*
X8331640D02*
Y4924989D01*
X8296652Y4890000D01*
X8343303D01*
X333348Y2023326D02*
X321685Y2034989D01*
X298360D01*
X286697Y2023326D01*
Y1976674D01*
X298360Y1965011D01*
X321685D01*
X333348Y1976674D01*
X356674Y2034989D02*
X403326D01*
Y2023326D01*
X356674Y1976674D01*
Y1965011D01*
X426652Y2023326D02*
X438315Y2034989D01*
X461640D01*
X473303Y2023326D01*
Y2011663D01*
X461640Y2000000D01*
X449978D01*
X461640D01*
X473303Y1988337D01*
Y1976674D01*
X461640Y1965011D01*
X438315D01*
X426652Y1976674D01*
X113348Y7863326D02*
X101685Y7874989D01*
X78360D01*
X66697Y7863326D01*
Y7816674D01*
X78360Y7805011D01*
X101685D01*
X113348Y7816674D01*
X136674Y7874989D02*
X183326D01*
Y7863326D01*
X136674Y7816674D01*
Y7805011D01*
X253303D02*
X206652D01*
X253303Y7851663D01*
Y7863326D01*
X241640Y7874989D01*
X218315D01*
X206652Y7863326D01*
X3979174Y11870012D02*
X3967511Y11858349D01*
Y11835023D01*
X3979174Y11823360D01*
X4025826D01*
X4037488Y11835023D01*
Y11858349D01*
X4025826Y11870012D01*
X3967511Y11893337D02*
Y11939989D01*
X3979174D01*
X4025826Y11893337D01*
X4037488D01*
Y11963315D02*
Y11986641D01*
Y11974978D01*
X3967511D01*
X3979174Y11963315D01*
X1863348Y7793326D02*
X1851685Y7804989D01*
X1828360D01*
X1816697Y7793326D01*
Y7746674D01*
X1828360Y7735011D01*
X1851685D01*
X1863348Y7746674D01*
X1933326Y7804989D02*
X1910000Y7793326D01*
X1886674Y7770000D01*
Y7746674D01*
X1898337Y7735011D01*
X1921663D01*
X1933326Y7746674D01*
Y7758337D01*
X1921663Y7770000D01*
X1886674D01*
X1956652Y7746674D02*
X1968315Y7735011D01*
X1991640D01*
X2003303Y7746674D01*
Y7793326D01*
X1991640Y7804989D01*
X1968315D01*
X1956652Y7793326D01*
Y7781663D01*
X1968315Y7770000D01*
X2003303D01*
X1313348Y2018326D02*
X1301685Y2029989D01*
X1278360D01*
X1266697Y2018326D01*
Y1971674D01*
X1278360Y1960011D01*
X1301685D01*
X1313348Y1971674D01*
X1383326Y2029989D02*
X1360000Y2018326D01*
X1336674Y1995000D01*
Y1971674D01*
X1348337Y1960011D01*
X1371663D01*
X1383326Y1971674D01*
Y1983337D01*
X1371663Y1995000D01*
X1336674D01*
X1406652Y2018326D02*
X1418315Y2029989D01*
X1441640D01*
X1453303Y2018326D01*
Y2006663D01*
X1441640Y1995000D01*
X1453303Y1983337D01*
Y1971674D01*
X1441640Y1960011D01*
X1418315D01*
X1406652Y1971674D01*
Y1983337D01*
X1418315Y1995000D01*
X1406652Y2006663D01*
Y2018326D01*
X1418315Y1995000D02*
X1441640D01*
X123348Y8783326D02*
X111685Y8794989D01*
X88359D01*
X76697Y8783326D01*
Y8736674D01*
X88359Y8725011D01*
X111685D01*
X123348Y8736674D01*
X193326Y8794989D02*
X170000Y8783326D01*
X146674Y8760000D01*
Y8736674D01*
X158337Y8725011D01*
X181663D01*
X193326Y8736674D01*
Y8748337D01*
X181663Y8760000D01*
X146674D01*
X216652Y8794989D02*
X263303D01*
Y8783326D01*
X216652Y8736674D01*
Y8725011D01*
X3976674Y12733348D02*
X3965011Y12721685D01*
Y12698359D01*
X3976674Y12686696D01*
X4023325D01*
X4034988Y12698359D01*
Y12721685D01*
X4023325Y12733348D01*
X3965011Y12803326D02*
X3976674Y12780000D01*
X4000000Y12756674D01*
X4023325D01*
X4034988Y12768337D01*
Y12791663D01*
X4023325Y12803326D01*
X4011663D01*
X4000000Y12791663D01*
Y12756674D01*
X3965011Y12873303D02*
X3976674Y12849977D01*
X4000000Y12826653D01*
X4023325D01*
X4034988Y12838313D01*
Y12861639D01*
X4023325Y12873303D01*
X4011663D01*
X4000000Y12861639D01*
Y12826653D01*
X2056674Y12563348D02*
X2045011Y12551685D01*
Y12528359D01*
X2056674Y12516697D01*
X2103326D01*
X2114989Y12528359D01*
Y12551685D01*
X2103326Y12563348D01*
X2045011Y12633326D02*
X2056674Y12610000D01*
X2080000Y12586674D01*
X2103326D01*
X2114989Y12598337D01*
Y12621663D01*
X2103326Y12633326D01*
X2091663D01*
X2080000Y12621663D01*
Y12586674D01*
X2114989Y12691640D02*
X2045011D01*
X2080000Y12656652D01*
Y12703303D01*
X2246674Y12763348D02*
X2235011Y12751685D01*
Y12728360D01*
X2246674Y12716697D01*
X2293326D01*
X2304989Y12728360D01*
Y12751685D01*
X2293326Y12763348D01*
X2235011Y12833327D02*
X2246674Y12810001D01*
X2270000Y12786674D01*
X2293326D01*
X2304989Y12798337D01*
Y12821663D01*
X2293326Y12833327D01*
X2281663D01*
X2270000Y12821663D01*
Y12786674D01*
X2246674Y12856651D02*
X2235011Y12868315D01*
Y12891640D01*
X2246674Y12903304D01*
X2258337D01*
X2270000Y12891640D01*
Y12879977D01*
Y12891640D01*
X2281663Y12903304D01*
X2293326D01*
X2304989Y12891640D01*
Y12868315D01*
X2293326Y12856651D01*
X1526674Y12513348D02*
X1515011Y12501685D01*
Y12478360D01*
X1526674Y12466697D01*
X1573326D01*
X1584989Y12478360D01*
Y12501685D01*
X1573326Y12513348D01*
X1515011Y12583326D02*
X1526674Y12560000D01*
X1550000Y12536674D01*
X1573326D01*
X1584989Y12548337D01*
Y12571663D01*
X1573326Y12583326D01*
X1561663D01*
X1550000Y12571663D01*
Y12536674D01*
X1584989Y12653303D02*
Y12606652D01*
X1538337Y12653303D01*
X1526674D01*
X1515011Y12641640D01*
Y12618315D01*
X1526674Y12606652D01*
X8096674Y12308349D02*
X8085011Y12296686D01*
Y12273360D01*
X8096674Y12261697D01*
X8143326D01*
X8154989Y12273360D01*
Y12296686D01*
X8143326Y12308349D01*
X8085011Y12378326D02*
Y12331674D01*
X8120000D01*
X8108337Y12355000D01*
Y12366663D01*
X8120000Y12378326D01*
X8143326D01*
X8154989Y12366663D01*
Y12343337D01*
X8143326Y12331674D01*
Y12401652D02*
X8154989Y12413315D01*
Y12436641D01*
X8143326Y12448304D01*
X8096674D01*
X8085011Y12436641D01*
Y12413315D01*
X8096674Y12401652D01*
X8108337D01*
X8120000Y12413315D01*
Y12448304D01*
X835011Y11700826D02*
X823348Y11712489D01*
X800023D01*
X788360Y11700826D01*
Y11654174D01*
X800023Y11642511D01*
X823348D01*
X835011Y11654174D01*
X904989Y11712489D02*
X881663Y11700826D01*
X858337Y11677500D01*
Y11654174D01*
X870000Y11642511D01*
X893326D01*
X904989Y11654174D01*
Y11665837D01*
X893326Y11677500D01*
X858337D01*
X928315Y11642511D02*
X951640D01*
X939978D01*
Y11712489D01*
X928315Y11700826D01*
X808348Y11910826D02*
X796685Y11922489D01*
X773360D01*
X761697Y11910826D01*
Y11864174D01*
X773360Y11852511D01*
X796685D01*
X808348Y11864174D01*
X878326Y11922489D02*
X855000Y11910826D01*
X831674Y11887500D01*
Y11864174D01*
X843337Y11852511D01*
X866663D01*
X878326Y11864174D01*
Y11875837D01*
X866663Y11887500D01*
X831674D01*
X901652Y11910826D02*
X913315Y11922489D01*
X936640D01*
X948303Y11910826D01*
Y11864174D01*
X936640Y11852511D01*
X913315D01*
X901652Y11864174D01*
Y11910826D01*
X1176674Y9745848D02*
X1165011Y9734186D01*
Y9710860D01*
X1176674Y9699197D01*
X1223325D01*
X1234988Y9710860D01*
Y9734186D01*
X1223325Y9745848D01*
X1165011Y9815826D02*
Y9769174D01*
X1199999D01*
X1188336Y9792500D01*
Y9804163D01*
X1199999Y9815826D01*
X1223325D01*
X1234988Y9804163D01*
Y9780837D01*
X1223325Y9769174D01*
X1165011Y9839152D02*
Y9885803D01*
X1176674D01*
X1223325Y9839152D01*
X1234988D01*
X1145848Y10373326D02*
X1134185Y10384989D01*
X1110860D01*
X1099197Y10373326D01*
Y10326674D01*
X1110860Y10315011D01*
X1134185D01*
X1145848Y10326674D01*
X1215826Y10384989D02*
X1169174D01*
Y10350000D01*
X1192500Y10361663D01*
X1204163D01*
X1215826Y10350000D01*
Y10326674D01*
X1204163Y10315011D01*
X1180837D01*
X1169174Y10326674D01*
X1285803Y10384989D02*
X1262478Y10373326D01*
X1239152Y10350000D01*
Y10326674D01*
X1250815Y10315011D01*
X1274140D01*
X1285803Y10326674D01*
Y10338337D01*
X1274140Y10350000D01*
X1239152D01*
X5976674Y11343348D02*
X5965011Y11331685D01*
Y11308360D01*
X5976674Y11296697D01*
X6023325D01*
X6034988Y11308360D01*
Y11331685D01*
X6023325Y11343348D01*
X5965011Y11413326D02*
Y11366674D01*
X5999999D01*
X5988337Y11390000D01*
Y11401663D01*
X5999999Y11413326D01*
X6023325D01*
X6034988Y11401663D01*
Y11378337D01*
X6023325Y11366674D01*
X5965011Y11483303D02*
Y11436652D01*
X5999999D01*
X5988337Y11459978D01*
Y11471641D01*
X5999999Y11483303D01*
X6023325D01*
X6034988Y11471641D01*
Y11448315D01*
X6023325Y11436652D01*
X6826674Y11035011D02*
X6815011Y11023349D01*
Y11000023D01*
X6826674Y10988360D01*
X6873326D01*
X6884989Y11000023D01*
Y11023349D01*
X6873326Y11035011D01*
X6815011Y11104989D02*
Y11058337D01*
X6850000D01*
X6838337Y11081663D01*
Y11093326D01*
X6850000Y11104989D01*
X6873326D01*
X6884989Y11093326D01*
Y11070000D01*
X6873326Y11058337D01*
X6884989Y11128315D02*
Y11151641D01*
Y11139978D01*
X6815011D01*
X6826674Y11128315D01*
X6210518Y11608506D02*
X6194024D01*
X6177531Y11592013D01*
Y11575519D01*
X6210518Y11542531D01*
X6227012D01*
X6243506Y11559025D01*
Y11575519D01*
X6251753Y11666235D02*
X6218765Y11633247D01*
X6243506Y11608506D01*
X6251753Y11633247D01*
X6260000Y11641494D01*
X6276494D01*
X6292988Y11625000D01*
Y11608506D01*
X6276494Y11592013D01*
X6260000D01*
X6342469Y11657988D02*
X6292988Y11707470D01*
Y11657988D01*
X6325975Y11690976D01*
X564174Y9700849D02*
X552511Y9689186D01*
Y9665860D01*
X564174Y9654197D01*
X610826D01*
X622488Y9665860D01*
Y9689186D01*
X610826Y9700849D01*
X552511Y9770826D02*
Y9724174D01*
X587500D01*
X575837Y9747500D01*
Y9759163D01*
X587500Y9770826D01*
X610826D01*
X622488Y9759163D01*
Y9735837D01*
X610826Y9724174D01*
X564174Y9794152D02*
X552511Y9805815D01*
Y9829141D01*
X564174Y9840804D01*
X575837D01*
X587500Y9829141D01*
Y9817478D01*
Y9829141D01*
X599163Y9840804D01*
X610826D01*
X622488Y9829141D01*
Y9805815D01*
X610826Y9794152D01*
X239174Y9835848D02*
X227511Y9824185D01*
Y9800859D01*
X239174Y9789197D01*
X285825D01*
X297488Y9800859D01*
Y9824185D01*
X285825Y9835848D01*
X227511Y9905826D02*
Y9859174D01*
X262500D01*
X250837Y9882500D01*
Y9894163D01*
X262500Y9905826D01*
X285825D01*
X297488Y9894163D01*
Y9870837D01*
X285825Y9859174D01*
X297488Y9975803D02*
Y9929152D01*
X250837Y9975803D01*
X239174D01*
X227511Y9964140D01*
Y9940815D01*
X239174Y9929152D01*
X471674Y10695848D02*
X460011Y10684185D01*
Y10660859D01*
X471674Y10649196D01*
X518326D01*
X529989Y10660859D01*
Y10684185D01*
X518326Y10695848D01*
X460011Y10765826D02*
Y10719174D01*
X495000D01*
X483337Y10742500D01*
Y10754163D01*
X495000Y10765826D01*
X518326D01*
X529989Y10754163D01*
Y10730837D01*
X518326Y10719174D01*
X471674Y10789151D02*
X460011Y10800814D01*
Y10824140D01*
X471674Y10835803D01*
X518326D01*
X529989Y10824140D01*
Y10800814D01*
X518326Y10789151D01*
X471674D01*
X304174Y10733348D02*
X292511Y10721685D01*
Y10698360D01*
X304174Y10686697D01*
X350826D01*
X362489Y10698360D01*
Y10721685D01*
X350826Y10733348D01*
X362489Y10791663D02*
X292511D01*
X327500Y10756674D01*
Y10803326D01*
X350826Y10826652D02*
X362489Y10838315D01*
Y10861640D01*
X350826Y10873303D01*
X304174D01*
X292511Y10861640D01*
Y10838315D01*
X304174Y10826652D01*
X315837D01*
X327500Y10838315D01*
Y10873303D01*
X389174Y10725848D02*
X377511Y10714185D01*
Y10690859D01*
X389174Y10679197D01*
X435826D01*
X447489Y10690859D01*
Y10714185D01*
X435826Y10725848D01*
X447489Y10784163D02*
X377511D01*
X412500Y10749174D01*
Y10795826D01*
X389174Y10819152D02*
X377511Y10830815D01*
Y10854140D01*
X389174Y10865803D01*
X400837D01*
X412500Y10854140D01*
X424163Y10865803D01*
X435826D01*
X447489Y10854140D01*
Y10830815D01*
X435826Y10819152D01*
X424163D01*
X412500Y10830815D01*
X400837Y10819152D01*
X389174D01*
X412500Y10830815D02*
Y10854140D01*
X2298348Y10853326D02*
X2286685Y10864989D01*
X2263359D01*
X2251697Y10853326D01*
Y10806674D01*
X2263359Y10795011D01*
X2286685D01*
X2298348Y10806674D01*
X2356663Y10795011D02*
Y10864989D01*
X2321674Y10830000D01*
X2368326D01*
X2391652Y10864989D02*
X2438303D01*
Y10853326D01*
X2391652Y10806674D01*
Y10795011D01*
X2796674Y8973348D02*
X2785011Y8961685D01*
Y8938360D01*
X2796674Y8926697D01*
X2843326D01*
X2854989Y8938360D01*
Y8961685D01*
X2843326Y8973348D01*
X2854989Y9031663D02*
X2785011D01*
X2820000Y8996674D01*
Y9043326D01*
X2785011Y9113303D02*
X2796674Y9089978D01*
X2820000Y9066652D01*
X2843326D01*
X2854989Y9078315D01*
Y9101640D01*
X2843326Y9113303D01*
X2831663D01*
X2820000Y9101640D01*
Y9066652D01*
X3338348Y8560826D02*
X3326685Y8572489D01*
X3303360D01*
X3291697Y8560826D01*
Y8514174D01*
X3303360Y8502511D01*
X3326685D01*
X3338348Y8514174D01*
X3396663Y8502511D02*
Y8572489D01*
X3361674Y8537500D01*
X3408326D01*
X3478303Y8572489D02*
X3431652D01*
Y8537500D01*
X3454978Y8549163D01*
X3466641D01*
X3478303Y8537500D01*
Y8514174D01*
X3466641Y8502511D01*
X3443315D01*
X3431652Y8514174D01*
X2126674Y8403348D02*
X2115011Y8391685D01*
Y8368359D01*
X2126674Y8356697D01*
X2173326D01*
X2184989Y8368359D01*
Y8391685D01*
X2173326Y8403348D01*
X2184989Y8461663D02*
X2115011D01*
X2150000Y8426674D01*
Y8473326D01*
X2184989Y8531640D02*
X2115011D01*
X2150000Y8496652D01*
Y8543303D01*
X2280848Y11618326D02*
X2269185Y11629989D01*
X2245860D01*
X2234197Y11618326D01*
Y11571674D01*
X2245860Y11560011D01*
X2269185D01*
X2280848Y11571674D01*
X2339163Y11560011D02*
Y11629989D01*
X2304174Y11595000D01*
X2350826D01*
X2374152Y11618326D02*
X2385815Y11629989D01*
X2409140D01*
X2420803Y11618326D01*
Y11606663D01*
X2409140Y11595000D01*
X2397478D01*
X2409140D01*
X2420803Y11583337D01*
Y11571674D01*
X2409140Y11560011D01*
X2385815D01*
X2374152Y11571674D01*
X2156674Y7983348D02*
X2145011Y7971685D01*
Y7948359D01*
X2156674Y7936696D01*
X2203326D01*
X2214988Y7948359D01*
Y7971685D01*
X2203326Y7983348D01*
X2214988Y8041663D02*
X2145011D01*
X2180000Y8006674D01*
Y8053326D01*
X2214988Y8123303D02*
Y8076651D01*
X2168337Y8123303D01*
X2156674D01*
X2145011Y8111640D01*
Y8088314D01*
X2156674Y8076651D01*
X2515011Y10620826D02*
X2503348Y10632489D01*
X2480022D01*
X2468360Y10620826D01*
Y10574174D01*
X2480022Y10562511D01*
X2503348D01*
X2515011Y10574174D01*
X2573326Y10562511D02*
Y10632489D01*
X2538337Y10597500D01*
X2584989D01*
X2608315Y10562511D02*
X2631640D01*
X2619977D01*
Y10632489D01*
X2608315Y10620826D01*
X2978348Y12158326D02*
X2966685Y12169989D01*
X2943360D01*
X2931697Y12158326D01*
Y12111674D01*
X2943360Y12100011D01*
X2966685D01*
X2978348Y12111674D01*
X3036663Y12100011D02*
Y12169989D01*
X3001674Y12135000D01*
X3048326D01*
X3071652Y12158326D02*
X3083315Y12169989D01*
X3106640D01*
X3118303Y12158326D01*
Y12111674D01*
X3106640Y12100011D01*
X3083315D01*
X3071652Y12111674D01*
Y12158326D01*
X2403348Y11723326D02*
X2391685Y11734989D01*
X2368359D01*
X2356697Y11723326D01*
Y11676674D01*
X2368359Y11665011D01*
X2391685D01*
X2403348Y11676674D01*
X2426674Y11723326D02*
X2438337Y11734989D01*
X2461663D01*
X2473326Y11723326D01*
Y11711663D01*
X2461663Y11700000D01*
X2450000D01*
X2461663D01*
X2473326Y11688337D01*
Y11676674D01*
X2461663Y11665011D01*
X2438337D01*
X2426674Y11676674D01*
X2496652D02*
X2508315Y11665011D01*
X2531640D01*
X2543303Y11676674D01*
Y11723326D01*
X2531640Y11734989D01*
X2508315D01*
X2496652Y11723326D01*
Y11711663D01*
X2508315Y11700000D01*
X2543303D01*
X1989174Y9545849D02*
X1977511Y9534186D01*
Y9510860D01*
X1989174Y9499197D01*
X2035825D01*
X2047488Y9510860D01*
Y9534186D01*
X2035825Y9545849D01*
X1989174Y9569174D02*
X1977511Y9580837D01*
Y9604163D01*
X1989174Y9615826D01*
X2000837D01*
X2012500Y9604163D01*
Y9592500D01*
Y9604163D01*
X2024163Y9615826D01*
X2035825D01*
X2047488Y9604163D01*
Y9580837D01*
X2035825Y9569174D01*
X1989174Y9639152D02*
X1977511Y9650815D01*
Y9674141D01*
X1989174Y9685804D01*
X2000837D01*
X2012500Y9674141D01*
X2024163Y9685804D01*
X2035825D01*
X2047488Y9674141D01*
Y9650815D01*
X2035825Y9639152D01*
X2024163D01*
X2012500Y9650815D01*
X2000837Y9639152D01*
X1989174D01*
X2012500Y9650815D02*
Y9674141D01*
X2053348Y9043326D02*
X2041686Y9054989D01*
X2018360D01*
X2006697Y9043326D01*
Y8996674D01*
X2018360Y8985011D01*
X2041686D01*
X2053348Y8996674D01*
X2076674Y9043326D02*
X2088337Y9054989D01*
X2111663D01*
X2123326Y9043326D01*
Y9031663D01*
X2111663Y9020000D01*
X2100000D01*
X2111663D01*
X2123326Y9008337D01*
Y8996674D01*
X2111663Y8985011D01*
X2088337D01*
X2076674Y8996674D01*
X2193303Y9054989D02*
X2169978Y9043326D01*
X2146652Y9020000D01*
Y8996674D01*
X2158315Y8985011D01*
X2181641D01*
X2193303Y8996674D01*
Y9008337D01*
X2181641Y9020000D01*
X2146652D01*
X2146674Y11633348D02*
X2135011Y11621685D01*
Y11598360D01*
X2146674Y11586697D01*
X2193325D01*
X2204988Y11598360D01*
Y11621685D01*
X2193325Y11633348D01*
X2146674Y11656674D02*
X2135011Y11668337D01*
Y11691663D01*
X2146674Y11703326D01*
X2158337D01*
X2169999Y11691663D01*
Y11680000D01*
Y11691663D01*
X2181662Y11703326D01*
X2193325D01*
X2204988Y11691663D01*
Y11668337D01*
X2193325Y11656674D01*
X2135011Y11726652D02*
Y11773303D01*
X2146674D01*
X2193325Y11726652D01*
X2204988D01*
X3296674Y12773348D02*
X3285011Y12761685D01*
Y12738360D01*
X3296674Y12726697D01*
X3343326D01*
X3354989Y12738360D01*
Y12761685D01*
X3343326Y12773348D01*
X3296674Y12796674D02*
X3285011Y12808337D01*
Y12831664D01*
X3296674Y12843326D01*
X3308337D01*
X3320000Y12831664D01*
Y12820000D01*
Y12831664D01*
X3331663Y12843326D01*
X3343326D01*
X3354989Y12831664D01*
Y12808337D01*
X3343326Y12796674D01*
X3285011Y12913303D02*
Y12866652D01*
X3320000D01*
X3308337Y12889978D01*
Y12901640D01*
X3320000Y12913303D01*
X3343326D01*
X3354989Y12901640D01*
Y12878316D01*
X3343326Y12866652D01*
X2090848Y9975826D02*
X2079185Y9987489D01*
X2055859D01*
X2044197Y9975826D01*
Y9929174D01*
X2055859Y9917511D01*
X2079185D01*
X2090848Y9929174D01*
X2114174Y9975826D02*
X2125837Y9987489D01*
X2149163D01*
X2160826Y9975826D01*
Y9964163D01*
X2149163Y9952500D01*
X2137500D01*
X2149163D01*
X2160826Y9940837D01*
Y9929174D01*
X2149163Y9917511D01*
X2125837D01*
X2114174Y9929174D01*
X2219140Y9917511D02*
Y9987489D01*
X2184152Y9952500D01*
X2230803D01*
X7686674Y10113348D02*
X7675011Y10101685D01*
Y10078360D01*
X7686674Y10066697D01*
X7733325D01*
X7744988Y10078360D01*
Y10101685D01*
X7733325Y10113348D01*
X7686674Y10136674D02*
X7675011Y10148337D01*
Y10171663D01*
X7686674Y10183326D01*
X7698337D01*
X7710000Y10171663D01*
Y10160000D01*
Y10171663D01*
X7721662Y10183326D01*
X7733325D01*
X7744988Y10171663D01*
Y10148337D01*
X7733325Y10136674D01*
X7744988Y10253303D02*
Y10206652D01*
X7698337Y10253303D01*
X7686674D01*
X7675011Y10241640D01*
Y10218315D01*
X7686674Y10206652D01*
X7563348Y11383326D02*
X7551685Y11394989D01*
X7528360D01*
X7516697Y11383326D01*
Y11336674D01*
X7528360Y11325011D01*
X7551685D01*
X7563348Y11336674D01*
X7586674Y11383326D02*
X7598337Y11394989D01*
X7621663D01*
X7633326Y11383326D01*
Y11371663D01*
X7621663Y11360000D01*
X7610000D01*
X7621663D01*
X7633326Y11348337D01*
Y11336674D01*
X7621663Y11325011D01*
X7598337D01*
X7586674Y11336674D01*
X7656652Y11383326D02*
X7668315Y11394989D01*
X7691640D01*
X7703303Y11383326D01*
Y11336674D01*
X7691640Y11325011D01*
X7668315D01*
X7656652Y11336674D01*
Y11383326D01*
X7005011Y11223326D02*
X6993348Y11234989D01*
X6970022D01*
X6958359Y11223326D01*
Y11176674D01*
X6970022Y11165011D01*
X6993348D01*
X7005011Y11176674D01*
X7028337Y11223326D02*
X7040000Y11234989D01*
X7063326D01*
X7074989Y11223326D01*
Y11211663D01*
X7063326Y11200000D01*
X7051663D01*
X7063326D01*
X7074989Y11188337D01*
Y11176674D01*
X7063326Y11165011D01*
X7040000D01*
X7028337Y11176674D01*
X7098314Y11165011D02*
X7121640D01*
X7109977D01*
Y11234989D01*
X7098314Y11223326D01*
X7536674Y10163348D02*
X7525011Y10151686D01*
Y10128360D01*
X7536674Y10116697D01*
X7583326D01*
X7594989Y10128360D01*
Y10151686D01*
X7583326Y10163348D01*
X7536674Y10186674D02*
X7525011Y10198337D01*
Y10221663D01*
X7536674Y10233326D01*
X7548337D01*
X7560000Y10221663D01*
Y10210000D01*
Y10221663D01*
X7571663Y10233326D01*
X7583326D01*
X7594989Y10221663D01*
Y10198337D01*
X7583326Y10186674D01*
X7536674Y10256652D02*
X7525011Y10268315D01*
Y10291641D01*
X7536674Y10303303D01*
X7548337D01*
X7560000Y10291641D01*
Y10279978D01*
Y10291641D01*
X7571663Y10303303D01*
X7583326D01*
X7594989Y10291641D01*
Y10268315D01*
X7583326Y10256652D01*
X6793348Y9773326D02*
X6781685Y9784989D01*
X6758360D01*
X6746697Y9773326D01*
Y9726674D01*
X6758360Y9715011D01*
X6781685D01*
X6793348Y9726674D01*
X6863326Y9715011D02*
X6816674D01*
X6863326Y9761663D01*
Y9773326D01*
X6851663Y9784989D01*
X6828337D01*
X6816674Y9773326D01*
X6886652Y9726674D02*
X6898315Y9715011D01*
X6921640D01*
X6933303Y9726674D01*
Y9773326D01*
X6921640Y9784989D01*
X6898315D01*
X6886652Y9773326D01*
Y9761663D01*
X6898315Y9750000D01*
X6933303D01*
X6733348Y9203326D02*
X6721685Y9214989D01*
X6698359D01*
X6686697Y9203326D01*
Y9156674D01*
X6698359Y9145011D01*
X6721685D01*
X6733348Y9156674D01*
X6803326Y9145011D02*
X6756674D01*
X6803326Y9191663D01*
Y9203326D01*
X6791663Y9214989D01*
X6768337D01*
X6756674Y9203326D01*
X6826652D02*
X6838314Y9214989D01*
X6861640D01*
X6873303Y9203326D01*
Y9191663D01*
X6861640Y9180000D01*
X6873303Y9168337D01*
Y9156674D01*
X6861640Y9145011D01*
X6838314D01*
X6826652Y9156674D01*
Y9168337D01*
X6838314Y9180000D01*
X6826652Y9191663D01*
Y9203326D01*
X6838314Y9180000D02*
X6861640D01*
X7568348Y11043326D02*
X7556685Y11054989D01*
X7533360D01*
X7521697Y11043326D01*
Y10996674D01*
X7533360Y10985011D01*
X7556685D01*
X7568348Y10996674D01*
X7638326Y10985011D02*
X7591674D01*
X7638326Y11031663D01*
Y11043326D01*
X7626663Y11054989D01*
X7603337D01*
X7591674Y11043326D01*
X7661652Y11054989D02*
X7708303D01*
Y11043326D01*
X7661652Y10996674D01*
Y10985011D01*
X9166674Y9035849D02*
X9155011Y9024186D01*
Y9000860D01*
X9166674Y8989197D01*
X9213325D01*
X9224988Y9000860D01*
Y9024186D01*
X9213325Y9035849D01*
X9224988Y9105826D02*
Y9059174D01*
X9178337Y9105826D01*
X9166674D01*
X9155011Y9094163D01*
Y9070837D01*
X9166674Y9059174D01*
X9155011Y9175804D02*
X9166674Y9152478D01*
X9190000Y9129152D01*
X9213325D01*
X9224988Y9140815D01*
Y9164141D01*
X9213325Y9175804D01*
X9201663D01*
X9190000Y9164141D01*
Y9129152D01*
X8733348Y11303326D02*
X8721685Y11314989D01*
X8698360D01*
X8686697Y11303326D01*
Y11256674D01*
X8698360Y11245011D01*
X8721685D01*
X8733348Y11256674D01*
X8803326Y11245011D02*
X8756674D01*
X8803326Y11291663D01*
Y11303326D01*
X8791663Y11314989D01*
X8768337D01*
X8756674Y11303326D01*
X8873303Y11314989D02*
X8826652D01*
Y11280000D01*
X8849977Y11291663D01*
X8861640D01*
X8873303Y11280000D01*
Y11256674D01*
X8861640Y11245011D01*
X8838315D01*
X8826652Y11256674D01*
X8173348Y12123326D02*
X8161685Y12134989D01*
X8138360D01*
X8126697Y12123326D01*
Y12076674D01*
X8138360Y12065011D01*
X8161685D01*
X8173348Y12076674D01*
X8243326Y12065011D02*
X8196674D01*
X8243326Y12111663D01*
Y12123326D01*
X8231663Y12134989D01*
X8208337D01*
X8196674Y12123326D01*
X8301640Y12065011D02*
Y12134989D01*
X8266652Y12100000D01*
X8313303D01*
X8510848Y12123326D02*
X8499185Y12134989D01*
X8475860D01*
X8464197Y12123326D01*
Y12076674D01*
X8475860Y12065011D01*
X8499185D01*
X8510848Y12076674D01*
X8580826Y12065011D02*
X8534174D01*
X8580826Y12111663D01*
Y12123326D01*
X8569163Y12134989D01*
X8545837D01*
X8534174Y12123326D01*
X8604152D02*
X8615815Y12134989D01*
X8639140D01*
X8650803Y12123326D01*
Y12111663D01*
X8639140Y12100000D01*
X8627478D01*
X8639140D01*
X8650803Y12088337D01*
Y12076674D01*
X8639140Y12065011D01*
X8615815D01*
X8604152Y12076674D01*
X8245848Y10570826D02*
X8234185Y10582489D01*
X8210860D01*
X8199197Y10570826D01*
Y10524174D01*
X8210860Y10512511D01*
X8234185D01*
X8245848Y10524174D01*
X8315826Y10512511D02*
X8269174D01*
X8315826Y10559163D01*
Y10570826D01*
X8304163Y10582489D01*
X8280837D01*
X8269174Y10570826D01*
X8385803Y10512511D02*
X8339152D01*
X8385803Y10559163D01*
Y10570826D01*
X8374140Y10582489D01*
X8350815D01*
X8339152Y10570826D01*
X3963326Y5684988D02*
X3974989Y5696651D01*
Y5719977D01*
X3963326Y5731640D01*
X3916674D01*
X3905011Y5719977D01*
Y5696651D01*
X3916674Y5684988D01*
X3905011Y5615011D02*
Y5661663D01*
X3951663Y5615011D01*
X3963326D01*
X3974989Y5626674D01*
Y5650000D01*
X3963326Y5661663D01*
X3905011Y5591685D02*
Y5568359D01*
Y5580022D01*
X3974989D01*
X3963326Y5591685D01*
X5823326Y5906651D02*
X5834989Y5918314D01*
Y5941640D01*
X5823326Y5953303D01*
X5776674D01*
X5765011Y5941640D01*
Y5918314D01*
X5776674Y5906651D01*
X5765011Y5836674D02*
Y5883326D01*
X5811663Y5836674D01*
X5823326D01*
X5834989Y5848337D01*
Y5871663D01*
X5823326Y5883326D01*
Y5813348D02*
X5834989Y5801685D01*
Y5778359D01*
X5823326Y5766696D01*
X5776674D01*
X5765011Y5778359D01*
Y5801685D01*
X5776674Y5813348D01*
X5823326D01*
X4046674Y5796680D02*
X4035011Y5785017D01*
Y5761691D01*
X4046674Y5750028D01*
X4093326D01*
X4104988Y5761691D01*
Y5785017D01*
X4093326Y5796680D01*
X4104988Y5820005D02*
Y5843331D01*
Y5831668D01*
X4035011D01*
X4046674Y5820005D01*
X4093326Y5878320D02*
X4104988Y5889983D01*
Y5913309D01*
X4093326Y5924972D01*
X4046674D01*
X4035011Y5913309D01*
Y5889983D01*
X4046674Y5878320D01*
X4058337D01*
X4070000Y5889983D01*
Y5924972D01*
X4394174Y5791680D02*
X4382511Y5780017D01*
Y5756691D01*
X4394174Y5745028D01*
X4440826D01*
X4452489Y5756691D01*
Y5780017D01*
X4440826Y5791680D01*
X4452489Y5815006D02*
Y5838331D01*
Y5826669D01*
X4382511D01*
X4394174Y5815006D01*
Y5873320D02*
X4382511Y5884983D01*
Y5908309D01*
X4394174Y5919972D01*
X4405837D01*
X4417500Y5908309D01*
X4429163Y5919972D01*
X4440826D01*
X4452489Y5908309D01*
Y5884983D01*
X4440826Y5873320D01*
X4429163D01*
X4417500Y5884983D01*
X4405837Y5873320D01*
X4394174D01*
X4417500Y5884983D02*
Y5908309D01*
X4684174Y5789180D02*
X4672511Y5777517D01*
Y5754191D01*
X4684174Y5742528D01*
X4730826D01*
X4742489Y5754191D01*
Y5777517D01*
X4730826Y5789180D01*
X4742489Y5812506D02*
Y5835831D01*
Y5824168D01*
X4672511D01*
X4684174Y5812506D01*
X4672511Y5870820D02*
Y5917472D01*
X4684174D01*
X4730826Y5870820D01*
X4742489D01*
X5506674Y5789180D02*
X5495011Y5777517D01*
Y5754191D01*
X5506674Y5742528D01*
X5553326D01*
X5564989Y5754191D01*
Y5777517D01*
X5553326Y5789180D01*
X5564989Y5812506D02*
Y5835831D01*
Y5824168D01*
X5495011D01*
X5506674Y5812506D01*
X5495011Y5917472D02*
X5506674Y5894146D01*
X5530000Y5870820D01*
X5553326D01*
X5564989Y5882483D01*
Y5905809D01*
X5553326Y5917472D01*
X5541663D01*
X5530000Y5905809D01*
Y5870820D01*
X5596674Y5789180D02*
X5585011Y5777517D01*
Y5754191D01*
X5596674Y5742528D01*
X5643326D01*
X5654988Y5754191D01*
Y5777517D01*
X5643326Y5789180D01*
X5654988Y5812506D02*
Y5835831D01*
Y5824168D01*
X5585011D01*
X5596674Y5812506D01*
X5585011Y5917472D02*
Y5870820D01*
X5620000D01*
X5608337Y5894146D01*
Y5905809D01*
X5620000Y5917472D01*
X5643326D01*
X5654988Y5905809D01*
Y5882483D01*
X5643326Y5870820D01*
X3539180Y3823326D02*
X3527517Y3834989D01*
X3504191D01*
X3492528Y3823326D01*
Y3776674D01*
X3504191Y3765011D01*
X3527517D01*
X3539180Y3776674D01*
X3562506Y3765011D02*
X3585832D01*
X3574169D01*
Y3834989D01*
X3562506Y3823326D01*
X3620820D02*
X3632483Y3834989D01*
X3655809D01*
X3667472Y3823326D01*
Y3811663D01*
X3655809Y3800000D01*
X3644146D01*
X3655809D01*
X3667472Y3788337D01*
Y3776674D01*
X3655809Y3765011D01*
X3632483D01*
X3620820Y3776674D01*
X3531680Y3675826D02*
X3520017Y3687489D01*
X3496691D01*
X3485028Y3675826D01*
Y3629174D01*
X3496691Y3617511D01*
X3520017D01*
X3531680Y3629174D01*
X3555006Y3617511D02*
X3578332D01*
X3566669D01*
Y3687489D01*
X3555006Y3675826D01*
X3659972Y3617511D02*
X3613320D01*
X3659972Y3664163D01*
Y3675826D01*
X3648309Y3687489D01*
X3624983D01*
X3613320Y3675826D01*
X3540843Y3563326D02*
X3529180Y3574989D01*
X3505854D01*
X3494191Y3563326D01*
Y3516674D01*
X3505854Y3505011D01*
X3529180D01*
X3540843Y3516674D01*
X3564169Y3505011D02*
X3587494D01*
X3575832D01*
Y3574989D01*
X3564169Y3563326D01*
X3622483Y3505011D02*
X3645809D01*
X3634146D01*
Y3574989D01*
X3622483Y3563326D01*
X3529180Y3063326D02*
X3517517Y3074989D01*
X3494191D01*
X3482528Y3063326D01*
Y3016674D01*
X3494191Y3005011D01*
X3517517D01*
X3529180Y3016674D01*
X3552506Y3005011D02*
X3575832D01*
X3564169D01*
Y3074989D01*
X3552506Y3063326D01*
X3610820D02*
X3622483Y3074989D01*
X3645809D01*
X3657472Y3063326D01*
Y3016674D01*
X3645809Y3005011D01*
X3622483D01*
X3610820Y3016674D01*
Y3063326D01*
X3528337Y2960826D02*
X3516674Y2972489D01*
X3493348D01*
X3481685Y2960826D01*
Y2914174D01*
X3493348Y2902511D01*
X3516674D01*
X3528337Y2914174D01*
X3551663D02*
X3563326Y2902511D01*
X3586652D01*
X3598315Y2914174D01*
Y2960826D01*
X3586652Y2972489D01*
X3563326D01*
X3551663Y2960826D01*
Y2949163D01*
X3563326Y2937500D01*
X3598315D01*
X3523337Y2818326D02*
X3511674Y2829989D01*
X3488348D01*
X3476685Y2818326D01*
Y2771674D01*
X3488348Y2760011D01*
X3511674D01*
X3523337Y2771674D01*
X3546663Y2818326D02*
X3558326Y2829989D01*
X3581652D01*
X3593315Y2818326D01*
Y2806663D01*
X3581652Y2795000D01*
X3593315Y2783337D01*
Y2771674D01*
X3581652Y2760011D01*
X3558326D01*
X3546663Y2771674D01*
Y2783337D01*
X3558326Y2795000D01*
X3546663Y2806663D01*
Y2818326D01*
X3558326Y2795000D02*
X3581652D01*
X5724174Y4485837D02*
X5712511Y4474174D01*
Y4450848D01*
X5724174Y4439185D01*
X5770825D01*
X5782488Y4450848D01*
Y4474174D01*
X5770825Y4485837D01*
X5712511Y4509163D02*
Y4555815D01*
X5724174D01*
X5770825Y4509163D01*
X5782488D01*
X3921674Y4748337D02*
X3910011Y4736674D01*
Y4713348D01*
X3921674Y4701686D01*
X3968326D01*
X3979988Y4713348D01*
Y4736674D01*
X3968326Y4748337D01*
X3910011Y4818315D02*
X3921674Y4794989D01*
X3945000Y4771663D01*
X3968326D01*
X3979988Y4783326D01*
Y4806652D01*
X3968326Y4818315D01*
X3956663D01*
X3945000Y4806652D01*
Y4771663D01*
X4169174Y4593337D02*
X4157511Y4581674D01*
Y4558349D01*
X4169174Y4546686D01*
X4215826D01*
X4227489Y4558349D01*
Y4581674D01*
X4215826Y4593337D01*
X4157511Y4663315D02*
Y4616663D01*
X4192500D01*
X4180837Y4639989D01*
Y4651652D01*
X4192500Y4663315D01*
X4215826D01*
X4227489Y4651652D01*
Y4628326D01*
X4215826Y4616663D01*
X4481674Y4593337D02*
X4470011Y4581674D01*
Y4558349D01*
X4481674Y4546686D01*
X4528325D01*
X4539988Y4558349D01*
Y4581674D01*
X4528325Y4593337D01*
X4539988Y4651652D02*
X4470011D01*
X4505000Y4616663D01*
Y4663315D01*
X4826674Y4585837D02*
X4815011Y4574174D01*
Y4550848D01*
X4826674Y4539185D01*
X4873326D01*
X4884989Y4550848D01*
Y4574174D01*
X4873326Y4585837D01*
X4826674Y4609163D02*
X4815011Y4620826D01*
Y4644152D01*
X4826674Y4655815D01*
X4838337D01*
X4850000Y4644152D01*
Y4632489D01*
Y4644152D01*
X4861663Y4655815D01*
X4873326D01*
X4884989Y4644152D01*
Y4620826D01*
X4873326Y4609163D01*
X5436674Y4578337D02*
X5425011Y4566674D01*
Y4543348D01*
X5436674Y4531685D01*
X5483326D01*
X5494989Y4543348D01*
Y4566674D01*
X5483326Y4578337D01*
X5494989Y4648314D02*
Y4601663D01*
X5448337Y4648314D01*
X5436674D01*
X5425011Y4636651D01*
Y4613326D01*
X5436674Y4601663D01*
X5556674Y4610000D02*
X5545011Y4598337D01*
Y4575011D01*
X5556674Y4563349D01*
X5603326D01*
X5614989Y4575011D01*
Y4598337D01*
X5603326Y4610000D01*
X5614989Y4633326D02*
Y4656652D01*
Y4644989D01*
X5545011D01*
X5556674Y4633326D01*
D108*
X330000Y11580000D02*
X570000D01*
X330000Y10980000D02*
X570000D01*
D109*
X3687292Y5807740D02*
X3753937D01*
X3787259Y5841062D01*
X3753937Y5874385D01*
X3687292D01*
X3737275Y5907708D02*
Y5974353D01*
D110*
X4785838Y7633351D02*
X4777508Y7625021D01*
Y7608359D01*
X4785838Y7600029D01*
X4819161D01*
X4827491Y7608359D01*
Y7625021D01*
X4819161Y7633351D01*
X4827491Y7650012D02*
Y7666674D01*
Y7658343D01*
X4777508D01*
X4785838Y7650012D01*
Y7691666D02*
X4777508Y7699996D01*
Y7716657D01*
X4785838Y7724988D01*
X4819161D01*
X4827491Y7716657D01*
Y7699996D01*
X4819161Y7691666D01*
X4785838D01*
X4777508Y7741649D02*
Y7774972D01*
X4785838D01*
X4819161Y7741649D01*
X4827491D01*
%TF.MD5,f17b9d6a5d9f2e711109279429a74b81*%
M02*
