%TF.GenerationSoftware,Altium Limited,Altium Designer,22.1.2 (22)*%
G04 Layer_Physical_Order=2*
G04 Layer_Color=16711680*
%FSLAX45Y45*%
%MOMM*%
%TF.SameCoordinates,C5451D44-FA68-4CDD-92CA-08ED0B408621*%
%TF.FilePolarity,Positive*%
%TF.FileFunction,Copper,L2,Bot,Signal*%
%TF.Part,Single*%
G01*
G75*
%TA.AperFunction,Conductor*%
%ADD71C,0.35000*%
%ADD72C,0.25000*%
%ADD73C,0.50000*%
%ADD74C,0.70000*%
%ADD77C,3.50000*%
%ADD79C,0.25400*%
%TA.AperFunction,ComponentPad*%
%ADD86C,3.75000*%
%ADD87C,1.80000*%
%TA.AperFunction,ViaPad*%
%ADD88C,10.00000*%
%TA.AperFunction,ComponentPad*%
%ADD89C,1.60000*%
%ADD90C,2.50000*%
%TA.AperFunction,ViaPad*%
%ADD91C,0.50800*%
%ADD92C,1.00000*%
%TA.AperFunction,TestPad*%
%ADD93C,1.00000*%
%ADD94C,0.50800*%
%TA.AperFunction,ViaPad*%
%ADD95C,2.00000*%
G36*
X9461155Y12280690D02*
X8911528D01*
X8909522Y12295930D01*
X8965974Y12311057D01*
X9028374Y12336904D01*
X9086866Y12370674D01*
X9140450Y12411791D01*
X9188209Y12459550D01*
X9229326Y12513134D01*
X9263096Y12571626D01*
X9288943Y12634026D01*
X9306424Y12699266D01*
X9315240Y12766229D01*
Y12833771D01*
X9306424Y12900734D01*
X9288943Y12965974D01*
X9263096Y13028374D01*
X9229326Y13086867D01*
X9188209Y13140450D01*
X9140450Y13188210D01*
X9086866Y13229326D01*
X9028374Y13263097D01*
X8965974Y13288943D01*
X8900734Y13306424D01*
X8833770Y13315240D01*
X8766229D01*
X8699266Y13306424D01*
X8634026Y13288943D01*
X8571626Y13263097D01*
X8513134Y13229326D01*
X8459550Y13188210D01*
X8411791Y13140450D01*
X8370674Y13086867D01*
X8336904Y13028374D01*
X8311057Y12965974D01*
X8293576Y12900734D01*
X8284760Y12833771D01*
Y12766229D01*
X8293576Y12699266D01*
X8311057Y12634026D01*
X8336904Y12571626D01*
X8370674Y12513134D01*
X8411791Y12459550D01*
X8459550Y12411791D01*
X8513134Y12370674D01*
X8571626Y12336904D01*
X8634026Y12311057D01*
X8690478Y12295930D01*
X8688472Y12280690D01*
X8513655D01*
X8492771Y12277941D01*
X8473310Y12269880D01*
X8456598Y12257057D01*
X8292943Y12093402D01*
X8280120Y12076690D01*
X8272059Y12057229D01*
X8269310Y12036345D01*
Y10675000D01*
X8272059Y10654116D01*
X8280120Y10634655D01*
X8292943Y10617943D01*
X8417943Y10492943D01*
X8434655Y10480120D01*
X8454116Y10472059D01*
X8475000Y10469310D01*
X9461155D01*
Y8200000D01*
X6950000Y8200000D01*
X6450000Y7700000D01*
X3590000D01*
X3521305Y7631305D01*
X3517358Y7630520D01*
X3506641Y7623359D01*
X2957229Y7073947D01*
X2950068Y7063230D01*
X2947553Y7050588D01*
Y6883035D01*
X2387500D01*
X2374858Y6880520D01*
X2364141Y6873359D01*
X2126641Y6635859D01*
X2119480Y6625142D01*
X2116965Y6612500D01*
Y5475000D01*
X2119480Y5462358D01*
X2126641Y5451641D01*
X2641640Y4936641D01*
X2652357Y4929480D01*
X2664999Y4926966D01*
X3085336D01*
X3091168Y4912886D01*
X3059142Y4880859D01*
X3059141Y4880858D01*
X3051980Y4870141D01*
X3049465Y4857499D01*
Y4567499D01*
X3051980Y4554857D01*
X3059141Y4544140D01*
X3059142Y4544140D01*
X3201641Y4401641D01*
X3212358Y4394480D01*
X3225000Y4391965D01*
X3724999D01*
X3737641Y4394480D01*
X3748359Y4401641D01*
X3748359Y4401642D01*
X3873359Y4526641D01*
X3880520Y4537358D01*
X3883035Y4550000D01*
Y4875000D01*
X3880520Y4887642D01*
X3873359Y4898359D01*
X3823359Y4948359D01*
X3822617Y4955898D01*
X3890859Y5024141D01*
X3898020Y5034858D01*
X3900535Y5047500D01*
X3900535Y5362500D01*
X3898020Y5375142D01*
X3890859Y5385859D01*
X3877800Y5398919D01*
Y5401497D01*
X3874599Y5409225D01*
X3884782Y5424465D01*
X3957500D01*
X3970142Y5426980D01*
X3980859Y5434141D01*
X4075859Y5529141D01*
X4083020Y5539858D01*
X4085535Y5552500D01*
Y5889454D01*
X4139537Y5942544D01*
X4574705Y5941732D01*
X4574736Y5941738D01*
X4574767Y5941732D01*
X4581008Y5942974D01*
X4587352Y5944223D01*
X4587378Y5944241D01*
X4587409Y5944247D01*
X4592714Y5947792D01*
X4598082Y5951365D01*
X4598100Y5951391D01*
X4598126Y5951408D01*
X4673359Y6026640D01*
X4680520Y6037357D01*
X4683035Y6050000D01*
X4683035Y6610206D01*
X4702360Y6629718D01*
X4717600Y6623448D01*
Y6614152D01*
X4723216Y6593195D01*
X4734064Y6574405D01*
X4749405Y6559064D01*
X4768195Y6548216D01*
X4789152Y6542600D01*
X4810848D01*
X4831805Y6548216D01*
X4850595Y6559064D01*
X4865936Y6574405D01*
X4876785Y6593195D01*
X4882400Y6614152D01*
Y6635848D01*
X4876785Y6656805D01*
X4865936Y6675595D01*
X4850595Y6690936D01*
X4831805Y6701784D01*
X4810848Y6707400D01*
X4800752D01*
X4794397Y6722640D01*
X4813538Y6741965D01*
X5825000D01*
X5837642Y6744480D01*
X5848359Y6751641D01*
X5848360Y6751642D01*
X5973359Y6876641D01*
X5980520Y6887358D01*
X5983035Y6900000D01*
X5983035Y7550000D01*
X5980520Y7562642D01*
X5973359Y7573359D01*
X5960798Y7585920D01*
X5966630Y7600000D01*
X6490000D01*
X6990000Y8100000D01*
X9461155D01*
Y38845D01*
X38845D01*
Y13461154D01*
X9461155Y13461156D01*
Y12280690D01*
D02*
G37*
G36*
Y10550000D02*
X8475000D01*
X8350000Y10675000D01*
Y12036345D01*
X8513655Y12200000D01*
X9461155D01*
Y10550000D01*
D02*
G37*
G36*
X5950000Y7550000D02*
X5950000Y6900000D01*
X5825000Y6775000D01*
X4799762D01*
X4650000Y6623797D01*
X4650000Y6050000D01*
X4574767Y5974767D01*
X4126044Y5975604D01*
X4052500Y5903303D01*
Y5552500D01*
X3957500Y5457500D01*
X3073244D01*
X2983035Y5547709D01*
Y6850000D01*
X2980588Y6862302D01*
Y7050588D01*
X3530000Y7600000D01*
X5900000D01*
X5950000Y7550000D01*
D02*
G37*
G36*
X2950000Y5534025D02*
X3062013Y5422013D01*
X3807988D01*
X3867500Y5362500D01*
X3867500Y5047500D01*
X3780001Y4960000D01*
X3152500Y4960000D01*
X2664999D01*
X2150000Y5475000D01*
Y6612500D01*
X2387500Y6850000D01*
X2950000D01*
Y5534025D01*
D02*
G37*
G36*
X3850000Y4875000D02*
Y4550000D01*
X3724999Y4425000D01*
X3225000D01*
X3082500Y4567499D01*
Y4857499D01*
X3150000Y4925000D01*
X3800000D01*
X3850000Y4875000D01*
D02*
G37*
%LPC*%
G36*
X8128589Y13405240D02*
X8111411D01*
X8094818Y13400793D01*
X8079942Y13392204D01*
X8067795Y13380058D01*
X8059206Y13365182D01*
X8054760Y13348589D01*
Y13332784D01*
X7953006Y13231029D01*
X7693530D01*
X7677829Y13227905D01*
X7669475Y13222324D01*
X7658589Y13225240D01*
X7641411D01*
X7624818Y13220795D01*
X7609942Y13212206D01*
X7597795Y13200058D01*
X7589206Y13185182D01*
X7584760Y13168588D01*
Y13151411D01*
X7589206Y13134819D01*
X7597795Y13119942D01*
X7609942Y13107796D01*
X7624818Y13099207D01*
X7641411Y13094760D01*
X7658589D01*
X7675182Y13099207D01*
X7690058Y13107796D01*
X7702205Y13119942D01*
X7710794Y13134819D01*
X7714586Y13148972D01*
X7970000D01*
X7985701Y13152095D01*
X7999011Y13160989D01*
X8112783Y13274760D01*
X8128589D01*
X8145182Y13279205D01*
X8160058Y13287794D01*
X8172205Y13299942D01*
X8180794Y13314818D01*
X8185240Y13331412D01*
Y13348589D01*
X8180794Y13365182D01*
X8172205Y13380058D01*
X8160058Y13392204D01*
X8145182Y13400793D01*
X8128589Y13405240D01*
D02*
G37*
G36*
X733771Y13315240D02*
X666230D01*
X599266Y13306424D01*
X534026Y13288943D01*
X471626Y13263097D01*
X413134Y13229326D01*
X359550Y13188210D01*
X311791Y13140450D01*
X270674Y13086867D01*
X236904Y13028374D01*
X211057Y12965974D01*
X193576Y12900734D01*
X184760Y12833771D01*
Y12766229D01*
X193576Y12699266D01*
X211057Y12634026D01*
X236904Y12571626D01*
X270674Y12513134D01*
X311791Y12459550D01*
X359550Y12411791D01*
X413134Y12370674D01*
X471626Y12336904D01*
X534026Y12311057D01*
X599266Y12293576D01*
X666230Y12284760D01*
X733771D01*
X800734Y12293576D01*
X865974Y12311057D01*
X928374Y12336904D01*
X986866Y12370674D01*
X1040451Y12411791D01*
X1088209Y12459550D01*
X1129326Y12513134D01*
X1163096Y12571626D01*
X1188944Y12634026D01*
X1206424Y12699266D01*
X1215240Y12766229D01*
Y12833771D01*
X1206424Y12900734D01*
X1188944Y12965974D01*
X1163096Y13028374D01*
X1129326Y13086867D01*
X1088209Y13140450D01*
X1040451Y13188210D01*
X986866Y13229326D01*
X928374Y13263097D01*
X865974Y13288943D01*
X800734Y13306424D01*
X733771Y13315240D01*
D02*
G37*
G36*
X6276089Y12382740D02*
X6258911D01*
X6242318Y12378294D01*
X6227442Y12369705D01*
X6216265Y12358528D01*
X6010000D01*
X5994299Y12355405D01*
X5980988Y12346511D01*
X5798922Y12164445D01*
X5790028Y12151134D01*
X5786905Y12135433D01*
Y11699927D01*
X5535989Y11449011D01*
X5527095Y11435701D01*
X5523972Y11420000D01*
Y9808530D01*
X5527095Y9792829D01*
X5535989Y9779519D01*
X5583276Y9732231D01*
X5579206Y9725181D01*
X5574760Y9708589D01*
Y9692783D01*
X5530989Y9649011D01*
X5522095Y9635701D01*
X5518972Y9620000D01*
Y9392994D01*
X5507190Y9382935D01*
X5498589Y9385240D01*
X5481411D01*
X5464818Y9380794D01*
X5449942Y9372205D01*
X5437795Y9360058D01*
X5429206Y9345181D01*
X5424760Y9328589D01*
Y9311411D01*
X5429206Y9294818D01*
X5437795Y9279942D01*
X5449942Y9267795D01*
X5464818Y9259206D01*
X5481411Y9254760D01*
X5498589D01*
X5515182Y9259206D01*
X5530058Y9267795D01*
X5542205Y9279942D01*
X5550794Y9294818D01*
X5555240Y9311411D01*
Y9312994D01*
X5559722Y9315989D01*
X5589011Y9345278D01*
X5597905Y9358589D01*
X5601028Y9374290D01*
Y9603006D01*
X5632783Y9634760D01*
X5648589D01*
X5665181Y9639206D01*
X5680058Y9647795D01*
X5692205Y9659942D01*
X5700794Y9674818D01*
X5705240Y9691411D01*
Y9708589D01*
X5700794Y9725181D01*
X5692205Y9740058D01*
X5680058Y9752205D01*
X5668149Y9759080D01*
X5659445Y9772108D01*
X5606028Y9825524D01*
Y11403006D01*
X5856944Y11653922D01*
X5865838Y11667232D01*
X5868961Y11682933D01*
Y12118439D01*
X6026994Y12276472D01*
X6216265D01*
X6227442Y12265295D01*
X6242318Y12256706D01*
X6258911Y12252260D01*
X6276089D01*
X6292682Y12256706D01*
X6307558Y12265295D01*
X6319705Y12277442D01*
X6328294Y12292318D01*
X6332740Y12308911D01*
Y12326089D01*
X6328294Y12342681D01*
X6319705Y12357558D01*
X6307558Y12369705D01*
X6292682Y12378294D01*
X6276089Y12382740D01*
D02*
G37*
G36*
X6305000Y11338996D02*
X6267500D01*
X6261737Y11336609D01*
X6255943Y11334271D01*
X5915943Y11000452D01*
X5915911Y11000377D01*
X5915836Y11000346D01*
X5913448Y10994582D01*
X5911005Y10988833D01*
X5911035Y10988757D01*
X5911004Y10988682D01*
Y10385000D01*
X5915836Y10373336D01*
X5963336Y10325836D01*
X5975000Y10321004D01*
X6187500D01*
X6199164Y10325836D01*
X6259332Y10386004D01*
X6615000D01*
X6626664Y10390836D01*
X6649164Y10413336D01*
X6653996Y10425000D01*
Y10710667D01*
X6681833Y10738504D01*
X6845000D01*
X6856664Y10743336D01*
X6861496Y10755000D01*
Y10952500D01*
X6856664Y10964164D01*
X6783996Y11036832D01*
Y11085971D01*
X6783977Y11086016D01*
X6783995Y11086060D01*
X6781567Y11091836D01*
X6779164Y11097635D01*
X6779120Y11097653D01*
X6779102Y11097698D01*
X6770073Y11106630D01*
X6770029Y11106648D01*
X6770010Y11106692D01*
X6764192Y11109029D01*
X6758383Y11111398D01*
X6758339Y11111380D01*
X6758294Y11111398D01*
X6541759Y11109069D01*
X6316664Y11334164D01*
X6305000Y11338996D01*
D02*
G37*
G36*
X9198589Y10425240D02*
X9181411D01*
X9164818Y10420794D01*
X9149942Y10412205D01*
X9137795Y10400058D01*
X9129206Y10385182D01*
X9124760Y10368589D01*
Y10352783D01*
X8901686Y10129709D01*
X8892792Y10116399D01*
X8889669Y10100698D01*
Y10044434D01*
X8878493Y10033257D01*
X8869904Y10018381D01*
X8865458Y10001788D01*
Y9984610D01*
X8869904Y9968017D01*
X8878493Y9953141D01*
X8890640Y9940994D01*
X8905516Y9932405D01*
X8922109Y9927959D01*
X8939287D01*
X8955879Y9932405D01*
X8970756Y9940994D01*
X8982903Y9953141D01*
X8991492Y9968017D01*
X8995938Y9984610D01*
Y10001788D01*
X8991492Y10018381D01*
X8982903Y10033257D01*
X8971726Y10044434D01*
Y10083703D01*
X9182783Y10294760D01*
X9198589D01*
X9215181Y10299206D01*
X9230058Y10307795D01*
X9242205Y10319942D01*
X9250794Y10334819D01*
X9255240Y10351411D01*
Y10368589D01*
X9250794Y10385182D01*
X9242205Y10400058D01*
X9230058Y10412205D01*
X9215181Y10420794D01*
X9198589Y10425240D01*
D02*
G37*
G36*
X948997Y10007800D02*
X926003D01*
X904759Y9999000D01*
X888500Y9982741D01*
X879700Y9961497D01*
Y9938503D01*
X884466Y9926997D01*
X785953Y9828484D01*
X628258D01*
X627741Y9829000D01*
X606497Y9837800D01*
X583503D01*
X562259Y9829000D01*
X546000Y9812741D01*
X537200Y9791497D01*
Y9768503D01*
X546000Y9747259D01*
X562259Y9731000D01*
X583503Y9722200D01*
X606497D01*
X627741Y9731000D01*
X633258Y9736516D01*
X805000D01*
X822597Y9740017D01*
X837515Y9749985D01*
X968014Y9880484D01*
X977982Y9895402D01*
X981294Y9912053D01*
X986500Y9917259D01*
X995300Y9938503D01*
Y9961497D01*
X986500Y9982741D01*
X970241Y9999000D01*
X948997Y10007800D01*
D02*
G37*
G36*
X656089Y9575240D02*
X638911D01*
X622319Y9570794D01*
X607442Y9562205D01*
X606118Y9560881D01*
X400089D01*
X390250Y9558924D01*
X382681Y9563294D01*
X366089Y9567740D01*
X348911D01*
X332318Y9563294D01*
X317442Y9554705D01*
X305295Y9542558D01*
X296706Y9527681D01*
X292260Y9511089D01*
Y9493911D01*
X296706Y9477318D01*
X305295Y9462442D01*
X317442Y9450295D01*
X332318Y9441706D01*
X348911Y9437260D01*
X366089D01*
X382681Y9441706D01*
X397558Y9450295D01*
X409705Y9462442D01*
X418294Y9477318D01*
X422740Y9493911D01*
Y9494119D01*
X584214D01*
X586706Y9484818D01*
X595295Y9469942D01*
X607442Y9457795D01*
X622319Y9449206D01*
X638911Y9444760D01*
X656089D01*
X672682Y9449206D01*
X687558Y9457795D01*
X699705Y9469942D01*
X708294Y9484818D01*
X712740Y9501411D01*
Y9518589D01*
X708294Y9535182D01*
X699705Y9550058D01*
X687558Y9562205D01*
X672682Y9570794D01*
X656089Y9575240D01*
D02*
G37*
G36*
X4850000Y12741495D02*
X2525000D01*
X2513336Y12736664D01*
X2013336Y12236664D01*
X2008504Y12225000D01*
Y11881833D01*
X1913336Y11786664D01*
X1913333Y11786659D01*
X1913327Y11786656D01*
X1910873Y11780718D01*
X1908504Y11775000D01*
X1908507Y11774994D01*
X1908504Y11774988D01*
X1911004Y8262488D01*
Y7650168D01*
X1915836Y7638504D01*
X2116004Y7438336D01*
X2127668Y7433504D01*
X2975000D01*
X2986664Y7438336D01*
X3596664Y8048336D01*
X3601496Y8060000D01*
Y8288168D01*
X3996832Y8683504D01*
X4925000D01*
X4936664Y8688336D01*
X5086664Y8838336D01*
X5091496Y8850000D01*
Y9491384D01*
X5105576Y9497216D01*
X5126619Y9476173D01*
Y9464093D01*
X5125547Y9463021D01*
X5119360Y9448084D01*
Y9431916D01*
X5125547Y9416979D01*
X5136979Y9405547D01*
X5151916Y9399360D01*
X5168084D01*
X5183021Y9405547D01*
X5194453Y9416979D01*
X5200640Y9431916D01*
Y9448084D01*
X5194453Y9463021D01*
X5193381Y9464093D01*
Y9490000D01*
X5190840Y9502774D01*
X5183604Y9513604D01*
X5137208Y9560000D01*
X5256568Y9679360D01*
X5258084D01*
X5273021Y9685547D01*
X5284453Y9696979D01*
X5290640Y9711916D01*
Y9728084D01*
X5284453Y9743021D01*
X5273021Y9754453D01*
X5258084Y9760640D01*
X5241916D01*
X5226979Y9754453D01*
X5215547Y9743021D01*
X5209360Y9728084D01*
Y9726568D01*
X5105576Y9622784D01*
X5091496Y9628616D01*
Y10837947D01*
X5093140Y10841916D01*
Y10858084D01*
X5091496Y10862053D01*
Y10952947D01*
X5093140Y10956916D01*
Y10973084D01*
X5091496Y10977053D01*
Y11067947D01*
X5093140Y11071916D01*
Y11088084D01*
X5091496Y11092053D01*
Y11182947D01*
X5093140Y11186916D01*
Y11203084D01*
X5091496Y11207053D01*
Y12499999D01*
X5086664Y12511664D01*
X4861664Y12736664D01*
X4850000Y12741495D01*
D02*
G37*
G36*
X529798Y9454900D02*
X500202D01*
X471615Y9447240D01*
X445985Y9432442D01*
X425058Y9411515D01*
X410260Y9385885D01*
X402600Y9357298D01*
Y9327702D01*
X410260Y9299115D01*
X425058Y9273485D01*
X445985Y9252558D01*
X471615Y9237760D01*
X500202Y9230100D01*
X529798D01*
X558385Y9237760D01*
X584015Y9252558D01*
X604942Y9273485D01*
X619740Y9299115D01*
X627400Y9327702D01*
Y9357298D01*
X619740Y9385885D01*
X604942Y9411515D01*
X584015Y9432442D01*
X558385Y9447240D01*
X529798Y9454900D01*
D02*
G37*
G36*
X527700Y9085067D02*
Y9005199D01*
X607567D01*
X601382Y9028281D01*
X589178Y9049419D01*
X571919Y9066679D01*
X550781Y9078883D01*
X527700Y9085067D01*
D02*
G37*
G36*
X502300D02*
X479219Y9078883D01*
X458081Y9066679D01*
X440822Y9049419D01*
X428618Y9028281D01*
X422433Y9005199D01*
X502300D01*
Y9085067D01*
D02*
G37*
G36*
Y8979799D02*
X422433D01*
X428618Y8956719D01*
X440822Y8935581D01*
X458081Y8918322D01*
X479219Y8906118D01*
X502300Y8899933D01*
Y8979799D01*
D02*
G37*
G36*
X607567D02*
X527700D01*
Y8899933D01*
X550781Y8906118D01*
X571919Y8918322D01*
X589178Y8935581D01*
X601382Y8956719D01*
X607567Y8979799D01*
D02*
G37*
G36*
X5458589Y9025240D02*
X5441411D01*
X5424818Y9020794D01*
X5409942Y9012205D01*
X5397795Y9000058D01*
X5389206Y8985182D01*
X5384760Y8968589D01*
Y8951411D01*
X5389206Y8934819D01*
X5397795Y8919942D01*
X5409942Y8907795D01*
X5424818Y8899206D01*
X5441411Y8894760D01*
X5458589D01*
X5475182Y8899206D01*
X5490058Y8907795D01*
X5502205Y8919942D01*
X5506116Y8926717D01*
X5843284D01*
X6055000Y8715001D01*
X6064176Y8708870D01*
X6075000Y8706716D01*
X6075001Y8706717D01*
X6430997D01*
X6437795Y8694942D01*
X6449942Y8682795D01*
X6464818Y8674206D01*
X6481411Y8669760D01*
X6498589D01*
X6515182Y8674206D01*
X6530058Y8682795D01*
X6542205Y8694942D01*
X6550794Y8709818D01*
X6555240Y8726411D01*
Y8743589D01*
X6550794Y8760182D01*
X6542205Y8775058D01*
X6530058Y8787205D01*
X6515182Y8795794D01*
X6498589Y8800240D01*
X6481411D01*
X6464818Y8795794D01*
X6449942Y8787205D01*
X6437795Y8775058D01*
X6430997Y8763283D01*
X6086715D01*
X5874999Y8975000D01*
X5865823Y8981131D01*
X5855000Y8983284D01*
X5511302D01*
X5510794Y8985182D01*
X5502205Y9000058D01*
X5490058Y9012205D01*
X5475182Y9020794D01*
X5458589Y9025240D01*
D02*
G37*
G36*
X525200Y8507566D02*
Y8427700D01*
X605067D01*
X598882Y8450780D01*
X586678Y8471919D01*
X569419Y8489178D01*
X548281Y8501382D01*
X525200Y8507566D01*
D02*
G37*
G36*
X499800Y8507567D02*
X476719Y8501382D01*
X455581Y8489178D01*
X438321Y8471919D01*
X426118Y8450780D01*
X419933Y8427700D01*
X499800D01*
Y8507567D01*
D02*
G37*
G36*
X605067Y8402300D02*
X525200D01*
Y8322433D01*
X548281Y8328617D01*
X569419Y8340821D01*
X586678Y8358081D01*
X598882Y8379219D01*
X605067Y8402300D01*
D02*
G37*
G36*
X499800D02*
X419933D01*
X426118Y8379219D01*
X438321Y8358081D01*
X455581Y8340821D01*
X476719Y8328617D01*
X499800Y8322433D01*
Y8402300D01*
D02*
G37*
G36*
X527298Y8177400D02*
X497702D01*
X469115Y8169740D01*
X443485Y8154942D01*
X422558Y8134015D01*
X407760Y8108385D01*
X400100Y8079798D01*
Y8050202D01*
X407760Y8021615D01*
X422558Y7995985D01*
X443485Y7975058D01*
X469115Y7960260D01*
X497702Y7952600D01*
X527298D01*
X555885Y7960260D01*
X581515Y7975058D01*
X602442Y7995985D01*
X617240Y8021615D01*
X624900Y8050202D01*
Y8079798D01*
X617240Y8108385D01*
X602442Y8134015D01*
X581515Y8154942D01*
X555885Y8169740D01*
X527298Y8177400D01*
D02*
G37*
G36*
X5253589Y8830240D02*
X5236411D01*
X5219818Y8825794D01*
X5204942Y8817205D01*
X5192795Y8805058D01*
X5184206Y8790182D01*
X5179760Y8773589D01*
Y8756411D01*
X5184206Y8739818D01*
X5192795Y8724942D01*
X5204942Y8712795D01*
X5219818Y8704206D01*
X5236411Y8699760D01*
X5253589D01*
X5266722Y8703279D01*
X5806717Y8163284D01*
Y8115000D01*
X5808870Y8104176D01*
X5815001Y8095001D01*
X5876717Y8033285D01*
Y8014003D01*
X5864942Y8007205D01*
X5852795Y7995058D01*
X5844206Y7980182D01*
X5839760Y7963589D01*
Y7946411D01*
X5844206Y7929819D01*
X5852795Y7914942D01*
X5864942Y7902795D01*
X5879819Y7894206D01*
X5896411Y7889760D01*
X5913589D01*
X5930182Y7894206D01*
X5945058Y7902795D01*
X5957205Y7914942D01*
X5965794Y7929819D01*
X5970240Y7946411D01*
Y7963589D01*
X5965794Y7980182D01*
X5957205Y7995058D01*
X5945058Y8007205D01*
X5933284Y8014003D01*
Y8044999D01*
X5933284Y8045000D01*
X5931131Y8055823D01*
X5925000Y8064999D01*
X5924999Y8065000D01*
X5863283Y8126716D01*
Y8174999D01*
X5863284Y8175000D01*
X5861131Y8185824D01*
X5854999Y8194999D01*
X5306721Y8743278D01*
X5310240Y8756411D01*
Y8773589D01*
X5305794Y8790182D01*
X5297205Y8805058D01*
X5285058Y8817205D01*
X5270181Y8825794D01*
X5253589Y8830240D01*
D02*
G37*
G36*
X1108536Y8064047D02*
X1091358D01*
X1074766Y8059601D01*
X1059889Y8051012D01*
X1047742Y8038865D01*
X1039153Y8023989D01*
X1034707Y8007396D01*
Y7990218D01*
X1039153Y7973626D01*
X1047742Y7958749D01*
X1059889Y7946602D01*
X1074766Y7938013D01*
X1091358Y7933567D01*
X1108536D01*
X1125129Y7938013D01*
X1140005Y7946602D01*
X1151182Y7957779D01*
X1200122D01*
X1721912Y7435988D01*
X1735223Y7427095D01*
X1750924Y7423971D01*
X1758926D01*
X1816157Y7366739D01*
Y7350933D01*
X1820603Y7334341D01*
X1829192Y7319464D01*
X1841339Y7307318D01*
X1856216Y7298729D01*
X1872808Y7294283D01*
X1889986D01*
X1906579Y7298729D01*
X1921455Y7307318D01*
X1933602Y7319464D01*
X1942191Y7334341D01*
X1946637Y7350933D01*
Y7368112D01*
X1942191Y7384704D01*
X1933602Y7399581D01*
X1921455Y7411727D01*
X1906579Y7420316D01*
X1889986Y7424762D01*
X1874180D01*
X1804931Y7494011D01*
X1791621Y7502905D01*
X1775920Y7506028D01*
X1767918D01*
X1246128Y8027819D01*
X1232817Y8036712D01*
X1217116Y8039836D01*
X1151182D01*
X1140005Y8051012D01*
X1125129Y8059601D01*
X1108536Y8064047D01*
D02*
G37*
G36*
X1413737Y7657980D02*
X1390743D01*
X1369499Y7649180D01*
X1353239Y7632921D01*
X1344440Y7611677D01*
Y7588683D01*
X1353239Y7567439D01*
X1363069Y7557609D01*
X1364857Y7548619D01*
X1374781Y7533767D01*
X1748659Y7159889D01*
X1763511Y7149965D01*
X1781030Y7146480D01*
X1828520D01*
X1944871Y7030129D01*
X1959723Y7020205D01*
X1977242Y7016721D01*
X2090948D01*
X2136516Y6971153D01*
X2136516Y6971152D01*
X2151368Y6961229D01*
X2168887Y6957744D01*
X2168889Y6957744D01*
X2177823D01*
X2178072Y6957495D01*
X2199316Y6948696D01*
X2222310D01*
X2243554Y6957495D01*
X2259814Y6973755D01*
X2268613Y6994999D01*
Y7017993D01*
X2259814Y7039237D01*
X2243554Y7055496D01*
X2222310Y7064296D01*
X2199316D01*
X2180607Y7056546D01*
X2142282Y7094871D01*
X2127430Y7104795D01*
X2109911Y7108279D01*
X1996205D01*
X1879853Y7224631D01*
X1865002Y7234554D01*
X1847482Y7238039D01*
X1799993D01*
X1456909Y7581124D01*
X1460040Y7588683D01*
Y7611677D01*
X1451240Y7632921D01*
X1434981Y7649180D01*
X1413737Y7657980D01*
D02*
G37*
G36*
X1388095Y7410424D02*
X1365101D01*
X1343857Y7401624D01*
X1327598Y7385365D01*
X1318798Y7364121D01*
Y7341127D01*
X1327598Y7319882D01*
X1343857Y7303623D01*
X1365101Y7294824D01*
X1369656D01*
X1701851Y6962629D01*
X1716702Y6952705D01*
X1734222Y6949221D01*
X1776104D01*
X1908967Y6816357D01*
X1923819Y6806434D01*
X1941338Y6802949D01*
X2020309D01*
X2024759Y6798499D01*
X2046003Y6789700D01*
X2068997D01*
X2090241Y6798499D01*
X2106500Y6814759D01*
X2115300Y6836003D01*
Y6858997D01*
X2106500Y6880241D01*
X2090241Y6896500D01*
X2068997Y6905300D01*
X2046003D01*
X2024759Y6896500D01*
X2022767Y6894508D01*
X1960300D01*
X1827437Y7027371D01*
X1812585Y7037295D01*
X1795066Y7040779D01*
X1753184D01*
X1434398Y7359566D01*
Y7364121D01*
X1425598Y7385365D01*
X1409339Y7401624D01*
X1388095Y7410424D01*
D02*
G37*
G36*
X5610848Y6707400D02*
X5589152D01*
X5568195Y6701784D01*
X5549405Y6690936D01*
X5534064Y6675595D01*
X5523216Y6656805D01*
X5517600Y6635848D01*
Y6614152D01*
X5523216Y6593195D01*
X5534064Y6574405D01*
X5549405Y6559064D01*
X5568195Y6548216D01*
X5589152Y6542600D01*
X5610848D01*
X5631805Y6548216D01*
X5650595Y6559064D01*
X5665936Y6574405D01*
X5676784Y6593195D01*
X5682400Y6614152D01*
Y6635848D01*
X5676784Y6656805D01*
X5665936Y6675595D01*
X5650595Y6690936D01*
X5631805Y6701784D01*
X5610848Y6707400D01*
D02*
G37*
G36*
X8833771Y7315240D02*
X8766230D01*
X8699266Y7306424D01*
X8634026Y7288944D01*
X8571626Y7263096D01*
X8513134Y7229326D01*
X8459550Y7188209D01*
X8411791Y7140451D01*
X8370674Y7086866D01*
X8336904Y7028374D01*
X8311057Y6965974D01*
X8293576Y6900734D01*
X8284760Y6833771D01*
Y6766230D01*
X8293576Y6699266D01*
X8311057Y6634026D01*
X8336904Y6571626D01*
X8370674Y6513134D01*
X8411791Y6459550D01*
X8459550Y6411791D01*
X8513134Y6370674D01*
X8571626Y6336904D01*
X8634026Y6311057D01*
X8699266Y6293576D01*
X8766230Y6284760D01*
X8833771D01*
X8900734Y6293576D01*
X8965974Y6311057D01*
X9028374Y6336904D01*
X9086867Y6370674D01*
X9140451Y6411791D01*
X9188209Y6459550D01*
X9229326Y6513134D01*
X9263097Y6571626D01*
X9288944Y6634026D01*
X9306424Y6699266D01*
X9315240Y6766230D01*
Y6833771D01*
X9306424Y6900734D01*
X9288944Y6965974D01*
X9263097Y7028374D01*
X9229326Y7086866D01*
X9188209Y7140451D01*
X9140451Y7188209D01*
X9086867Y7229326D01*
X9028374Y7263096D01*
X8965974Y7288944D01*
X8900734Y7306424D01*
X8833771Y7315240D01*
D02*
G37*
G36*
X733771D02*
X666230D01*
X599266Y7306424D01*
X534026Y7288944D01*
X471626Y7263096D01*
X413134Y7229326D01*
X359550Y7188209D01*
X311791Y7140451D01*
X270674Y7086866D01*
X236904Y7028374D01*
X211057Y6965974D01*
X193576Y6900734D01*
X184760Y6833771D01*
Y6766230D01*
X193576Y6699266D01*
X211057Y6634026D01*
X236904Y6571626D01*
X270674Y6513134D01*
X311791Y6459550D01*
X359550Y6411791D01*
X413134Y6370674D01*
X471626Y6336904D01*
X534026Y6311057D01*
X599266Y6293576D01*
X666230Y6284760D01*
X733771D01*
X800734Y6293576D01*
X865974Y6311057D01*
X928374Y6336904D01*
X986866Y6370674D01*
X1040451Y6411791D01*
X1088209Y6459550D01*
X1129326Y6513134D01*
X1163096Y6571626D01*
X1188944Y6634026D01*
X1206424Y6699266D01*
X1215240Y6766230D01*
Y6833771D01*
X1206424Y6900734D01*
X1188944Y6965974D01*
X1163096Y7028374D01*
X1129326Y7086866D01*
X1088209Y7140451D01*
X1040451Y7188209D01*
X986866Y7229326D01*
X928374Y7263096D01*
X865974Y7288944D01*
X800734Y7306424D01*
X733771Y7315240D01*
D02*
G37*
G36*
X4760848Y5957400D02*
X4739152D01*
X4718195Y5951784D01*
X4699405Y5940936D01*
X4684064Y5925595D01*
X4673216Y5906805D01*
X4667600Y5885848D01*
Y5864152D01*
X4673216Y5843195D01*
X4684064Y5824405D01*
X4699405Y5809064D01*
X4718195Y5798215D01*
X4739152Y5792600D01*
X4760848D01*
X4781805Y5798215D01*
X4800595Y5809064D01*
X4815937Y5824405D01*
X4826785Y5843195D01*
X4832400Y5864152D01*
Y5885848D01*
X4826785Y5906805D01*
X4815937Y5925595D01*
X4800595Y5940936D01*
X4781805Y5951784D01*
X4760848Y5957400D01*
D02*
G37*
G36*
X5610848Y5932400D02*
X5589152D01*
X5568195Y5926784D01*
X5549405Y5915936D01*
X5534064Y5900595D01*
X5523216Y5881805D01*
X5517600Y5860848D01*
Y5839152D01*
X5523216Y5818195D01*
X5534064Y5799405D01*
X5549405Y5784064D01*
X5568195Y5773216D01*
X5589152Y5767600D01*
X5610848D01*
X5631805Y5773216D01*
X5650595Y5784064D01*
X5665936Y5799405D01*
X5676784Y5818195D01*
X5682400Y5839152D01*
Y5860848D01*
X5676784Y5881805D01*
X5665936Y5900595D01*
X5650595Y5915936D01*
X5631805Y5926784D01*
X5610848Y5932400D01*
D02*
G37*
G36*
X5560848Y4632400D02*
X5539152D01*
X5518195Y4626784D01*
X5499405Y4615936D01*
X5484064Y4600595D01*
X5473216Y4581805D01*
X5467600Y4560848D01*
Y4539152D01*
X5473216Y4518195D01*
X5484064Y4499405D01*
X5499405Y4484064D01*
X5518195Y4473216D01*
X5539152Y4467600D01*
X5560848D01*
X5581805Y4473216D01*
X5600595Y4484064D01*
X5615936Y4499405D01*
X5626785Y4518195D01*
X5632400Y4539152D01*
Y4560848D01*
X5626785Y4581805D01*
X5615936Y4600595D01*
X5600595Y4615936D01*
X5581805Y4626784D01*
X5560848Y4632400D01*
D02*
G37*
G36*
X4760848D02*
X4739152D01*
X4718195Y4626784D01*
X4699405Y4615936D01*
X4684064Y4600595D01*
X4673216Y4581805D01*
X4667600Y4560848D01*
Y4539152D01*
X4673216Y4518195D01*
X4684064Y4499405D01*
X4699405Y4484064D01*
X4718195Y4473216D01*
X4739152Y4467600D01*
X4760848D01*
X4781805Y4473216D01*
X4800595Y4484064D01*
X4815937Y4499405D01*
X4826785Y4518195D01*
X4832400Y4539152D01*
Y4560848D01*
X4826785Y4581805D01*
X4815937Y4600595D01*
X4800595Y4615936D01*
X4781805Y4626784D01*
X4760848Y4632400D01*
D02*
G37*
G36*
X8850000Y5633035D02*
X7175000D01*
X7162358Y5630520D01*
X7151641Y5623359D01*
X7051640Y5523359D01*
X7044479Y5512641D01*
X7041965Y5499999D01*
X7041965Y4650877D01*
X7044480Y4638236D01*
X7051641Y4627518D01*
X7062358Y4620357D01*
X7075000Y4617843D01*
X7409247D01*
X7419081Y4615887D01*
X7427418Y4610316D01*
X7607670Y4430064D01*
X7618387Y4422903D01*
X7629029Y4418495D01*
X7635995Y4411529D01*
X7640403Y4400887D01*
X7647564Y4390170D01*
X7780316Y4257417D01*
X7785887Y4249081D01*
X7787843Y4239247D01*
Y4098210D01*
X7790358Y4085568D01*
X7794765Y4074926D01*
Y4065074D01*
X7790995Y4055972D01*
X7784029Y4049005D01*
X7774926Y4045235D01*
X7765074D01*
X7755972Y4049005D01*
X7749005Y4055972D01*
X7745235Y4065074D01*
Y4074926D01*
X7749643Y4085568D01*
X7752157Y4098210D01*
Y4221426D01*
X7749643Y4234068D01*
X7742482Y4244785D01*
X7622331Y4364936D01*
X7611613Y4372097D01*
X7600972Y4376505D01*
X7594005Y4383472D01*
X7589597Y4394113D01*
X7582436Y4404831D01*
X7414786Y4572482D01*
X7404068Y4579643D01*
X7391426Y4582157D01*
X7075000D01*
X7062358Y4579643D01*
X7051641Y4572482D01*
X7044480Y4561764D01*
X7041965Y4549122D01*
Y4322254D01*
X7043004Y4317030D01*
X7043681Y4311745D01*
X7044255Y4310743D01*
X7044480Y4309612D01*
X7047440Y4305182D01*
X7050087Y4300560D01*
X7216965Y4108923D01*
X7216965Y3900000D01*
X7219480Y3887358D01*
X7226641Y3876641D01*
X7501641Y3601641D01*
X7512358Y3594480D01*
X7525000Y3591965D01*
X8900000D01*
X8912642Y3594480D01*
X8923359Y3601641D01*
X9023359Y3701641D01*
X9030520Y3712358D01*
X9033035Y3725000D01*
Y5450000D01*
X9030520Y5462642D01*
X9023359Y5473359D01*
X8873359Y5623359D01*
X8862642Y5630520D01*
X8850000Y5633035D01*
D02*
G37*
G36*
X5560848Y3857400D02*
X5539152D01*
X5518195Y3851785D01*
X5499405Y3840936D01*
X5484064Y3825595D01*
X5473216Y3806805D01*
X5467600Y3785848D01*
Y3764152D01*
X5473216Y3743195D01*
X5484064Y3724405D01*
X5499405Y3709064D01*
X5518195Y3698216D01*
X5539152Y3692600D01*
X5560848D01*
X5581805Y3698216D01*
X5600595Y3709064D01*
X5615936Y3724405D01*
X5626785Y3743195D01*
X5632400Y3764152D01*
Y3785848D01*
X5626785Y3806805D01*
X5615936Y3825595D01*
X5600595Y3840936D01*
X5581805Y3851785D01*
X5560848Y3857400D01*
D02*
G37*
G36*
X4760848D02*
X4739152D01*
X4718195Y3851785D01*
X4699405Y3840936D01*
X4684064Y3825595D01*
X4673216Y3806805D01*
X4667600Y3785848D01*
Y3764152D01*
X4673216Y3743195D01*
X4684064Y3724405D01*
X4699405Y3709064D01*
X4718195Y3698216D01*
X4739152Y3692600D01*
X4760848D01*
X4781805Y3698216D01*
X4800595Y3709064D01*
X4815937Y3724405D01*
X4826785Y3743195D01*
X4832400Y3764152D01*
Y3785848D01*
X4826785Y3806805D01*
X4815937Y3825595D01*
X4800595Y3840936D01*
X4781805Y3851785D01*
X4760848Y3857400D01*
D02*
G37*
G36*
X4458589Y3740240D02*
X4441411D01*
X4424818Y3735794D01*
X4409942Y3727205D01*
X4397795Y3715058D01*
X4389206Y3700182D01*
X4384760Y3683589D01*
Y3666411D01*
X4389206Y3649818D01*
X4397795Y3634942D01*
X4409942Y3622795D01*
X4424818Y3614206D01*
X4441411Y3609760D01*
X4458589D01*
X4475182Y3614206D01*
X4490058Y3622795D01*
X4502205Y3634942D01*
X4510794Y3649818D01*
X4515240Y3666411D01*
Y3683589D01*
X4510794Y3700182D01*
X4502205Y3715058D01*
X4490058Y3727205D01*
X4475182Y3735794D01*
X4458589Y3740240D01*
D02*
G37*
G36*
X3658589D02*
X3641411D01*
X3624819Y3735794D01*
X3609942Y3727205D01*
X3597795Y3715058D01*
X3589206Y3700182D01*
X3584760Y3683589D01*
Y3666411D01*
X3589206Y3649818D01*
X3597795Y3634942D01*
X3609942Y3622795D01*
X3624819Y3614206D01*
X3641411Y3609760D01*
X3658589D01*
X3675182Y3614206D01*
X3690058Y3622795D01*
X3702205Y3634942D01*
X3710794Y3649818D01*
X3715240Y3666411D01*
Y3683589D01*
X3710794Y3700182D01*
X3702205Y3715058D01*
X3690058Y3727205D01*
X3675182Y3735794D01*
X3658589Y3740240D01*
D02*
G37*
G36*
X5200000Y3500000D02*
X4560000D01*
X4510000Y3450000D01*
X4510000Y3190000D01*
X4560000Y3140000D01*
X5170000D01*
X5240000Y3210000D01*
Y3460000D01*
X5200000Y3500000D01*
D02*
G37*
G36*
X7810855Y3177740D02*
X7783145D01*
X7756379Y3170568D01*
X7732382Y3156713D01*
X7712787Y3137119D01*
X7698932Y3113121D01*
X7691760Y3086355D01*
Y3058645D01*
X7698932Y3031879D01*
X7712787Y3007881D01*
X7732382Y2988287D01*
X7756379Y2974432D01*
X7783145Y2967260D01*
X7810855D01*
X7837621Y2974432D01*
X7861619Y2988287D01*
X7881213Y3007881D01*
X7895068Y3031879D01*
X7902240Y3058645D01*
Y3086355D01*
X7895068Y3113121D01*
X7881213Y3137119D01*
X7861619Y3156713D01*
X7837621Y3170568D01*
X7810855Y3177740D01*
D02*
G37*
G36*
X8829114Y3194900D02*
X8796886D01*
X8765756Y3186559D01*
X8737845Y3170444D01*
X8715056Y3147655D01*
X8698942Y3119745D01*
X8690600Y3088614D01*
Y3056386D01*
X8695571Y3037836D01*
X8491617Y2833883D01*
X8478931Y2814897D01*
X8474476Y2792500D01*
Y2557242D01*
X7928617Y2011383D01*
X7915931Y1992396D01*
X7911476Y1970000D01*
Y1643627D01*
X7895443Y1636986D01*
X7869663Y1619760D01*
X7847740Y1597837D01*
X7830514Y1572057D01*
X7818649Y1543412D01*
X7812600Y1513003D01*
Y1481997D01*
X7818649Y1451588D01*
X7830514Y1422943D01*
X7847740Y1397163D01*
X7869663Y1375240D01*
X7895443Y1358014D01*
X7924088Y1346149D01*
X7954497Y1340100D01*
X7985503D01*
X8015912Y1346149D01*
X8044557Y1358014D01*
X8070337Y1375240D01*
X8092260Y1397163D01*
X8109486Y1422943D01*
X8121351Y1451588D01*
X8127400Y1481997D01*
Y1513003D01*
X8121351Y1543412D01*
X8109486Y1572057D01*
X8092260Y1597837D01*
X8070337Y1619760D01*
X8044557Y1636986D01*
X8028524Y1643627D01*
Y1945758D01*
X8574383Y2491617D01*
X8587070Y2510604D01*
X8591525Y2533000D01*
Y2768259D01*
X8778337Y2955071D01*
X8796886Y2950100D01*
X8829114D01*
X8860245Y2958442D01*
X8888155Y2974556D01*
X8910944Y2997345D01*
X8927059Y3025256D01*
X8935400Y3056386D01*
Y3088614D01*
X8927059Y3119745D01*
X8910944Y3147655D01*
X8888155Y3170444D01*
X8860245Y3186559D01*
X8829114Y3194900D01*
D02*
G37*
G36*
X8321114D02*
X8288886D01*
X8257756Y3186559D01*
X8229845Y3170444D01*
X8207056Y3147655D01*
X8190942Y3119745D01*
X8182600Y3088614D01*
Y3056386D01*
X8190942Y3025256D01*
X8207056Y2997345D01*
X8229845Y2974556D01*
X8257756Y2958442D01*
X8288886Y2950100D01*
X8321114D01*
X8352245Y2958442D01*
X8380155Y2974556D01*
X8402944Y2997345D01*
X8419059Y3025256D01*
X8427400Y3056386D01*
Y3088614D01*
X8419059Y3119745D01*
X8402944Y3147655D01*
X8380155Y3170444D01*
X8352245Y3186559D01*
X8321114Y3194900D01*
D02*
G37*
G36*
X4458589Y2965240D02*
X4441411D01*
X4424818Y2960794D01*
X4409942Y2952205D01*
X4397795Y2940058D01*
X4389206Y2925182D01*
X4384760Y2908589D01*
Y2891411D01*
X4389206Y2874818D01*
X4397795Y2859942D01*
X4409942Y2847795D01*
X4424818Y2839206D01*
X4441411Y2834760D01*
X4458589D01*
X4475182Y2839206D01*
X4490058Y2847795D01*
X4502205Y2859942D01*
X4510794Y2874818D01*
X4515240Y2891411D01*
Y2908589D01*
X4510794Y2925182D01*
X4502205Y2940058D01*
X4490058Y2952205D01*
X4475182Y2960794D01*
X4458589Y2965240D01*
D02*
G37*
G36*
X3658589D02*
X3641411D01*
X3624819Y2960794D01*
X3609942Y2952205D01*
X3597795Y2940058D01*
X3589206Y2925182D01*
X3584760Y2908589D01*
Y2891411D01*
X3589206Y2874818D01*
X3597795Y2859942D01*
X3609942Y2847795D01*
X3624819Y2839206D01*
X3641411Y2834760D01*
X3658589D01*
X3675182Y2839206D01*
X3690058Y2847795D01*
X3702205Y2859942D01*
X3710794Y2874818D01*
X3715240Y2891411D01*
Y2908589D01*
X3710794Y2925182D01*
X3702205Y2940058D01*
X3690058Y2952205D01*
X3675182Y2960794D01*
X3658589Y2965240D01*
D02*
G37*
G36*
X5139158Y2989900D02*
X5095842D01*
X5053358Y2981449D01*
X5013338Y2964873D01*
X4977322Y2940807D01*
X4946693Y2910178D01*
X4922627Y2874162D01*
X4906051Y2834142D01*
X4897600Y2791658D01*
Y2748342D01*
X4906051Y2705858D01*
X4922627Y2665838D01*
X4946693Y2629822D01*
X4977322Y2599193D01*
X5013338Y2575127D01*
X5053358Y2558551D01*
X5095842Y2550100D01*
X5139158D01*
X5181642Y2558551D01*
X5221662Y2575127D01*
X5257678Y2599193D01*
X5288307Y2629822D01*
X5312373Y2665838D01*
X5328949Y2705858D01*
X5337400Y2748342D01*
Y2791658D01*
X5328949Y2834142D01*
X5312373Y2874162D01*
X5288307Y2910178D01*
X5257678Y2940807D01*
X5221662Y2964873D01*
X5181642Y2981449D01*
X5139158Y2989900D01*
D02*
G37*
G36*
X6225000Y3750000D02*
X5925000D01*
X5450000Y3275000D01*
Y2575000D01*
X5300000Y2425000D01*
X4900000Y2425000D01*
X4800000Y2325000D01*
X4800000Y2225000D01*
X4875000Y2150000D01*
X5400000D01*
X5625000Y2375000D01*
Y2949999D01*
X5875000Y3200000D01*
X6175000D01*
X6275000Y3300000D01*
Y3700000D01*
X6225000Y3750000D01*
D02*
G37*
G36*
X2321658Y2579900D02*
X2278342D01*
X2235858Y2571450D01*
X2195838Y2554873D01*
X2159822Y2530807D01*
X2129193Y2500178D01*
X2105127Y2464162D01*
X2088551Y2424142D01*
X2080100Y2381658D01*
Y2338342D01*
X2088551Y2295858D01*
X2105127Y2255839D01*
X2129193Y2219822D01*
X2159822Y2189193D01*
X2195838Y2165127D01*
X2235858Y2148551D01*
X2278342Y2140100D01*
X2321658D01*
X2364142Y2148551D01*
X2404162Y2165127D01*
X2440178Y2189193D01*
X2470807Y2219822D01*
X2494873Y2255839D01*
X2511449Y2295858D01*
X2519900Y2338342D01*
Y2381658D01*
X2511449Y2424142D01*
X2494873Y2464162D01*
X2470807Y2500178D01*
X2440178Y2530807D01*
X2404162Y2554873D01*
X2364142Y2571450D01*
X2321658Y2579900D01*
D02*
G37*
G36*
X9125000Y2850000D02*
X8925000D01*
X8750000Y2675000D01*
Y2325000D01*
X8350000Y1924999D01*
Y1425000D01*
X8400000Y1375000D01*
X8575000Y1375000D01*
X9200000Y2000000D01*
X9200000Y2775000D01*
X9125000Y2850000D01*
D02*
G37*
G36*
X2321658Y1779900D02*
X2278342D01*
X2235858Y1771450D01*
X2195838Y1754873D01*
X2159822Y1730808D01*
X2129193Y1700178D01*
X2105127Y1664162D01*
X2088551Y1624143D01*
X2080100Y1581659D01*
Y1538342D01*
X2088551Y1495858D01*
X2105127Y1455839D01*
X2129193Y1419822D01*
X2159822Y1389193D01*
X2195838Y1365127D01*
X2235858Y1348551D01*
X2278342Y1340100D01*
X2321658D01*
X2364142Y1348551D01*
X2404162Y1365127D01*
X2440178Y1389193D01*
X2470807Y1419822D01*
X2494873Y1455839D01*
X2511449Y1495858D01*
X2519900Y1538342D01*
Y1581659D01*
X2511449Y1624143D01*
X2494873Y1664162D01*
X2470807Y1700178D01*
X2440178Y1730808D01*
X2404162Y1754873D01*
X2364142Y1771450D01*
X2321658Y1779900D01*
D02*
G37*
G36*
X7225503Y1654900D02*
X7194497D01*
X7164088Y1648851D01*
X7135443Y1636986D01*
X7109663Y1619760D01*
X7087740Y1597837D01*
X7070514Y1572057D01*
X7058649Y1543412D01*
X7052600Y1513003D01*
Y1481997D01*
X7058649Y1451588D01*
X7070514Y1422943D01*
X7087740Y1397163D01*
X7109663Y1375240D01*
X7135443Y1358014D01*
X7164088Y1346149D01*
X7194497Y1340100D01*
X7225503D01*
X7255912Y1346149D01*
X7284557Y1358014D01*
X7310337Y1375240D01*
X7332260Y1397163D01*
X7349486Y1422943D01*
X7361351Y1451588D01*
X7367400Y1481997D01*
Y1513003D01*
X7361351Y1543412D01*
X7349486Y1572057D01*
X7332260Y1597837D01*
X7310337Y1619760D01*
X7284557Y1636986D01*
X7255912Y1648851D01*
X7225503Y1654900D01*
D02*
G37*
G36*
X5325503D02*
X5294497D01*
X5264088Y1648851D01*
X5235443Y1636986D01*
X5209663Y1619760D01*
X5187740Y1597837D01*
X5170514Y1572057D01*
X5158649Y1543412D01*
X5152600Y1513003D01*
Y1481997D01*
X5158649Y1451588D01*
X5170514Y1422943D01*
X5187740Y1397163D01*
X5209663Y1375240D01*
X5235443Y1358014D01*
X5264088Y1346149D01*
X5294497Y1340100D01*
X5325503D01*
X5355912Y1346149D01*
X5384557Y1358014D01*
X5410337Y1375240D01*
X5432260Y1397163D01*
X5449486Y1422943D01*
X5461351Y1451588D01*
X5467400Y1481997D01*
Y1513003D01*
X5461351Y1543412D01*
X5449486Y1572057D01*
X5432260Y1597837D01*
X5410337Y1619760D01*
X5384557Y1636986D01*
X5355912Y1648851D01*
X5325503Y1654900D01*
D02*
G37*
G36*
X4565503D02*
X4534497D01*
X4504088Y1648851D01*
X4475443Y1636986D01*
X4449663Y1619760D01*
X4427740Y1597837D01*
X4410514Y1572057D01*
X4398649Y1543412D01*
X4392600Y1513003D01*
Y1481997D01*
X4398649Y1451588D01*
X4410514Y1422943D01*
X4427740Y1397163D01*
X4449663Y1375240D01*
X4475443Y1358014D01*
X4504088Y1346149D01*
X4534497Y1340100D01*
X4565503D01*
X4595912Y1346149D01*
X4624557Y1358014D01*
X4650337Y1375240D01*
X4672260Y1397163D01*
X4689486Y1422943D01*
X4701351Y1451588D01*
X4707400Y1481997D01*
Y1513003D01*
X4701351Y1543412D01*
X4689486Y1572057D01*
X4672260Y1597837D01*
X4650337Y1619760D01*
X4624557Y1636986D01*
X4595912Y1648851D01*
X4565503Y1654900D01*
D02*
G37*
G36*
X8150000Y2925000D02*
X7875000D01*
X7725000Y2775000D01*
Y2175000D01*
X7600000Y2050000D01*
Y1350000D01*
X7625000Y1325000D01*
X7725000D01*
X7750000Y1350000D01*
Y2000000D01*
X8275000Y2525000D01*
Y2800000D01*
X8150000Y2925000D01*
D02*
G37*
G36*
X5939158Y2989900D02*
X5895842D01*
X5853358Y2981449D01*
X5813338Y2964873D01*
X5777322Y2940807D01*
X5746693Y2910178D01*
X5722627Y2874162D01*
X5706051Y2834142D01*
X5697600Y2791658D01*
Y2748342D01*
X5706051Y2705858D01*
X5722627Y2665838D01*
X5746693Y2629822D01*
X5777322Y2599193D01*
X5813338Y2575127D01*
X5853358Y2558551D01*
X5858976Y2557433D01*
Y2366742D01*
X5550759Y2058524D01*
X1800000D01*
X1777604Y2054070D01*
X1758617Y2041383D01*
X1383617Y1666383D01*
X1370931Y1647397D01*
X1366476Y1625000D01*
Y1583007D01*
X1359064Y1575595D01*
X1348216Y1556805D01*
X1342600Y1535848D01*
Y1514152D01*
X1348216Y1493195D01*
X1359064Y1474405D01*
X1374405Y1459064D01*
X1383843Y1453615D01*
Y1436017D01*
X1379447Y1433480D01*
X1367301Y1421333D01*
X1358712Y1406456D01*
X1354266Y1389864D01*
Y1372686D01*
X1358712Y1356093D01*
X1367301Y1341217D01*
X1379447Y1329070D01*
X1394324Y1320481D01*
X1410916Y1316035D01*
X1428094D01*
X1444687Y1320481D01*
X1459564Y1329070D01*
X1471710Y1341217D01*
X1480299Y1356093D01*
X1484745Y1372686D01*
Y1389864D01*
X1480299Y1406456D01*
X1471710Y1421333D01*
X1459564Y1433479D01*
X1458792Y1437602D01*
X1460663Y1450443D01*
X1475595Y1459064D01*
X1490937Y1474405D01*
X1501785Y1493195D01*
X1507400Y1514152D01*
Y1535848D01*
X1501785Y1556805D01*
X1490937Y1575595D01*
X1483525Y1583007D01*
Y1600759D01*
X1824242Y1941476D01*
X5575000D01*
X5597396Y1945931D01*
X5616383Y1958617D01*
X5958883Y2301117D01*
X5971569Y2320104D01*
X5976024Y2342500D01*
Y2557433D01*
X5981642Y2558551D01*
X6021662Y2575127D01*
X6057678Y2599193D01*
X6088307Y2629822D01*
X6112373Y2665838D01*
X6128949Y2705858D01*
X6137400Y2748342D01*
Y2791658D01*
X6128949Y2834142D01*
X6112373Y2874162D01*
X6088307Y2910178D01*
X6057678Y2940807D01*
X6021662Y2964873D01*
X5981642Y2981449D01*
X5939158Y2989900D01*
D02*
G37*
G36*
X5235848Y1057400D02*
X5214152D01*
X5193195Y1051785D01*
X5174405Y1040936D01*
X5159064Y1025595D01*
X5148216Y1006805D01*
X5142600Y985848D01*
Y964152D01*
X5148216Y943195D01*
X5159064Y924405D01*
X5174405Y909064D01*
X5193195Y898216D01*
X5214152Y892600D01*
X5235848D01*
X5256805Y898216D01*
X5275595Y909064D01*
X5290936Y924405D01*
X5301784Y943195D01*
X5307400Y964152D01*
Y985848D01*
X5301784Y1006805D01*
X5290936Y1025595D01*
X5275595Y1040936D01*
X5256805Y1051785D01*
X5235848Y1057400D01*
D02*
G37*
G36*
X4460848D02*
X4439152D01*
X4418195Y1051785D01*
X4399405Y1040936D01*
X4384064Y1025595D01*
X4373216Y1006805D01*
X4367600Y985848D01*
Y964152D01*
X4373216Y943195D01*
X4384064Y924405D01*
X4399405Y909064D01*
X4418195Y898216D01*
X4439152Y892600D01*
X4460848D01*
X4481805Y898216D01*
X4500595Y909064D01*
X4515936Y924405D01*
X4526784Y943195D01*
X4532400Y964152D01*
Y985848D01*
X4526784Y1006805D01*
X4515936Y1025595D01*
X4500595Y1040936D01*
X4481805Y1051785D01*
X4460848Y1057400D01*
D02*
G37*
G36*
X4060848D02*
X4039152D01*
X4018195Y1051785D01*
X3999405Y1040936D01*
X3984064Y1025595D01*
X3973216Y1006805D01*
X3967600Y985848D01*
Y964152D01*
X3973216Y943195D01*
X3984064Y924405D01*
X3999405Y909064D01*
X4018195Y898216D01*
X4039152Y892600D01*
X4060848D01*
X4081805Y898216D01*
X4100595Y909064D01*
X4115936Y924405D01*
X4126784Y943195D01*
X4132400Y964152D01*
Y985848D01*
X4126784Y1006805D01*
X4115936Y1025595D01*
X4100595Y1040936D01*
X4081805Y1051785D01*
X4060848Y1057400D01*
D02*
G37*
G36*
X3285848D02*
X3264152D01*
X3243195Y1051785D01*
X3224405Y1040936D01*
X3209064Y1025595D01*
X3198216Y1006805D01*
X3192600Y985848D01*
Y964152D01*
X3198216Y943195D01*
X3209064Y924405D01*
X3224405Y909064D01*
X3243195Y898216D01*
X3264152Y892600D01*
X3285848D01*
X3306805Y898216D01*
X3325595Y909064D01*
X3340936Y924405D01*
X3351785Y943195D01*
X3357400Y964152D01*
Y985848D01*
X3351785Y1006805D01*
X3340936Y1025595D01*
X3325595Y1040936D01*
X3306805Y1051785D01*
X3285848Y1057400D01*
D02*
G37*
G36*
X6150000Y2275000D02*
X6100000D01*
X5625000Y1800000D01*
Y1000000D01*
Y925000D01*
X5675000Y875000D01*
X5750000D01*
X6175000Y1300000D01*
Y2250000D01*
X6150000Y2275000D01*
D02*
G37*
G36*
X6639158Y3439900D02*
X6595842D01*
X6553358Y3431450D01*
X6513339Y3414873D01*
X6477322Y3390808D01*
X6446693Y3360178D01*
X6422627Y3324162D01*
X6406051Y3284143D01*
X6397600Y3241658D01*
Y3198342D01*
X6406051Y3155858D01*
X6422627Y3115839D01*
X6425810Y3111076D01*
X6331217Y3016483D01*
X6318531Y2997497D01*
X6314076Y2975100D01*
Y2668559D01*
X6318531Y2646163D01*
X6318976Y2645497D01*
Y1791991D01*
X6316476Y1779424D01*
Y1223865D01*
X5823635Y731024D01*
X2961742D01*
X2941691Y751075D01*
X2944873Y755838D01*
X2961450Y795858D01*
X2969900Y838342D01*
Y881658D01*
X2961450Y924142D01*
X2944873Y964162D01*
X2920807Y1000178D01*
X2890178Y1030807D01*
X2854162Y1054873D01*
X2814142Y1071449D01*
X2771658Y1079900D01*
X2728342D01*
X2685858Y1071449D01*
X2645838Y1054873D01*
X2609822Y1030807D01*
X2579193Y1000178D01*
X2555127Y964162D01*
X2538551Y924142D01*
X2532769Y895078D01*
X2517231D01*
X2511449Y924142D01*
X2494873Y964162D01*
X2470807Y1000178D01*
X2440178Y1030807D01*
X2404162Y1054873D01*
X2364142Y1071449D01*
X2321658Y1079900D01*
X2278342D01*
X2235858Y1071449D01*
X2195838Y1054873D01*
X2159822Y1030807D01*
X2129193Y1000178D01*
X2105127Y964162D01*
X2088551Y924142D01*
X2082769Y895078D01*
X2067231D01*
X2061449Y924142D01*
X2044873Y964162D01*
X2020807Y1000178D01*
X1990178Y1030807D01*
X1954161Y1054873D01*
X1914142Y1071449D01*
X1871658Y1079900D01*
X1828342D01*
X1785857Y1071449D01*
X1745838Y1054873D01*
X1709822Y1030807D01*
X1679192Y1000178D01*
X1655127Y964162D01*
X1638550Y924142D01*
X1630100Y881658D01*
Y838342D01*
X1638550Y795858D01*
X1655127Y755838D01*
X1679192Y719822D01*
X1709822Y689193D01*
X1745838Y665127D01*
X1785857Y648551D01*
X1828342Y640100D01*
X1871658D01*
X1914142Y648551D01*
X1954161Y665127D01*
X1958924Y668310D01*
X2063617Y563617D01*
X2082604Y550931D01*
X2105000Y546476D01*
X5872300D01*
X5894697Y550931D01*
X5913683Y563617D01*
X5915260Y565194D01*
X5916283Y565877D01*
X6484123Y1133718D01*
X6496809Y1152704D01*
X6501264Y1175101D01*
Y1730998D01*
X6981383Y2211117D01*
X6994070Y2230103D01*
X6998524Y2252500D01*
Y2456470D01*
X6994070Y2478866D01*
X6984123Y2493752D01*
X6984900Y2496652D01*
Y2518348D01*
X6979284Y2539305D01*
X6968436Y2558095D01*
X6953095Y2573436D01*
X6934305Y2584284D01*
X6913348Y2589900D01*
X6891652D01*
X6870695Y2584284D01*
X6851905Y2573436D01*
X6836564Y2558095D01*
X6825716Y2539305D01*
X6820100Y2518348D01*
Y2496652D01*
X6825716Y2475695D01*
X6836564Y2456905D01*
X6851905Y2441564D01*
X6870695Y2430715D01*
X6881476Y2427827D01*
Y2276741D01*
X6834735Y2230001D01*
X6821815Y2238634D01*
X6828950Y2255858D01*
X6837400Y2298342D01*
Y2341658D01*
X6828950Y2384142D01*
X6812373Y2424162D01*
X6788307Y2460178D01*
X6757678Y2490807D01*
X6721662Y2514873D01*
X6681642Y2531449D01*
X6652578Y2537231D01*
Y2552769D01*
X6681642Y2558551D01*
X6721662Y2575127D01*
X6757678Y2599193D01*
X6788307Y2629822D01*
X6812373Y2665838D01*
X6828950Y2705858D01*
X6837400Y2748342D01*
Y2791658D01*
X6828950Y2834142D01*
X6812373Y2874162D01*
X6788307Y2910178D01*
X6757678Y2940807D01*
X6721662Y2964873D01*
X6681642Y2981449D01*
X6652578Y2987231D01*
Y3002769D01*
X6681642Y3008551D01*
X6721662Y3025127D01*
X6757678Y3049193D01*
X6788307Y3079822D01*
X6812373Y3115839D01*
X6828950Y3155858D01*
X6837400Y3198342D01*
Y3241658D01*
X6828950Y3284143D01*
X6812373Y3324162D01*
X6788307Y3360178D01*
X6757678Y3390808D01*
X6721662Y3414873D01*
X6681642Y3431450D01*
X6639158Y3439900D01*
D02*
G37*
G36*
X6872500Y4225903D02*
X6831843Y4221899D01*
X6792748Y4210040D01*
X6756717Y4190781D01*
X6725137Y4164863D01*
X6699219Y4133283D01*
X6679960Y4097252D01*
X6668101Y4058157D01*
X6664097Y4017500D01*
Y3792882D01*
X6661597Y3767500D01*
X6665601Y3726843D01*
X6677461Y3687747D01*
X6696719Y3651717D01*
X6722637Y3620137D01*
X7061597Y3281177D01*
Y2209768D01*
X6667637Y1815808D01*
X6641719Y1784227D01*
X6622460Y1748197D01*
X6610601Y1709102D01*
X6606597Y1668444D01*
Y1107500D01*
X6610601Y1066842D01*
X6622460Y1027747D01*
X6624305Y1024296D01*
X6624305Y448524D01*
X1786742D01*
X1581025Y654242D01*
Y1027500D01*
X1576570Y1049897D01*
X1563883Y1068883D01*
X1241383Y1391383D01*
X1222397Y1404070D01*
X1200000Y1408524D01*
X363530D01*
X345233Y1404885D01*
X335848Y1407400D01*
X314152D01*
X293195Y1401784D01*
X274405Y1390936D01*
X259064Y1375595D01*
X248216Y1356805D01*
X242600Y1335848D01*
Y1314152D01*
X248216Y1293195D01*
X259064Y1274405D01*
X274405Y1259064D01*
X293195Y1248215D01*
X314152Y1242600D01*
X335848D01*
X356805Y1248215D01*
X375595Y1259064D01*
X390936Y1274405D01*
X400792Y1291476D01*
X1175759D01*
X1463976Y1003259D01*
Y630000D01*
X1468431Y607604D01*
X1481117Y588617D01*
X1721117Y348617D01*
X1740104Y335930D01*
X1762500Y331476D01*
X6624305D01*
Y161839D01*
X6626820Y149197D01*
X6633981Y138480D01*
X6686583Y85878D01*
X6697300Y78717D01*
X6709942Y76202D01*
X8159237D01*
X8171879Y78717D01*
X8182596Y85878D01*
X8248359Y151641D01*
X8255520Y162358D01*
X8258035Y174999D01*
Y1055239D01*
X8255520Y1067881D01*
X8248359Y1078598D01*
X8163921Y1163036D01*
X8153204Y1170197D01*
X8140562Y1172712D01*
X7044515D01*
X7023404Y1193823D01*
Y1582121D01*
X7392364Y1951081D01*
X7410927Y1973700D01*
X7417364Y1980137D01*
X7443282Y2011717D01*
X7462540Y2047747D01*
X7474399Y2086843D01*
X7478404Y2127500D01*
Y3367500D01*
X7474399Y3408158D01*
X7462540Y3447252D01*
X7443282Y3483283D01*
X7417364Y3514863D01*
X7080904Y3851324D01*
Y4017500D01*
X7076899Y4058157D01*
X7065040Y4097252D01*
X7045781Y4133283D01*
X7019864Y4164863D01*
X6988283Y4190781D01*
X6952253Y4210040D01*
X6913158Y4221899D01*
X6872500Y4225903D01*
D02*
G37*
G36*
X8833771Y1215240D02*
X8766230D01*
X8699266Y1206424D01*
X8634026Y1188944D01*
X8571626Y1163096D01*
X8513134Y1129326D01*
X8459550Y1088209D01*
X8411791Y1040451D01*
X8370674Y986866D01*
X8336904Y928374D01*
X8311057Y865974D01*
X8293576Y800734D01*
X8284760Y733771D01*
Y666230D01*
X8293576Y599266D01*
X8311057Y534026D01*
X8336904Y471626D01*
X8370674Y413134D01*
X8411791Y359550D01*
X8459550Y311791D01*
X8513134Y270674D01*
X8571626Y236904D01*
X8634026Y211057D01*
X8699266Y193576D01*
X8766230Y184760D01*
X8833771D01*
X8900734Y193576D01*
X8965974Y211057D01*
X9028374Y236904D01*
X9086867Y270674D01*
X9140451Y311791D01*
X9188209Y359550D01*
X9229326Y413134D01*
X9263097Y471626D01*
X9288944Y534026D01*
X9306424Y599266D01*
X9315240Y666230D01*
Y733771D01*
X9306424Y800734D01*
X9288944Y865974D01*
X9263097Y928374D01*
X9229326Y986866D01*
X9188209Y1040451D01*
X9140451Y1088209D01*
X9086867Y1129326D01*
X9028374Y1163096D01*
X8965974Y1188944D01*
X8900734Y1206424D01*
X8833771Y1215240D01*
D02*
G37*
G36*
X733771D02*
X666230D01*
X599266Y1206424D01*
X534026Y1188944D01*
X471626Y1163096D01*
X413134Y1129326D01*
X359550Y1088209D01*
X311791Y1040451D01*
X270674Y986866D01*
X236904Y928374D01*
X211057Y865974D01*
X193576Y800734D01*
X184760Y733771D01*
Y666230D01*
X193576Y599266D01*
X211057Y534026D01*
X236904Y471626D01*
X270674Y413134D01*
X311791Y359550D01*
X359550Y311791D01*
X413134Y270674D01*
X471626Y236904D01*
X534026Y211057D01*
X599266Y193576D01*
X666230Y184760D01*
X733771D01*
X800734Y193576D01*
X865974Y211057D01*
X928374Y236904D01*
X986866Y270674D01*
X1040451Y311791D01*
X1088209Y359550D01*
X1129326Y413134D01*
X1163096Y471626D01*
X1188944Y534026D01*
X1206424Y599266D01*
X1215240Y666230D01*
Y733771D01*
X1206424Y800734D01*
X1188944Y865974D01*
X1163096Y928374D01*
X1129326Y986866D01*
X1088209Y1040451D01*
X1040451Y1088209D01*
X986866Y1129326D01*
X928374Y1163096D01*
X865974Y1188944D01*
X800734Y1206424D01*
X733771Y1215240D01*
D02*
G37*
G36*
X5235848Y282400D02*
X5214152D01*
X5193195Y276785D01*
X5174405Y265936D01*
X5159064Y250595D01*
X5148216Y231805D01*
X5142600Y210848D01*
Y189152D01*
X5148216Y168195D01*
X5159064Y149405D01*
X5174405Y134064D01*
X5193195Y123216D01*
X5214152Y117600D01*
X5235848D01*
X5256805Y123216D01*
X5275595Y134064D01*
X5290936Y149405D01*
X5301784Y168195D01*
X5307400Y189152D01*
Y210848D01*
X5301784Y231805D01*
X5290936Y250595D01*
X5275595Y265936D01*
X5256805Y276785D01*
X5235848Y282400D01*
D02*
G37*
G36*
X4460848D02*
X4439152D01*
X4418195Y276785D01*
X4399405Y265936D01*
X4384064Y250595D01*
X4373216Y231805D01*
X4367600Y210848D01*
Y189152D01*
X4373216Y168195D01*
X4384064Y149405D01*
X4399405Y134064D01*
X4418195Y123216D01*
X4439152Y117600D01*
X4460848D01*
X4481805Y123216D01*
X4500595Y134064D01*
X4515936Y149405D01*
X4526784Y168195D01*
X4532400Y189152D01*
Y210848D01*
X4526784Y231805D01*
X4515936Y250595D01*
X4500595Y265936D01*
X4481805Y276785D01*
X4460848Y282400D01*
D02*
G37*
G36*
X4060848D02*
X4039152D01*
X4018195Y276785D01*
X3999405Y265936D01*
X3984064Y250595D01*
X3973216Y231805D01*
X3967600Y210848D01*
Y189152D01*
X3973216Y168195D01*
X3984064Y149405D01*
X3999405Y134064D01*
X4018195Y123216D01*
X4039152Y117600D01*
X4060848D01*
X4081805Y123216D01*
X4100595Y134064D01*
X4115936Y149405D01*
X4126784Y168195D01*
X4132400Y189152D01*
Y210848D01*
X4126784Y231805D01*
X4115936Y250595D01*
X4100595Y265936D01*
X4081805Y276785D01*
X4060848Y282400D01*
D02*
G37*
G36*
X3285848D02*
X3264152D01*
X3243195Y276785D01*
X3224405Y265936D01*
X3209064Y250595D01*
X3198216Y231805D01*
X3192600Y210848D01*
Y189152D01*
X3198216Y168195D01*
X3209064Y149405D01*
X3224405Y134064D01*
X3243195Y123216D01*
X3264152Y117600D01*
X3285848D01*
X3306805Y123216D01*
X3325595Y134064D01*
X3340936Y149405D01*
X3351785Y168195D01*
X3357400Y189152D01*
Y210848D01*
X3351785Y231805D01*
X3340936Y250595D01*
X3325595Y265936D01*
X3306805Y276785D01*
X3285848Y282400D01*
D02*
G37*
%LPD*%
G36*
X6535000Y11092500D02*
X6758472Y11094903D01*
X6767500Y11085971D01*
Y11030000D01*
X6845000Y10952500D01*
Y10755000D01*
X6675000D01*
X6637500Y10717500D01*
Y10425000D01*
X6615000Y10402500D01*
X6252500D01*
X6187500Y10337500D01*
X5975000D01*
X5927500Y10385000D01*
Y10988682D01*
X6267500Y11322500D01*
X6305000D01*
X6535000Y11092500D01*
D02*
G37*
G36*
X5075000Y12499999D02*
Y9593381D01*
X4880000D01*
X4867225Y9590840D01*
X4856396Y9583604D01*
X4763896Y9491104D01*
X4756660Y9480274D01*
X4754119Y9467500D01*
Y9171327D01*
X4721173Y9138381D01*
X4385000D01*
X4372226Y9135840D01*
X4361396Y9128604D01*
X4086173Y8853381D01*
X3592500D01*
X3579726Y8850840D01*
X3568896Y8843604D01*
X3533432Y8808140D01*
X3531916D01*
X3516979Y8801953D01*
X3505547Y8790521D01*
X3499360Y8775584D01*
Y8759416D01*
X3505547Y8744479D01*
X3516979Y8733047D01*
X3531916Y8726860D01*
X3548084D01*
X3563021Y8733047D01*
X3574453Y8744479D01*
X3580640Y8759416D01*
Y8760932D01*
X3606327Y8786619D01*
X4100000D01*
X4112774Y8789160D01*
X4123604Y8796396D01*
X4398827Y9071619D01*
X4735000D01*
X4747774Y9074160D01*
X4758604Y9081396D01*
X4811104Y9133896D01*
X4818340Y9144726D01*
X4820881Y9157500D01*
Y9453673D01*
X4893827Y9526619D01*
X5075000D01*
Y8850000D01*
X4925000Y8700000D01*
X3990000D01*
X3585000Y8295000D01*
Y8060000D01*
X2975000Y7450000D01*
X2127668D01*
X1927500Y7650168D01*
Y8262500D01*
X1925000Y11775000D01*
X2025000Y11875000D01*
Y12225000D01*
X2525000Y12725000D01*
X4850000D01*
X5075000Y12499999D01*
D02*
G37*
%LPC*%
G36*
X2771089Y12547740D02*
X2753911D01*
X2737318Y12543294D01*
X2722442Y12534705D01*
X2710295Y12522558D01*
X2701706Y12507682D01*
X2697260Y12491089D01*
Y12473911D01*
X2701706Y12457318D01*
X2710295Y12442442D01*
X2722442Y12430295D01*
X2737318Y12421706D01*
X2753911Y12417260D01*
X2771089D01*
X2787681Y12421706D01*
X2802558Y12430295D01*
X2813735Y12441472D01*
X2962381D01*
X2978082Y12444595D01*
X2991393Y12453489D01*
X2992116Y12454212D01*
X3624760D01*
Y12446411D01*
X3629206Y12429818D01*
X3637795Y12414942D01*
X3649942Y12402795D01*
X3664818Y12394206D01*
X3681411Y12389760D01*
X3698589D01*
X3715182Y12394206D01*
X3730058Y12402795D01*
X3742205Y12414942D01*
X3750794Y12429818D01*
X3755240Y12446411D01*
Y12463589D01*
X3750794Y12480182D01*
X3742205Y12495058D01*
X3730058Y12507205D01*
X3715182Y12515794D01*
X3698589Y12520240D01*
X3681411D01*
X3680521Y12520001D01*
X3676271Y12524252D01*
X3662961Y12533145D01*
X3647260Y12536269D01*
X2975121D01*
X2959420Y12533145D01*
X2946110Y12524252D01*
X2945387Y12523528D01*
X2813735D01*
X2802558Y12534705D01*
X2787681Y12543294D01*
X2771089Y12547740D01*
D02*
G37*
G36*
X3583589Y12215240D02*
X3566411D01*
X3549818Y12210794D01*
X3534942Y12202205D01*
X3522795Y12190058D01*
X3514206Y12175182D01*
X3509760Y12158589D01*
Y12141411D01*
X3514206Y12124819D01*
X3522795Y12109942D01*
X3524405Y12108332D01*
Y12107427D01*
X3208006Y11791028D01*
X3046284D01*
X2983301Y11854011D01*
X2969991Y11862905D01*
X2954290Y11866028D01*
X2625000D01*
X2609299Y11862905D01*
X2595989Y11854011D01*
X2495989Y11754011D01*
X2495666Y11753528D01*
X2303735D01*
X2292558Y11764705D01*
X2277681Y11773294D01*
X2261089Y11777740D01*
X2243911D01*
X2227318Y11773294D01*
X2212442Y11764705D01*
X2200295Y11752558D01*
X2191706Y11737682D01*
X2187260Y11721089D01*
Y11703911D01*
X2191706Y11687319D01*
X2200295Y11672442D01*
X2212442Y11660295D01*
X2227318Y11651706D01*
X2243911Y11647260D01*
X2261089D01*
X2277681Y11651706D01*
X2292558Y11660295D01*
X2303735Y11671472D01*
X2478972D01*
Y11463735D01*
X2467795Y11452558D01*
X2459206Y11437681D01*
X2454760Y11421089D01*
Y11403911D01*
X2459206Y11387318D01*
X2467795Y11372442D01*
X2479942Y11360295D01*
X2494818Y11351706D01*
X2511411Y11347260D01*
X2528589D01*
X2529084Y11347393D01*
X2541472Y11336984D01*
Y10611235D01*
X2530295Y10600058D01*
X2521706Y10585182D01*
X2517260Y10568589D01*
Y10551411D01*
X2521706Y10534818D01*
X2530295Y10519942D01*
X2541472Y10508765D01*
Y10367500D01*
X2544595Y10351799D01*
X2553489Y10338489D01*
X2634760Y10257217D01*
Y10241411D01*
X2639206Y10224819D01*
X2647795Y10209942D01*
X2659942Y10197795D01*
X2674818Y10189206D01*
X2691411Y10184760D01*
X2708589D01*
X2725181Y10189206D01*
X2740058Y10197795D01*
X2752205Y10209942D01*
X2760794Y10224819D01*
X2765240Y10241411D01*
Y10258589D01*
X2760794Y10275182D01*
X2752205Y10290058D01*
X2740058Y10302205D01*
X2725181Y10310794D01*
X2708589Y10315240D01*
X2692783D01*
X2623528Y10384494D01*
Y10508765D01*
X2634705Y10519942D01*
X2643294Y10534818D01*
X2647740Y10551411D01*
Y10568589D01*
X2643294Y10585182D01*
X2634705Y10600058D01*
X2623528Y10611235D01*
Y11357500D01*
X2620405Y11373201D01*
X2611511Y11386511D01*
X2585240Y11412783D01*
Y11421089D01*
X2580794Y11437681D01*
X2572205Y11452558D01*
X2561028Y11463735D01*
Y11703006D01*
X2641994Y11783972D01*
X2937295D01*
X2988261Y11733006D01*
Y11120710D01*
X2991384Y11105009D01*
X3000278Y11091699D01*
X3083972Y11008005D01*
Y10875000D01*
X3087095Y10859299D01*
X3095989Y10845988D01*
X3259760Y10682217D01*
Y10666411D01*
X3264206Y10649818D01*
X3272795Y10634942D01*
X3284942Y10622795D01*
X3299818Y10614206D01*
X3316411Y10609760D01*
X3332217D01*
X3362112Y10579866D01*
Y10346860D01*
X3365235Y10331159D01*
X3374129Y10317849D01*
X3434760Y10257217D01*
Y10241411D01*
X3439206Y10224819D01*
X3447795Y10209942D01*
X3459942Y10197795D01*
X3474819Y10189206D01*
X3491411Y10184760D01*
X3507217D01*
X3508972Y10183006D01*
Y9531235D01*
X3497795Y9520058D01*
X3489206Y9505182D01*
X3484760Y9488589D01*
Y9471411D01*
X3489206Y9454819D01*
X3497795Y9439942D01*
X3509942Y9427795D01*
X3524818Y9419206D01*
X3541411Y9414760D01*
X3558589D01*
X3575182Y9419206D01*
X3590058Y9427795D01*
X3602205Y9439942D01*
X3610794Y9454819D01*
X3615240Y9471411D01*
Y9488589D01*
X3610794Y9505182D01*
X3602205Y9520058D01*
X3591028Y9531235D01*
Y10200000D01*
X3587905Y10215701D01*
X3579011Y10229011D01*
X3565240Y10242783D01*
Y10258589D01*
X3560794Y10275182D01*
X3552205Y10290058D01*
X3540058Y10302205D01*
X3525182Y10310794D01*
X3508589Y10315240D01*
X3492783D01*
X3444168Y10363854D01*
Y10596860D01*
X3441045Y10612561D01*
X3432151Y10625871D01*
X3390240Y10667783D01*
Y10683589D01*
X3385794Y10700182D01*
X3377205Y10715058D01*
X3365058Y10727205D01*
X3350182Y10735794D01*
X3333589Y10740240D01*
X3317783D01*
X3166028Y10891994D01*
Y11025000D01*
X3162905Y11040701D01*
X3154011Y11054011D01*
X3070318Y11137705D01*
Y11708972D01*
X3225000D01*
X3240701Y11712095D01*
X3254012Y11720989D01*
X3594444Y12061422D01*
X3603338Y12074732D01*
X3606461Y12090433D01*
Y12092832D01*
X3615058Y12097795D01*
X3627205Y12109942D01*
X3635794Y12124819D01*
X3640240Y12141411D01*
Y12158589D01*
X3635794Y12175182D01*
X3627205Y12190058D01*
X3615058Y12202205D01*
X3600182Y12210794D01*
X3583589Y12215240D01*
D02*
G37*
G36*
X4558589Y11915240D02*
X4541411D01*
X4524818Y11910794D01*
X4509942Y11902205D01*
X4497795Y11890058D01*
X4489206Y11875181D01*
X4487396Y11868424D01*
X4487288Y11868403D01*
X4476459Y11861167D01*
X3943896Y11328604D01*
X3936660Y11317774D01*
X3934119Y11305000D01*
Y10826327D01*
X3708896Y10601104D01*
X3701660Y10590274D01*
X3699119Y10577500D01*
Y9236593D01*
X3698047Y9235521D01*
X3691860Y9220584D01*
Y9204416D01*
X3698047Y9189479D01*
X3709479Y9178047D01*
X3724416Y9171860D01*
X3740584D01*
X3755521Y9178047D01*
X3766953Y9189479D01*
X3773140Y9204416D01*
Y9220584D01*
X3766953Y9235521D01*
X3765881Y9236593D01*
Y10563673D01*
X3991104Y10788896D01*
X3998340Y10799726D01*
X4000881Y10812500D01*
Y11291173D01*
X4508723Y11799015D01*
X4509942Y11797795D01*
X4524818Y11789206D01*
X4541411Y11784760D01*
X4558589D01*
X4575182Y11789206D01*
X4590058Y11797795D01*
X4602205Y11809942D01*
X4610794Y11824818D01*
X4615240Y11841411D01*
Y11858589D01*
X4610794Y11875181D01*
X4602205Y11890058D01*
X4590058Y11902205D01*
X4575182Y11910794D01*
X4558589Y11915240D01*
D02*
G37*
G36*
X3758589Y11840240D02*
X3741411D01*
X3724819Y11835794D01*
X3709942Y11827205D01*
X3703221Y11820484D01*
X3586019D01*
X3566417Y11816585D01*
X3549798Y11805481D01*
X3226282Y11481964D01*
X3206815D01*
X3200182Y11485794D01*
X3183589Y11490240D01*
X3166411D01*
X3149818Y11485794D01*
X3134942Y11477205D01*
X3122795Y11465058D01*
X3114206Y11450182D01*
X3109760Y11433589D01*
Y11416411D01*
X3114206Y11399818D01*
X3122795Y11384942D01*
X3134942Y11372795D01*
X3149818Y11364206D01*
X3166411Y11359760D01*
X3183589D01*
X3200182Y11364206D01*
X3215058Y11372795D01*
X3221779Y11379516D01*
X3247499D01*
X3267102Y11383415D01*
X3283720Y11394519D01*
X3607237Y11718036D01*
X3718186D01*
X3724819Y11714206D01*
X3741411Y11709760D01*
X3758589D01*
X3775182Y11714206D01*
X3790058Y11722795D01*
X3802205Y11734942D01*
X3810794Y11749819D01*
X3815240Y11766411D01*
Y11783589D01*
X3810794Y11800182D01*
X3802205Y11815058D01*
X3790058Y11827205D01*
X3775182Y11835794D01*
X3758589Y11840240D01*
D02*
G37*
G36*
X4868084Y10260640D02*
X4851916D01*
X4836979Y10254453D01*
X4825547Y10243021D01*
X4824705Y10240989D01*
X4793551D01*
X4782727Y10238836D01*
X4773552Y10232705D01*
X4752501Y10211654D01*
X4746369Y10202478D01*
X4744217Y10191654D01*
Y10009215D01*
X4715625Y9980623D01*
X4715584Y9980640D01*
X4699416D01*
X4684479Y9974453D01*
X4673047Y9963021D01*
X4666860Y9948084D01*
Y9931916D01*
X4673047Y9916979D01*
X4684479Y9905547D01*
X4699416Y9899360D01*
X4715584D01*
X4730521Y9905547D01*
X4741953Y9916979D01*
X4748140Y9931916D01*
Y9933141D01*
X4792499Y9977500D01*
X4798630Y9986676D01*
X4800784Y9997500D01*
X4800783Y9997501D01*
Y10179939D01*
X4805266Y10184422D01*
X4839695D01*
X4851916Y10179360D01*
X4868084D01*
X4883021Y10185547D01*
X4894453Y10196979D01*
X4900640Y10211916D01*
Y10228084D01*
X4894453Y10243021D01*
X4883021Y10254453D01*
X4868084Y10260640D01*
D02*
G37*
G36*
X4648589Y11785240D02*
X4631411D01*
X4614819Y11780794D01*
X4599942Y11772205D01*
X4587795Y11760058D01*
X4579206Y11745181D01*
X4574760Y11728589D01*
Y11711411D01*
X4577847Y11699893D01*
X4570960Y11687671D01*
X4567478Y11684653D01*
X4526272D01*
X4513497Y11682112D01*
X4502667Y11674876D01*
X4123896Y11296104D01*
X4116660Y11285274D01*
X4114119Y11272500D01*
Y10723827D01*
X4061396Y10671104D01*
X4054160Y10660274D01*
X4051619Y10647500D01*
Y9595000D01*
X4054160Y9582226D01*
X4061396Y9571396D01*
X4124360Y9508432D01*
Y9506916D01*
X4130547Y9491979D01*
X4141979Y9480547D01*
X4156916Y9474360D01*
X4173084D01*
X4188021Y9480547D01*
X4199453Y9491979D01*
X4205640Y9506916D01*
Y9523084D01*
X4199453Y9538021D01*
X4188021Y9549453D01*
X4173084Y9555640D01*
X4171568D01*
X4118381Y9608827D01*
Y10633673D01*
X4168604Y10683896D01*
X4175840Y10694726D01*
X4177613Y10703637D01*
X4178340Y10704726D01*
X4180881Y10717500D01*
Y11258673D01*
X4540099Y11617890D01*
X4592767D01*
X4605541Y11620431D01*
X4616370Y11627668D01*
X4636873Y11648170D01*
X4641276Y11654760D01*
X4648589D01*
X4665182Y11659206D01*
X4680058Y11667795D01*
X4692205Y11679942D01*
X4700794Y11694818D01*
X4705240Y11711411D01*
Y11728589D01*
X4700794Y11745181D01*
X4692205Y11760058D01*
X4680058Y11772205D01*
X4665182Y11780794D01*
X4648589Y11785240D01*
D02*
G37*
G36*
X3858084Y10040640D02*
X3841916D01*
X3826979Y10034453D01*
X3815547Y10023021D01*
X3809360Y10008084D01*
Y9991916D01*
X3815547Y9976979D01*
X3826979Y9965547D01*
X3841916Y9959360D01*
X3850641D01*
X3904216Y9905785D01*
Y9504190D01*
X3898047Y9498021D01*
X3891860Y9483084D01*
Y9466916D01*
X3898047Y9451979D01*
X3909479Y9440547D01*
X3924416Y9434360D01*
X3940584D01*
X3955521Y9440547D01*
X3966953Y9451979D01*
X3973140Y9466916D01*
Y9483084D01*
X3966953Y9498021D01*
X3960783Y9504190D01*
Y9917500D01*
X3958630Y9928324D01*
X3952499Y9937500D01*
X3890640Y9999359D01*
Y10008084D01*
X3884453Y10023021D01*
X3873021Y10034453D01*
X3858084Y10040640D01*
D02*
G37*
G36*
X4533084Y10365640D02*
X4516916D01*
X4501979Y10359453D01*
X4490547Y10348021D01*
X4484360Y10333084D01*
Y10316916D01*
X4490547Y10301979D01*
X4497366Y10295160D01*
Y10240171D01*
X4496369Y10238679D01*
X4494217Y10227855D01*
Y9660000D01*
X4496369Y9649177D01*
X4502501Y9640001D01*
X4581717Y9560785D01*
Y9349190D01*
X4575547Y9343021D01*
X4569360Y9328084D01*
Y9311916D01*
X4575547Y9296979D01*
X4586979Y9285547D01*
X4601916Y9279360D01*
X4618084D01*
X4633021Y9285547D01*
X4644453Y9296979D01*
X4650640Y9311916D01*
Y9328084D01*
X4644453Y9343021D01*
X4638283Y9349190D01*
Y9572499D01*
X4638284Y9572500D01*
X4636131Y9583324D01*
X4629999Y9592500D01*
X4629999Y9592500D01*
X4550783Y9671716D01*
Y10218689D01*
X4551780Y10220181D01*
X4553933Y10231005D01*
Y10296459D01*
X4559453Y10301979D01*
X4565640Y10316916D01*
Y10333084D01*
X4559453Y10348021D01*
X4548021Y10359453D01*
X4533084Y10365640D01*
D02*
G37*
G36*
X2733589Y11165240D02*
X2716411D01*
X2699818Y11160794D01*
X2684942Y11152205D01*
X2672795Y11140058D01*
X2664206Y11125181D01*
X2659760Y11108589D01*
Y11091411D01*
X2664206Y11074818D01*
X2672795Y11059942D01*
X2684942Y11047795D01*
X2699818Y11039206D01*
X2716411Y11034760D01*
X2733589D01*
X2750181Y11039206D01*
X2765058Y11047795D01*
X2776234Y11058972D01*
X2803716D01*
X2808972Y11053716D01*
Y10308118D01*
X2812095Y10292417D01*
X2820989Y10279107D01*
X2923972Y10176124D01*
Y9625119D01*
X2924212Y9623911D01*
Y9551089D01*
X2923972Y9549881D01*
Y9308734D01*
X2912795Y9297558D01*
X2904206Y9282681D01*
X2899760Y9266089D01*
Y9248911D01*
X2904206Y9232318D01*
X2912795Y9217442D01*
X2924942Y9205295D01*
X2939818Y9196706D01*
X2956411Y9192260D01*
X2973589D01*
X2990181Y9196706D01*
X3005058Y9205295D01*
X3017205Y9217442D01*
X3021060Y9224119D01*
X3176173D01*
X3361396Y9038896D01*
X3372226Y9031660D01*
X3385000Y9029119D01*
X4007500D01*
X4020274Y9031660D01*
X4031104Y9038896D01*
X4078827Y9086619D01*
X4170000D01*
X4182774Y9089160D01*
X4193604Y9096396D01*
X4446104Y9348896D01*
X4453340Y9359726D01*
X4455881Y9372500D01*
Y9494997D01*
X4465058Y9500295D01*
X4477205Y9512442D01*
X4485794Y9527318D01*
X4490240Y9543911D01*
Y9561089D01*
X4485794Y9577681D01*
X4477205Y9592558D01*
X4465058Y9604705D01*
X4450182Y9613294D01*
X4433589Y9617740D01*
X4416411D01*
X4399818Y9613294D01*
X4384942Y9604705D01*
X4372795Y9592558D01*
X4364206Y9577681D01*
X4359760Y9561089D01*
Y9543911D01*
X4364206Y9527318D01*
X4372795Y9512442D01*
X4384942Y9500295D01*
X4389119Y9497883D01*
Y9386327D01*
X4156173Y9153381D01*
X4065000D01*
X4052226Y9150840D01*
X4041396Y9143604D01*
X3993673Y9095881D01*
X3398827D01*
X3213604Y9281104D01*
X3202775Y9288340D01*
X3190000Y9290881D01*
X3021060D01*
X3017205Y9297558D01*
X3006028Y9308734D01*
Y9548913D01*
X3006269Y9550121D01*
Y9624879D01*
X3006028Y9626087D01*
Y10193118D01*
X3002905Y10208819D01*
X2994011Y10222129D01*
X2891028Y10325112D01*
Y11070710D01*
X2887905Y11086411D01*
X2879011Y11099722D01*
X2849722Y11129011D01*
X2836411Y11137905D01*
X2820710Y11141028D01*
X2776234D01*
X2765058Y11152205D01*
X2750181Y11160794D01*
X2733589Y11165240D01*
D02*
G37*
%LPD*%
G36*
X9000000Y5450000D02*
Y3725000D01*
X8900000Y3625000D01*
X7525000D01*
X7250000Y3900000D01*
X7250000Y4121291D01*
X7075000Y4322254D01*
Y4549122D01*
X7391426D01*
X7559077Y4381472D01*
X7566000Y4364759D01*
X7582259Y4348500D01*
X7598972Y4341577D01*
X7719123Y4221426D01*
Y4098210D01*
X7712200Y4081497D01*
Y4058503D01*
X7721000Y4037259D01*
X7737259Y4021000D01*
X7758503Y4012200D01*
X7781497D01*
X7802741Y4021000D01*
X7819001Y4037259D01*
X7827800Y4058503D01*
Y4081497D01*
X7820878Y4098210D01*
Y4242500D01*
X7817005Y4261970D01*
X7805976Y4278476D01*
X7670923Y4413529D01*
X7664001Y4430241D01*
X7647741Y4446501D01*
X7631029Y4453423D01*
X7448476Y4635976D01*
X7431971Y4647005D01*
X7412501Y4650877D01*
X7075000D01*
X7075000Y5499999D01*
X7175000Y5600000D01*
X8850000D01*
X9000000Y5450000D01*
D02*
G37*
G36*
X8225000Y1055239D02*
Y175000D01*
X8159237Y109237D01*
X6709942D01*
X6657340Y161839D01*
X6657340Y1050915D01*
X6746102Y1139677D01*
X8140562D01*
X8225000Y1055239D01*
D02*
G37*
%LPC*%
G36*
X3783589Y6965240D02*
X3766411D01*
X3749819Y6960794D01*
X3734942Y6952205D01*
X3722795Y6940058D01*
X3714206Y6925181D01*
X3709760Y6908589D01*
Y6891411D01*
X3714206Y6874818D01*
X3722795Y6859942D01*
X3734942Y6847795D01*
X3741619Y6843940D01*
Y6684537D01*
X3626396Y6569314D01*
X3619160Y6558485D01*
X3616619Y6545710D01*
Y6413827D01*
X3553896Y6351104D01*
X3546660Y6340274D01*
X3544119Y6327500D01*
Y6234093D01*
X3543047Y6233021D01*
X3536860Y6218084D01*
Y6201916D01*
X3543047Y6186979D01*
X3554479Y6175547D01*
X3569416Y6169360D01*
X3585584D01*
X3600521Y6175547D01*
X3611953Y6186979D01*
X3618140Y6201916D01*
Y6218084D01*
X3611953Y6233021D01*
X3610881Y6234093D01*
Y6313673D01*
X3673604Y6376396D01*
X3680840Y6387225D01*
X3683381Y6400000D01*
Y6531884D01*
X3798604Y6647106D01*
X3805840Y6657936D01*
X3808381Y6670710D01*
Y6843940D01*
X3815058Y6847795D01*
X3827205Y6859942D01*
X3835794Y6874818D01*
X3840240Y6891411D01*
Y6908589D01*
X3835794Y6925181D01*
X3827205Y6940058D01*
X3815058Y6952205D01*
X3800182Y6960794D01*
X3783589Y6965240D01*
D02*
G37*
G36*
X3991089Y6992740D02*
X3973911D01*
X3957318Y6988294D01*
X3942442Y6979705D01*
X3930295Y6967558D01*
X3921706Y6952682D01*
X3917260Y6936089D01*
Y6918911D01*
X3921706Y6902318D01*
X3930295Y6887442D01*
X3942442Y6875295D01*
X3949119Y6871440D01*
Y6721327D01*
X3726396Y6498604D01*
X3719160Y6487774D01*
X3716619Y6475000D01*
Y6338827D01*
X3670754Y6292962D01*
X3663518Y6282132D01*
X3660977Y6269358D01*
Y6183185D01*
X3590401Y6112609D01*
X3583084Y6115640D01*
X3566916D01*
X3551979Y6109453D01*
X3540547Y6098021D01*
X3534360Y6083084D01*
Y6066916D01*
X3540547Y6051979D01*
X3551979Y6040547D01*
X3566916Y6034360D01*
X3583084D01*
X3598021Y6040547D01*
X3602116Y6044642D01*
X3603023D01*
X3615798Y6047183D01*
X3626627Y6054419D01*
X3717962Y6145754D01*
X3725198Y6156584D01*
X3727739Y6169358D01*
Y6255531D01*
X3773604Y6301396D01*
X3780840Y6312226D01*
X3783381Y6325000D01*
Y6461173D01*
X4006104Y6683896D01*
X4013340Y6694725D01*
X4015881Y6707500D01*
Y6871440D01*
X4022558Y6875295D01*
X4034705Y6887442D01*
X4043294Y6902318D01*
X4047740Y6918911D01*
Y6936089D01*
X4043294Y6952682D01*
X4034705Y6967558D01*
X4022558Y6979705D01*
X4007682Y6988294D01*
X3991089Y6992740D01*
D02*
G37*
G36*
X3996470Y6313528D02*
X3887500D01*
X3871799Y6310405D01*
X3858489Y6301511D01*
X3817217Y6260240D01*
X3801411D01*
X3784818Y6255794D01*
X3769942Y6247205D01*
X3757795Y6235058D01*
X3749206Y6220182D01*
X3744760Y6203589D01*
Y6186411D01*
X3749206Y6169818D01*
X3757795Y6154942D01*
X3769942Y6142795D01*
X3781290Y6136243D01*
X3781662Y6134377D01*
X3783972Y6130919D01*
Y6016995D01*
X3758006Y5991028D01*
X3400000D01*
X3384299Y5987905D01*
X3370989Y5979011D01*
X3235989Y5844011D01*
X3227095Y5830701D01*
X3223972Y5815000D01*
Y5621994D01*
X3193944Y5591967D01*
X3117717D01*
X3115764Y5591579D01*
X3109416D01*
X3103551Y5589149D01*
X3102016Y5588844D01*
X3100715Y5587975D01*
X3094479Y5585392D01*
X3089707Y5580619D01*
X3088705Y5579950D01*
X3088036Y5578949D01*
X3083047Y5573959D01*
X3080347Y5567440D01*
X3079811Y5566639D01*
X3079624Y5565694D01*
X3076860Y5559022D01*
Y5551802D01*
X3076688Y5550939D01*
X3076860Y5550076D01*
Y5542855D01*
X3079624Y5536183D01*
X3079811Y5535238D01*
X3080347Y5534437D01*
X3083047Y5527918D01*
X3088036Y5522929D01*
X3088705Y5521927D01*
X3089707Y5521258D01*
X3094479Y5516486D01*
X3100715Y5513903D01*
X3102016Y5513033D01*
X3103551Y5512728D01*
X3109416Y5510299D01*
X3115764D01*
X3117717Y5509910D01*
X3210939D01*
X3226640Y5513033D01*
X3239950Y5521927D01*
X3294011Y5575989D01*
X3302905Y5589299D01*
X3306028Y5605000D01*
Y5798006D01*
X3416994Y5908972D01*
X3553537D01*
X3559369Y5894892D01*
X3528489Y5864011D01*
X3519595Y5850701D01*
X3516472Y5835000D01*
Y5647933D01*
X3450989Y5582450D01*
X3449883Y5580796D01*
X3445547Y5576460D01*
X3443201Y5570794D01*
X3442095Y5569140D01*
X3441707Y5567188D01*
X3439360Y5561523D01*
Y5555391D01*
X3438972Y5553439D01*
X3439360Y5551486D01*
Y5545355D01*
X3441707Y5539690D01*
X3442095Y5537738D01*
X3443201Y5536083D01*
X3445547Y5530418D01*
X3449883Y5526082D01*
X3450989Y5524427D01*
X3452643Y5523322D01*
X3456979Y5518986D01*
X3462645Y5516639D01*
X3464299Y5515534D01*
X3466251Y5515145D01*
X3471916Y5512799D01*
X3478048D01*
X3480000Y5512410D01*
X3481953Y5512799D01*
X3488084D01*
X3493749Y5515145D01*
X3495701Y5515534D01*
X3497356Y5516639D01*
X3503021Y5518986D01*
X3507357Y5523322D01*
X3509012Y5524427D01*
X3586511Y5601927D01*
X3595405Y5615238D01*
X3598528Y5630939D01*
Y5818006D01*
X3621995Y5841472D01*
X3820134D01*
X3835835Y5844595D01*
X3849146Y5853489D01*
X3963123Y5967466D01*
X3972017Y5980776D01*
X3975140Y5996477D01*
Y6053544D01*
X3989942Y6060295D01*
X4004819Y6051706D01*
X4021411Y6047260D01*
X4038589D01*
X4055182Y6051706D01*
X4070058Y6060295D01*
X4082205Y6072442D01*
X4090794Y6087319D01*
X4095240Y6103911D01*
Y6121089D01*
X4090794Y6137682D01*
X4082205Y6152558D01*
X4080563Y6154200D01*
X4079984Y6157212D01*
X4083659Y6172657D01*
X4092558Y6177795D01*
X4104705Y6189942D01*
X4113294Y6204818D01*
X4117740Y6221411D01*
Y6238589D01*
X4113294Y6255182D01*
X4104705Y6270058D01*
X4092558Y6282205D01*
X4077682Y6290794D01*
X4061089Y6295240D01*
X4043911D01*
X4034322Y6292670D01*
X4025481Y6301511D01*
X4012171Y6310405D01*
X3996470Y6313528D01*
D02*
G37*
G36*
X2383589Y6665240D02*
X2366411D01*
X2349819Y6660794D01*
X2334942Y6652205D01*
X2322795Y6640058D01*
X2314206Y6625182D01*
X2311715Y6615886D01*
X2309299Y6615405D01*
X2295989Y6606512D01*
X2250989Y6561511D01*
X2242095Y6548201D01*
X2238972Y6532500D01*
Y6354532D01*
X2234942Y6352205D01*
X2222795Y6340058D01*
X2214206Y6325182D01*
X2209760Y6308589D01*
Y6291411D01*
X2214206Y6274819D01*
X2222795Y6259942D01*
X2233972Y6248766D01*
Y6107500D01*
X2237095Y6091799D01*
X2245989Y6078489D01*
X2281832Y6042645D01*
Y5834877D01*
X2283972Y5824120D01*
Y5820000D01*
X2287095Y5804299D01*
X2295989Y5790989D01*
X3075989Y5010989D01*
X3077643Y5009884D01*
X3081979Y5005547D01*
X3087645Y5003200D01*
X3089299Y5002095D01*
X3091250Y5001707D01*
X3096916Y4999360D01*
X3103050D01*
X3105000Y4998972D01*
X3106950Y4999360D01*
X3113084D01*
X3118751Y5001707D01*
X3120701Y5002095D01*
X3122353Y5003200D01*
X3128021Y5005547D01*
X3132359Y5009885D01*
X3134011Y5010989D01*
X3135115Y5012641D01*
X3139453Y5016979D01*
X3141801Y5022647D01*
X3142905Y5024300D01*
X3143293Y5026249D01*
X3143551Y5026873D01*
X3157340Y5031464D01*
X3160640Y5031337D01*
X3168489Y5023489D01*
X3181799Y5014595D01*
X3197500Y5011472D01*
X3495000D01*
X3496953Y5011860D01*
X3503084D01*
X3508749Y5014207D01*
X3510701Y5014595D01*
X3512355Y5015700D01*
X3518021Y5018047D01*
X3522357Y5022383D01*
X3524011Y5023489D01*
X3525117Y5025143D01*
X3529453Y5029479D01*
X3531800Y5035145D01*
X3532905Y5036799D01*
X3533293Y5038751D01*
X3535640Y5044416D01*
Y5050547D01*
X3536028Y5052500D01*
X3535640Y5054452D01*
Y5060584D01*
X3533293Y5066249D01*
X3532905Y5068201D01*
X3531800Y5069855D01*
X3529453Y5075521D01*
X3525117Y5079857D01*
X3524011Y5081511D01*
X3522357Y5082616D01*
X3518021Y5086953D01*
X3512355Y5089300D01*
X3510701Y5090405D01*
X3508749Y5090793D01*
X3503084Y5093140D01*
X3496953D01*
X3495000Y5093528D01*
X3214494D01*
X2429128Y5878894D01*
Y6111866D01*
X2432205Y6114942D01*
X2440794Y6129819D01*
X2445240Y6146411D01*
Y6163589D01*
X2440794Y6180182D01*
X2432205Y6195058D01*
X2428529Y6198735D01*
Y6412235D01*
X2435794Y6424819D01*
X2440240Y6441411D01*
Y6458589D01*
X2435794Y6475182D01*
X2427205Y6490058D01*
X2415058Y6502205D01*
X2400182Y6510794D01*
X2383589Y6515240D01*
X2366411D01*
X2349819Y6510794D01*
X2345654Y6508390D01*
X2329356Y6516578D01*
X2328598Y6523075D01*
X2342746Y6537223D01*
X2351054Y6538875D01*
X2366411Y6534760D01*
X2383589D01*
X2400182Y6539206D01*
X2415058Y6547795D01*
X2427205Y6559942D01*
X2435794Y6574819D01*
X2440240Y6591411D01*
Y6608589D01*
X2435794Y6625182D01*
X2427205Y6640058D01*
X2415058Y6652205D01*
X2400182Y6660794D01*
X2383589Y6665240D01*
D02*
G37*
%LPD*%
D71*
X5160000Y9440000D02*
Y9490000D01*
X5090000Y9560000D02*
X5160000Y9490000D01*
X4787500Y9467500D02*
X4880000Y9560000D01*
X5090000D02*
X5250000Y9720000D01*
X4880000Y9560000D02*
X5090000D01*
X4787500Y9157500D02*
Y9467500D01*
X3540000Y8767500D02*
X3592500Y8820000D01*
X4100000D02*
X4385000Y9105000D01*
X3592500Y8820000D02*
X4100000D01*
X4385000Y9105000D02*
X4735000D01*
X3385000Y9062500D02*
X4007500D01*
X3190000Y9257500D02*
X3385000Y9062500D01*
X4007500D02*
X4065000Y9120000D01*
X2965000Y9257500D02*
X3190000D01*
X3732500Y9211775D02*
Y10577500D01*
X4735000Y9105000D02*
X4787500Y9157500D01*
X4085000Y9595000D02*
X4165000Y9515000D01*
X4085000Y9595000D02*
Y10647500D01*
X4170000Y9120000D02*
X4422500Y9372500D01*
Y9555000D01*
X4065000Y9120000D02*
X4170000D01*
X4085000Y10647500D02*
X4145000Y10707500D01*
X4147500Y11272500D02*
X4526272Y11651272D01*
X4147500Y10717500D02*
Y11272500D01*
X3967500Y10812500D02*
Y11305000D01*
X4500063Y11837563D01*
X4537563D01*
X4526272Y11651272D02*
X4592767D01*
X4613269Y11671774D01*
Y11675680D02*
X4640000Y11702411D01*
X4613269Y11671774D02*
Y11675680D01*
X4640000Y11702411D02*
Y11720000D01*
X4537563Y11837563D02*
X4550000Y11850000D01*
X3732500Y10577500D02*
X3967500Y10812500D01*
X3982500Y6707500D02*
Y6927500D01*
X3750000Y6475000D02*
X3982500Y6707500D01*
X629911Y9510000D02*
X647500D01*
X375089Y9502500D02*
X400089Y9527500D01*
X612411D02*
X629911Y9510000D01*
X400089Y9527500D02*
X612411D01*
X357500Y9502500D02*
X375089D01*
X3578023Y6078023D02*
X3603023D01*
X3694358Y6169358D02*
Y6269358D01*
X3575000Y6075000D02*
X3578023Y6078023D01*
X3603023D02*
X3694358Y6169358D01*
X3775000Y6670710D02*
Y6900000D01*
X3650000Y6545710D02*
X3775000Y6670710D01*
X3750000Y6325000D02*
Y6475000D01*
X3694358Y6269358D02*
X3750000Y6325000D01*
X3577500Y6210000D02*
Y6327500D01*
X3650000Y6400000D02*
Y6545710D01*
X3577500Y6327500D02*
X3650000Y6400000D01*
X6500000Y4600000D02*
X7412501D01*
X7615000Y4397500D01*
X7770000Y4070000D02*
Y4242500D01*
X7615000Y4397500D02*
X7770000Y4242500D01*
X2745000Y6267500D02*
Y6274275D01*
X2692500Y6212500D02*
Y6215000D01*
D72*
X4522500Y9660000D02*
X4610000Y9572500D01*
Y9320000D02*
Y9572500D01*
X4522500Y9660000D02*
Y10227855D01*
X3850000Y10000000D02*
X3932500Y9917500D01*
Y9474997D02*
Y9917500D01*
X4727381Y9952900D02*
X4727900D01*
X4772500Y9997500D02*
Y10191654D01*
X4707500Y9933019D02*
X4727381Y9952900D01*
X4727900D02*
X4772500Y9997500D01*
X4525000Y10325000D02*
X4525650Y10324350D01*
Y10231005D02*
Y10324350D01*
X1402240Y7600180D02*
X1407152Y7595268D01*
Y7566138D02*
X1781030Y7192260D01*
X1407152Y7566138D02*
Y7595268D01*
X1734222Y6995000D02*
X1795066D01*
X1376598Y7352624D02*
X1734222Y6995000D01*
X1781030Y7192260D02*
X1847482D01*
X2207841Y7003523D02*
X2210813Y7006496D01*
X2168887Y7003523D02*
X2207841D01*
X2109911Y7062500D02*
X2168887Y7003523D01*
X1847482Y7192260D02*
X1977242Y7062500D01*
X2109911D01*
X1941338Y6848728D02*
X2056271D01*
X1795066Y6995000D02*
X1941338Y6848728D01*
X2056271D02*
X2057500Y6847500D01*
X4793551Y10212705D02*
X4852705D01*
X4772500Y10191654D02*
X4793551Y10212705D01*
X4852705D02*
X4860000Y10220000D01*
X4522500Y10227855D02*
X4525650Y10231005D01*
X5855000Y8955000D02*
X6075000Y8735000D01*
X6490000D01*
X5455000Y8955000D02*
X5855000D01*
X5450000Y8960000D02*
X5455000Y8955000D01*
X5245000Y8765000D02*
X5835000Y8175000D01*
Y8115000D02*
X5905000Y8045000D01*
X5835000Y8115000D02*
Y8175000D01*
X5905000Y7955000D02*
Y8045000D01*
D73*
X5490000Y9320000D02*
X5503530D01*
X5528530Y9345000D01*
X5530711D02*
X5560000Y9374290D01*
X5528530Y9345000D02*
X5530711D01*
X5560000Y9374290D02*
Y9620000D01*
X5640000Y9700000D01*
X5630433Y9709567D02*
X5640000Y9700000D01*
X5565000Y9808530D02*
Y11420000D01*
Y9808530D02*
X5630433Y9743097D01*
Y9709567D02*
Y9743097D01*
X3550000Y9468625D02*
Y10200000D01*
X3403140Y10346860D02*
X3500000Y10250000D01*
X3550000Y10200000D01*
X3403140Y10346860D02*
Y10596860D01*
X3325000Y10675000D02*
X3403140Y10596860D01*
X3125000Y10875000D02*
X3325000Y10675000D01*
X3125000Y10875000D02*
Y11025000D01*
X3029290Y11120710D02*
Y11750000D01*
Y11120710D02*
X3125000Y11025000D01*
X2850000Y10308118D02*
Y11070710D01*
X2820710Y11100000D02*
X2850000Y11070710D01*
X2725000Y11100000D02*
X2820710D01*
X2525000Y11725000D02*
X2625000Y11825000D01*
X2954290D01*
X3029290Y11750000D01*
X3225000D01*
X3565433Y12090433D01*
Y12140433D02*
X3575000Y12150000D01*
X3565433Y12090433D02*
Y12140433D01*
X2850000Y10308118D02*
X2965000Y10193118D01*
X1217116Y7998807D02*
X1750924Y7465000D01*
X1099947Y7998807D02*
X1217116D01*
X1750924Y7465000D02*
X1775920D01*
X1881397Y7359522D01*
X2582500Y10560000D02*
Y11357500D01*
Y10367500D02*
Y10560000D01*
X3996470Y6272500D02*
X4038970Y6230000D01*
X3804567Y6189567D02*
X3887500Y6272500D01*
X3996470D01*
X3820134Y5882500D02*
X3934112Y5996477D01*
X3605000Y5882500D02*
X3820134D01*
X3557500Y5835000D02*
X3605000Y5882500D01*
X3400000Y5950000D02*
X3775000D01*
X3825000Y6000000D01*
X2275000Y6107500D02*
Y6300000D01*
Y6107500D02*
X2322860Y6059640D01*
X2325000Y5820000D02*
Y5832737D01*
X2388100Y5861900D02*
Y6141900D01*
Y5861900D02*
X3197500Y5052500D01*
X2322860Y5834877D02*
X2325000Y5832737D01*
X2322860Y5834877D02*
Y6059640D01*
X2325000Y5820000D02*
X3105000Y5040000D01*
X2380000Y6150000D02*
X2388100Y6141900D01*
X5874560Y607260D02*
X5874900D01*
X6442740Y1175101D02*
Y1755240D01*
X5847877Y672500D02*
X6375000Y1199624D01*
X2937500Y672500D02*
X5847877D01*
X5874900Y607260D02*
X6442740Y1175101D01*
X5872300Y605000D02*
X5874560Y607260D01*
X2750000Y860000D02*
X2937500Y672500D01*
X6442740Y1755240D02*
X6940000Y2252500D01*
X2105000Y605000D02*
X5872300D01*
X2525000Y11415000D02*
X2582500Y11357500D01*
Y10367500D02*
X2700000Y10250000D01*
X2965000Y9257500D02*
Y9549881D01*
X2965240Y9550121D02*
Y9624879D01*
X2965000Y9625119D02*
X2965240Y9624879D01*
X2965000Y9625119D02*
Y10193118D01*
Y9549881D02*
X2965240Y9550121D01*
X2252500Y11712500D02*
X2520000D01*
Y11412500D02*
Y11712500D01*
X3687500Y12455000D02*
X3690000D01*
X3647260Y12495240D02*
X3687500Y12455000D01*
X2962381Y12482500D02*
X2975121Y12495240D01*
X3647260D01*
X2762500Y12482500D02*
X2962381D01*
X5827933Y12135433D02*
X6010000Y12317500D01*
X6267500D01*
X5565000Y11420000D02*
X5827933Y11682933D01*
Y12135433D01*
X7693530Y13189999D02*
X7970000D01*
X7650000Y13160001D02*
X7663530D01*
X7693530Y13189999D01*
X7970000D02*
X8120000Y13339999D01*
X8930698Y9993199D02*
Y10100698D01*
X9190000Y10360000D01*
X1200000Y1350000D02*
X1522500Y1027500D01*
X325000Y1325000D02*
X338530D01*
X363530Y1350000D01*
X1200000D01*
X3825000Y6000000D02*
Y6144644D01*
X3934112Y5996477D02*
Y6160888D01*
X3819567Y6150078D02*
X3825000Y6144644D01*
X3810000Y6195000D02*
X3819567Y6185433D01*
Y6150078D02*
Y6185433D01*
X3265000Y5815000D02*
X3400000Y5950000D01*
X3557500Y5630939D02*
Y5835000D01*
X1425000Y1625000D02*
X1800000Y2000000D01*
X1425000Y1525000D02*
Y1625000D01*
X3480000Y5553439D02*
X3557500Y5630939D01*
X2272500Y6302500D02*
X2280000Y6310000D01*
X2338970Y6577500D02*
X2361470Y6600000D01*
X2325000Y6577500D02*
X2338970D01*
X2280000Y6310000D02*
Y6532500D01*
X2325000Y6577500D01*
X2375000Y6436470D02*
Y6450000D01*
X2380000Y6150000D02*
X2387500Y6157500D01*
Y6423970D01*
X2375000Y6436470D02*
X2387500Y6423970D01*
X3117717Y5550939D02*
X3210939D01*
X3265000Y5605000D02*
Y5815000D01*
X3210939Y5550939D02*
X3265000Y5605000D01*
X3986463Y6122067D02*
X4020433D01*
X3927500Y6167500D02*
X3941030D01*
X3986463Y6122067D01*
X4020433D02*
X4030000Y6112500D01*
X4038970Y6230000D02*
X4052500D01*
X3927500Y6167500D02*
X3934112Y6160888D01*
X6377500Y1781924D02*
Y2663659D01*
X6940000Y2252500D02*
Y2456470D01*
X6375000Y1779424D02*
X6377500Y1781924D01*
X6375000Y1199624D02*
Y1779424D01*
X6902500Y2493970D02*
X6940000Y2456470D01*
X6902500Y2493970D02*
Y2507500D01*
X6372600Y2668559D02*
Y2975100D01*
Y2668559D02*
X6377500Y2663659D01*
X6372600Y2975100D02*
X6617500Y3220000D01*
X1762500Y390000D02*
X6897941D01*
X1522500Y630000D02*
X1762500Y390000D01*
X1850000Y860000D02*
X2105000Y605000D01*
X8533000Y2792500D02*
X8813000Y3072500D01*
X7970000Y1497500D02*
Y1970000D01*
X8533000Y2533000D01*
Y2792500D01*
X5575000Y2000000D02*
X5917500Y2342500D01*
X1800000Y2000000D02*
X5575000D01*
X5917500Y2342500D02*
Y2770000D01*
X1522500Y630000D02*
Y1027500D01*
X2361470Y6600000D02*
X2375000D01*
X3197500Y5052500D02*
X3495000D01*
D74*
X3180740Y11430740D02*
X3247499D01*
X3586019Y11769260D01*
X3175000Y11425000D02*
X3180740Y11430740D01*
X3586019Y11769260D02*
X3744260D01*
X3750000Y11775000D01*
D77*
X6815000Y1107500D02*
X7107500Y815000D01*
X6815000Y1107500D02*
Y1668444D01*
X7245000Y2098444D01*
Y2102500D01*
X7270000Y2127500D01*
Y3367500D01*
X6870000Y3767500D02*
X7270000Y3367500D01*
X6870000Y3767500D02*
X6872500Y3770000D01*
Y4017500D01*
D79*
X805000Y9782500D02*
X935499Y9912999D01*
Y9947999D02*
X937500Y9950000D01*
X935499Y9912999D02*
Y9947999D01*
X597500Y9782500D02*
X805000D01*
D86*
X2300000Y1560000D02*
D03*
Y2360000D02*
D03*
Y860000D02*
D03*
X2750000D02*
D03*
X1850000D02*
D03*
X5917500Y2770000D02*
D03*
X5117500D02*
D03*
X6617500D02*
D03*
Y3220000D02*
D03*
Y2320000D02*
D03*
D87*
X8813000Y3072500D02*
D03*
X8305000D02*
D03*
X7797000D02*
D03*
D88*
X700000Y12800000D02*
D03*
X8800000D02*
D03*
X8800000Y6800000D02*
D03*
X700000D02*
D03*
X8800000Y700000D02*
D03*
X700000D02*
D03*
D89*
X512500Y8065000D02*
D03*
Y8415000D02*
D03*
X515000Y8992500D02*
D03*
Y9342500D02*
D03*
D90*
X7970000Y1497500D02*
D03*
X7210000D02*
D03*
X5310000D02*
D03*
X4550000D02*
D03*
D91*
X4082500Y8450000D02*
D03*
X5160000Y9440000D02*
D03*
X5250000Y9720000D02*
D03*
X1992500Y10552500D02*
D03*
X1985000Y11612500D02*
D03*
X4935000Y8837500D02*
D03*
X2057500Y9860000D02*
D03*
X1985000Y8145000D02*
D03*
X2167500Y8777500D02*
D03*
X3270000Y6160000D02*
D03*
X3160000D02*
D03*
X3050000D02*
D03*
X3270000Y6270000D02*
D03*
X3160000D02*
D03*
X3050000D02*
D03*
X3270000Y6380000D02*
D03*
X3160000D02*
D03*
X3050000D02*
D03*
X3710000Y5394500D02*
D03*
X3570000D02*
D03*
Y5284500D02*
D03*
X3710000D02*
D03*
X3350000Y5394500D02*
D03*
X3210000D02*
D03*
Y5284500D02*
D03*
X3350000D02*
D03*
Y4900000D02*
D03*
X3210000D02*
D03*
Y4790000D02*
D03*
X3350000D02*
D03*
X3710000Y4900000D02*
D03*
X3570000D02*
D03*
Y4790000D02*
D03*
X3710000D02*
D03*
X3445000Y8987500D02*
D03*
X3732500Y9212500D02*
D03*
X4165000Y9515000D02*
D03*
X2250000Y10225000D02*
D03*
X2450000Y9525000D02*
D03*
X2350000Y9225000D02*
D03*
X3850000Y10000000D02*
D03*
X4300000Y9700000D02*
D03*
X4000000Y9600000D02*
D03*
X3805000Y9575000D02*
D03*
X3350000Y9650000D02*
D03*
X4250000Y10125000D02*
D03*
X3900000D02*
D03*
X3450000Y10000000D02*
D03*
X4525000Y10325000D02*
D03*
X4025000Y10700000D02*
D03*
X4862500Y10290000D02*
D03*
X4730000Y11600000D02*
D03*
X4375000Y11875000D02*
D03*
X4550000Y11500000D02*
D03*
X3650000Y11875000D02*
D03*
X2060000Y6960000D02*
D03*
X1830000Y7080000D02*
D03*
X1470000Y7380000D02*
D03*
X1640000Y7210000D02*
D03*
X3080000Y13070000D02*
D03*
X3360000Y12790000D02*
D03*
X1610000Y12100000D02*
D03*
X1970000Y12120000D02*
D03*
X1960000Y11880000D02*
D03*
X1850000Y10880000D02*
D03*
X1420000Y10580000D02*
D03*
X1590000Y10460000D02*
D03*
X1750000Y10340000D02*
D03*
X1870000Y10110000D02*
D03*
Y8850000D02*
D03*
X1750000D02*
D03*
X1590000D02*
D03*
X1425000D02*
D03*
X1250000D02*
D03*
X1361614Y7994348D02*
D03*
X1883147Y7500265D02*
D03*
X1744802Y7610061D02*
D03*
X1570227Y7781344D02*
D03*
X1497762Y7593592D02*
D03*
X1402240Y7600180D02*
D03*
X1345143Y7521126D02*
D03*
X2187279Y7111586D02*
D03*
X2244372Y6921638D02*
D03*
X1330866Y7279574D02*
D03*
X1376598Y7352624D02*
D03*
X1224206Y5462319D02*
D03*
X2210813Y7006496D02*
D03*
X2057500Y6847500D02*
D03*
X2975000Y10950000D02*
D03*
X2265000Y10437500D02*
D03*
X2450000Y10867500D02*
D03*
X3355000Y12355000D02*
D03*
X2900000Y11700000D02*
D03*
X2725000Y10975000D02*
D03*
X3375000Y11400000D02*
D03*
X3225000Y11225000D02*
D03*
X3800000Y11475000D02*
D03*
X2687500Y11440000D02*
D03*
X3050000Y11875000D02*
D03*
X3300000Y11650000D02*
D03*
X3225000Y12000000D02*
D03*
X3450000Y11775000D02*
D03*
X3925000Y11575000D02*
D03*
X4175000Y11675000D02*
D03*
X3450000Y12150000D02*
D03*
X2085000Y11842500D02*
D03*
X2262500Y11247500D02*
D03*
X2267500Y11365000D02*
D03*
X2505000Y12090000D02*
D03*
X2512500Y11947500D02*
D03*
X3010000Y12660000D02*
D03*
X3012500Y12405000D02*
D03*
X3860000Y12455000D02*
D03*
X3850000Y12162500D02*
D03*
X3855000Y12047500D02*
D03*
X3945000Y11950000D02*
D03*
X4065000D02*
D03*
X4155000Y12320000D02*
D03*
X4172500Y12050000D02*
D03*
X4200000Y10575000D02*
D03*
X3550000Y10750000D02*
D03*
X3325000Y10450000D02*
D03*
X3075000Y10200000D02*
D03*
X2875000Y9587500D02*
D03*
X3430000Y9142500D02*
D03*
X4860000Y10220000D02*
D03*
X3850000Y9387500D02*
D03*
X4012500Y9480000D02*
D03*
X3932500Y9475000D02*
D03*
X5010000Y12280000D02*
D03*
X4990000Y11590000D02*
D03*
X5050000Y11420000D02*
D03*
Y11307500D02*
D03*
X5052500Y11195000D02*
D03*
Y11080000D02*
D03*
Y10965000D02*
D03*
Y10850000D02*
D03*
X5020000Y10737500D02*
D03*
X6580000Y10070000D02*
D03*
X6340000Y9060000D02*
D03*
X6240000Y9530000D02*
D03*
Y9830000D02*
D03*
X6380000Y9940000D02*
D03*
X6570000D02*
D03*
X4895000Y11937500D02*
D03*
X5490000Y10100000D02*
D03*
Y10240000D02*
D03*
X5480000Y10370000D02*
D03*
X6902500Y11495000D02*
D03*
X6855000Y11150000D02*
D03*
X6297500Y11255000D02*
D03*
X6372500Y11182500D02*
D03*
X6447500Y11112500D02*
D03*
X6070000Y10542500D02*
D03*
X6177500Y10592500D02*
D03*
X6285000Y10640000D02*
D03*
X6390000Y10692500D02*
D03*
X6477500Y10772500D02*
D03*
X6502500Y10892500D02*
D03*
X6155000Y10382500D02*
D03*
X7760000Y10940000D02*
D03*
X7620000Y10550000D02*
D03*
X7840000Y10170000D02*
D03*
X7326263Y9947838D02*
D03*
X5640000Y10230000D02*
D03*
X5642500Y10055000D02*
D03*
X5882500Y10165000D02*
D03*
X5892500Y9980000D02*
D03*
X5860000Y9850000D02*
D03*
X5870000Y9700000D02*
D03*
X6902500Y9627500D02*
D03*
X6780000Y9690000D02*
D03*
X6310000Y9320000D02*
D03*
X6570000Y9060000D02*
D03*
X6720000Y9240000D02*
D03*
X6370000Y9660000D02*
D03*
Y9770000D02*
D03*
X6680000Y9880000D02*
D03*
X6780000Y9500000D02*
D03*
X6837500Y9882500D02*
D03*
X7015000Y9690000D02*
D03*
X7127500Y9655000D02*
D03*
X7118217Y9817638D02*
D03*
X5965000Y10492500D02*
D03*
X5640000Y10360000D02*
D03*
X4625000Y10150000D02*
D03*
X4275000Y10300000D02*
D03*
X3900000Y10325000D02*
D03*
X4707500Y9940000D02*
D03*
X4850000Y9650000D02*
D03*
X4905000Y9422500D02*
D03*
X4592500Y9675000D02*
D03*
X4535000Y9320000D02*
D03*
X4697500Y9012500D02*
D03*
X4700000Y9185000D02*
D03*
X4532500Y9190000D02*
D03*
X3060000Y9392500D02*
D03*
X3625000Y10325000D02*
D03*
X3200000Y9950000D02*
D03*
X4302500Y9372500D02*
D03*
X4647500Y9892500D02*
D03*
X2860000Y9330000D02*
D03*
X3055000Y9147500D02*
D03*
X3920000Y9150000D02*
D03*
X3817500Y8975000D02*
D03*
X3627500Y8755000D02*
D03*
X4180000Y9035000D02*
D03*
X4232500Y9487500D02*
D03*
X3637500Y9580000D02*
D03*
X3662500Y9135000D02*
D03*
X4320000Y8780000D02*
D03*
X4530000Y9015000D02*
D03*
X4540000Y8800000D02*
D03*
X3775000Y8607500D02*
D03*
X3615000Y8452500D02*
D03*
X3457500Y8582500D02*
D03*
X3540000Y8767500D02*
D03*
X3520000Y8655000D02*
D03*
X3060000Y8520000D02*
D03*
X3317500Y8162500D02*
D03*
X2566584Y8346983D02*
D03*
X2631518Y8757822D02*
D03*
X2366751Y8362447D02*
D03*
X2226391Y8293456D02*
D03*
X2767500Y8420000D02*
D03*
X2507319Y8458148D02*
D03*
X3028935Y8286569D02*
D03*
X3317500Y8290000D02*
D03*
X937500Y9950000D02*
D03*
X595000Y9780000D02*
D03*
X1467225Y6310923D02*
D03*
X1640547Y7446431D02*
D03*
X1640000Y6917500D02*
D03*
X1482500Y6937500D02*
D03*
X1212500Y6072500D02*
D03*
X615000Y6042500D02*
D03*
X242970Y5338071D02*
D03*
X1343956Y5918153D02*
D03*
X732500Y5915000D02*
D03*
X797500Y5795000D02*
D03*
X862500Y5615000D02*
D03*
X245000Y4572500D02*
D03*
X402004Y5297176D02*
D03*
X402008Y4672396D02*
D03*
X1942500Y6717500D02*
D03*
X1770000Y6902500D02*
D03*
X1531020Y5802335D02*
D03*
X1704402Y5627346D02*
D03*
X1753914Y6012388D02*
D03*
X1621232Y6171133D02*
D03*
X1919768Y5858381D02*
D03*
X697355Y5190396D02*
D03*
X531505Y5235834D02*
D03*
X533779Y4747370D02*
D03*
X2770000Y6920000D02*
D03*
X2550000D02*
D03*
X2350000Y6910000D02*
D03*
X2200000Y6750000D02*
D03*
X2090000Y6590000D02*
D03*
Y6160000D02*
D03*
Y5790000D02*
D03*
X1540000Y5460000D02*
D03*
X697500Y4810000D02*
D03*
X1879390Y5468412D02*
D03*
X872294Y5419860D02*
D03*
X850000Y5080000D02*
D03*
Y4820000D02*
D03*
X3575000Y6075000D02*
D03*
X7615000Y4397500D02*
D03*
X7770000Y4070000D02*
D03*
X3800000Y4730000D02*
D03*
X3122500Y4822500D02*
D03*
X3120000Y4630000D02*
D03*
X3800000Y4840000D02*
D03*
X3790000Y4610000D02*
D03*
X3680000D02*
D03*
X3580000D02*
D03*
X3240000D02*
D03*
X3350000D02*
D03*
X3460000D02*
D03*
X3462500Y4787500D02*
D03*
X3460000Y4900000D02*
D03*
X3480000Y5553439D02*
D03*
X3117500Y5550939D02*
D03*
X3495000Y5052500D02*
D03*
X3105000Y5040000D02*
D03*
X3577500Y6210000D02*
D03*
X3110000Y5280000D02*
D03*
Y5390000D02*
D03*
X3720000Y5120000D02*
D03*
X3610000D02*
D03*
X3255000Y5122500D02*
D03*
X3350000Y5120000D02*
D03*
X3460000D02*
D03*
X3820000Y5040000D02*
D03*
Y5150000D02*
D03*
Y5280000D02*
D03*
Y5390000D02*
D03*
X3460000Y5280000D02*
D03*
Y5390000D02*
D03*
D92*
X4530000Y8512500D02*
D03*
X4107500Y7967500D02*
D03*
X5539132Y9126732D02*
D03*
X5490000Y9320000D02*
D03*
X5640000Y9700000D02*
D03*
X7107500Y815000D02*
D03*
X3550000Y9480000D02*
D03*
X3500000Y10250000D02*
D03*
X3325000Y10675000D02*
D03*
X5600000Y5200000D02*
D03*
X4100000Y4075000D02*
D03*
Y3925000D02*
D03*
X4400000D02*
D03*
X4250000D02*
D03*
Y4075000D02*
D03*
X4400000D02*
D03*
X4550000D02*
D03*
Y3925000D02*
D03*
X2725000Y11100000D02*
D03*
X3175000Y11425000D02*
D03*
X3750000Y11775000D02*
D03*
X5200000Y12775000D02*
D03*
X3650000Y12825000D02*
D03*
X4850000Y12800000D02*
D03*
X5450000Y12250000D02*
D03*
X7625000Y9000000D02*
D03*
X7375000D02*
D03*
X9300000Y8325000D02*
D03*
X6950000D02*
D03*
X320460Y7268133D02*
D03*
X123805Y6055035D02*
D03*
X2249606Y4611524D02*
D03*
X1099947Y7998807D02*
D03*
X1881397Y7359522D02*
D03*
X2815000Y4012500D02*
D03*
X2582500Y10560000D02*
D03*
X2700000Y10250000D02*
D03*
X2520000Y11412500D02*
D03*
X2252500Y11712500D02*
D03*
X3690000Y12455000D02*
D03*
X2762500Y12482500D02*
D03*
X4855000Y10582500D02*
D03*
X4897500Y10475000D02*
D03*
X5340000Y10550000D02*
D03*
X6077500Y12212500D02*
D03*
X6267500Y12317500D02*
D03*
X5910000Y12380000D02*
D03*
X5732500Y11945000D02*
D03*
X5935000Y11885000D02*
D03*
X6010000Y10270000D02*
D03*
X5670000Y10512500D02*
D03*
X5460000Y10550000D02*
D03*
X6995000Y11625000D02*
D03*
X7430000Y11492500D02*
D03*
X6825000Y11362500D02*
D03*
X6470000Y11410000D02*
D03*
X6560000Y11340000D02*
D03*
X6370000Y11370000D02*
D03*
X6450000Y11290000D02*
D03*
X6315000Y12467500D02*
D03*
X6322500Y12590000D02*
D03*
X6470000Y12600000D02*
D03*
X2200000Y12850000D02*
D03*
X1690000Y12900000D02*
D03*
X460000Y11510000D02*
D03*
X360000Y11710000D02*
D03*
Y11850000D02*
D03*
X370000Y11980000D02*
D03*
X7650000Y13160001D02*
D03*
X8020000Y12800000D02*
D03*
Y12670000D02*
D03*
X8120000Y13339999D02*
D03*
X9190000Y10360000D02*
D03*
X7920000Y12580000D02*
D03*
X7840000Y12000000D02*
D03*
X9340000Y10250000D02*
D03*
X7844312Y10487221D02*
D03*
X8828071Y9620275D02*
D03*
X7550000Y9650000D02*
D03*
X7825000Y9200000D02*
D03*
X8775000Y8825000D02*
D03*
X8375000D02*
D03*
X7800000Y11675000D02*
D03*
X8790000Y10730000D02*
D03*
Y11740000D02*
D03*
Y12030000D02*
D03*
X8810000Y10900000D02*
D03*
X8930698Y9993199D02*
D03*
X6605000Y8157500D02*
D03*
X7477500Y11195000D02*
D03*
X7480000Y10827500D02*
D03*
X7357500D02*
D03*
X7062500Y10640000D02*
D03*
X6895000D02*
D03*
X6730000D02*
D03*
X6735000Y10482500D02*
D03*
X6900000Y10487500D02*
D03*
X7062500Y10485000D02*
D03*
X7060000Y10337500D02*
D03*
X6897500Y10335000D02*
D03*
X6712500Y10340000D02*
D03*
X6710000Y10190000D02*
D03*
X6892500Y10185000D02*
D03*
X7067500Y10180000D02*
D03*
X7255000Y10660000D02*
D03*
Y10507500D02*
D03*
X7260000Y10350000D02*
D03*
X7255000Y10200000D02*
D03*
X7827500Y9820000D02*
D03*
X7437500Y10055000D02*
D03*
X6490000Y8735000D02*
D03*
X6187500Y8875000D02*
D03*
X5775000Y9057500D02*
D03*
X6010000Y9140000D02*
D03*
X5800000Y8850000D02*
D03*
X5450000Y8960000D02*
D03*
X6607500Y8422500D02*
D03*
X5802500Y8727500D02*
D03*
X5557500Y7855000D02*
D03*
X5457500Y8097500D02*
D03*
X5280000Y8892500D02*
D03*
X5052500Y8625000D02*
D03*
X5027500Y8095000D02*
D03*
X5527500Y8642500D02*
D03*
X5872500Y8272500D02*
D03*
X5687500Y8200000D02*
D03*
X5792500Y8020000D02*
D03*
X5325000Y8520000D02*
D03*
X5905000Y7955000D02*
D03*
X5245000Y8765000D02*
D03*
X4710000Y8232500D02*
D03*
X2965000Y9257500D02*
D03*
X4425000Y9552500D02*
D03*
X1419505Y1381275D02*
D03*
X3687500Y7540000D02*
D03*
X3982500Y6927500D02*
D03*
X2080000Y13060001D02*
D03*
X1640000Y12590000D02*
D03*
X2010000Y12640000D02*
D03*
X1437500Y13057500D02*
D03*
Y13164999D02*
D03*
X870000Y2052500D02*
D03*
Y1932500D02*
D03*
X647500Y9510000D02*
D03*
X357500Y9502500D02*
D03*
X782500Y9592500D02*
D03*
X657500Y9647500D02*
D03*
X992500Y10072500D02*
D03*
X990000Y10187500D02*
D03*
X237500Y10012500D02*
D03*
Y10152500D02*
D03*
X330000Y10232500D02*
D03*
X487500Y10225000D02*
D03*
X7407500Y4250000D02*
D03*
X7402500Y4785000D02*
D03*
X1971194Y7273234D02*
D03*
X2153470Y7360176D02*
D03*
X2640000Y6732500D02*
D03*
X2730000Y6507500D02*
D03*
X727500Y4517500D02*
D03*
X560000Y4365000D02*
D03*
X260000Y1447500D02*
D03*
X962005Y1643775D02*
D03*
X1384505Y1976275D02*
D03*
X827005Y2761275D02*
D03*
X1495000Y4187500D02*
D03*
X2890000D02*
D03*
X2915000Y4412500D02*
D03*
X1500000Y4415000D02*
D03*
X925000Y4620000D02*
D03*
X1510000Y4617500D02*
D03*
X2950000Y4620000D02*
D03*
X727500Y2227500D02*
D03*
X180000Y2882500D02*
D03*
X322500Y4040000D02*
D03*
X440000Y4237500D02*
D03*
X1527500Y4010000D02*
D03*
X4105000Y7860000D02*
D03*
X3239940Y7435800D02*
D03*
X325000Y1325000D02*
D03*
X7275000Y200000D02*
D03*
Y975000D02*
D03*
X8050000D02*
D03*
Y200000D02*
D03*
X8683009Y4852218D02*
D03*
X8483009Y5477218D02*
D03*
X4190000Y7222500D02*
D03*
X4825000Y7192500D02*
D03*
X5875000Y7500000D02*
D03*
X5825000Y7225000D02*
D03*
X5675000Y7100000D02*
D03*
X3125000Y6650000D02*
D03*
X4368456Y6782102D02*
D03*
X3930000Y7062500D02*
D03*
X3775000Y6900000D02*
D03*
X4075000Y6842500D02*
D03*
X3687500Y6815000D02*
D03*
X3550000Y6550000D02*
D03*
X7177500Y4477500D02*
D03*
Y4725000D02*
D03*
X8795000Y4575001D02*
D03*
X8060000Y5452500D02*
D03*
X7372500Y5040000D02*
D03*
X7395000Y4372500D02*
D03*
X1425000Y1525000D02*
D03*
X3725000Y6050000D02*
D03*
X4030000Y6112500D02*
D03*
X4052500Y6230000D02*
D03*
X3927500Y6167500D02*
D03*
X3810000Y6195000D02*
D03*
X6902500Y2507500D02*
D03*
X7122500Y417500D02*
D03*
X2920000Y7117500D02*
D03*
X7863452Y3858890D02*
D03*
X7915000Y3997500D02*
D03*
X7795000Y4765000D02*
D03*
X7922500Y4675000D02*
D03*
Y4535000D02*
D03*
X5600000Y5850000D02*
D03*
X4800000Y6625000D02*
D03*
X4750000Y5875000D02*
D03*
X5600000Y6625000D02*
D03*
X5550000Y4550000D02*
D03*
X4750000Y3775000D02*
D03*
Y4550000D02*
D03*
X5550000Y3775000D02*
D03*
X4050000Y975000D02*
D03*
X4450000Y2900000D02*
D03*
X5225000Y200000D02*
D03*
Y975000D02*
D03*
X4450000D02*
D03*
Y200000D02*
D03*
X3275000D02*
D03*
Y975000D02*
D03*
X4050000Y200000D02*
D03*
X3650000Y3675000D02*
D03*
Y2900000D02*
D03*
X4450000Y3675000D02*
D03*
X2710000Y6100000D02*
D03*
Y6220000D02*
D03*
X6500000Y4400000D02*
D03*
X6300000D02*
D03*
X6100000D02*
D03*
X6500000Y4600000D02*
D03*
X6300000D02*
D03*
X6100000D02*
D03*
X6500000Y5700000D02*
D03*
X6300000D02*
D03*
X6500000Y5900000D02*
D03*
X6300000D02*
D03*
X6100000Y5700000D02*
D03*
Y5900000D02*
D03*
X4550000Y4225000D02*
D03*
Y4375000D02*
D03*
X4400000D02*
D03*
X4250000D02*
D03*
Y4225000D02*
D03*
X4400000D02*
D03*
X4100000D02*
D03*
Y4375000D02*
D03*
X3827500Y5730000D02*
D03*
X3660000Y5732500D02*
D03*
X3397500Y5715000D02*
D03*
X3050000Y5650000D02*
D03*
X2250000Y5500000D02*
D03*
Y5650000D02*
D03*
X2750000Y5700000D02*
D03*
X2875000Y5825000D02*
D03*
X2275000Y6300000D02*
D03*
X2375000Y6600000D02*
D03*
X2380000Y6155000D02*
D03*
X2375000Y6450000D02*
D03*
X5450000Y5200000D02*
D03*
X5300000D02*
D03*
X5150000D02*
D03*
X5000000D02*
D03*
X4850000D02*
D03*
X4700000D02*
D03*
X4550000D02*
D03*
X4400000D02*
D03*
X4250000D02*
D03*
X4100000D02*
D03*
X3950000D02*
D03*
D93*
X4640000Y11720000D02*
D03*
X4550000Y11850000D02*
D03*
X3575000Y12150000D02*
D03*
X5900000Y9600000D02*
D03*
X7375000Y9250000D02*
D03*
D94*
X4610000Y9320000D02*
D03*
D95*
X6872500Y4017500D02*
D03*
X6870000Y3767500D02*
D03*
%TF.MD5,3bf10e2e06bfa9d5c6b8c44b09690f08*%
M02*
