%TF.GenerationSoftware,Altium Limited,Altium Designer,22.1.2 (22)*%
G04 Layer_Color=8421504*
%FSLAX45Y45*%
%MOMM*%
%TF.SameCoordinates,C5451D44-FA68-4CDD-92CA-08ED0B408621*%
%TF.FilePolarity,Positive*%
%TF.FileFunction,Paste,Top*%
%TF.Part,Single*%
G01*
G75*
%TA.AperFunction,TestPad*%
%ADD10C,0.80000*%
%TA.AperFunction,SMDPad,CuDef*%
%ADD11R,1.05000X0.95000*%
%ADD12R,1.00000X0.60000*%
%ADD13R,0.95000X0.70000*%
%ADD14R,0.60000X1.00000*%
%ADD15R,1.45000X1.25000*%
%ADD16O,1.55000X0.60000*%
%ADD17R,4.20000X1.27000*%
%ADD18R,3.17500X1.27000*%
%ADD19R,0.70000X0.95000*%
%ADD20R,2.70000X1.60000*%
%ADD21R,0.95000X1.05000*%
%ADD22R,1.25000X1.45000*%
%ADD23R,1.40000X1.20000*%
%ADD24R,1.00000X1.00000*%
%ADD25O,1.40000X0.24500*%
%ADD26O,0.24500X1.40000*%
G04:AMPARAMS|DCode=27|XSize=0.95mm|YSize=0.7mm|CornerRadius=0mm|HoleSize=0mm|Usage=FLASHONLY|Rotation=225.000|XOffset=0mm|YOffset=0mm|HoleType=Round|Shape=Rectangle|*
%AMROTATEDRECTD27*
4,1,4,0.08839,0.58336,0.58336,0.08839,-0.08839,-0.58336,-0.58336,-0.08839,0.08839,0.58336,0.0*
%
%ADD27ROTATEDRECTD27*%

G04:AMPARAMS|DCode=28|XSize=0.95mm|YSize=1.05mm|CornerRadius=0mm|HoleSize=0mm|Usage=FLASHONLY|Rotation=135.000|XOffset=0mm|YOffset=0mm|HoleType=Round|Shape=Rectangle|*
%AMROTATEDRECTD28*
4,1,4,0.70711,0.03535,-0.03535,-0.70711,-0.70711,-0.03535,0.03535,0.70711,0.70711,0.03535,0.0*
%
%ADD28ROTATEDRECTD28*%

%ADD29R,1.27000X4.20000*%
%ADD30P,1.41421X4X360.0*%
G04:AMPARAMS|DCode=31|XSize=1.397mm|YSize=3.556mm|CornerRadius=0mm|HoleSize=0mm|Usage=FLASHONLY|Rotation=225.000|XOffset=0mm|YOffset=0mm|HoleType=Round|Shape=Rectangle|*
%AMROTATEDRECTD31*
4,1,4,-0.76332,1.75115,1.75115,-0.76332,0.76332,-1.75115,-1.75115,0.76332,-0.76332,1.75115,0.0*
%
%ADD31ROTATEDRECTD31*%

%ADD32R,1.05000X0.60000*%
%ADD33R,1.00000X1.00000*%
%ADD34R,0.90000X0.39500*%
%ADD35R,0.60000X1.05000*%
%ADD36R,1.25000X1.75000*%
%ADD37R,1.80000X5.70000*%
%ADD38R,2.00000X2.00000*%
%ADD39R,0.30000X0.60000*%
%ADD42R,1.80000X1.60000*%
%ADD43R,1.20000X1.00000*%
%ADD44O,0.80000X1.20000*%
%ADD45R,0.35000X1.60000*%
%ADD46O,0.39500X1.10000*%
%ADD47R,1.10000X0.60000*%
%ADD48O,0.60000X1.55000*%
%ADD49R,3.00000X3.10000*%
%ADD50R,1.45000X0.35000*%
%ADD51R,1.60000X2.70000*%
%ADD52C,7.50000*%
%ADD54R,19.20000X6.55000*%
%ADD55R,1.30000X1.80000*%
%ADD56R,2.40000X3.30000*%
G04:AMPARAMS|DCode=57|XSize=1.9mm|YSize=3.2mm|CornerRadius=0mm|HoleSize=0mm|Usage=FLASHONLY|Rotation=180.000|XOffset=0mm|YOffset=0mm|HoleType=Round|Shape=Octagon|*
%AMOCTAGOND57*
4,1,8,0.47500,-1.60000,-0.47500,-1.60000,-0.95000,-1.12500,-0.95000,1.12500,-0.47500,1.60000,0.47500,1.60000,0.95000,1.12500,0.95000,-1.12500,0.47500,-1.60000,0.0*
%
%ADD57OCTAGOND57*%

%ADD58R,0.60000X1.40000*%
%ADD59R,0.60000X1.80000*%
%ADD60R,1.60000X1.80000*%
%ADD61R,2.00000X2.00000*%
%ADD62R,0.60000X0.30000*%
%ADD65R,3.40000X2.00000*%
%ADD66R,3.50000X1.78000*%
%ADD67R,1.80000X1.30000*%
%ADD68R,1.78000X3.50000*%
%ADD69R,3.30000X2.40000*%
%ADD70C,0.35000*%
%TA.AperFunction,OtherPad,Pad Q3-L (35.425mm,51.935mm)*%
G04:AMPARAMS|DCode=111|XSize=0.28mm|YSize=0.72mm|CornerRadius=0.0742mm|HoleSize=0mm|Usage=FLASHONLY|Rotation=180.000|XOffset=0mm|YOffset=0mm|HoleType=Round|Shape=RoundedRectangle|*
%AMROUNDEDRECTD111*
21,1,0.28000,0.57160,0,0,180.0*
21,1,0.13160,0.72000,0,0,180.0*
1,1,0.14840,-0.06580,0.28580*
1,1,0.14840,0.06580,0.28580*
1,1,0.14840,0.06580,-0.28580*
1,1,0.14840,-0.06580,-0.28580*
%
%ADD111ROUNDEDRECTD111*%
%TA.AperFunction,OtherPad,Pad Q3-K (36.075mm,51.935mm)*%
G04:AMPARAMS|DCode=112|XSize=0.28mm|YSize=0.72mm|CornerRadius=0.0742mm|HoleSize=0mm|Usage=FLASHONLY|Rotation=180.000|XOffset=0mm|YOffset=0mm|HoleType=Round|Shape=RoundedRectangle|*
%AMROUNDEDRECTD112*
21,1,0.28000,0.57160,0,0,180.0*
21,1,0.13160,0.72000,0,0,180.0*
1,1,0.14840,-0.06580,0.28580*
1,1,0.14840,0.06580,0.28580*
1,1,0.14840,0.06580,-0.28580*
1,1,0.14840,-0.06580,-0.28580*
%
%ADD112ROUNDEDRECTD112*%
%TA.AperFunction,OtherPad,Pad Q3-J (36.725mm,51.935mm)*%
G04:AMPARAMS|DCode=113|XSize=0.28mm|YSize=0.72mm|CornerRadius=0.0742mm|HoleSize=0mm|Usage=FLASHONLY|Rotation=180.000|XOffset=0mm|YOffset=0mm|HoleType=Round|Shape=RoundedRectangle|*
%AMROUNDEDRECTD113*
21,1,0.28000,0.57160,0,0,180.0*
21,1,0.13160,0.72000,0,0,180.0*
1,1,0.14840,-0.06580,0.28580*
1,1,0.14840,0.06580,0.28580*
1,1,0.14840,0.06580,-0.28580*
1,1,0.14840,-0.06580,-0.28580*
%
%ADD113ROUNDEDRECTD113*%
%TA.AperFunction,OtherPad,Pad Q3-I (37.375mm,51.935mm)*%
G04:AMPARAMS|DCode=114|XSize=0.28mm|YSize=0.72mm|CornerRadius=0.0742mm|HoleSize=0mm|Usage=FLASHONLY|Rotation=180.000|XOffset=0mm|YOffset=0mm|HoleType=Round|Shape=RoundedRectangle|*
%AMROUNDEDRECTD114*
21,1,0.28000,0.57160,0,0,180.0*
21,1,0.13160,0.72000,0,0,180.0*
1,1,0.14840,-0.06580,0.28580*
1,1,0.14840,0.06580,0.28580*
1,1,0.14840,0.06580,-0.28580*
1,1,0.14840,-0.06580,-0.28580*
%
%ADD114ROUNDEDRECTD114*%
%TA.AperFunction,OtherPad,Pad Q3-A (37.375mm,55.455mm)*%
G04:AMPARAMS|DCode=115|XSize=0.28mm|YSize=0.52mm|CornerRadius=0.0742mm|HoleSize=0mm|Usage=FLASHONLY|Rotation=180.000|XOffset=0mm|YOffset=0mm|HoleType=Round|Shape=RoundedRectangle|*
%AMROUNDEDRECTD115*
21,1,0.28000,0.37160,0,0,180.0*
21,1,0.13160,0.52000,0,0,180.0*
1,1,0.14840,-0.06580,0.18580*
1,1,0.14840,0.06580,0.18580*
1,1,0.14840,0.06580,-0.18580*
1,1,0.14840,-0.06580,-0.18580*
%
%ADD115ROUNDEDRECTD115*%
%TA.AperFunction,OtherPad,Pad Q3-D (36.725mm,55.455mm)*%
G04:AMPARAMS|DCode=116|XSize=0.28mm|YSize=0.52mm|CornerRadius=0.0742mm|HoleSize=0mm|Usage=FLASHONLY|Rotation=180.000|XOffset=0mm|YOffset=0mm|HoleType=Round|Shape=RoundedRectangle|*
%AMROUNDEDRECTD116*
21,1,0.28000,0.37160,0,0,180.0*
21,1,0.13160,0.52000,0,0,180.0*
1,1,0.14840,-0.06580,0.18580*
1,1,0.14840,0.06580,0.18580*
1,1,0.14840,0.06580,-0.18580*
1,1,0.14840,-0.06580,-0.18580*
%
%ADD116ROUNDEDRECTD116*%
%TA.AperFunction,OtherPad,Pad Q3-E (36.075mm,55.455mm)*%
G04:AMPARAMS|DCode=117|XSize=0.28mm|YSize=0.52mm|CornerRadius=0.0742mm|HoleSize=0mm|Usage=FLASHONLY|Rotation=180.000|XOffset=0mm|YOffset=0mm|HoleType=Round|Shape=RoundedRectangle|*
%AMROUNDEDRECTD117*
21,1,0.28000,0.37160,0,0,180.0*
21,1,0.13160,0.52000,0,0,180.0*
1,1,0.14840,-0.06580,0.18580*
1,1,0.14840,0.06580,0.18580*
1,1,0.14840,0.06580,-0.18580*
1,1,0.14840,-0.06580,-0.18580*
%
%ADD117ROUNDEDRECTD117*%
%TA.AperFunction,OtherPad,Pad Q3-B (36.725mm,54.805mm)*%
G04:AMPARAMS|DCode=118|XSize=0.32mm|YSize=1.58mm|CornerRadius=0.0752mm|HoleSize=0mm|Usage=FLASHONLY|Rotation=270.000|XOffset=0mm|YOffset=0mm|HoleType=Round|Shape=RoundedRectangle|*
%AMROUNDEDRECTD118*
21,1,0.32000,1.42960,0,0,270.0*
21,1,0.16960,1.58000,0,0,270.0*
1,1,0.15040,-0.71480,-0.08480*
1,1,0.15040,-0.71480,0.08480*
1,1,0.15040,0.71480,0.08480*
1,1,0.15040,0.71480,-0.08480*
%
%ADD118ROUNDEDRECTD118*%
%TA.AperFunction,OtherPad,Pad Q3-C (35.425mm,55.24mm)*%
G04:AMPARAMS|DCode=119|XSize=0.28mm|YSize=0.95mm|CornerRadius=0.0742mm|HoleSize=0mm|Usage=FLASHONLY|Rotation=180.000|XOffset=0mm|YOffset=0mm|HoleType=Round|Shape=RoundedRectangle|*
%AMROUNDEDRECTD119*
21,1,0.28000,0.80160,0,0,180.0*
21,1,0.13160,0.95000,0,0,180.0*
1,1,0.14840,-0.06580,0.40080*
1,1,0.14840,0.06580,0.40080*
1,1,0.14840,0.06580,-0.40080*
1,1,0.14840,-0.06580,-0.40080*
%
%ADD119ROUNDEDRECTD119*%
%TA.AperFunction,OtherPad,Pad Q3-F (36.4mm,53.2mm)*%
G04:AMPARAMS|DCode=120|XSize=1.11mm|YSize=1.25mm|CornerRadius=0.07215mm|HoleSize=0mm|Usage=FLASHONLY|Rotation=180.000|XOffset=0mm|YOffset=0mm|HoleType=Round|Shape=RoundedRectangle|*
%AMROUNDEDRECTD120*
21,1,1.11000,1.10570,0,0,180.0*
21,1,0.96570,1.25000,0,0,180.0*
1,1,0.14430,-0.48285,0.55285*
1,1,0.14430,0.48285,0.55285*
1,1,0.14430,0.48285,-0.55285*
1,1,0.14430,-0.48285,-0.55285*
%
%ADD120ROUNDEDRECTD120*%
%TA.AperFunction,OtherPad,Pad Q3-G (37.375mm,53.2mm)*%
G04:AMPARAMS|DCode=121|XSize=0.28mm|YSize=1.25mm|CornerRadius=0.0742mm|HoleSize=0mm|Usage=FLASHONLY|Rotation=180.000|XOffset=0mm|YOffset=0mm|HoleType=Round|Shape=RoundedRectangle|*
%AMROUNDEDRECTD121*
21,1,0.28000,1.10160,0,0,180.0*
21,1,0.13160,1.25000,0,0,180.0*
1,1,0.14840,-0.06580,0.55080*
1,1,0.14840,0.06580,0.55080*
1,1,0.14840,0.06580,-0.55080*
1,1,0.14840,-0.06580,-0.55080*
%
%ADD121ROUNDEDRECTD121*%
%TA.AperFunction,OtherPad,Pad Q3-H (35.425mm,53.2mm)*%
G04:AMPARAMS|DCode=122|XSize=0.28mm|YSize=1.25mm|CornerRadius=0.0742mm|HoleSize=0mm|Usage=FLASHONLY|Rotation=180.000|XOffset=0mm|YOffset=0mm|HoleType=Round|Shape=RoundedRectangle|*
%AMROUNDEDRECTD122*
21,1,0.28000,1.10160,0,0,180.0*
21,1,0.13160,1.25000,0,0,180.0*
1,1,0.14840,-0.06580,0.55080*
1,1,0.14840,0.06580,0.55080*
1,1,0.14840,0.06580,-0.55080*
1,1,0.14840,-0.06580,-0.55080*
%
%ADD122ROUNDEDRECTD122*%
%TA.AperFunction,OtherPad,Pad Q4-L (31.825mm,51.935mm)*%
G04:AMPARAMS|DCode=123|XSize=0.28mm|YSize=0.72mm|CornerRadius=0.0742mm|HoleSize=0mm|Usage=FLASHONLY|Rotation=180.000|XOffset=0mm|YOffset=0mm|HoleType=Round|Shape=RoundedRectangle|*
%AMROUNDEDRECTD123*
21,1,0.28000,0.57160,0,0,180.0*
21,1,0.13160,0.72000,0,0,180.0*
1,1,0.14840,-0.06580,0.28580*
1,1,0.14840,0.06580,0.28580*
1,1,0.14840,0.06580,-0.28580*
1,1,0.14840,-0.06580,-0.28580*
%
%ADD123ROUNDEDRECTD123*%
%TA.AperFunction,OtherPad,Pad Q4-K (32.475mm,51.935mm)*%
G04:AMPARAMS|DCode=124|XSize=0.28mm|YSize=0.72mm|CornerRadius=0.0742mm|HoleSize=0mm|Usage=FLASHONLY|Rotation=180.000|XOffset=0mm|YOffset=0mm|HoleType=Round|Shape=RoundedRectangle|*
%AMROUNDEDRECTD124*
21,1,0.28000,0.57160,0,0,180.0*
21,1,0.13160,0.72000,0,0,180.0*
1,1,0.14840,-0.06580,0.28580*
1,1,0.14840,0.06580,0.28580*
1,1,0.14840,0.06580,-0.28580*
1,1,0.14840,-0.06580,-0.28580*
%
%ADD124ROUNDEDRECTD124*%
%TA.AperFunction,OtherPad,Pad Q4-J (33.125mm,51.935mm)*%
G04:AMPARAMS|DCode=125|XSize=0.28mm|YSize=0.72mm|CornerRadius=0.0742mm|HoleSize=0mm|Usage=FLASHONLY|Rotation=180.000|XOffset=0mm|YOffset=0mm|HoleType=Round|Shape=RoundedRectangle|*
%AMROUNDEDRECTD125*
21,1,0.28000,0.57160,0,0,180.0*
21,1,0.13160,0.72000,0,0,180.0*
1,1,0.14840,-0.06580,0.28580*
1,1,0.14840,0.06580,0.28580*
1,1,0.14840,0.06580,-0.28580*
1,1,0.14840,-0.06580,-0.28580*
%
%ADD125ROUNDEDRECTD125*%
%TA.AperFunction,OtherPad,Pad Q4-I (33.775mm,51.935mm)*%
G04:AMPARAMS|DCode=126|XSize=0.28mm|YSize=0.72mm|CornerRadius=0.0742mm|HoleSize=0mm|Usage=FLASHONLY|Rotation=180.000|XOffset=0mm|YOffset=0mm|HoleType=Round|Shape=RoundedRectangle|*
%AMROUNDEDRECTD126*
21,1,0.28000,0.57160,0,0,180.0*
21,1,0.13160,0.72000,0,0,180.0*
1,1,0.14840,-0.06580,0.28580*
1,1,0.14840,0.06580,0.28580*
1,1,0.14840,0.06580,-0.28580*
1,1,0.14840,-0.06580,-0.28580*
%
%ADD126ROUNDEDRECTD126*%
%TA.AperFunction,OtherPad,Pad Q4-A (33.775mm,55.455mm)*%
G04:AMPARAMS|DCode=127|XSize=0.28mm|YSize=0.52mm|CornerRadius=0.0742mm|HoleSize=0mm|Usage=FLASHONLY|Rotation=180.000|XOffset=0mm|YOffset=0mm|HoleType=Round|Shape=RoundedRectangle|*
%AMROUNDEDRECTD127*
21,1,0.28000,0.37160,0,0,180.0*
21,1,0.13160,0.52000,0,0,180.0*
1,1,0.14840,-0.06580,0.18580*
1,1,0.14840,0.06580,0.18580*
1,1,0.14840,0.06580,-0.18580*
1,1,0.14840,-0.06580,-0.18580*
%
%ADD127ROUNDEDRECTD127*%
%TA.AperFunction,OtherPad,Pad Q4-D (33.125mm,55.455mm)*%
G04:AMPARAMS|DCode=128|XSize=0.28mm|YSize=0.52mm|CornerRadius=0.0742mm|HoleSize=0mm|Usage=FLASHONLY|Rotation=180.000|XOffset=0mm|YOffset=0mm|HoleType=Round|Shape=RoundedRectangle|*
%AMROUNDEDRECTD128*
21,1,0.28000,0.37160,0,0,180.0*
21,1,0.13160,0.52000,0,0,180.0*
1,1,0.14840,-0.06580,0.18580*
1,1,0.14840,0.06580,0.18580*
1,1,0.14840,0.06580,-0.18580*
1,1,0.14840,-0.06580,-0.18580*
%
%ADD128ROUNDEDRECTD128*%
%TA.AperFunction,OtherPad,Pad Q4-E (32.475mm,55.455mm)*%
G04:AMPARAMS|DCode=129|XSize=0.28mm|YSize=0.52mm|CornerRadius=0.0742mm|HoleSize=0mm|Usage=FLASHONLY|Rotation=180.000|XOffset=0mm|YOffset=0mm|HoleType=Round|Shape=RoundedRectangle|*
%AMROUNDEDRECTD129*
21,1,0.28000,0.37160,0,0,180.0*
21,1,0.13160,0.52000,0,0,180.0*
1,1,0.14840,-0.06580,0.18580*
1,1,0.14840,0.06580,0.18580*
1,1,0.14840,0.06580,-0.18580*
1,1,0.14840,-0.06580,-0.18580*
%
%ADD129ROUNDEDRECTD129*%
%TA.AperFunction,OtherPad,Pad Q4-B (33.125mm,54.805mm)*%
G04:AMPARAMS|DCode=130|XSize=0.32mm|YSize=1.58mm|CornerRadius=0.0752mm|HoleSize=0mm|Usage=FLASHONLY|Rotation=270.000|XOffset=0mm|YOffset=0mm|HoleType=Round|Shape=RoundedRectangle|*
%AMROUNDEDRECTD130*
21,1,0.32000,1.42960,0,0,270.0*
21,1,0.16960,1.58000,0,0,270.0*
1,1,0.15040,-0.71480,-0.08480*
1,1,0.15040,-0.71480,0.08480*
1,1,0.15040,0.71480,0.08480*
1,1,0.15040,0.71480,-0.08480*
%
%ADD130ROUNDEDRECTD130*%
%TA.AperFunction,OtherPad,Pad Q4-C (31.825mm,55.24mm)*%
G04:AMPARAMS|DCode=131|XSize=0.28mm|YSize=0.95mm|CornerRadius=0.0742mm|HoleSize=0mm|Usage=FLASHONLY|Rotation=180.000|XOffset=0mm|YOffset=0mm|HoleType=Round|Shape=RoundedRectangle|*
%AMROUNDEDRECTD131*
21,1,0.28000,0.80160,0,0,180.0*
21,1,0.13160,0.95000,0,0,180.0*
1,1,0.14840,-0.06580,0.40080*
1,1,0.14840,0.06580,0.40080*
1,1,0.14840,0.06580,-0.40080*
1,1,0.14840,-0.06580,-0.40080*
%
%ADD131ROUNDEDRECTD131*%
%TA.AperFunction,OtherPad,Pad Q4-F (32.8mm,53.2mm)*%
G04:AMPARAMS|DCode=132|XSize=1.11mm|YSize=1.25mm|CornerRadius=0.07215mm|HoleSize=0mm|Usage=FLASHONLY|Rotation=180.000|XOffset=0mm|YOffset=0mm|HoleType=Round|Shape=RoundedRectangle|*
%AMROUNDEDRECTD132*
21,1,1.11000,1.10570,0,0,180.0*
21,1,0.96570,1.25000,0,0,180.0*
1,1,0.14430,-0.48285,0.55285*
1,1,0.14430,0.48285,0.55285*
1,1,0.14430,0.48285,-0.55285*
1,1,0.14430,-0.48285,-0.55285*
%
%ADD132ROUNDEDRECTD132*%
%TA.AperFunction,OtherPad,Pad Q4-G (33.775mm,53.2mm)*%
G04:AMPARAMS|DCode=133|XSize=0.28mm|YSize=1.25mm|CornerRadius=0.0742mm|HoleSize=0mm|Usage=FLASHONLY|Rotation=180.000|XOffset=0mm|YOffset=0mm|HoleType=Round|Shape=RoundedRectangle|*
%AMROUNDEDRECTD133*
21,1,0.28000,1.10160,0,0,180.0*
21,1,0.13160,1.25000,0,0,180.0*
1,1,0.14840,-0.06580,0.55080*
1,1,0.14840,0.06580,0.55080*
1,1,0.14840,0.06580,-0.55080*
1,1,0.14840,-0.06580,-0.55080*
%
%ADD133ROUNDEDRECTD133*%
%TA.AperFunction,OtherPad,Pad Q4-H (31.825mm,53.2mm)*%
G04:AMPARAMS|DCode=134|XSize=0.28mm|YSize=1.25mm|CornerRadius=0.0742mm|HoleSize=0mm|Usage=FLASHONLY|Rotation=180.000|XOffset=0mm|YOffset=0mm|HoleType=Round|Shape=RoundedRectangle|*
%AMROUNDEDRECTD134*
21,1,0.28000,1.10160,0,0,180.0*
21,1,0.13160,1.25000,0,0,180.0*
1,1,0.14840,-0.06580,0.55080*
1,1,0.14840,0.06580,0.55080*
1,1,0.14840,0.06580,-0.55080*
1,1,0.14840,-0.06580,-0.55080*
%
%ADD134ROUNDEDRECTD134*%
%TA.AperFunction,OtherPad,Pad Q2-L (31.825mm,46.99mm)*%
G04:AMPARAMS|DCode=135|XSize=0.28mm|YSize=0.72mm|CornerRadius=0.0742mm|HoleSize=0mm|Usage=FLASHONLY|Rotation=180.000|XOffset=0mm|YOffset=0mm|HoleType=Round|Shape=RoundedRectangle|*
%AMROUNDEDRECTD135*
21,1,0.28000,0.57160,0,0,180.0*
21,1,0.13160,0.72000,0,0,180.0*
1,1,0.14840,-0.06580,0.28580*
1,1,0.14840,0.06580,0.28580*
1,1,0.14840,0.06580,-0.28580*
1,1,0.14840,-0.06580,-0.28580*
%
%ADD135ROUNDEDRECTD135*%
%TA.AperFunction,OtherPad,Pad Q2-K (32.475mm,46.99mm)*%
G04:AMPARAMS|DCode=136|XSize=0.28mm|YSize=0.72mm|CornerRadius=0.0742mm|HoleSize=0mm|Usage=FLASHONLY|Rotation=180.000|XOffset=0mm|YOffset=0mm|HoleType=Round|Shape=RoundedRectangle|*
%AMROUNDEDRECTD136*
21,1,0.28000,0.57160,0,0,180.0*
21,1,0.13160,0.72000,0,0,180.0*
1,1,0.14840,-0.06580,0.28580*
1,1,0.14840,0.06580,0.28580*
1,1,0.14840,0.06580,-0.28580*
1,1,0.14840,-0.06580,-0.28580*
%
%ADD136ROUNDEDRECTD136*%
%TA.AperFunction,OtherPad,Pad Q2-J (33.125mm,46.99mm)*%
G04:AMPARAMS|DCode=137|XSize=0.28mm|YSize=0.72mm|CornerRadius=0.0742mm|HoleSize=0mm|Usage=FLASHONLY|Rotation=180.000|XOffset=0mm|YOffset=0mm|HoleType=Round|Shape=RoundedRectangle|*
%AMROUNDEDRECTD137*
21,1,0.28000,0.57160,0,0,180.0*
21,1,0.13160,0.72000,0,0,180.0*
1,1,0.14840,-0.06580,0.28580*
1,1,0.14840,0.06580,0.28580*
1,1,0.14840,0.06580,-0.28580*
1,1,0.14840,-0.06580,-0.28580*
%
%ADD137ROUNDEDRECTD137*%
%TA.AperFunction,OtherPad,Pad Q2-I (33.775mm,46.99mm)*%
G04:AMPARAMS|DCode=138|XSize=0.28mm|YSize=0.72mm|CornerRadius=0.0742mm|HoleSize=0mm|Usage=FLASHONLY|Rotation=180.000|XOffset=0mm|YOffset=0mm|HoleType=Round|Shape=RoundedRectangle|*
%AMROUNDEDRECTD138*
21,1,0.28000,0.57160,0,0,180.0*
21,1,0.13160,0.72000,0,0,180.0*
1,1,0.14840,-0.06580,0.28580*
1,1,0.14840,0.06580,0.28580*
1,1,0.14840,0.06580,-0.28580*
1,1,0.14840,-0.06580,-0.28580*
%
%ADD138ROUNDEDRECTD138*%
%TA.AperFunction,OtherPad,Pad Q2-A (33.775mm,50.51mm)*%
G04:AMPARAMS|DCode=139|XSize=0.28mm|YSize=0.52mm|CornerRadius=0.0742mm|HoleSize=0mm|Usage=FLASHONLY|Rotation=180.000|XOffset=0mm|YOffset=0mm|HoleType=Round|Shape=RoundedRectangle|*
%AMROUNDEDRECTD139*
21,1,0.28000,0.37160,0,0,180.0*
21,1,0.13160,0.52000,0,0,180.0*
1,1,0.14840,-0.06580,0.18580*
1,1,0.14840,0.06580,0.18580*
1,1,0.14840,0.06580,-0.18580*
1,1,0.14840,-0.06580,-0.18580*
%
%ADD139ROUNDEDRECTD139*%
%TA.AperFunction,OtherPad,Pad Q2-D (33.125mm,50.51mm)*%
G04:AMPARAMS|DCode=140|XSize=0.28mm|YSize=0.52mm|CornerRadius=0.0742mm|HoleSize=0mm|Usage=FLASHONLY|Rotation=180.000|XOffset=0mm|YOffset=0mm|HoleType=Round|Shape=RoundedRectangle|*
%AMROUNDEDRECTD140*
21,1,0.28000,0.37160,0,0,180.0*
21,1,0.13160,0.52000,0,0,180.0*
1,1,0.14840,-0.06580,0.18580*
1,1,0.14840,0.06580,0.18580*
1,1,0.14840,0.06580,-0.18580*
1,1,0.14840,-0.06580,-0.18580*
%
%ADD140ROUNDEDRECTD140*%
%TA.AperFunction,OtherPad,Pad Q2-E (32.475mm,50.51mm)*%
G04:AMPARAMS|DCode=141|XSize=0.28mm|YSize=0.52mm|CornerRadius=0.0742mm|HoleSize=0mm|Usage=FLASHONLY|Rotation=180.000|XOffset=0mm|YOffset=0mm|HoleType=Round|Shape=RoundedRectangle|*
%AMROUNDEDRECTD141*
21,1,0.28000,0.37160,0,0,180.0*
21,1,0.13160,0.52000,0,0,180.0*
1,1,0.14840,-0.06580,0.18580*
1,1,0.14840,0.06580,0.18580*
1,1,0.14840,0.06580,-0.18580*
1,1,0.14840,-0.06580,-0.18580*
%
%ADD141ROUNDEDRECTD141*%
%TA.AperFunction,OtherPad,Pad Q2-B (33.125mm,49.86mm)*%
G04:AMPARAMS|DCode=142|XSize=0.32mm|YSize=1.58mm|CornerRadius=0.0752mm|HoleSize=0mm|Usage=FLASHONLY|Rotation=270.000|XOffset=0mm|YOffset=0mm|HoleType=Round|Shape=RoundedRectangle|*
%AMROUNDEDRECTD142*
21,1,0.32000,1.42960,0,0,270.0*
21,1,0.16960,1.58000,0,0,270.0*
1,1,0.15040,-0.71480,-0.08480*
1,1,0.15040,-0.71480,0.08480*
1,1,0.15040,0.71480,0.08480*
1,1,0.15040,0.71480,-0.08480*
%
%ADD142ROUNDEDRECTD142*%
%TA.AperFunction,OtherPad,Pad Q2-C (31.825mm,50.295mm)*%
G04:AMPARAMS|DCode=143|XSize=0.28mm|YSize=0.95mm|CornerRadius=0.0742mm|HoleSize=0mm|Usage=FLASHONLY|Rotation=180.000|XOffset=0mm|YOffset=0mm|HoleType=Round|Shape=RoundedRectangle|*
%AMROUNDEDRECTD143*
21,1,0.28000,0.80160,0,0,180.0*
21,1,0.13160,0.95000,0,0,180.0*
1,1,0.14840,-0.06580,0.40080*
1,1,0.14840,0.06580,0.40080*
1,1,0.14840,0.06580,-0.40080*
1,1,0.14840,-0.06580,-0.40080*
%
%ADD143ROUNDEDRECTD143*%
%TA.AperFunction,OtherPad,Pad Q2-F (32.8mm,48.255mm)*%
G04:AMPARAMS|DCode=144|XSize=1.11mm|YSize=1.25mm|CornerRadius=0.07215mm|HoleSize=0mm|Usage=FLASHONLY|Rotation=180.000|XOffset=0mm|YOffset=0mm|HoleType=Round|Shape=RoundedRectangle|*
%AMROUNDEDRECTD144*
21,1,1.11000,1.10570,0,0,180.0*
21,1,0.96570,1.25000,0,0,180.0*
1,1,0.14430,-0.48285,0.55285*
1,1,0.14430,0.48285,0.55285*
1,1,0.14430,0.48285,-0.55285*
1,1,0.14430,-0.48285,-0.55285*
%
%ADD144ROUNDEDRECTD144*%
%TA.AperFunction,OtherPad,Pad Q2-G (33.775mm,48.255mm)*%
G04:AMPARAMS|DCode=145|XSize=0.28mm|YSize=1.25mm|CornerRadius=0.0742mm|HoleSize=0mm|Usage=FLASHONLY|Rotation=180.000|XOffset=0mm|YOffset=0mm|HoleType=Round|Shape=RoundedRectangle|*
%AMROUNDEDRECTD145*
21,1,0.28000,1.10160,0,0,180.0*
21,1,0.13160,1.25000,0,0,180.0*
1,1,0.14840,-0.06580,0.55080*
1,1,0.14840,0.06580,0.55080*
1,1,0.14840,0.06580,-0.55080*
1,1,0.14840,-0.06580,-0.55080*
%
%ADD145ROUNDEDRECTD145*%
%TA.AperFunction,OtherPad,Pad Q2-H (31.825mm,48.255mm)*%
G04:AMPARAMS|DCode=146|XSize=0.28mm|YSize=1.25mm|CornerRadius=0.0742mm|HoleSize=0mm|Usage=FLASHONLY|Rotation=180.000|XOffset=0mm|YOffset=0mm|HoleType=Round|Shape=RoundedRectangle|*
%AMROUNDEDRECTD146*
21,1,0.28000,1.10160,0,0,180.0*
21,1,0.13160,1.25000,0,0,180.0*
1,1,0.14840,-0.06580,0.55080*
1,1,0.14840,0.06580,0.55080*
1,1,0.14840,0.06580,-0.55080*
1,1,0.14840,-0.06580,-0.55080*
%
%ADD146ROUNDEDRECTD146*%
%TA.AperFunction,OtherPad,Pad Q1-L (35.425mm,46.99mm)*%
G04:AMPARAMS|DCode=147|XSize=0.28mm|YSize=0.72mm|CornerRadius=0.0742mm|HoleSize=0mm|Usage=FLASHONLY|Rotation=180.000|XOffset=0mm|YOffset=0mm|HoleType=Round|Shape=RoundedRectangle|*
%AMROUNDEDRECTD147*
21,1,0.28000,0.57160,0,0,180.0*
21,1,0.13160,0.72000,0,0,180.0*
1,1,0.14840,-0.06580,0.28580*
1,1,0.14840,0.06580,0.28580*
1,1,0.14840,0.06580,-0.28580*
1,1,0.14840,-0.06580,-0.28580*
%
%ADD147ROUNDEDRECTD147*%
%TA.AperFunction,OtherPad,Pad Q1-K (36.075mm,46.99mm)*%
G04:AMPARAMS|DCode=148|XSize=0.28mm|YSize=0.72mm|CornerRadius=0.0742mm|HoleSize=0mm|Usage=FLASHONLY|Rotation=180.000|XOffset=0mm|YOffset=0mm|HoleType=Round|Shape=RoundedRectangle|*
%AMROUNDEDRECTD148*
21,1,0.28000,0.57160,0,0,180.0*
21,1,0.13160,0.72000,0,0,180.0*
1,1,0.14840,-0.06580,0.28580*
1,1,0.14840,0.06580,0.28580*
1,1,0.14840,0.06580,-0.28580*
1,1,0.14840,-0.06580,-0.28580*
%
%ADD148ROUNDEDRECTD148*%
%TA.AperFunction,OtherPad,Pad Q1-J (36.725mm,46.99mm)*%
G04:AMPARAMS|DCode=149|XSize=0.28mm|YSize=0.72mm|CornerRadius=0.0742mm|HoleSize=0mm|Usage=FLASHONLY|Rotation=180.000|XOffset=0mm|YOffset=0mm|HoleType=Round|Shape=RoundedRectangle|*
%AMROUNDEDRECTD149*
21,1,0.28000,0.57160,0,0,180.0*
21,1,0.13160,0.72000,0,0,180.0*
1,1,0.14840,-0.06580,0.28580*
1,1,0.14840,0.06580,0.28580*
1,1,0.14840,0.06580,-0.28580*
1,1,0.14840,-0.06580,-0.28580*
%
%ADD149ROUNDEDRECTD149*%
%TA.AperFunction,OtherPad,Pad Q1-I (37.375mm,46.99mm)*%
G04:AMPARAMS|DCode=150|XSize=0.28mm|YSize=0.72mm|CornerRadius=0.0742mm|HoleSize=0mm|Usage=FLASHONLY|Rotation=180.000|XOffset=0mm|YOffset=0mm|HoleType=Round|Shape=RoundedRectangle|*
%AMROUNDEDRECTD150*
21,1,0.28000,0.57160,0,0,180.0*
21,1,0.13160,0.72000,0,0,180.0*
1,1,0.14840,-0.06580,0.28580*
1,1,0.14840,0.06580,0.28580*
1,1,0.14840,0.06580,-0.28580*
1,1,0.14840,-0.06580,-0.28580*
%
%ADD150ROUNDEDRECTD150*%
%TA.AperFunction,OtherPad,Pad Q1-A (37.375mm,50.51mm)*%
G04:AMPARAMS|DCode=151|XSize=0.28mm|YSize=0.52mm|CornerRadius=0.0742mm|HoleSize=0mm|Usage=FLASHONLY|Rotation=180.000|XOffset=0mm|YOffset=0mm|HoleType=Round|Shape=RoundedRectangle|*
%AMROUNDEDRECTD151*
21,1,0.28000,0.37160,0,0,180.0*
21,1,0.13160,0.52000,0,0,180.0*
1,1,0.14840,-0.06580,0.18580*
1,1,0.14840,0.06580,0.18580*
1,1,0.14840,0.06580,-0.18580*
1,1,0.14840,-0.06580,-0.18580*
%
%ADD151ROUNDEDRECTD151*%
%TA.AperFunction,OtherPad,Pad Q1-D (36.725mm,50.51mm)*%
G04:AMPARAMS|DCode=152|XSize=0.28mm|YSize=0.52mm|CornerRadius=0.0742mm|HoleSize=0mm|Usage=FLASHONLY|Rotation=180.000|XOffset=0mm|YOffset=0mm|HoleType=Round|Shape=RoundedRectangle|*
%AMROUNDEDRECTD152*
21,1,0.28000,0.37160,0,0,180.0*
21,1,0.13160,0.52000,0,0,180.0*
1,1,0.14840,-0.06580,0.18580*
1,1,0.14840,0.06580,0.18580*
1,1,0.14840,0.06580,-0.18580*
1,1,0.14840,-0.06580,-0.18580*
%
%ADD152ROUNDEDRECTD152*%
%TA.AperFunction,OtherPad,Pad Q1-E (36.075mm,50.51mm)*%
G04:AMPARAMS|DCode=153|XSize=0.28mm|YSize=0.52mm|CornerRadius=0.0742mm|HoleSize=0mm|Usage=FLASHONLY|Rotation=180.000|XOffset=0mm|YOffset=0mm|HoleType=Round|Shape=RoundedRectangle|*
%AMROUNDEDRECTD153*
21,1,0.28000,0.37160,0,0,180.0*
21,1,0.13160,0.52000,0,0,180.0*
1,1,0.14840,-0.06580,0.18580*
1,1,0.14840,0.06580,0.18580*
1,1,0.14840,0.06580,-0.18580*
1,1,0.14840,-0.06580,-0.18580*
%
%ADD153ROUNDEDRECTD153*%
%TA.AperFunction,OtherPad,Pad Q1-B (36.725mm,49.86mm)*%
G04:AMPARAMS|DCode=154|XSize=0.32mm|YSize=1.58mm|CornerRadius=0.0752mm|HoleSize=0mm|Usage=FLASHONLY|Rotation=270.000|XOffset=0mm|YOffset=0mm|HoleType=Round|Shape=RoundedRectangle|*
%AMROUNDEDRECTD154*
21,1,0.32000,1.42960,0,0,270.0*
21,1,0.16960,1.58000,0,0,270.0*
1,1,0.15040,-0.71480,-0.08480*
1,1,0.15040,-0.71480,0.08480*
1,1,0.15040,0.71480,0.08480*
1,1,0.15040,0.71480,-0.08480*
%
%ADD154ROUNDEDRECTD154*%
%TA.AperFunction,OtherPad,Pad Q1-C (35.425mm,50.295mm)*%
G04:AMPARAMS|DCode=155|XSize=0.28mm|YSize=0.95mm|CornerRadius=0.0742mm|HoleSize=0mm|Usage=FLASHONLY|Rotation=180.000|XOffset=0mm|YOffset=0mm|HoleType=Round|Shape=RoundedRectangle|*
%AMROUNDEDRECTD155*
21,1,0.28000,0.80160,0,0,180.0*
21,1,0.13160,0.95000,0,0,180.0*
1,1,0.14840,-0.06580,0.40080*
1,1,0.14840,0.06580,0.40080*
1,1,0.14840,0.06580,-0.40080*
1,1,0.14840,-0.06580,-0.40080*
%
%ADD155ROUNDEDRECTD155*%
%TA.AperFunction,OtherPad,Pad Q1-F (36.4mm,48.255mm)*%
G04:AMPARAMS|DCode=156|XSize=1.11mm|YSize=1.25mm|CornerRadius=0.07215mm|HoleSize=0mm|Usage=FLASHONLY|Rotation=180.000|XOffset=0mm|YOffset=0mm|HoleType=Round|Shape=RoundedRectangle|*
%AMROUNDEDRECTD156*
21,1,1.11000,1.10570,0,0,180.0*
21,1,0.96570,1.25000,0,0,180.0*
1,1,0.14430,-0.48285,0.55285*
1,1,0.14430,0.48285,0.55285*
1,1,0.14430,0.48285,-0.55285*
1,1,0.14430,-0.48285,-0.55285*
%
%ADD156ROUNDEDRECTD156*%
%TA.AperFunction,OtherPad,Pad Q1-G (37.375mm,48.255mm)*%
G04:AMPARAMS|DCode=157|XSize=0.28mm|YSize=1.25mm|CornerRadius=0.0742mm|HoleSize=0mm|Usage=FLASHONLY|Rotation=180.000|XOffset=0mm|YOffset=0mm|HoleType=Round|Shape=RoundedRectangle|*
%AMROUNDEDRECTD157*
21,1,0.28000,1.10160,0,0,180.0*
21,1,0.13160,1.25000,0,0,180.0*
1,1,0.14840,-0.06580,0.55080*
1,1,0.14840,0.06580,0.55080*
1,1,0.14840,0.06580,-0.55080*
1,1,0.14840,-0.06580,-0.55080*
%
%ADD157ROUNDEDRECTD157*%
%TA.AperFunction,OtherPad,Pad Q1-H (35.425mm,48.255mm)*%
G04:AMPARAMS|DCode=158|XSize=0.28mm|YSize=1.25mm|CornerRadius=0.0742mm|HoleSize=0mm|Usage=FLASHONLY|Rotation=180.000|XOffset=0mm|YOffset=0mm|HoleType=Round|Shape=RoundedRectangle|*
%AMROUNDEDRECTD158*
21,1,0.28000,1.10160,0,0,180.0*
21,1,0.13160,1.25000,0,0,180.0*
1,1,0.14840,-0.06580,0.55080*
1,1,0.14840,0.06580,0.55080*
1,1,0.14840,0.06580,-0.55080*
1,1,0.14840,-0.06580,-0.55080*
%
%ADD158ROUNDEDRECTD158*%
%TA.AperFunction,NonConductor*%
%ADD159R,1.40000X0.58000*%
%ADD160R,0.58000X1.40000*%
D10*
X4416351Y8799918D02*
D03*
X2850000Y7840000D02*
D03*
X3160000Y9102500D02*
D03*
X4500000Y10550000D02*
D03*
X2650000Y8900000D02*
D03*
X2575000Y9800000D02*
D03*
X2750000Y10425000D02*
D03*
X2050000Y11455000D02*
D03*
X2760000Y11972500D02*
D03*
X3225000Y12125000D02*
D03*
X3725000Y12025000D02*
D03*
X6955000Y9272500D02*
D03*
X7072500Y9522500D02*
D03*
X6445000Y8907500D02*
D03*
X7207500Y9592500D02*
D03*
X7217500Y11512500D02*
D03*
X7110000Y11482500D02*
D03*
X7097500Y11597500D02*
D03*
X6425000Y10110000D02*
D03*
X6315000Y10120000D02*
D03*
X6245000Y10037500D02*
D03*
X6160000Y10125000D02*
D03*
X6067500Y10067500D02*
D03*
X6000000Y10160000D02*
D03*
D11*
X3837500Y8015000D02*
D03*
X3692500D02*
D03*
X8457500Y11277500D02*
D03*
X8602500D02*
D03*
X8132500Y12000000D02*
D03*
X7987500D02*
D03*
X8615000Y11987500D02*
D03*
X8470000D02*
D03*
X8122500Y10550000D02*
D03*
X7977500D02*
D03*
X7437500Y11352500D02*
D03*
X7292500D02*
D03*
X7347500Y11202500D02*
D03*
X7202500D02*
D03*
X4952500Y11800000D02*
D03*
X5097500D02*
D03*
X3080000Y12242500D02*
D03*
X2935000D02*
D03*
X2520000Y11812500D02*
D03*
X2375000D02*
D03*
X2252500Y11492500D02*
D03*
X2397500D02*
D03*
X2430000Y10730000D02*
D03*
X2285000D02*
D03*
X2255000Y10560000D02*
D03*
X2400000D02*
D03*
X2207500Y10067500D02*
D03*
X2062500D02*
D03*
X4400000Y10057500D02*
D03*
X4545000D02*
D03*
X3460000Y10110000D02*
D03*
X3605000D02*
D03*
X5267500Y9160000D02*
D03*
X5412500D02*
D03*
X4110000Y8787500D02*
D03*
X3965000D02*
D03*
X3430000Y9360000D02*
D03*
X3575000D02*
D03*
X2775000Y9457500D02*
D03*
X2920000D02*
D03*
X2282500Y9022500D02*
D03*
X2427500D02*
D03*
X3440000Y8427500D02*
D03*
X3295000D02*
D03*
X875000Y10357500D02*
D03*
X1020000D02*
D03*
X4205000Y8095000D02*
D03*
X4350000D02*
D03*
X2742500Y6630000D02*
D03*
X2887500D02*
D03*
X3420000Y6625000D02*
D03*
X3275000D02*
D03*
X7840000Y4397500D02*
D03*
X7695000D02*
D03*
X7995000Y4367500D02*
D03*
X8140000D02*
D03*
X7698640Y3946481D02*
D03*
X7553640D02*
D03*
X3237500Y2830000D02*
D03*
X3382500D02*
D03*
D12*
X4667500Y8445000D02*
D03*
Y8540000D02*
D03*
Y8635000D02*
D03*
X4392500D02*
D03*
Y8445000D02*
D03*
D13*
X4547500Y8267500D02*
D03*
Y8137500D02*
D03*
X7795000Y9672500D02*
D03*
Y9542500D02*
D03*
X7850000Y12864999D02*
D03*
Y12735000D02*
D03*
X7450000Y12864999D02*
D03*
Y12735000D02*
D03*
X7075000Y12864999D02*
D03*
Y12735000D02*
D03*
X6700000Y12864999D02*
D03*
Y12735000D02*
D03*
X4182500Y12560000D02*
D03*
Y12430000D02*
D03*
X3482500Y12812500D02*
D03*
Y12682500D02*
D03*
X3477500Y12532500D02*
D03*
Y12402500D02*
D03*
X2572500Y10982500D02*
D03*
Y11112500D02*
D03*
X2587500Y10727500D02*
D03*
Y10857500D02*
D03*
X2127500Y10732500D02*
D03*
Y10862500D02*
D03*
X4155000Y9855000D02*
D03*
Y9725000D02*
D03*
X4970000Y10055000D02*
D03*
Y9925000D02*
D03*
X4980000Y9735000D02*
D03*
Y9605000D02*
D03*
X4970000Y9265000D02*
D03*
Y9135000D02*
D03*
X4015000Y9392500D02*
D03*
Y9262500D02*
D03*
X4165000Y9395000D02*
D03*
Y9265000D02*
D03*
X3187500Y9547500D02*
D03*
Y9417500D02*
D03*
X3722500Y8917500D02*
D03*
Y9047500D02*
D03*
X2585995Y7774243D02*
D03*
Y7644243D02*
D03*
X2735995Y7516743D02*
D03*
Y7386743D02*
D03*
X2585995Y7516743D02*
D03*
Y7386743D02*
D03*
X2435995Y7516743D02*
D03*
Y7386743D02*
D03*
X782500Y9832500D02*
D03*
Y9702500D02*
D03*
X932500Y9720000D02*
D03*
Y9850000D02*
D03*
X8525000Y7740000D02*
D03*
Y7610000D02*
D03*
X8025000Y7740000D02*
D03*
Y7610000D02*
D03*
X7500000Y7740000D02*
D03*
Y7610000D02*
D03*
X7000000Y7740000D02*
D03*
Y7610000D02*
D03*
X5025000Y8492500D02*
D03*
Y8362500D02*
D03*
X5120000Y7080000D02*
D03*
Y7210000D02*
D03*
X4970000Y7080000D02*
D03*
Y7210000D02*
D03*
X4362500Y7082500D02*
D03*
Y7212500D02*
D03*
X4370000Y6475000D02*
D03*
Y6345000D02*
D03*
X4212500Y6342500D02*
D03*
Y6472500D02*
D03*
X4062500Y6342500D02*
D03*
Y6472500D02*
D03*
X3912500Y6342500D02*
D03*
Y6472500D02*
D03*
X3220000Y4185000D02*
D03*
Y4315000D02*
D03*
X3762500Y6452500D02*
D03*
Y6322500D02*
D03*
D14*
X5365000Y9587500D02*
D03*
X5270000D02*
D03*
X5175000D02*
D03*
Y9312500D02*
D03*
X5365000D02*
D03*
Y10017500D02*
D03*
X5270000D02*
D03*
X5175000D02*
D03*
Y9742500D02*
D03*
X5365000D02*
D03*
X1720000Y12767500D02*
D03*
X1815000D02*
D03*
X1909999D02*
D03*
Y13042500D02*
D03*
X1720000D02*
D03*
D15*
X7990000Y12415000D02*
D03*
Y12245000D02*
D03*
X4005000Y12427500D02*
D03*
Y12597500D02*
D03*
X2247500Y12992500D02*
D03*
Y13162500D02*
D03*
X3780000Y9717500D02*
D03*
Y9887500D02*
D03*
X3980000Y9827500D02*
D03*
Y9997500D02*
D03*
X4720000Y10555000D02*
D03*
Y10385000D02*
D03*
X242500Y10387500D02*
D03*
Y10557500D02*
D03*
X445000Y10387500D02*
D03*
Y10557500D02*
D03*
X8700000Y7565000D02*
D03*
Y7735000D02*
D03*
X8200000Y7565000D02*
D03*
Y7735000D02*
D03*
X7700000Y7565000D02*
D03*
Y7735000D02*
D03*
X7200000Y7565000D02*
D03*
Y7735000D02*
D03*
X4850000Y8257500D02*
D03*
Y8427500D02*
D03*
X7930000Y5250000D02*
D03*
Y5080000D02*
D03*
X4005000Y12087500D02*
D03*
Y12257500D02*
D03*
D16*
X7995000Y11823000D02*
D03*
Y11696000D02*
D03*
Y11569000D02*
D03*
Y11442000D02*
D03*
X8535000Y11823000D02*
D03*
Y11696000D02*
D03*
Y11569000D02*
D03*
Y11442000D02*
D03*
X8544999Y10729500D02*
D03*
Y10856500D02*
D03*
Y10983500D02*
D03*
Y11110500D02*
D03*
X8004999Y10729500D02*
D03*
Y10856500D02*
D03*
Y10983500D02*
D03*
Y11110500D02*
D03*
D17*
X9150000Y10738000D02*
D03*
Y10992000D02*
D03*
Y11246000D02*
D03*
Y11500000D02*
D03*
Y11754000D02*
D03*
Y12008000D02*
D03*
D18*
X8626798Y9997699D02*
D03*
Y9743699D02*
D03*
Y9489699D02*
D03*
Y9235699D02*
D03*
Y8981699D02*
D03*
X8080698D02*
D03*
Y9235699D02*
D03*
Y9489699D02*
D03*
Y9743699D02*
D03*
Y9997699D02*
D03*
X5546950Y12780000D02*
D03*
Y13034000D02*
D03*
X6093050D02*
D03*
Y12780000D02*
D03*
D19*
X9023197Y9735699D02*
D03*
X8893197D02*
D03*
X9013197Y9480699D02*
D03*
X8883197D02*
D03*
X4580000Y12195000D02*
D03*
X4450000D02*
D03*
X4322500D02*
D03*
X4192500D02*
D03*
X4500000Y12040000D02*
D03*
X4370000D02*
D03*
X1760000Y12612500D02*
D03*
X1890000D02*
D03*
X2105000Y12155000D02*
D03*
X2235000D02*
D03*
X1950000Y12000000D02*
D03*
X2080000D02*
D03*
X2440000Y12305000D02*
D03*
X2570000D02*
D03*
X2307500Y10997500D02*
D03*
X2437500D02*
D03*
X2182500Y11000000D02*
D03*
X2052500D02*
D03*
X1967500Y10747500D02*
D03*
X1837500D02*
D03*
X2477500Y10065000D02*
D03*
X2347500D02*
D03*
X3450000Y10492500D02*
D03*
X3580000D02*
D03*
X3060000Y9772500D02*
D03*
X3190000D02*
D03*
X5020000Y10375000D02*
D03*
X5150000D02*
D03*
X5022500Y10210000D02*
D03*
X5152500D02*
D03*
X4517500Y9427500D02*
D03*
X4387500D02*
D03*
X4300000Y9277500D02*
D03*
X4430000D02*
D03*
X3172500Y8870000D02*
D03*
X3302500D02*
D03*
X3045000Y8717500D02*
D03*
X3175000D02*
D03*
X3295000D02*
D03*
X3425000D02*
D03*
X2282500Y8870000D02*
D03*
X2412500D02*
D03*
X2862500Y8405000D02*
D03*
X2992500D02*
D03*
X2868495Y8149243D02*
D03*
X2998495D02*
D03*
X2973495Y7996743D02*
D03*
X2843495D02*
D03*
X3232500Y7930000D02*
D03*
X3102500D02*
D03*
X8175000Y8670000D02*
D03*
X8045000D02*
D03*
X7605000Y8667500D02*
D03*
X7475000D02*
D03*
X7155000Y8665000D02*
D03*
X7025000D02*
D03*
X9015000Y8525000D02*
D03*
X8885000D02*
D03*
X6750000Y8287500D02*
D03*
X6620000D02*
D03*
X6022500Y7937500D02*
D03*
X6152500D02*
D03*
X5507500Y8805000D02*
D03*
X5377500D02*
D03*
X5275000Y8102500D02*
D03*
X5145000D02*
D03*
X4410000Y8247500D02*
D03*
X4280000D02*
D03*
X3425000Y5910000D02*
D03*
X3295000D02*
D03*
X7465000Y5252500D02*
D03*
X7595000D02*
D03*
X7675000Y4097500D02*
D03*
X7545000D02*
D03*
X7525000Y4247500D02*
D03*
X7655000D02*
D03*
X3797500Y7490000D02*
D03*
X3927500D02*
D03*
X3925000Y7332500D02*
D03*
X3795000D02*
D03*
X2472500Y6605000D02*
D03*
X2602500D02*
D03*
X2472500Y6305000D02*
D03*
X2602500D02*
D03*
X2472500Y6455000D02*
D03*
X2602500D02*
D03*
X2472500Y6155000D02*
D03*
X2602500D02*
D03*
X2695000Y5960000D02*
D03*
X2565000D02*
D03*
D20*
X8978198Y8948199D02*
D03*
Y9208199D02*
D03*
X4180000Y5635000D02*
D03*
Y5375000D02*
D03*
X4505000Y5635000D02*
D03*
Y5375000D02*
D03*
X4830000Y5635000D02*
D03*
Y5375000D02*
D03*
X5155000Y5635000D02*
D03*
Y5375000D02*
D03*
X5480000Y5635000D02*
D03*
Y5375000D02*
D03*
X5485000Y5025001D02*
D03*
Y4765001D02*
D03*
X5160000Y5025001D02*
D03*
Y4765001D02*
D03*
X4835000Y5025001D02*
D03*
Y4765001D02*
D03*
X4510000Y5025001D02*
D03*
Y4765001D02*
D03*
X4185000Y5025001D02*
D03*
Y4765001D02*
D03*
X8710000Y5075000D02*
D03*
Y5335000D02*
D03*
D21*
X7707500Y9985000D02*
D03*
Y9840000D02*
D03*
X7555000Y10025000D02*
D03*
Y9880000D02*
D03*
X6730000Y11037500D02*
D03*
Y11182500D02*
D03*
X5996447Y11563299D02*
D03*
Y11708299D02*
D03*
X4775000Y11827500D02*
D03*
Y11972500D02*
D03*
X2072500Y12777500D02*
D03*
Y12922501D02*
D03*
X1560000Y12882500D02*
D03*
Y12737500D02*
D03*
X3325000Y12637500D02*
D03*
Y12492500D02*
D03*
X2217500Y11852500D02*
D03*
Y11997500D02*
D03*
X4300000Y10502500D02*
D03*
Y10647500D02*
D03*
X3717500Y10652500D02*
D03*
Y10507500D02*
D03*
X3055000Y9930000D02*
D03*
Y10075000D02*
D03*
X4817500Y9915000D02*
D03*
Y10060000D02*
D03*
X5520000Y9842500D02*
D03*
Y9697500D02*
D03*
X4815000Y9127500D02*
D03*
Y9272500D02*
D03*
X2824671Y8846015D02*
D03*
Y8701015D02*
D03*
X2122500Y9525001D02*
D03*
Y9670000D02*
D03*
X2252171Y8398515D02*
D03*
Y8543515D02*
D03*
X2288495Y7961743D02*
D03*
Y8106743D02*
D03*
X627500Y10355000D02*
D03*
Y10210000D02*
D03*
Y9907500D02*
D03*
Y10052500D02*
D03*
X1082500Y9722500D02*
D03*
Y9867500D02*
D03*
X5802500Y8585000D02*
D03*
Y8440000D02*
D03*
X5552500Y8510000D02*
D03*
Y8365000D02*
D03*
X4207500Y8545000D02*
D03*
Y8400000D02*
D03*
X4802500Y8002500D02*
D03*
Y7857500D02*
D03*
X4800000Y7327500D02*
D03*
Y7472500D02*
D03*
X4075000Y7327500D02*
D03*
Y7472500D02*
D03*
X5750000Y4792500D02*
D03*
Y4647500D02*
D03*
X3940000Y4907500D02*
D03*
Y5052500D02*
D03*
X7752500Y5225000D02*
D03*
Y5080000D02*
D03*
X8137520Y4147140D02*
D03*
Y4002140D02*
D03*
X3940000Y5337500D02*
D03*
Y5482500D02*
D03*
X5750000Y5547500D02*
D03*
Y5692500D02*
D03*
D22*
X6485000Y9732500D02*
D03*
X6655000D02*
D03*
X6595000Y9192500D02*
D03*
X6425000D02*
D03*
X7432500Y11027500D02*
D03*
X7262500D02*
D03*
X6157500Y12525000D02*
D03*
X5987500D02*
D03*
X2270995Y7779243D02*
D03*
X2100995D02*
D03*
X515000Y11890000D02*
D03*
X685000D02*
D03*
X515000Y11690000D02*
D03*
X685000D02*
D03*
X1000000Y2000000D02*
D03*
X1170000D02*
D03*
X565000D02*
D03*
X735000D02*
D03*
X3225000Y4010000D02*
D03*
X3395000D02*
D03*
X3225000Y3010000D02*
D03*
X3395000D02*
D03*
X3225000Y3210000D02*
D03*
X3395000D02*
D03*
X3225000Y3610000D02*
D03*
X3395000D02*
D03*
X3225000Y3410000D02*
D03*
X3395000D02*
D03*
X3225000Y3810000D02*
D03*
X3395000D02*
D03*
D23*
X6429992Y9537492D02*
D03*
X6649992D02*
D03*
Y9377492D02*
D03*
X6429992D02*
D03*
D24*
X6570000Y11050000D02*
D03*
Y11210000D02*
D03*
D25*
X6565000Y10687500D02*
D03*
Y10637500D02*
D03*
Y10587500D02*
D03*
Y10537500D02*
D03*
Y10487500D02*
D03*
Y10437500D02*
D03*
Y10387500D02*
D03*
Y10337500D02*
D03*
Y10287500D02*
D03*
Y10237500D02*
D03*
Y10187500D02*
D03*
Y10137500D02*
D03*
X7405000D02*
D03*
Y10187500D02*
D03*
Y10237500D02*
D03*
Y10287500D02*
D03*
Y10337500D02*
D03*
Y10387500D02*
D03*
Y10437500D02*
D03*
Y10487500D02*
D03*
Y10537500D02*
D03*
Y10587500D02*
D03*
Y10637500D02*
D03*
Y10687500D02*
D03*
D26*
X6710000Y9992500D02*
D03*
X6760000D02*
D03*
X6810000D02*
D03*
X6860000D02*
D03*
X6910000D02*
D03*
X6960000D02*
D03*
X7010000D02*
D03*
X7060000D02*
D03*
X7110000D02*
D03*
X7160000D02*
D03*
X7210000D02*
D03*
X7260000D02*
D03*
Y10832500D02*
D03*
X7210000D02*
D03*
X7160000D02*
D03*
X7110000D02*
D03*
X7060000D02*
D03*
X7010000D02*
D03*
X6960000D02*
D03*
X6910000D02*
D03*
X6860000D02*
D03*
X6810000D02*
D03*
X6760000D02*
D03*
X6710000D02*
D03*
D27*
X6721538Y11763462D02*
D03*
X6813462Y11671538D02*
D03*
X6686538Y11583462D02*
D03*
X6778462Y11491538D02*
D03*
D28*
X6296235Y11478735D02*
D03*
X6398765Y11581265D02*
D03*
D29*
X6480000Y12300000D02*
D03*
X6734000D02*
D03*
X6988000D02*
D03*
X7242000D02*
D03*
X7496000D02*
D03*
X7750000D02*
D03*
D30*
X4888431Y12608431D02*
D03*
X5001568Y12721568D02*
D03*
X2102563Y7553312D02*
D03*
X1989427Y7440175D02*
D03*
D31*
X4906924Y12131924D02*
D03*
X5293076Y12518076D02*
D03*
X5306924Y11881924D02*
D03*
X5693075Y12268076D02*
D03*
D32*
X4365000Y12540000D02*
D03*
Y12445000D02*
D03*
Y12350000D02*
D03*
X4630000D02*
D03*
Y12540000D02*
D03*
X3140000Y12395000D02*
D03*
Y12490000D02*
D03*
Y12585000D02*
D03*
X2875000D02*
D03*
Y12395000D02*
D03*
X2637100Y11964600D02*
D03*
Y12059600D02*
D03*
Y12154600D02*
D03*
X2372100D02*
D03*
Y11964600D02*
D03*
X2133099Y11342801D02*
D03*
Y11247800D02*
D03*
Y11152801D02*
D03*
X2398099D02*
D03*
Y11342801D02*
D03*
X2132500Y10407500D02*
D03*
Y10312500D02*
D03*
Y10217500D02*
D03*
X2397500D02*
D03*
Y10407500D02*
D03*
X3867199Y10675800D02*
D03*
Y10580800D02*
D03*
Y10485800D02*
D03*
X4132199D02*
D03*
Y10675800D02*
D03*
X3335000Y9955000D02*
D03*
Y9860000D02*
D03*
Y9765000D02*
D03*
X3600000D02*
D03*
Y9955000D02*
D03*
X4310000Y8937500D02*
D03*
Y9032500D02*
D03*
Y9127500D02*
D03*
X4045000D02*
D03*
Y8937500D02*
D03*
X3304400Y9208300D02*
D03*
Y9113300D02*
D03*
Y9018300D02*
D03*
X3569400D02*
D03*
Y9208300D02*
D03*
X2669671Y8463515D02*
D03*
Y8558515D02*
D03*
Y8653515D02*
D03*
X2404671D02*
D03*
Y8463515D02*
D03*
X3447500Y8275000D02*
D03*
Y8085000D02*
D03*
X3182500D02*
D03*
Y8180000D02*
D03*
Y8275000D02*
D03*
X2440995Y8104243D02*
D03*
Y8009243D02*
D03*
Y7914243D02*
D03*
X2705995D02*
D03*
Y8104243D02*
D03*
D33*
X1980000Y10220000D02*
D03*
X1820000D02*
D03*
X5010000Y10540000D02*
D03*
X5170000D02*
D03*
D34*
X4555000Y9910000D02*
D03*
Y9780000D02*
D03*
X4335000D02*
D03*
Y9845000D02*
D03*
Y9910000D02*
D03*
D35*
X2275000Y9410000D02*
D03*
X2370000D02*
D03*
X2465000D02*
D03*
Y9675000D02*
D03*
X2275000D02*
D03*
D36*
X2492500Y9212500D02*
D03*
X2207500D02*
D03*
X750000Y7660000D02*
D03*
X1035000D02*
D03*
X882500Y2500000D02*
D03*
X1167500D02*
D03*
X3952500Y4210000D02*
D03*
X3667500D02*
D03*
X3952500Y3980000D02*
D03*
X3667500D02*
D03*
X557500Y7660000D02*
D03*
X272500D02*
D03*
D37*
X675000Y11280000D02*
D03*
X225000D02*
D03*
D38*
X662500Y10705000D02*
D03*
X1062500D02*
D03*
D39*
X762500Y9987500D02*
D03*
X812500D02*
D03*
X862500D02*
D03*
X762500Y10237500D02*
D03*
X812500D02*
D03*
X862500D02*
D03*
D42*
X432500Y9780000D02*
D03*
Y10040000D02*
D03*
D43*
X1095000Y8195000D02*
D03*
Y7865000D02*
D03*
X475000Y1485000D02*
D03*
Y1815000D02*
D03*
X1260000Y1815000D02*
D03*
Y1485000D02*
D03*
X1010000Y1815000D02*
D03*
Y1485000D02*
D03*
X1095000Y8360000D02*
D03*
Y8690000D02*
D03*
X725000Y1485000D02*
D03*
Y1815000D02*
D03*
D44*
X7227000Y8515000D02*
D03*
X6973000D02*
D03*
X7227000Y7885000D02*
D03*
X6973000D02*
D03*
X7727000Y8515000D02*
D03*
X7473000D02*
D03*
X7727000Y7885000D02*
D03*
X7473000D02*
D03*
X8227000Y8515000D02*
D03*
X7973000D02*
D03*
X8227000Y7885000D02*
D03*
X7973000D02*
D03*
X8727000Y8515000D02*
D03*
X8473000D02*
D03*
X8727000Y7885000D02*
D03*
X8473000D02*
D03*
D45*
X5962500Y8150000D02*
D03*
X6027500D02*
D03*
X6092500D02*
D03*
X6157500D02*
D03*
X6222500D02*
D03*
X6287500D02*
D03*
X6352500D02*
D03*
X5962500Y8710000D02*
D03*
X6027500D02*
D03*
X6092500D02*
D03*
X6157500D02*
D03*
X6222500D02*
D03*
X6287500D02*
D03*
X6352500D02*
D03*
D46*
X5387500Y8645000D02*
D03*
X5322500D02*
D03*
X5257500D02*
D03*
X5192500D02*
D03*
X5387500Y8265000D02*
D03*
X5322500D02*
D03*
X5257500D02*
D03*
X5192500D02*
D03*
D47*
X4032500Y8365000D02*
D03*
Y8270000D02*
D03*
Y8175000D02*
D03*
X3772500D02*
D03*
Y8270000D02*
D03*
Y8365000D02*
D03*
D48*
X4242000Y7377500D02*
D03*
X4369000D02*
D03*
X4496000D02*
D03*
X4623000D02*
D03*
X4242000Y7917500D02*
D03*
X4369000D02*
D03*
X4496000D02*
D03*
X4623000D02*
D03*
X4969500Y7382500D02*
D03*
X5096500D02*
D03*
X5223500D02*
D03*
X5350500D02*
D03*
X4969500Y7922500D02*
D03*
X5096500D02*
D03*
X5223500D02*
D03*
X5350500D02*
D03*
D49*
X3160000Y6270000D02*
D03*
D50*
X3442500Y6075000D02*
D03*
Y6140000D02*
D03*
Y6205000D02*
D03*
Y6270000D02*
D03*
Y6335000D02*
D03*
Y6400000D02*
D03*
Y6465000D02*
D03*
X2877500Y6075000D02*
D03*
Y6140000D02*
D03*
Y6205000D02*
D03*
Y6270000D02*
D03*
Y6335000D02*
D03*
Y6400000D02*
D03*
Y6465000D02*
D03*
D51*
X3182500Y6897500D02*
D03*
X3442500D02*
D03*
X8347500Y4610000D02*
D03*
X8087500D02*
D03*
D52*
X6170000Y5160000D02*
D03*
X4050000Y3290000D02*
D03*
X7675000Y600000D02*
D03*
X4850000D02*
D03*
X3650000D02*
D03*
X5160000Y4160000D02*
D03*
X5180000Y6250000D02*
D03*
D54*
X1930000Y5032500D02*
D03*
Y3187500D02*
D03*
D55*
X1170000Y2250000D02*
D03*
X880000D02*
D03*
X7610000Y5465000D02*
D03*
X7900000D02*
D03*
D56*
X3275000Y2295000D02*
D03*
X3935000D02*
D03*
X3270000Y1595000D02*
D03*
X3930000D02*
D03*
X5800000Y3980000D02*
D03*
X6460000D02*
D03*
X5780000Y6320000D02*
D03*
X6440000D02*
D03*
D57*
X8290000Y5357500D02*
D03*
D58*
X8440000Y5087500D02*
D03*
X8140000D02*
D03*
D59*
X8290000Y5107500D02*
D03*
D60*
X7487500Y4585000D02*
D03*
X7747500D02*
D03*
D61*
X8492500Y4332500D02*
D03*
Y3932500D02*
D03*
D62*
X7781140Y4233980D02*
D03*
Y4183980D02*
D03*
Y4133980D02*
D03*
X8031140Y4233980D02*
D03*
Y4183980D02*
D03*
Y4133980D02*
D03*
D65*
X9200000Y2585000D02*
D03*
Y2065000D02*
D03*
X8650000Y2610000D02*
D03*
Y2090000D02*
D03*
X8227500Y2610000D02*
D03*
Y2090000D02*
D03*
X7805000Y2092500D02*
D03*
Y2612500D02*
D03*
D66*
X7375000Y2063500D02*
D03*
X7375000Y2586500D02*
D03*
D67*
X6700000Y13320000D02*
D03*
Y13030000D02*
D03*
X7075000Y13320000D02*
D03*
Y13030000D02*
D03*
X7450000Y13320000D02*
D03*
Y13030000D02*
D03*
X7850000Y13320000D02*
D03*
Y13030000D02*
D03*
D68*
X8598020Y1673860D02*
D03*
X9121020Y1673860D02*
D03*
D69*
X6617500Y257500D02*
D03*
Y917500D02*
D03*
X5917500Y917500D02*
D03*
Y257500D02*
D03*
D70*
X3630000Y4390000D02*
D03*
X3690000D02*
D03*
X3778787Y4446213D02*
D03*
X3821213Y4403787D02*
D03*
D111*
X3542500Y5193500D02*
D03*
D112*
X3607500D02*
D03*
D113*
X3672500D02*
D03*
D114*
X3737500D02*
D03*
D115*
Y5545500D02*
D03*
D116*
X3672500D02*
D03*
D117*
X3607500D02*
D03*
D118*
X3672500Y5480500D02*
D03*
D119*
X3542500Y5524000D02*
D03*
D120*
X3640000Y5320000D02*
D03*
D121*
X3737500D02*
D03*
D122*
X3542500D02*
D03*
D123*
X3182500Y5193500D02*
D03*
D124*
X3247500D02*
D03*
D125*
X3312500D02*
D03*
D126*
X3377500D02*
D03*
D127*
Y5545500D02*
D03*
D128*
X3312500D02*
D03*
D129*
X3247500D02*
D03*
D130*
X3312500Y5480500D02*
D03*
D131*
X3182500Y5524000D02*
D03*
D132*
X3280000Y5320000D02*
D03*
D133*
X3377500D02*
D03*
D134*
X3182500D02*
D03*
D135*
Y4699001D02*
D03*
D136*
X3247500D02*
D03*
D137*
X3312500D02*
D03*
D138*
X3377500D02*
D03*
D139*
Y5051000D02*
D03*
D140*
X3312500D02*
D03*
D141*
X3247500D02*
D03*
D142*
X3312500Y4986000D02*
D03*
D143*
X3182500Y5029500D02*
D03*
D144*
X3280000Y4825500D02*
D03*
D145*
X3377500D02*
D03*
D146*
X3182500D02*
D03*
D147*
X3542500Y4699001D02*
D03*
D148*
X3607500D02*
D03*
D149*
X3672500D02*
D03*
D150*
X3737500D02*
D03*
D151*
Y5051000D02*
D03*
D152*
X3672500D02*
D03*
D153*
X3607500D02*
D03*
D154*
X3672500Y4986000D02*
D03*
D155*
X3542500Y5029500D02*
D03*
D156*
X3640000Y4825500D02*
D03*
D157*
X3737500D02*
D03*
D158*
X3542500D02*
D03*
D159*
X812500Y10112488D02*
D03*
D160*
X7906140Y4183980D02*
D03*
%TF.MD5,1e0c85fc50c1e3f155e79c56b4005b3a*%
M02*
