M48
;Layer_Color=9474304
;FILE_FORMAT=4:4
METRIC
;TYPE=PLATED
T1F00S00C0.2540
T2F00S00C0.5000
T3F00S00C0.9000
T4F00S00C1.0000
T5F00S00C1.2200
T6F00S00C1.7000
T7F00S00C2.7500
T8F00S00C5.5000
%
T01
X00777000Y00407000
X00761500Y00439750
X00379000Y00461000
X00368000Y00461000
X00358000Y00461000
X00346000Y00461000
X00335000Y00461000
X00324000Y00461000
X00312000Y00463000
X00312250Y00482250
X00321000Y00479000
X00321000Y00490000
X00335000Y00490000
X00335000Y00479000
X00346250Y00478750
X00357000Y00479000
X00357000Y00490000
X00346000Y00490000
X00349500Y00505250
X00346000Y00512000
X00335000Y00512000
X00325500Y00512250
X00321000Y00528450
X00311000Y00528000
X00311000Y00539000
X00321000Y00539450
X00335000Y00539450
X00335000Y00528450
X00346000Y00528000
X00346000Y00539000
X00357000Y00539450
X00357000Y00528450
X00371000Y00528450
X00371000Y00539450
X00382000Y00539000
X00382000Y00528000
X00382000Y00515000
X00382000Y00504000
X00372000Y00512000
X00361000Y00512000
X00371000Y00490000
X00371000Y00479000
X00380000Y00484000
X00380000Y00473000
X00310500Y00504000
X00311750Y00555094
X00348000Y00555344
X00357500Y00607500
X00357750Y00621000
X00327000Y00616000
X00327000Y00627000
X00316000Y00627000
X00316000Y00616000
X00305000Y00616000
X00305000Y00627000
X00305000Y00638000
X00316000Y00638000
X00327000Y00638000
X00277000Y00692000
X00255000Y00692000
X00235000Y00691000
X00224437Y00692164
X00221081Y00700650
X00218728Y00711159
X00206000Y00696000
X00205750Y00684750
X00220000Y00675000
X00209000Y00659000
X00194250Y00671750
X00177000Y00690250
X00164000Y00691750
X00148250Y00693750
X00164000Y00721000
X00183000Y00708000
X00162123Y00617113
X00175391Y00601239
X00191977Y00585838
X00209000Y00579000
X00209000Y00616000
X00146722Y00631092
X00121250Y00607250
X00134396Y00591815
X00153102Y00580233
X00170440Y00562735
X00154000Y00546000
X00122421Y00546232
X00087229Y00541986
X00086250Y00561500
X00079750Y00579500
X00073250Y00591500
X00061500Y00604250
X00053151Y00523583
X00040200Y00529718
X00024297Y00533807
X00069735Y00519040
X00085000Y00508000
X00085000Y00482000
X00069750Y00481000
X00053378Y00474737
X00040201Y00467240
X00024500Y00457250
X00187939Y00546841
X00188315Y00750026
X00174480Y00761006
X00149776Y00759359
X00140224Y00760018
X00134514Y00752113
X00137660Y00735262
X00133087Y00727957
X00147000Y00738000
X00164055Y00744643
X00157023Y00778134
X00136161Y00799435
X00198500Y00814500
X00216750Y00877750
X00187000Y00885000
X00175000Y00885000
X00159000Y00885000
X00142500Y00885000
X00125000Y00885000
X00093750Y00995000
X00059500Y00978000
X00205750Y00986000
X00187000Y01011000
X00175000Y01034000
X00159000Y01046000
X00142000Y01058000
X00199250Y01055250
X00185000Y01088000
X00245000Y01086750
X00272500Y01097500
X00297500Y01095000
X00322500Y01122500
X00355000Y01075000
X00362500Y01032500
X00390000Y01032500
X00390000Y01012500
X00385000Y01000000
X00345000Y01000000
X00320000Y00995000
X00307500Y01020000
X00332500Y01045000
X00335000Y00965000
X00363750Y00958000
X00380500Y00957500
X00400000Y00960000
X00401250Y00948000
X00393250Y00947500
X00385000Y00938750
X00373250Y00921250
X00366250Y00913500
X00343000Y00914250
X00344500Y00898750
X00354000Y00876750
X00362750Y00875500
X00352000Y00865500
X00345750Y00858250
X00361500Y00845250
X00377500Y00860750
X00381750Y00897500
X00392000Y00915000
X00418000Y00903500
X00453000Y00901500
X00469750Y00901250
X00470000Y00918500
X00453250Y00919000
X00453500Y00932000
X00461000Y00932000
X00430250Y00937250
X00423250Y00948750
X00416500Y00951500
X00430000Y00970000
X00459250Y00967500
X00464750Y00989250
X00470750Y00994000
X00462500Y01015000
X00452500Y01032500
X00427500Y01030000
X00425000Y01012500
X00420000Y01057500
X00402500Y01070000
X00502000Y01073750
X00505250Y01085000
X00505250Y01096500
X00505250Y01108000
X00505250Y01119500
X00486250Y01029000
X00486000Y01022000
X00485000Y00965000
X00490500Y00942250
X00516000Y00944000
X00525000Y00972000
X00549000Y01010000
X00549000Y01024000
X00548000Y01037000
X00564000Y01036000
X00564000Y01023000
X00564250Y01005500
X00589250Y00998000
X00586000Y00985000
X00587000Y00970000
X00588250Y01016500
X00596500Y01049250
X00607000Y01054250
X00615500Y01038250
X00493500Y00883750
X00454000Y00880000
X00432000Y00878000
X00408250Y00845000
X00331750Y00829000
X00331750Y00816250
X00302894Y00828657
X00306000Y00852000
X00276750Y00842000
X00256658Y00834698
X00250732Y00845815
X00236675Y00836245
X00222639Y00829346
X00263152Y00875782
X00235000Y00922500
X00245000Y00952500
X00287500Y00958750
X00286000Y00933000
X00306000Y00939250
X00305500Y00914750
X00225000Y01022500
X00226500Y01043750
X00617750Y01059250
X00628500Y01064000
X00639000Y01069250
X00647750Y01077250
X00650250Y01089250
X00644750Y01111250
X00637250Y01118250
X00685500Y01115000
X00776000Y01094000
X00762000Y01055000
X00784000Y01017000
X00732626Y00994784
X00711822Y00981764
X00712750Y00965500
X00701500Y00969000
X00690250Y00962750
X00678000Y00969000
X00678000Y00950000
X00672000Y00924000
X00657000Y00906000
X00634000Y00906000
X00631000Y00932000
X00624000Y00953000
X00637000Y00966000
X00637000Y00977000
X00638000Y00994000
X00657000Y00994000
X00658000Y01007000
X00668000Y00988000
X00683750Y00988250
X00624000Y00983000
X00629750Y01125500
X00690250Y01149500
X00505000Y01142000
X00505000Y01130750
X00499000Y01159000
X00473000Y01160000
X00455000Y01150000
X00417500Y01167500
X00392500Y01157500
X00380000Y01147500
X00337500Y01140000
X00330000Y01165000
X00345000Y01177500
X00365000Y01187500
X00394500Y01195000
X00406500Y01195000
X00417250Y01205000
X00415500Y01232000
X00386000Y01245500
X00385000Y01216250
X00385500Y01204750
X00345000Y01215000
X00335500Y01235500
X00301250Y01240500
X00301000Y01266000
X00308000Y01307000
X00336000Y01279000
X00322500Y01200000
X00305000Y01187500
X00290000Y01170000
X00268750Y01144000
X00226750Y01136500
X00226250Y01124750
X00251250Y01194750
X00250500Y01209000
X00437500Y01187500
X00489500Y01193750
X00501000Y01228000
X00197000Y01212000
X00196000Y01188000
X00208500Y01184250
X00198500Y01161250
X00161000Y01210000
T02
X00032500Y00132500
X00026000Y00144750
X00096201Y00164377
X00087000Y00193250
X00087000Y00205250
X00072750Y00222750
X00082701Y00276127
X00018000Y00288250
X00138450Y00197628
X00142500Y00152500
X00141951Y00138127
X00327500Y00097500
X00405000Y00097500
X00445000Y00097500
X00522500Y00097500
X00522500Y00020000
X00445000Y00020000
X00405000Y00020000
X00327500Y00020000
X00365000Y00290000
X00445000Y00290000
X00690250Y00250750
X00710750Y00081500
X00727500Y00097500
X00712250Y00041750
X00727500Y00020000
X00805000Y00020000
X00805000Y00097500
X00786345Y00385889
X00791500Y00399750
X00792250Y00453500
X00792250Y00467500
X00779500Y00476500
X00740250Y00478500
X00737250Y00504000
X00717750Y00472500
X00717750Y00447750
X00739500Y00437250
X00740750Y00425000
X00650000Y00440000
X00630000Y00440000
X00630000Y00460000
X00650000Y00460000
X00650000Y00570000
X00630000Y00570000
X00630000Y00590000
X00650000Y00590000
X00806000Y00545250
X00848301Y00547722
X00868301Y00485222
X00879500Y00457500
X00610000Y00460000
X00610000Y00440000
X00555000Y00455000
X00560000Y00520000
X00545000Y00520000
X00530000Y00520000
X00515000Y00520000
X00500000Y00520000
X00485000Y00520000
X00470000Y00520000
X00455000Y00520000
X00440000Y00520000
X00425000Y00520000
X00410000Y00520000
X00395000Y00520000
X00382750Y00573000
X00366000Y00573250
X00339750Y00571500
X00305000Y00565000
X00275000Y00570000
X00287500Y00582500
X00271000Y00610000
X00271000Y00622000
X00273000Y00650750
X00264000Y00673250
X00237500Y00660000
X00237500Y00645000
X00227500Y00630000
X00238000Y00615500
X00225000Y00565000
X00225000Y00550000
X00224961Y00461152
X00295000Y00462000
X00291500Y00441250
X00289000Y00418750
X00281500Y00401250
X00365000Y00367500
X00410000Y00392500
X00425000Y00392500
X00440000Y00392500
X00455000Y00392500
X00455000Y00407500
X00455000Y00422500
X00440000Y00422500
X00440000Y00407500
X00425000Y00407500
X00425000Y00422500
X00410000Y00422500
X00410000Y00407500
X00410000Y00437500
X00425000Y00437500
X00440000Y00437500
X00455000Y00437500
X00475000Y00455000
X00475000Y00377500
X00445000Y00367500
X00555000Y00377500
X00560000Y00585000
X00610000Y00590000
X00610000Y00570000
X00560000Y00662500
X00567500Y00710000
X00582500Y00722500
X00482500Y00719250
X00480000Y00662500
X00436846Y00678210
X00407500Y00684250
X00398250Y00692750
X00393000Y00706250
X00377500Y00690000
X00368750Y00681500
X00355000Y00655000
X00312500Y00665000
X00292000Y00711750
X00419000Y00722250
X00405250Y00623000
X00403000Y00611250
X00392750Y00616750
X00381000Y00619500
X00372500Y00605000
X00475000Y00587500
X00151000Y00461750
X00150000Y00441500
X00149500Y00418750
X00152750Y00401000
X00092500Y00462000
X00072750Y00451750
X00056000Y00436500
X00044000Y00423750
X00032250Y00404000
X00012380Y00605504
X00032046Y00726813
X00109995Y00799881
X00188140Y00735952
X00197119Y00727323
X00215347Y00736018
X00078250Y00959250
X00065750Y00964750
X00064750Y00951000
X00035750Y00950250
X00023750Y01001250
X00023750Y01015250
X00033000Y01023250
X00048750Y01022500
X00099000Y01018750
X00099250Y01007250
X00270000Y01025000
X00258250Y01056000
X00272500Y01110000
X00332500Y01067500
X00350000Y01025000
X00355000Y00948000
X00296500Y00925750
X00442500Y00955250
X00453000Y00851250
X00471000Y00823250
X00502750Y00809500
X00545750Y00809750
X00568750Y00820000
X00587250Y00827250
X00579250Y00802000
X00590500Y00795500
X00555750Y00785500
X00587500Y00750000
X00580250Y00872750
X00580000Y00885000
X00577500Y00905750
X00553913Y00912673
X00549000Y00932000
X00545000Y00896000
X00528000Y00889250
X00524500Y00876500
X00532500Y00852000
X00552750Y00864250
X00505250Y00862500
X00601000Y00914000
X00590000Y00960000
X00564000Y00970000
X00567000Y01051250
X00546000Y01055000
X00534000Y01055000
X00485500Y01058250
X00489750Y01047500
X00601000Y01027000
X00410750Y00796750
X00410500Y00786000
X00368750Y00754000
X00323994Y00743580
X00660500Y00815750
X00660750Y00842250
X00649000Y00873500
X00618750Y00887500
X00737500Y00900000
X00762500Y00900000
X00782500Y00920000
X00737500Y00925000
X00755000Y00965000
X00782750Y00982000
X00743750Y01005500
X00725500Y01020000
X00726000Y01035000
X00725500Y01050750
X00725500Y01066000
X00706250Y01064000
X00706250Y01048500
X00706000Y01033750
X00706750Y01018000
X00689250Y01018500
X00689750Y01033500
X00690000Y01048750
X00689500Y01064000
X00673000Y01064000
X00673500Y01048250
X00671250Y01034000
X00671000Y01019000
X00735750Y01082750
X00748000Y01082750
X00747750Y01119500
X00784431Y01048722
X00879000Y01073000
X00881000Y01090000
X00919000Y01036000
X00934000Y01025000
X00893070Y00999320
X00882807Y00962028
X00877500Y00882500
X00837500Y00882500
X00930000Y00832500
X00695000Y00832500
X00682500Y01136250
X00656000Y01134000
X00645000Y01129000
X00647000Y01141000
X00637000Y01137000
X00699500Y01162500
X00743000Y01149250
X00780000Y01167500
X00784000Y01200000
X00792000Y01258000
X00802000Y01267000
X00802000Y01280000
X00812000Y01334000
X00765000Y01316000
X00647000Y01260000
X00632250Y01259000
X00631500Y01246750
X00626750Y01231750
X00879000Y01203000
X00879000Y01174000
X00593500Y01188500
X00573250Y01194500
X00545000Y01225000
X00591000Y01238000
X00607750Y01221250
X00520000Y01277500
X00485000Y01280000
X00365000Y01282500
X00369000Y01245500
X00357500Y01215000
X00375000Y01177500
X00455000Y01185000
X00464000Y01172000
X00317500Y01142500
X00252000Y01141250
X00225250Y01171250
X00276250Y01248250
X00201000Y01264000
X00220000Y01285000
X00208000Y01306000
X00169000Y01290000
X00164000Y01259000
X00143750Y01305750
X00143750Y01316500
X00037000Y01198000
X00036000Y01185000
X00036000Y01171000
X00046000Y01151000
T03
X00051250Y00806500
X00051250Y00841500
X00051500Y00899250
X00051500Y00934250
T04
X00687000Y00376750
X00687250Y00401750
T05
X00779700Y00307250
X00830500Y00307250
X00881300Y00307250
T06
X00455000Y00149750
X00531000Y00149750
X00721000Y00149750
X00797000Y00149750
T07
X00185000Y00086000
X00230000Y00086000
X00275000Y00086000
X00230000Y00156000
X00230000Y00236000
X00511750Y00277000
X00591750Y00277000
X00661750Y00277000
X00661750Y00322000
X00661750Y00232000
T08
X00070000Y00070000
X00880000Y00070000
X00880000Y00680000
X00070000Y00680000
X00880000Y01280000
X00070000Y01280000
M30
